<svg width="24" height="24" viewBox="0 0 24 24" fill="none" xmlns="http://www.w3.org/2000/svg">
<g clip-path="url(#clip0)">
<path d="M17.8505 8.59948L14.6897 0.531372C14.514 0.101449 14.027 -0.10933 13.5934 0.0567778L5.52528 3.21758C5.0915 3.38926 4.87906 3.88011 5.05069 4.31389L8.23521 12.382C8.4069 12.8158 8.89775 13.0282 9.33153 12.8566L17.3759 9.69579C17.8097 9.52411 18.0221 9.03326 17.8505 8.59948ZM9.07999 11.9311L5.99513 4.08134L13.8449 0.991729L16.9298 8.84626L9.07999 11.9311Z" fill="#2BBCEE"/>
<path d="M10.0579 13.6634H1.41558C0.948993 13.6634 0.570801 14.0416 0.570801 14.5082V23.1553C0.570801 23.6219 0.948993 24.0001 1.41558 24.0001H10.0579C10.5245 24.0001 10.9027 23.6219 10.9027 23.1553V14.5082C10.9027 14.0416 10.5245 13.6634 10.0579 13.6634ZM9.95353 23.0461H1.51999V14.6126H9.95353V23.0461Z" fill="#2BBCEE"/>
<path d="M22.8196 13.6159L14.4668 11.3948C14.0114 11.2837 13.5509 11.5583 13.4322 12.0118L11.2111 20.3647C11.0904 20.8154 11.358 21.2785 11.8087 21.3992C11.8088 21.3992 11.8089 21.3992 11.8091 21.3993L20.1619 23.6204C20.6126 23.741 21.0757 23.4735 21.1964 23.0228C21.1965 23.0227 21.1965 23.0225 21.1965 23.0224L23.3986 14.6505C23.5207 14.2054 23.2629 13.7447 22.8196 13.6159ZM20.309 22.6332L12.1555 20.4928L14.3244 12.344L22.4732 14.5129L20.309 22.6332Z" fill="#2BBCEE"/>
<path d="M14.2868 7.394C14.2006 7.23003 14.0866 7.08231 13.9499 6.95738L11.5769 4.45626L11.2969 4.15252C11.2265 4.07955 11.1486 4.01435 11.0643 3.95794C10.9791 3.89998 10.8817 3.8626 10.7796 3.84878C10.5367 3.83181 10.2992 3.92608 10.1341 4.10506C10.0689 4.18515 10.0234 4.27942 10.0012 4.38033C9.97714 4.49897 9.96599 4.61994 9.96801 4.74102C9.96801 4.87865 9.96801 4.9973 9.96801 5.09696V8.55202C9.9775 8.6944 9.98539 8.80355 9.99174 8.87949C9.99535 8.95085 10.0098 9.02127 10.0344 9.08831C10.0806 9.19966 10.1721 9.28604 10.286 9.32561C10.4015 9.37307 10.5311 9.37307 10.6467 9.32561C10.7642 9.29221 10.858 9.20364 10.8982 9.08831C10.9338 8.90553 10.9466 8.71896 10.9362 8.53303V7.85436L12.8108 7.11874L13.2569 7.59333L13.461 7.79741C13.5192 7.85887 13.5845 7.91303 13.6556 7.95877C13.709 7.99093 13.7691 8.01038 13.8312 8.01572C13.9009 8.02077 13.9708 8.00938 14.0353 7.9825C14.1468 7.9367 14.2367 7.85015 14.2868 7.74046C14.334 7.62982 14.334 7.50464 14.2868 7.394ZM10.8935 7.04755L10.827 4.89289L12.2698 6.50651L10.8935 7.04755Z" fill="#2BBCEE"/>
<path d="M6.92067 18.4615C7.37279 18.2927 7.66941 17.8572 7.66104 17.3747C7.66146 17.2355 7.63731 17.0973 7.58985 16.9665C7.54328 16.8368 7.47417 16.7163 7.38578 16.6106C7.29863 16.5053 7.19434 16.4154 7.07729 16.3448C6.93165 16.2576 6.77046 16.1996 6.60269 16.1739C6.4001 16.143 6.19537 16.1287 5.99047 16.1312H4.41481C4.24389 16.1126 4.07268 16.1639 3.94021 16.2736C3.83195 16.4068 3.78081 16.5774 3.79783 16.7482V20.469C3.78051 20.6391 3.82981 20.8093 3.93547 20.9436C4.06782 21.0573 4.24152 21.1106 4.41481 21.0908H5.92877C6.14975 21.0839 6.37002 21.0633 6.58846 21.0291C6.76756 21.008 6.94316 20.9633 7.11051 20.8962C7.34484 20.7986 7.54477 20.6334 7.68477 20.4216C7.82774 20.1979 7.90202 19.9372 7.89834 19.6717C7.90926 19.0845 7.49701 18.5743 6.92067 18.4615ZM4.80872 16.8953H5.6013C5.87739 16.8811 6.15349 16.923 6.41286 17.0187C6.59231 17.1054 6.6985 17.295 6.67863 17.4933C6.6797 17.6051 6.65015 17.7151 6.5932 17.8113C6.52795 17.9388 6.41559 18.0358 6.27997 18.0818C6.09197 18.1362 5.8965 18.1602 5.70096 18.153H4.78499L4.80872 16.8953ZM6.87796 19.6053C6.87796 20.0925 6.5394 20.3361 5.86233 20.3361H4.78499L4.80872 18.8934H5.8386C6.11196 18.8761 6.38474 18.9353 6.62642 19.0642C6.80066 19.1869 6.89647 19.393 6.87796 19.6053Z" fill="#2BBCEE"/>
<path d="M19.6923 16.1027C19.5712 15.8032 19.3771 15.5388 19.1275 15.3338C18.8522 15.1041 18.5273 14.9417 18.1783 14.8592C17.8696 14.7739 17.5472 14.7497 17.2291 14.788C16.9232 14.8254 16.6288 14.9273 16.3653 15.087C16.0927 15.2549 15.8583 15.478 15.6772 15.742C15.4731 16.0425 15.3237 16.3767 15.2358 16.7291C15.1741 16.954 15.1359 17.1846 15.1219 17.4173C15.1097 17.635 15.124 17.8533 15.1646 18.0675C15.2029 18.2709 15.2667 18.4686 15.3545 18.656C15.4458 18.8483 15.5675 19.0246 15.7151 19.178C15.8622 19.3286 16.0319 19.4551 16.2182 19.553C16.4308 19.6636 16.6553 19.7495 16.8874 19.8093C17.1848 19.8947 17.4964 19.9189 17.8034 19.8804C18.062 19.8406 18.3095 19.7468 18.5295 19.6052C18.7114 19.4915 18.872 19.347 19.0041 19.178C19.1165 19.0381 19.1988 18.8766 19.2461 18.7034C19.2795 18.5916 19.2639 18.471 19.2034 18.3712C19.1458 18.2713 19.0498 18.1992 18.9377 18.1719C18.828 18.1324 18.7061 18.1483 18.6102 18.2146C18.5185 18.2897 18.4399 18.3795 18.3776 18.4804C18.2303 18.6948 18.022 18.8602 17.7796 18.955C17.5329 19.0354 17.267 19.0354 17.0203 18.955C16.7961 18.9114 16.5879 18.8082 16.4176 18.656C16.2528 18.4686 16.1501 18.2348 16.1233 17.9868C16.0915 17.6676 16.1221 17.3452 16.2135 17.0376C16.2981 16.5611 16.5425 16.1276 16.9064 15.8084C17.2104 15.5718 17.6103 15.4975 17.979 15.6091C18.2039 15.6607 18.4076 15.7799 18.5627 15.9508C18.7146 16.14 18.8188 16.363 18.8665 16.601C18.8907 16.727 18.9339 16.8486 18.9946 16.9617C19.0558 17.0467 19.1477 17.1046 19.2509 17.123C19.3594 17.1531 19.4756 17.134 19.5689 17.0708C19.6653 17.0125 19.7351 16.9189 19.7635 16.8098C19.8135 16.5724 19.7886 16.3253 19.6923 16.1027Z" fill="#2BBCEE"/>
</g>
<defs>
<clipPath id="clip0">
<rect width="24" height="24" fill="white"/>
</clipPath>
</defs>
</svg>
