<svg width="30" height="30" viewBox="0 0 30 30" fill="none" xmlns="http://www.w3.org/2000/svg">
    <path d="M29.5622 6.56869C29.5602 6.56869 29.5582 6.56869 29.5562 6.56876H25.5566V3.64934C25.5566 3.40747 25.3606 3.21143 25.1187 3.21143H2.65668C1.19076 3.21464 0.00321137 4.40219 0 5.8681V24.132C0.00321137 25.5979 1.19076 26.7855 2.65668 26.7887H27.3433C28.8092 26.7855 29.9968 25.5979 30 24.132V7.00668C30 6.7648 29.804 6.56876 29.5622 6.56869ZM2.65668 25.9187C1.67444 25.9155 0.879039 25.1201 0.875827 24.1379V5.88562C0.879039 4.90338 1.67451 4.10798 2.65668 4.10477H24.6808V24.132C24.6824 24.7904 24.9279 25.4249 25.3698 25.9129L2.65668 25.9187ZM29.095 24.132C29.0952 25.1053 28.3164 25.8997 27.3433 25.9187C26.376 25.935 25.5788 25.164 25.5625 24.1968C25.5621 24.1771 25.5621 24.1575 25.5625 24.1379V7.45043H29.095V24.132Z" fill="white"/>
    <path d="M21.2651 8H3.61424C3.37237 8 3.17633 8.19604 3.17633 8.43791C3.17633 8.67979 3.37237 8.87583 3.61424 8.87583H21.2651C21.507 8.87583 21.703 8.67979 21.703 8.43791C21.703 8.19604 21.507 8 21.2651 8Z" fill="white"/>
    <path d="M19.3149 11.5499H3.61424C3.37237 11.5499 3.17633 11.746 3.17633 11.9878C3.17633 12.2297 3.37237 12.4258 3.61424 12.4258H19.3149C19.5568 12.4258 19.7528 12.2297 19.7528 11.9878C19.7528 11.746 19.5568 11.5499 19.3149 11.5499Z" fill="white"/>
    <path d="M19.3149 13.8154H3.61424C3.37237 13.8154 3.17633 14.0115 3.17633 14.2533C3.17633 14.4952 3.37237 14.6913 3.61424 14.6913H19.3149C19.5568 14.6913 19.7528 14.4952 19.7528 14.2533C19.7528 14.0115 19.5568 13.8154 19.3149 13.8154Z" fill="white"/>
    <path d="M19.3149 16.0751H3.61424C3.37237 16.0751 3.17633 16.2711 3.17633 16.513C3.17633 16.7549 3.37237 16.9509 3.61424 16.9509H19.3149C19.5568 16.9509 19.7528 16.7549 19.7528 16.513C19.7528 16.2711 19.5568 16.0751 19.3149 16.0751Z" fill="white"/>
    <path d="M19.3149 18.3405H3.61424C3.37237 18.3405 3.17633 18.5365 3.17633 18.7784C3.17633 19.0202 3.37237 19.2163 3.61424 19.2163H19.3149C19.5568 19.2163 19.7528 19.0202 19.7528 18.7784C19.7528 18.5365 19.5568 18.3405 19.3149 18.3405Z" fill="white"/>
    <path d="M19.3149 21H3.61424C3.37237 21 3.17633 21.196 3.17633 21.4379C3.17633 21.6798 3.37237 21.8758 3.61424 21.8758H19.3149C19.5568 21.8758 19.7528 21.6798 19.7528 21.4379C19.7528 21.196 19.5568 21 19.3149 21Z" fill="white"/>
</svg>
