<svg width="16" height="16" viewBox="0 0 16 16" fill="none" xmlns="http://www.w3.org/2000/svg">
    <g clip-path="url(#clip0)">
        <path d="M16 8C16 9.22095 15.7263 10.3782 15.2372 11.4136C14.9714 11.9762 14.6416 12.5028 14.2577 12.9841C13.8801 13.458 13.4498 13.8877 12.9757 14.2645C11.7267 15.2582 10.1737 15.886 8.47839 15.986C8.32031 15.9951 8.16064 16 8 16C7.63037 16 7.26697 15.9749 6.91065 15.9261C5.81189 15.777 4.78406 15.4041 3.87427 14.8552C3.52979 14.6478 3.20264 14.4147 2.89465 14.1593C1.12622 12.6919 0 10.4774 0 8C0 5.52258 1.12622 3.30811 2.89465 1.8407C3.76331 1.12 4.78662 0.579224 5.90759 0.276611C6.57471 0.0959472 7.27612 0 8 0C8.72388 0 9.42529 0.0959472 10.0924 0.276611C10.8855 0.490723 11.6298 0.824219 12.3049 1.2561C12.3412 1.2793 12.3772 1.30286 12.4131 1.32666C12.5541 1.42004 12.6919 1.5177 12.8264 1.61987C13.295 1.97424 13.7228 2.37939 14.1029 2.82715C14.1552 2.88916 14.207 2.95178 14.2577 3.0155C14.6416 3.49683 14.9711 4.0238 15.2372 4.58643C15.7263 5.62183 16 6.77905 16 8Z" fill="#E5E1DC"/>
        <path d="M15.2371 1.38416V11.4136C13.9562 14.1244 11.1969 16 7.99988 16C6.05896 16 4.27966 15.3091 2.89453 14.1593V1.38416C2.89453 0.772217 3.39062 0.276611 4.0022 0.276611H14.1295C14.7411 0.276611 15.2371 0.772217 15.2371 1.38416Z" fill="#512375"/>
        <path d="M14.2579 1.38416V12.9841C12.7924 14.8221 10.5338 16 8.00025 16C6.49072 16 5.0791 15.582 3.87451 14.8552V1.38416C3.87451 1.31335 3.93201 1.2561 4.00256 1.2561H14.1299C14.2004 1.2561 14.2579 1.31335 14.2579 1.38416Z" fill="#FECF32"/>
        <path d="M7.85059 8.14913L4.91663 11.0831C4.78381 11.2159 4.55615 11.1219 4.55615 10.9336V9.9454C4.55615 9.82882 4.46179 9.73422 4.34485 9.73422H0.509766C0.393189 9.73422 0.298828 9.63986 0.298828 9.52291V6.47701C0.298828 6.36044 0.393189 6.26571 0.509766 6.26571H4.34485C4.46179 6.26571 4.55615 6.17135 4.55615 6.05453V5.06637C4.55615 4.87838 4.78381 4.78402 4.91663 4.91683L7.85059 7.85079C7.93286 7.93307 7.93286 8.06686 7.85059 8.14913Z" fill="#3FC37C"/>
        <path d="M7.85083 8.14917L6.30664 9.69336V6.30664L7.85083 7.85083C7.93311 7.93311 7.93311 8.06689 7.85083 8.14917Z" fill="#17A388"/>
        <path d="M14.2577 1.2561L14.1029 2.82715L12.9757 14.2645C11.6101 15.3508 9.88086 16 8 16C7.63037 16 7.26697 15.9749 6.91064 15.9261V2.72522L12.4131 1.32666L12.6903 1.2561H14.2577Z" fill="#512375"/>
        <path d="M14.2578 1.2561V12.9841C13.8802 13.458 13.4499 13.8877 12.9758 14.2645C11.7268 15.2582 10.1738 15.886 8.47852 15.986V2.72522L12.8265 1.61987L14.2578 1.2561Z" fill="#663A91"/>
        <path d="M10.9269 10.1942C10.9269 10.5641 10.6783 10.876 10.3391 10.9717C10.2693 10.9916 10.1951 11.0023 10.1187 11.0023C9.67236 11.0023 9.31055 10.6405 9.31055 10.1942C9.31055 9.7478 9.67236 9.38599 10.1187 9.38599C10.1951 9.38599 10.2693 9.39673 10.3391 9.41675C10.6783 9.51233 10.9269 9.82422 10.9269 10.1942Z" fill="#FDAE2F"/>
        <path d="M10.927 10.1945C10.927 10.5643 10.6785 10.8762 10.3392 10.9719C10 10.8762 9.75146 10.5643 9.75146 10.1945C9.75146 9.82446 10 9.51257 10.3392 9.41699C10.6785 9.51257 10.927 9.82446 10.927 10.1945Z" fill="#FECF32"/>
    </g>
    <defs>
        <clipPath id="clip0">
            <rect width="16" height="16" fill="white"/>
        </clipPath>
    </defs>
</svg>
