<svg width="30" height="30" viewBox="0 0 30 30" fill="none" xmlns="http://www.w3.org/2000/svg">
    <g clip-path="url(#clip0)">
        <path d="M5.92297 26.0033C5.24881 26.6775 4.18942 26.6775 3.56341 26.0033C2.88926 25.3291 2.88926 24.2698 3.56341 23.6437L15.6019 11.6052C16.2761 10.9311 17.3355 10.9311 17.9615 11.6052C18.6356 12.2794 18.6356 13.3388 17.9615 13.9648L5.92297 26.0033Z" fill="#A35D17"/>
        <path d="M17.9615 11.605C18.6356 12.2791 18.6356 13.3385 17.9615 13.9645L5.92295 26.003C5.24879 26.6772 4.1894 26.6772 3.56339 26.003" fill="#6B400C"/>
        <path d="M5.58588 28.9887C4.81541 29.7592 3.61156 29.7592 2.84109 28.9887L0.577849 26.7255C-0.192616 25.955 -0.192616 24.7511 0.577849 23.9807C1.34831 23.2102 2.55217 23.2102 3.32263 23.9807L5.58588 26.2439C6.35634 27.0144 6.35634 28.2182 5.58588 28.9887Z" fill="#F4AD31"/>
        <path d="M3.32262 23.9807L5.58586 26.244C6.35633 27.0144 6.35633 28.2183 5.58586 28.9887C4.8154 29.7592 3.61155 29.7592 2.84108 28.9887" fill="#DD820A"/>
        <path d="M25.7143 16.0835C23.6918 18.1059 21.5249 16.9984 19.5024 14.9759L14.5425 10.0161C12.5201 7.99358 11.4607 5.82664 13.435 3.80417L14.3018 2.9374C16.3242 0.914927 18.4912 2.02247 20.5136 4.04494L25.4735 9.00482C27.496 11.0273 28.5553 13.1942 26.581 15.2167L25.7143 16.0835Z" fill="#F4AD31"/>
        <path d="M20.5136 4.09302L25.4735 9.05288C27.496 11.0754 28.5554 13.2423 26.5811 15.2648L25.7143 16.1315C23.6918 18.154 21.5249 17.0465 19.5024 15.024" fill="#DD820A"/>
        <path d="M12.3756 7.31944C11.9904 7.70467 11.3644 7.70467 10.9791 7.31944C10.5939 6.93421 10.5939 6.3082 10.9791 5.92297L16.3724 0.481552C16.7576 0.0963187 17.3836 0.0963187 17.7689 0.481552C18.1541 0.866785 18.1541 1.49279 17.7689 1.87802L12.3756 7.31944Z" fill="#F4AD31"/>
        <path d="M17.7688 0.481445C18.1541 0.866678 18.1541 1.49268 17.7688 1.87791L12.3756 7.31933C11.9903 7.70456 11.3643 7.70456 10.9791 7.31933" fill="#DD820A"/>
        <path d="M23.6436 18.5874C23.2584 18.9727 22.6324 18.9727 22.2472 18.5874C21.8619 18.2022 21.8619 17.5762 22.2472 17.191L27.6404 11.7977C28.0257 11.4125 28.6517 11.4125 29.0369 11.7977C29.4221 12.1829 29.4221 12.8089 29.0369 13.1942L23.6436 18.5874Z" fill="#F4AD31"/>
        <path d="M29.0851 11.7976C29.4703 12.1828 29.4703 12.8088 29.0851 13.1941L23.6436 18.5873C23.2584 18.9726 22.6324 18.9726 22.2472 18.5873" fill="#DD820A"/>
        <path d="M18.6356 15.2648C18.2985 15.6019 17.7207 15.6019 17.3836 15.2648L14.3499 12.2311C14.0128 11.8941 14.0128 11.3162 14.3499 10.9791C14.687 10.642 15.2648 10.642 15.6019 10.9791L18.6356 14.0128C18.9727 14.3499 18.9727 14.9278 18.6356 15.2648Z" fill="#DD820A"/>
        <path d="M29.4703 24.5105H19.358V28.8444H29.4703V24.5105Z" fill="#D32A0F"/>
        <path d="M19.358 24.5105H29.4703V28.8444" fill="#AF1909"/>
        <path d="M29.9519 29.4221C29.9519 29.6148 29.8074 29.8074 29.5666 29.8074H19.2617C19.0691 29.8074 18.8764 29.6629 18.8764 29.4221V29.1814C18.8764 28.9888 19.0209 28.7961 19.2617 28.7961H29.6148C29.8074 28.7961 30 28.9406 30 29.1814V29.4221H29.9519Z" fill="#AF1909"/>
        <path d="M29.9519 24.1253C29.9519 24.3179 29.8074 24.5105 29.5666 24.5105H19.2617C19.0691 24.5105 18.8764 24.366 18.8764 24.1253V23.8845C18.8764 23.6919 19.0209 23.4993 19.2617 23.4993H29.6148C29.8074 23.4993 30 23.6437 30 23.8845V24.1253H29.9519Z" fill="#AF1909"/>
    </g>
    <defs>
        <clipPath id="clip0">
            <rect width="30" height="30" fill="white"/>
        </clipPath>
    </defs>
</svg>
