<svg width="50" height="50" viewBox="-0.5 -0.5 50 50" fill="none" xmlns="http://www.w3.org/2000/svg">
    <circle cx="24.5" cy="24.5" r="24.5" fill="#FD6096"/>
    <path d="M25.8046 36.1836C25.7038 36.0323 25.5805 36.0211 25.4235 36.0211C22.7221 36.0211 20.0262 36.0211 17.3248 36.0211C16.7307 36.0211 16.6466 35.9314 16.6298 35.3429C16.6298 35.2981 16.6298 35.2476 16.6298 35.2028C16.6298 29.9456 16.6298 24.6885 16.6298 19.4257C16.6298 18.4 16.6298 17.3688 16.6354 16.3431C16.6354 15.9732 16.6915 15.9284 17.0614 15.9172C17.1174 15.9172 17.1735 15.9172 17.2295 15.9172C23.0135 15.9172 28.7919 15.9172 34.5759 15.9172C35.1084 15.9172 35.1364 15.9508 35.1308 16.5001C35.1308 18.9549 35.1308 21.4153 35.1252 23.8702C35.1252 24.0607 35.1812 24.1504 35.3606 24.2121C36.2013 24.5147 36.9579 24.9743 37.6585 25.5348C37.7145 25.5796 37.7762 25.6132 37.8771 25.6749C37.8771 25.5179 37.8771 25.4059 37.8771 25.2994C37.8771 22.9174 37.8827 20.5354 37.8827 18.1534C37.8827 17.0437 37.8771 15.9284 37.8827 14.8187C37.8883 14.2077 37.6249 13.7314 37.1036 13.4567C36.7786 13.283 36.3806 13.1821 36.0107 13.1765C34.5255 13.1485 33.0403 13.1653 31.555 13.1653C26.3259 13.1653 21.0967 13.1653 15.862 13.1653C14.6682 13.1653 13.8779 13.9611 13.8779 15.1605C13.8779 22.4186 13.8779 29.6766 13.8779 36.929C13.8779 38.0387 14.5953 38.7618 15.6994 38.7618C19.6507 38.7674 23.602 38.7618 27.5533 38.7618C27.8784 38.7618 28.1978 38.7618 28.5229 38.7618C28.5285 38.7393 28.5341 38.7169 28.5397 38.6945C28.5117 38.6721 28.4893 38.6441 28.4556 38.6272C27.3795 38.0219 26.494 37.2093 25.8046 36.1836Z" fill="white"/>
    <path d="M16.2319 12.2349C20.5307 12.2349 24.8238 12.2349 29.1226 12.2349C30.6919 12.2349 32.2612 12.2293 33.8305 12.2349C34.0547 12.2349 34.15 12.1788 34.1332 11.9378C34.1164 11.68 34.122 11.4166 34.1332 11.1532C34.1892 10.0042 33.3093 9.52222 32.5134 9.52222C31.9922 9.52222 31.4654 9.52222 30.9441 9.52222C24.7229 9.52222 18.5018 9.52222 12.2806 9.52222C11.1933 9.52222 10.2349 10.475 10.2349 11.5567C10.2293 15.1885 10.2349 18.8259 10.2349 22.4578C10.2349 26.0896 10.2349 29.727 10.2349 33.3588C10.2349 34.3677 10.9971 35.1355 12.0004 35.1411C12.2358 35.1411 12.4656 35.1299 12.701 35.1411C12.8803 35.1523 12.9588 35.0907 12.9476 34.9057C12.9364 34.6927 12.942 34.4741 12.942 34.2612C12.942 28.2474 12.942 22.2336 12.942 16.2142C12.942 15.4183 12.9308 14.6281 12.9532 13.8322C12.9756 12.8122 13.6145 12.2125 14.6402 12.2237C15.167 12.2349 15.6995 12.2349 16.2319 12.2349Z" fill="white"/>
    <path d="M41.2059 38.532C40.3092 37.6352 39.418 36.7273 38.5101 35.8417C38.3083 35.6456 38.2803 35.5111 38.4316 35.2589C39.0874 34.1828 39.39 33.0002 39.4573 31.7279C39.3508 31.1058 39.3059 30.4669 39.1322 29.8616C38.1121 26.2298 34.3907 24.1056 30.7364 25.036C27.8668 25.7646 25.7987 28.197 25.5633 31.2347C25.3784 33.6335 26.2527 35.6512 28.1359 37.1476C30.4842 39.0196 33.4547 39.1877 36.0496 37.6801C36.2402 37.568 36.3467 37.5848 36.498 37.7417C37.4116 38.6665 38.3307 39.5801 39.2499 40.4992C39.8272 41.0765 40.7127 41.1045 41.2564 40.5665C41.8112 40.006 41.7888 39.1205 41.2059 38.532ZM32.4066 36.419C29.8397 36.3966 27.7716 34.2949 27.7884 31.7335C27.8052 29.1386 29.9181 27.048 32.4963 27.0817C35.0744 27.1097 37.1481 29.2058 37.1257 31.756C37.1145 34.3789 35.024 36.4414 32.4066 36.419Z" fill="white"/>
    <path d="M30.6359 20.1766C31.2693 20.1766 31.9082 20.1822 32.5415 20.171C32.9619 20.1654 33.2421 19.9132 33.2981 19.5265C33.399 18.8147 33.2365 18.3719 32.7937 18.243C32.6088 18.1926 32.407 18.1982 32.2108 18.1982C29.3917 18.1982 26.567 18.1982 23.7478 18.1982C22.2626 18.1982 20.7773 18.1926 19.2921 18.1982C18.7428 18.1982 18.4738 18.4784 18.4514 19.0277C18.4458 19.1398 18.4458 19.2518 18.4458 19.3639C18.4626 19.8796 18.7597 20.171 19.2809 20.171C21.4779 20.171 23.6693 20.171 25.8664 20.171C27.4581 20.1766 29.0498 20.1822 30.6359 20.1766Z" fill="white"/>
    <path d="M32.4069 23.6403C32.6759 23.6403 32.9394 23.6067 33.1131 23.3769C33.4158 22.9789 33.3653 22.5194 33.2252 22.0934C33.0963 21.7067 32.7432 21.6562 32.3733 21.6562C30.2155 21.6619 28.0577 21.6619 25.8999 21.6619C23.7029 21.6619 21.5115 21.6619 19.3144 21.6675C19.1351 21.6675 18.9501 21.7235 18.782 21.7908C18.3112 21.9869 18.328 23.2928 18.7652 23.4778C18.9726 23.5674 19.2079 23.6291 19.4321 23.6291C21.4778 23.6403 23.5235 23.6347 25.5692 23.6347C27.8503 23.6347 30.1258 23.6347 32.4069 23.6403Z" fill="white"/>
    <path d="M19.2024 28.5724C18.7653 28.5724 18.4907 28.8582 18.457 29.2898C18.4458 29.4467 18.4402 29.6092 18.4514 29.7662C18.4738 30.2538 18.7709 30.5396 19.2585 30.5396C20.9175 30.5452 22.5821 30.5396 24.241 30.5452C24.4148 30.5452 24.5101 30.5116 24.5381 30.3098C24.5717 30.0688 24.6334 29.8334 24.7062 29.6036C24.8071 29.2674 24.9248 28.9367 25.0369 28.5892C24.9865 28.578 24.9528 28.5668 24.9136 28.5668C23.0136 28.5668 21.108 28.5668 19.2024 28.5724Z" fill="white"/>
    <path d="M32.8999 28.5444C32.3227 28.466 31.6893 28.3763 31.1513 28.5276C30.1817 28.8022 29.5596 29.5477 29.1729 30.5341C30.3835 30.5341 31.538 30.5453 32.6982 30.5285C33.1522 30.5229 33.4996 30.1474 33.5445 29.699C33.5949 29.1105 33.3651 28.6061 32.8999 28.5444Z" fill="white"/>
</svg>
