<svg width="52" height="51" viewBox="0 0 52 51" fill="none" xmlns="http://www.w3.org/2000/svg">
<path d="M35.1274 15.323C34.5805 15.323 34.1366 15.7643 34.1366 16.3102C34.1366 16.8556 34.5805 17.2977 35.1274 17.2977C35.6755 17.2977 36.1183 16.8556 36.1183 16.3102C36.1183 15.7643 35.6755 15.323 35.1274 15.323Z" fill="#2BBCEE"/>
<path d="M17.1243 33.2673C16.5762 33.2673 16.1334 33.7098 16.1334 34.2549C16.1334 34.8012 16.5762 35.2426 17.1243 35.2426C17.6712 35.2426 18.1151 34.8012 18.1151 34.2549C18.1151 33.7098 17.6712 33.2673 17.1243 33.2673Z" fill="#2BBCEE"/>
<path d="M50.2595 6.07594C49.9251 5.99839 49.5736 6.09908 49.3321 6.34213L45.2244 10.469H43.2551L41.0872 8.2302V6.2399L45.1361 2.14394C45.3757 1.90166 45.4733 1.55329 45.3939 1.2219C45.315 0.890888 45.0703 0.62392 44.7468 0.515127C43.7296 0.173314 42.6652 9.3698e-05 41.5827 9.3698e-05C38.3555 9.3698e-05 35.4236 1.50005 33.5387 4.11534C31.7745 6.56358 31.2307 9.56389 32.0098 12.4353L24.7113 19.7102L12.5518 7.5624V5.1782C12.5518 4.83137 12.3691 4.50962 12.0707 4.33138L5.0648 0.140908C4.67466 -0.0924965 4.17576 -0.0311555 3.85451 0.289438L1.05229 3.08219C0.731041 3.40278 0.6695 3.90007 0.903277 4.28895L5.1066 11.2722C5.28542 11.5696 5.60783 11.7513 5.95578 11.7517L8.34696 11.7525L20.5076 23.9003L13.2369 31.1474C10.3561 30.3712 7.34451 30.914 4.88715 32.6736C2.26491 34.5513 0.76123 37.4729 0.76123 40.6896C0.76123 41.7683 0.935014 42.8296 1.27794 43.8431C1.38747 44.1675 1.65802 44.4125 1.99243 44.4897C2.32722 44.5672 2.67827 44.4665 2.92018 44.2235L7.02752 40.097H9.00765L11.2637 42.3458V44.3195L7.12389 48.4136C6.88005 48.6547 6.77903 49.0046 6.85683 49.3383C6.93424 49.6716 7.18001 49.9413 7.50552 50.0505C8.52229 50.3923 9.58706 50.5655 10.6692 50.5655C13.8964 50.5655 16.8272 49.0663 18.7113 46.4526C20.4766 44.0032 21.0212 41.0017 20.2425 38.1303L26.0818 32.3098L27.4195 33.7581L26.8056 34.3696C26.4186 34.7554 26.4186 35.3807 26.8056 35.7665C27.1927 36.1519 27.8197 36.1519 28.2071 35.7665L28.7629 35.2125L41.3133 48.8009C41.3226 48.8109 41.3322 48.8206 41.3419 48.8302C43.6642 51.145 47.4267 51.1457 49.7501 48.8298C52.067 46.5193 52.067 42.7598 49.7501 40.4493C49.7401 40.4392 49.7296 40.4296 49.7192 40.4199L36.0653 27.9342L36.6149 27.3863C37.002 27.0009 37.002 26.3756 36.6149 25.9898C36.2279 25.604 35.6009 25.604 35.2134 25.9898L34.6038 26.5978L33.1481 25.266L39.0158 19.4174C39.8499 19.6396 40.7106 19.7523 41.5827 19.7523C47.0462 19.7523 51.4907 15.3218 51.4907 9.87638C51.4907 8.79732 51.3169 7.73639 50.974 6.72253C50.8644 6.39807 50.5939 6.1531 50.2595 6.07594ZM9.45933 10.0673C9.27355 9.88178 9.02158 9.78726 8.75839 9.78726L6.51739 9.78649L3.00068 3.93402L4.70872 2.23152L10.5702 5.7376V7.97134C10.5702 8.2329 10.6743 8.48367 10.8597 8.66885L23.3102 21.1072L21.9087 22.5037L9.45933 10.0673ZM34.6627 29.3323L48.3629 41.8601C49.8933 43.4017 49.8887 45.8978 48.3486 47.4337C46.8051 48.9722 44.3063 48.9768 42.7566 47.4472L30.1652 33.8144L34.6627 29.3323ZM33.2012 27.9955L28.8217 32.36L27.4841 30.9117L31.7455 26.6637L33.2012 27.9955ZM41.5827 17.777C40.7161 17.777 39.8638 17.6385 39.0502 17.3654C38.6937 17.2462 38.2997 17.338 38.0334 17.603C33.0661 22.5543 22.3627 33.2226 18.4214 37.1515C18.1551 37.4169 18.0626 37.8097 18.183 38.1654C19.0066 40.6032 18.6126 43.2034 17.1016 45.3002C15.5948 47.3908 13.2501 48.5903 10.6692 48.5903C10.3793 48.5903 10.091 48.5744 9.80535 48.544L12.9524 45.4314C13.1398 45.2462 13.2454 44.9939 13.2454 44.7304V41.9365C13.2454 41.6745 13.1409 41.4234 12.9551 41.2382L10.1185 38.4107C9.93269 38.2256 9.68072 38.1214 9.41792 38.1214H6.61493C6.35057 38.1214 6.09744 38.2267 5.91127 38.4134L2.78897 41.5503C2.758 41.2656 2.74252 40.9782 2.74252 40.6892C2.74252 38.1164 3.94546 35.7796 6.04326 34.2777C8.14647 32.7716 10.7556 32.3785 13.2017 33.1998C13.5582 33.3198 13.9522 33.2276 14.2185 32.9622C14.273 32.9082 33.8166 13.4276 33.8305 13.4137C34.0968 13.1483 34.1889 12.7559 34.0689 12.4002C33.2449 9.96241 33.6381 7.36294 35.148 5.2677C36.6559 3.17516 39.0011 1.97535 41.5823 1.97535C41.8811 1.97535 42.1779 1.99194 42.4721 2.02435L39.3904 5.14193C39.2077 5.32673 39.1056 5.57557 39.1056 5.83482V8.62873C39.1056 8.88489 39.205 9.13064 39.3835 9.31466L42.121 12.1421C42.3076 12.335 42.565 12.4438 42.834 12.4438H45.637C45.9009 12.4438 46.1541 12.3389 46.3402 12.1518L49.4625 9.01529C49.4935 9.3 49.509 9.58742 49.509 9.87638C49.509 14.2327 45.9532 17.777 41.5827 17.777Z" fill="#2BBCEE"/>
<path d="M31.6247 18.4051L19.2257 30.7639C18.839 31.1493 18.839 31.7747 19.2257 32.1605C19.6127 32.5463 20.2401 32.5463 20.6272 32.1605L33.0262 19.8016C33.4132 19.4162 33.4132 18.7909 33.0262 18.4051C32.6392 18.0193 32.0117 18.0193 31.6247 18.4051Z" fill="#2BBCEE"/>
<path d="M44.1456 44.6409C44.5326 45.0255 45.16 45.0255 45.5471 44.6386C45.9334 44.2524 45.9322 43.627 45.5448 43.242L36.6136 34.3684C36.2262 33.9833 35.5984 33.9845 35.2125 34.3707C34.8259 34.7572 34.827 35.3822 35.2145 35.7673L44.1456 44.6409Z" fill="#2BBCEE"/>
</svg>
