<svg width="285" height="285" viewBox="0 0 285 285" fill="none" xmlns="http://www.w3.org/2000/svg">
    <g clip-path="url(#clip0)">
        <path d="M16.2165 239.115H273.714" stroke="#5C2D88" stroke-width="0.5" stroke-miterlimit="10"/>
        <path d="M268.983 69.3405H109.953V181.26H268.983V69.3405Z" fill="#00B3E5"/>
        <path d="M268.983 81.4245H109.953V181.26H268.983V81.4245Z" fill="#F8F7FB"/>
        <path d="M116.565 75.126C116.565 75.582 116.194 75.9525 115.739 75.9525C115.283 75.9525 114.912 75.582 114.912 75.126C114.912 74.67 115.283 74.2995 115.739 74.2995C116.166 74.271 116.565 74.67 116.565 75.126Z" fill="#F15847"/>
        <path d="M120.099 75.9525C120.555 75.9525 120.925 75.5825 120.925 75.126C120.925 74.6695 120.555 74.2995 120.099 74.2995C119.643 74.2995 119.273 74.6695 119.273 75.126C119.273 75.5825 119.643 75.9525 120.099 75.9525Z" fill="#F7CF47"/>
        <path d="M124.488 75.9525C124.944 75.9525 125.314 75.5825 125.314 75.126C125.314 74.6695 124.944 74.2995 124.488 74.2995C124.032 74.2995 123.661 74.6695 123.661 75.126C123.661 75.5825 124.032 75.9525 124.488 75.9525Z" fill="#F6F0F7"/>
        <path d="M256.813 88.863V125.97H171.655V88.863H256.813ZM257.098 88.578H171.37V126.255H257.098V88.578Z" fill="#EDDBEB"/>
        <path d="M257.098 133.522H171.37V171.2H257.098V133.522Z" fill="#F6F0F7"/>
        <path d="M248.929 152.211C249.9 146.245 245.851 140.622 239.886 139.651C233.92 138.679 228.297 142.728 227.325 148.694C226.354 154.659 230.403 160.283 236.368 161.254C242.334 162.225 247.957 158.177 248.929 152.211Z" stroke="#F15847" stroke-width="0.5" stroke-miterlimit="10"/>
        <path d="M238.146 139.536C244.188 139.536 249.09 144.438 249.09 150.48C249.09 156.522 244.188 161.424 238.146 161.424" stroke="#F15847" stroke-width="2" stroke-miterlimit="10"/>
        <path d="M242.792 148.314H233.871V152.361H242.792V148.314Z" fill="#DCDCDC"/>
        <path d="M180.092 142.015H177.355V144.751H180.092V142.015Z" fill="#F15847"/>
        <path d="M209.076 142.015H183.654V144.751H209.076V142.015Z" fill="#DCDCDC"/>
        <path d="M204.829 147.316H177.355V148.314H204.829V147.316Z" fill="#DCDCDC"/>
        <path d="M204.829 149.967H177.355V150.964H204.829V149.967Z" fill="#DCDCDC"/>
        <path d="M204.829 152.617H177.355V153.615H204.829V152.617Z" fill="#DCDCDC"/>
        <path d="M204.829 155.268H177.355V156.265H204.829V155.268Z" fill="#DCDCDC"/>
        <path d="M204.829 157.947H177.355V158.944H204.829V157.947Z" fill="#DCDCDC"/>
        <path d="M204.829 160.597H177.355V161.595H204.829V160.597Z" fill="#DCDCDC"/>
        <path d="M161.88 88.578H119.102V126.255H161.88V88.578Z" fill="#EDDBEB"/>
        <path d="M149.853 119.215H131.128V114.256C131.128 109.098 135.318 104.909 140.476 104.909C145.635 104.909 149.825 109.098 149.825 114.256V119.215H149.853Z" fill="white"/>
        <path d="M146.29 100.947C146.29 104.168 143.697 106.761 140.476 106.761C137.256 106.761 134.662 104.168 134.662 100.947C134.662 97.7265 137.256 95.133 140.476 95.133C143.697 95.133 146.29 97.7265 146.29 100.947Z" fill="white"/>
        <path d="M161.339 117.22H42.5505V200.839H161.339V117.22Z" fill="#F15847"/>
        <path d="M161.339 126.255H42.5505V200.84H161.339V126.255Z" fill="#F8F7FB"/>
        <path d="M46.854 122.151C47.2003 122.151 47.481 121.87 47.481 121.524C47.481 121.178 47.2003 120.897 46.854 120.897C46.5077 120.897 46.227 121.178 46.227 121.524C46.227 121.87 46.5077 122.151 46.854 122.151Z" fill="#5C2D88"/>
        <path d="M50.1315 122.151C50.4778 122.151 50.7585 121.87 50.7585 121.524C50.7585 121.178 50.4778 120.897 50.1315 120.897C49.7852 120.897 49.5045 121.178 49.5045 121.524C49.5045 121.87 49.7852 122.151 50.1315 122.151Z" fill="#F7CF47"/>
        <path d="M54.036 121.524C54.036 121.866 53.751 122.151 53.409 122.151C53.067 122.151 52.782 121.866 52.782 121.524C52.782 121.182 53.067 120.897 53.409 120.897C53.751 120.897 54.036 121.182 54.036 121.524Z" fill="#F6F0F7"/>
        <path d="M161.339 117.22V181.288H162.422L161.339 117.22Z" fill="#F0EFF2"/>
        <path d="M97.6125 133.95H52.497V168.862H97.6125V133.95Z" fill="#F6F0F7"/>
        <path d="M151.648 134.491V168.834H103.113V134.491H151.648ZM151.933 134.206H102.828V169.119H151.905V134.206H151.933Z" fill="#EDDBEB"/>
        <path d="M151.449 176.13H52.497V193.486H151.449V176.13Z" fill="#EDDBEB"/>
        <path d="M144.067 179.522H56.8005V180.861H144.067V179.522Z" fill="white"/>
        <path d="M144.067 182.856H56.8005V184.195H144.067V182.856Z" fill="white"/>
        <path d="M144.067 186.19H56.8005V187.53H144.067V186.19Z" fill="white"/>
        <path d="M144.067 189.497H56.8005V190.836H144.067V189.497Z" fill="white"/>
        <path d="M63.4125 142.757H60.876V145.293H63.4125V142.757Z" fill="#5C2D88"/>
        <path d="M90.288 142.757H66.7185V145.293H90.288V142.757Z" fill="#DCDCDC"/>
        <path d="M86.3265 147.658H60.876V148.57H86.3265V147.658Z" fill="#DCDCDC"/>
        <path d="M86.3265 150.109H60.876V151.022H86.3265V150.109Z" fill="#DCDCDC"/>
        <path d="M86.3265 152.589H60.876V153.501H86.3265V152.589Z" fill="#DCDCDC"/>
        <path d="M86.3265 155.04H60.876V155.952H86.3265V155.04Z" fill="#DCDCDC"/>
        <path d="M86.3265 157.52H60.876V158.432H86.3265V157.52Z" fill="#DCDCDC"/>
        <path d="M86.3265 159.97H60.876V160.882H86.3265V159.97Z" fill="#DCDCDC"/>
        <path d="M39.3585 197.477C36.2235 190.323 27.417 185.82 27.018 178.011C26.79 173.679 29.3835 169.661 29.7825 165.357C30.1815 160.968 28.0155 156.323 24.4815 153.644C22.9995 152.532 20.976 152.447 19.4085 153.444C15.7035 155.81 13.2525 160.142 13.3665 164.559C13.452 168.891 15.7605 173.081 15.2475 177.384C14.307 185.136 5.21549 189.04 1.62449 195.966C-0.570005 200.098 -0.541505 205.342 1.73849 209.475C3.98999 213.607 11.001 219.165 18.9525 219.165C26.904 219.706 35.7675 214.947 38.304 210.985C40.8405 207.024 41.2395 201.78 39.3585 197.477Z" fill="#F7CF47"/>
        <path d="M20.634 162.849L19.722 239.115" stroke="#5C2D88" stroke-width="0.5" stroke-miterlimit="10"/>
        <path d="M20.634 212.268L13.9935 202.179" stroke="#5C2D88" stroke-width="0.5" stroke-miterlimit="10"/>
        <path d="M20.406 212.268L27.018 202.179" stroke="#5C2D88" stroke-width="0.5" stroke-miterlimit="10"/>
        <path d="M20.577 197.989L16.2165 191.349" stroke="#5C2D88" stroke-width="0.5" stroke-miterlimit="10"/>
        <path d="M20.4345 197.989L24.795 191.349" stroke="#5C2D88" stroke-width="0.5" stroke-miterlimit="10"/>
        <path d="M20.577 187.188L17.328 182.229" stroke="#5C2D88" stroke-width="0.5" stroke-miterlimit="10"/>
        <path d="M20.463 187.188L23.712 182.229" stroke="#5C2D88" stroke-width="0.5" stroke-miterlimit="10"/>
        <path d="M283.974 202.521C281.238 196.251 273.543 192.318 273.201 185.507C273.001 181.716 275.253 178.21 275.623 174.42C275.965 170.572 274.056 166.497 270.978 164.16C269.695 163.191 267.9 163.105 266.56 163.989C263.34 166.069 261.174 169.831 261.259 173.707C261.345 177.498 263.368 181.146 262.912 184.937C262.086 191.72 254.135 195.14 251 201.182C249.09 204.83 249.147 209.418 251.113 213.038C253.08 216.657 259.207 221.53 266.19 221.53C273.144 222.015 280.896 217.826 283.119 214.377C285.256 210.872 285.627 206.283 283.974 202.521Z" fill="#F15847"/>
        <path d="M267.586 172.225L266.788 238.972" stroke="#5C2D88" stroke-width="0.5" stroke-miterlimit="10"/>
        <path d="M267.586 215.46L261.801 206.654" stroke="#5C2D88" stroke-width="0.5" stroke-miterlimit="10"/>
        <path d="M267.387 215.46L273.201 206.654" stroke="#5C2D88" stroke-width="0.5" stroke-miterlimit="10"/>
        <path d="M267.558 202.977L263.739 197.163" stroke="#5C2D88" stroke-width="0.5" stroke-miterlimit="10"/>
        <path d="M267.415 202.977L271.263 197.163" stroke="#5C2D88" stroke-width="0.5" stroke-miterlimit="10"/>
        <path d="M267.558 193.515L264.708 189.183" stroke="#5C2D88" stroke-width="0.5" stroke-miterlimit="10"/>
        <path d="M267.444 193.515L270.294 189.183" stroke="#5C2D88" stroke-width="0.5" stroke-miterlimit="10"/>
        <path d="M222.984 214.747H256.757" stroke="#C2C0C0" stroke-width="2" stroke-miterlimit="10" stroke-linecap="round"/>
        <path d="M224.01 214.747L211.128 238.573" stroke="#C2C0C0" stroke-miterlimit="10" stroke-linecap="round"/>
        <path d="M255.132 214.747L268.014 238.574" stroke="#C2C0C0" stroke-miterlimit="10" stroke-linecap="round"/>
        <path d="M217.256 227.259H261.573" stroke="#C2C0C0" stroke-miterlimit="10" stroke-linecap="round"/>
        <path d="M245.955 178.011C245.955 178.011 245.955 177.982 245.955 178.011C245.927 177.868 245.927 177.726 245.898 177.583C245.357 173.935 243.875 154.128 243.533 151.392C243.561 149.625 243.419 147.43 242.82 144.751H222.87C222.87 144.751 222.642 149.796 223.668 156.237C224.409 163.077 225.748 175.19 226.005 177.983C226.062 178.667 226.176 179.236 226.29 179.778C226.318 180.091 226.375 180.434 226.432 180.804C227.772 186.761 230.935 198.246 232.845 209.874C232.845 209.874 234.869 210.216 237.348 209.846C236.037 201.125 236.806 186.162 233.443 179.151C233.956 173.508 233.33 161.367 233.33 156.437C233.358 156.665 233.358 156.864 233.387 157.092C233.729 160.769 236.55 172.453 238.517 179.151C238.517 179.664 238.602 180.234 238.745 180.833C240.284 186.761 243.761 204.459 244.388 209.903C244.388 209.903 248.862 210.387 248.891 209.846C249.147 205.799 248.919 184.252 245.955 178.011Z" fill="#5C2D88"/>
        <path d="M239.485 102.714C239.514 102.942 239.999 107.502 240.084 111.036C240.113 112.774 238.374 114.399 236.635 114.427C236.607 114.427 236.578 114.427 236.55 114.427C234.84 114.427 232.816 112.888 232.987 111.207C233.272 108.129 233.044 104.994 233.044 104.965L239.485 102.714Z" fill="#EA9069"/>
        <path d="M213.75 119.244C215.061 119.586 218.053 119.871 225.321 118.702C229.738 117.99 231.591 117.363 232.902 116.964C235.267 116.251 235.809 114.142 234.954 112.774C233.842 111.036 232.047 109.725 228.057 110.523C220.903 111.948 216.999 113.173 215.289 113.686C211.783 114.741 212.211 118.845 213.75 119.244Z" fill="#E9C442"/>
        <path d="M246.069 120.07C243.361 128.905 242.421 139.507 242.962 145.663L222.956 146.604C222.956 146.604 223.497 132.439 224.865 122.065C225.179 119.643 227.601 113.288 230.194 111.92C231.192 111.407 231.876 111.064 233.215 110.865C233.956 110.751 234.612 111.748 235.894 111.691C236.55 111.663 237.69 110.637 238.516 110.722C239.286 110.808 240.027 110.922 240.625 111.007C245.698 111.748 247.636 114.969 246.069 120.07Z" fill="#F15847"/>
        <path d="M224.779 149.682H222.214C222.214 149.682 223.497 132.468 224.865 122.094C225.178 119.671 227.601 113.316 230.195 111.948C231.192 111.435 231.876 111.093 233.215 110.893C232.018 112.717 224.323 129.874 224.779 149.682Z" fill="#F7CF47"/>
        <path d="M231.135 100.149C229.71 100.805 229.083 100.805 228.57 99.066C228.171 97.698 227.487 92.91 229.71 92.5965C231.933 92.283 233.643 92.226 233.387 95.1615C233.13 98.1255 232.845 99.3795 231.135 100.149Z" fill="#210E32"/>
        <path d="M195.082 105.906C196.621 106.647 210.985 112.318 213.522 113.515C216.543 114.912 214.975 119.757 212.581 119.215C209.988 118.645 203.803 114.77 199.129 112.062C195.624 110.039 194.626 109.012 193.771 107.53C193.03 106.305 194.056 105.422 195.082 105.906Z" fill="#E9C442"/>
        <path d="M241.822 99.408C241.423 103.312 241.309 104.196 239.571 105.792C237.832 107.388 235.353 108.129 233.5 108.129C231.477 108.129 229.966 106.02 229.51 104.367C229.026 102.657 228.484 98.6385 229.054 94.335C229.339 92.169 232.047 89.5185 234.868 89.5185C237.661 89.5185 242.791 89.832 241.822 99.408Z" fill="#F9AD85"/>
        <path d="M240.654 99.4365C240.084 100.804 240.227 102.115 240.939 102.4C241.651 102.685 242.706 101.83 243.247 100.462C243.817 99.0945 243.675 97.7835 242.962 97.4985C242.25 97.242 241.224 98.097 240.654 99.4365Z" fill="#F9AD85"/>
        <path d="M242.221 93.5655C241.993 92.739 241.708 92.226 241.366 91.941C241.452 91.485 241.395 91.0005 241.224 90.573C240.796 89.4045 239.656 88.5495 238.431 88.179C237.205 87.8085 235.894 87.894 234.64 88.0935C232.36 88.464 227.658 90.231 225.72 91.4565C224.979 91.941 224.181 92.5965 224.238 93.48C224.266 94.164 224.865 94.734 225.435 95.1045C226.803 95.988 230.992 95.418 232.617 95.19C231.306 95.418 233.101 95.19 237.262 94.1925C237.376 95.7885 238.573 97.8975 239.115 98.667C240.169 100.092 240.711 99.8925 241.794 98.8095C243.105 97.527 242.962 96.3015 242.221 93.5655Z" fill="#210E32"/>
        <path d="M232.332 209.817L232.047 211.043L228.827 211.328C227.886 211.413 227.145 212.154 227.088 213.123L227.031 214.092H238.574L237.662 209.817H232.332Z" fill="#210E32"/>
        <path d="M243.988 209.817L243.703 211.043L240.454 211.328C239.542 211.413 238.801 212.154 238.744 213.066L238.687 214.064H250.23L249.318 209.788L243.988 209.817Z" fill="#210E32"/>
        <path d="M246.069 120.07C243.361 128.905 243.048 143.383 243.589 149.539H231.277C237.832 140.22 237.804 114.798 237.775 111.15C237.775 110.865 238.003 110.637 238.288 110.665L238.488 110.694C239.257 110.779 239.998 110.893 240.597 110.979C245.698 111.748 247.636 114.969 246.069 120.07Z" fill="#F7CF47"/>
        <path d="M255.914 119.056L183.748 107.209L178.54 138.932L250.706 150.78L255.914 119.056Z" fill="white"/>
        <path d="M189.928 115.575L187.622 115.196L187.244 117.502L189.55 117.881L189.928 115.575Z" fill="#5C2D88"/>
        <path d="M214.334 119.597L192.932 116.083L192.553 118.389L213.955 121.903L214.334 119.597Z" fill="#DCDCDC"/>
        <path d="M209.984 123.457L186.867 119.662L186.728 120.506L209.846 124.301L209.984 123.457Z" fill="#DCDCDC"/>
        <path d="M209.644 125.685L186.527 121.889L186.388 122.733L209.506 126.528L209.644 125.685Z" fill="#DCDCDC"/>
        <path d="M209.271 127.936L186.154 124.14L186.015 124.984L209.133 128.779L209.271 127.936Z" fill="#DCDCDC"/>
        <path d="M208.903 130.158L185.785 126.363L185.647 127.207L208.765 131.002L208.903 130.158Z" fill="#DCDCDC"/>
        <path d="M208.531 132.409L185.413 128.614L185.274 129.458L208.392 133.253L208.531 132.409Z" fill="#DCDCDC"/>
        <path d="M208.162 134.632L185.045 130.836L184.906 131.68L208.024 135.475L208.162 134.632Z" fill="#DCDCDC"/>
        <path d="M222.811 133.912L221.18 133.644L220.542 137.525L222.174 137.793L222.811 133.912Z" fill="#F15847"/>
        <path d="M226.276 129.272L224.645 129.004L223.176 137.947L224.808 138.215L226.276 129.272Z" fill="#5C2D88"/>
        <path d="M228.328 133.199L226.697 132.931L225.807 138.359L227.438 138.627L228.328 133.199Z" fill="#5C2D88"/>
        <path d="M232.485 124.311L230.854 124.044L228.436 138.781L230.067 139.048L232.485 124.311Z" fill="#F7CF47"/>
        <path d="M234.118 130.885L232.487 130.617L231.075 139.223L232.707 139.49L234.118 130.885Z" fill="#F15847"/>
        <path d="M237.325 127.656L235.694 127.388L233.682 139.65L235.314 139.918L237.325 127.656Z" fill="#5C2D88"/>
        <path d="M240.273 126.188L238.642 125.92L236.317 140.095L237.948 140.362L240.273 126.188Z" fill="#5C2D88"/>
        <path d="M242.367 129.929L240.736 129.661L238.951 140.545L240.582 140.813L242.367 129.929Z" fill="#F7CF47"/>
        <path d="M245.782 125.572L244.151 125.304L241.585 140.941L243.216 141.209L245.782 125.572Z" fill="#F15847"/>
        <path d="M248.847 123.396L247.215 123.128L244.221 141.38L245.852 141.648L248.847 123.396Z" fill="#5C2D88"/>
        <path d="M249.204 132.724C249.517 131.413 249.774 128.392 248.491 121.182C247.693 116.764 247.066 114.94 246.639 113.629C245.869 111.292 243.76 110.779 242.421 111.663C240.682 112.803 239.4 114.598 240.283 118.617C241.822 125.742 243.133 129.618 243.675 131.328C244.729 134.748 248.833 134.263 249.204 132.724Z" fill="#E9C442"/>
        <path d="M231.049 146.034C232.189 144.752 241.737 132.639 243.618 130.559C245.812 128.079 250.002 130.958 248.805 133.095C247.494 135.404 242.022 140.22 238.089 143.954C235.154 146.718 233.871 147.374 232.218 147.801C230.878 148.115 230.308 146.861 231.049 146.034Z" fill="#E9C442"/>
        <path d="M230.508 145.835C229.396 146.12 227.629 146.604 226.66 146.775C225.691 146.946 226.033 149.141 226.603 149.454C227.458 149.939 232.617 148.314 232.788 147.203C232.987 146.12 232.36 145.35 230.508 145.835Z" fill="#F9AD85"/>
        <path d="M196.194 108.3C195.396 108.471 189.097 109.583 189.439 108.243C189.81 106.761 192.233 105.792 193.059 105.564C194.627 105.137 196.137 105.849 196.593 106.704C196.935 107.303 196.964 108.129 196.194 108.3Z" fill="#F9AD85"/>
        <path d="M168.72 210.9C166.611 206.055 160.626 203.005 160.37 197.704C160.227 194.769 161.966 192.061 162.222 189.126C162.507 186.162 161.025 182.998 158.631 181.174C157.633 180.405 156.265 180.376 155.211 181.032C152.703 182.628 151.05 185.563 151.107 188.556C151.164 191.491 152.731 194.313 152.389 197.248C151.762 202.492 145.606 205.143 143.155 209.845C141.673 212.667 141.702 216.229 143.241 219.022C144.78 221.815 149.511 225.606 154.897 225.606C160.284 225.976 166.269 222.727 168.008 220.048C169.718 217.369 170.003 213.807 168.72 210.9Z" fill="#9065AB"/>
        <path d="M156.037 187.445L155.41 239.115" stroke="#5C2D88" stroke-width="0.5" stroke-miterlimit="10"/>
        <path d="M156.038 220.932L151.563 214.092" stroke="#5C2D88" stroke-width="0.5" stroke-miterlimit="10"/>
        <path d="M155.895 220.932L160.37 214.092" stroke="#5C2D88" stroke-width="0.5" stroke-miterlimit="10"/>
        <path d="M156.009 211.27L153.045 206.767" stroke="#5C2D88" stroke-width="0.5" stroke-miterlimit="10"/>
        <path d="M155.923 211.27L158.859 206.767" stroke="#5C2D88" stroke-width="0.5" stroke-miterlimit="10"/>
        <path d="M156.009 203.946L153.786 200.583" stroke="#5C2D88" stroke-width="0.5" stroke-miterlimit="10"/>
        <path d="M155.923 203.946L158.118 200.583" stroke="#5C2D88" stroke-width="0.5" stroke-miterlimit="10"/>
        <path d="M180.348 220.847C178.923 217.626 174.961 215.574 174.79 212.04C174.676 210.074 175.845 208.278 176.044 206.312C176.215 204.317 175.246 202.236 173.65 201.01C172.995 200.497 172.054 200.469 171.37 200.925C169.689 202.008 168.606 203.946 168.634 205.941C168.691 207.907 169.717 209.789 169.489 211.727C169.062 215.232 164.958 216.999 163.333 220.106C162.336 221.987 162.364 224.352 163.39 226.233C164.416 228.086 167.58 230.622 171.171 230.622C174.762 230.879 178.752 228.713 179.92 226.917C181.032 225.15 181.203 222.785 180.348 220.847Z" fill="#4E843D"/>
        <path d="M171.883 205.2L171.484 239.657" stroke="#5C2D88" stroke-width="0.5" stroke-miterlimit="10"/>
        <path d="M171.883 227.516L168.891 222.984" stroke="#5C2D88" stroke-width="0.5" stroke-miterlimit="10"/>
        <path d="M171.798 227.516L174.79 222.984" stroke="#5C2D88" stroke-width="0.5" stroke-miterlimit="10"/>
        <path d="M171.883 221.075L169.917 218.082" stroke="#5C2D88" stroke-width="0.5" stroke-miterlimit="10"/>
        <path d="M171.798 221.075L173.793 218.082" stroke="#5C2D88" stroke-width="0.5" stroke-miterlimit="10"/>
        <path d="M171.883 216.201L170.401 213.949" stroke="#5C2D88" stroke-width="0.5" stroke-miterlimit="10"/>
        <path d="M171.827 216.201L173.28 213.949" stroke="#5C2D88" stroke-width="0.5" stroke-miterlimit="10"/>
        <path d="M95.133 205.77C95.133 205.428 95.133 205.114 95.1045 204.801C95.1045 204.288 95.1045 203.718 95.0475 203.062C94.848 200.469 94.278 189.411 93.936 182.77C93.822 176.956 93.2235 171.855 93.2235 171.855L79.173 172.14C78.8025 174.705 78.7455 176.814 78.8025 178.467C78.603 181.089 77.919 199.956 77.6055 203.405C77.577 203.576 77.577 203.746 77.577 203.917C74.955 209.788 74.2425 231.192 73.9575 234.897C73.929 235.382 74.1285 235.325 74.385 235.268C75.069 235.097 74.7555 234.298 75.753 234.355C76.266 234.384 76.437 235.268 76.437 235.268C77.4345 230.223 80.712 212.496 82.3935 207.11C82.65 206.283 82.764 205.57 82.764 204.915C84.018 199.044 85.9275 188.955 86.355 184.652C87.1245 189.468 88.863 200.298 90.0315 205.342C88.7205 212.467 91.713 226.889 92.0265 235.239C92.7105 233.757 93.3945 233.387 93.7365 233.415C94.2495 233.444 94.563 233.957 94.563 233.957C94.2495 222.813 95.0475 211.584 95.133 205.77Z" fill="#F89B67"/>
        <path d="M78.033 171.427L71.7915 224.694C71.7345 225.15 72.048 225.549 72.4755 225.549H81.681C82.194 225.549 82.6215 225.15 82.6785 224.609L85.8705 201.923V226.062C85.8705 226.575 86.298 226.974 86.7825 226.86L96.33 224.609C96.786 224.495 97.128 224.039 97.0995 223.497L94.734 171.399H78.033V171.427Z" fill="#5C2D88"/>
        <path d="M89.319 115.767C84.5595 114.257 80.2275 116.593 77.9475 118.246C76.323 119.443 74.8695 122.55 74.271 124.573C73.7865 126.226 73.2735 127.879 73.245 129.618C73.2165 131.299 73.587 133.095 72.7605 134.52C72.048 135.745 70.6515 136.258 69.483 136.999C68.3145 137.712 67.203 139.108 67.6305 140.476C68.1435 142.072 70.4235 142.642 70.452 144.324C70.452 145.179 69.7965 145.92 69.825 146.746C69.825 148.086 71.307 148.713 72.447 149.254C73.587 149.796 74.784 151.221 74.0145 152.247C75.582 152.503 77.2065 152.76 78.774 152.418C80.3415 152.076 81.8805 151.05 82.422 149.454C82.707 148.599 82.7355 147.601 83.3055 146.946C84.2745 145.834 86.3265 146.262 87.039 144.951C87.5235 144.067 87.096 142.984 86.697 142.044C83.334 134.235 82.7355 125.086 85.0725 116.85" fill="#220C3F"/>
        <path d="M105.222 153.501C103.512 151.734 100.206 147.63 95.8455 142.529C94.962 141.503 92.3685 140.192 90.231 140.306C88.8915 140.391 87.723 142.215 89.262 144.239C90.117 145.379 91.2855 146.975 94.5915 150.366C99.237 155.126 101.916 157.149 103.426 158.033C103.655 158.204 103.883 158.346 104.168 158.432C104.31 158.489 104.453 158.517 104.624 158.517C105.051 158.546 105.507 158.489 105.935 158.204C109.184 156.294 110.352 155.496 113.943 151.848C116.422 149.34 108.671 151.25 105.222 153.501Z" fill="#EBC441"/>
        <path d="M84.987 139.536C84.987 139.536 90.288 139.878 91.3425 140.533C92.397 141.218 89.5185 143.099 89.5185 143.099L84.987 139.536Z" fill="#F7CF47"/>
        <path d="M79.686 150.109C80.4555 152.817 80.826 155.582 81.111 158.375C81.339 160.398 81.111 162.478 80.6835 164.473C80.427 165.67 80.1135 166.867 79.743 168.036C79.6005 168.492 77.4345 176.016 77.3775 176.415C77.3775 176.415 95.0475 177.641 96.0165 177.698C96.045 174.42 92.739 159.885 95.817 153.415C97.9545 148.941 95.5035 148.627 94.107 144.666C93.765 143.697 93.5085 142.642 92.8815 141.787C92.283 140.961 91.3425 140.847 89.1765 140.847C88.635 140.847 87.1815 140.989 86.6115 140.904C83.6475 140.448 80.085 139.992 79.173 143.953C78.9165 145.036 77.634 144.067 77.919 145.15C78.2325 146.347 78.7455 147.516 79.173 148.684C79.401 149.14 79.5435 149.625 79.686 150.109Z" fill="#F15847"/>
        <path d="M87.5235 140.904C87.5235 140.904 93.594 145.236 93.5085 149.112C93.423 153.843 94.1925 174.392 94.164 176.558C94.1355 178.724 99.18 179.237 99.18 179.237L97.0995 149.882C96.786 146.861 94.278 141.445 91.542 140.59C89.832 140.077 88.2075 140.363 87.5235 140.904Z" fill="#F7CF47"/>
        <path d="M74.1 232.589L73.53 238.232H76.1805L76.9785 232.589H74.1Z" fill="white"/>
        <path d="M91.8555 232.589V237.262L95.133 236.835L94.506 232.047L91.8555 232.589Z" fill="white"/>
        <path d="M91.8555 235.952V238.574C91.8555 239.087 92.226 239.486 92.7105 239.486H98.6385C99.0375 239.486 99.351 239.144 99.351 238.745C99.351 238.46 99.2085 238.203 98.952 238.061L95.247 236.151C94.9905 236.009 94.7055 235.952 94.449 235.952H91.8555Z" fill="#220B3E"/>
        <path d="M73.53 235.838V238.46C73.53 238.973 73.9005 239.372 74.385 239.372H80.313C80.712 239.372 81.0255 239.029 81.0255 238.63C81.0255 238.345 80.883 238.089 80.6265 237.947L76.9215 236.037C76.665 235.895 76.38 235.838 76.1235 235.838H73.53Z" fill="#220B3E"/>
        <path d="M83.8755 131.214C83.847 131.442 83.22 136.002 82.935 139.507C82.7925 141.246 83.847 142.956 85.0155 143.098C85.044 143.098 85.044 143.098 85.0725 143.098C86.2125 143.184 87.666 141.759 87.666 140.049C87.666 136.971 88.008 133.836 88.0365 133.779L83.8755 131.214Z" fill="#ED8F5B"/>
        <path d="M81.852 127.737C81.966 131.699 82.023 132.554 83.505 134.292C85.0155 136.002 87.2385 136.914 88.977 137.057C90.858 137.199 92.3685 135.176 92.91 133.551C93.4515 131.87 94.221 127.88 93.9645 123.548C93.8505 121.353 91.485 118.532 88.8915 118.332C86.3265 118.104 81.567 118.076 81.852 127.737Z" fill="#F89B67"/>
        <path d="M93.651 119.444C93.252 118.56 91.998 117.164 90.915 116.651C88.863 115.055 86.3265 115.112 84.303 115.824C83.6475 115.539 78.9165 127.053 81.0825 127.224L83.5905 126.939C86.241 126.312 90.345 123.377 92.169 121.781C92.8815 122.294 93.765 122.807 93.9645 123.491C94.3065 124.659 94.4205 121.125 93.651 119.444Z" fill="#220C3F"/>
        <path d="M82.935 127.851C83.3625 129.248 83.163 130.558 82.479 130.815C81.795 131.043 80.883 130.131 80.4555 128.735C80.028 127.338 80.2275 126.027 80.9115 125.771C81.5955 125.514 82.5075 126.455 82.935 127.851Z" fill="#F89B67"/>
        <path d="M82.6785 139.793C80.6265 140.847 74.784 143.754 76.5225 158.802C76.5225 158.802 74.385 174.164 76.095 178.923H85.044C85.044 178.923 90.003 151.877 87.381 146.747C85.4145 142.899 84.2745 142.072 83.163 140.59C82.7355 140.077 83.2485 139.508 82.6785 139.793Z" fill="#F7CF47"/>
        <path d="M84.0465 125.571C84.0465 125.571 82.7355 128.82 82.5645 130.102C82.5645 130.102 82.1655 126.397 82.9065 125.571C83.6475 124.716 84.0465 125.571 84.0465 125.571Z" fill="#220C3F"/>
        <path d="M108.531 136.215L70.2389 149.833L79.9229 177.062L118.215 163.443L108.531 136.215Z" fill="white"/>
        <path d="M108.072 151.592C109.383 155.268 107.474 159.287 103.797 160.598C100.121 161.909 96.102 159.999 94.791 156.323C93.48 152.646 95.3895 148.628 99.066 147.317C102.743 146.006 106.79 147.915 108.072 151.592Z" stroke="#5C2D88" stroke-width="0.5" stroke-miterlimit="10"/>
        <path d="M99.0945 147.317C102.771 146.006 106.789 147.915 108.1 151.592C109.411 155.268 107.502 159.287 103.825 160.598" stroke="#5C2D88" stroke-width="2" stroke-miterlimit="10"/>
        <path d="M103.827 151.637L98.4028 153.566L99.2815 156.036L104.706 154.107L103.827 151.637Z" fill="#DCDCDC"/>
        <path d="M91.656 157.434C92.967 161.111 91.0575 165.129 87.381 166.44C83.7045 167.751 79.686 165.842 78.375 162.165C77.064 158.489 78.9735 154.47 82.65 153.159C86.3265 151.848 90.345 153.758 91.656 157.434Z" stroke="#F7CF47" stroke-width="0.5" stroke-miterlimit="10"/>
        <path d="M82.65 153.159C86.3265 151.848 90.345 153.758 91.656 157.434C92.967 161.111 91.0575 165.129 87.381 166.44" stroke="#F7CF47" stroke-width="2" stroke-miterlimit="10"/>
        <path d="M87.3809 157.486L81.9567 159.416L82.8353 161.886L88.2595 159.957L87.3809 157.486Z" fill="#DCDCDC"/>
        <path d="M83.0775 170.829C84.36 170.886 85.8705 171.143 86.6115 171.713C87.381 172.283 85.386 172.197 84.4455 172.226C83.4765 172.283 81.9945 170.801 83.0775 170.829Z" fill="#F89B67"/>
        <path d="M84.132 171.77C86.3835 173.223 87.78 173.594 88.407 174.791C89.034 175.988 86.64 176.159 85.785 175.76C84.93 175.389 81.795 174.221 81.4815 173.081C81.168 171.998 82.479 170.715 84.132 171.77Z" fill="#F89B67"/>
        <path d="M82.7355 170.715C81.453 170.145 74.6985 165.129 70.623 162.507C72.39 160.113 75.7815 156.037 79.914 150.85C80.826 149.682 81.795 146.49 81.339 143.982C81.054 142.414 79.002 141.274 77.178 143.355C76.152 144.523 74.67 146.091 71.706 150.394C66.8325 157.463 65.3505 160.94 64.866 162.564C64.752 162.935 64.809 163.305 64.9515 163.675C65.094 164.359 65.4645 165.044 66.12 165.5C69.711 168.008 71.079 168.863 76.5225 170.858C80.2845 172.254 80.826 173.736 82.023 173.366C82.992 173.024 83.8185 171.171 82.7355 170.715Z" fill="#EBC441"/>
        <path d="M113.402 152.589C113.459 153.131 113.63 153.672 114 154.014C114.371 154.385 114.969 154.498 115.368 154.185C115.767 153.871 115.881 153.301 115.938 152.76C116.023 151.962 116.137 151.164 116.023 150.395C115.91 149.597 115.596 148.827 115.026 148.314C114.456 147.801 113.601 147.659 112.946 148.058C112.29 148.457 112.062 149.483 112.518 150.11C112.746 150.423 113.116 150.594 113.373 150.879" fill="#F89B67"/>
    </g>
    <defs>
        <clipPath id="clip0">
            <rect width="285" height="285" fill="white"/>
        </clipPath>
    </defs>
</svg>
