<svg width="30" height="30" viewBox="0 0 30 30" fill="none" xmlns="http://www.w3.org/2000/svg">
    <g clip-path="url(#clip0)">
        <path d="M29.7348 22.0405C29.3812 22.3941 28.8079 22.3941 28.4544 22.0405L22.5215 16.1076L23.8019 14.8271L29.7348 20.76C30.0884 21.1136 30.0884 21.6869 29.7348 22.0405Z" fill="#484B63"/>
        <path d="M18.7797 29.9999H0.234375C0.104941 29.9999 0 29.895 0 29.7656V3.5542C0 3.42477 0.104941 3.31982 0.234375 3.31982H18.7797C18.9091 3.31982 19.0141 3.42477 19.0141 3.5542V29.7656C19.0141 29.895 18.9091 29.9999 18.7797 29.9999Z" fill="#D8D5ED"/>
        <path d="M5.34915 27.901H2.19617C2.06673 27.901 1.96179 27.796 1.96179 27.6666V18.3567C1.96179 18.2273 2.06673 18.1223 2.19617 18.1223H5.34915C5.47859 18.1223 5.58353 18.2273 5.58353 18.3567V27.6666C5.58353 27.7961 5.47859 27.901 5.34915 27.901Z" fill="#FF2C5C"/>
        <path d="M11.0232 27.9009H7.87018C7.74074 27.9009 7.6358 27.7959 7.6358 27.6665V14.7349C7.6358 14.6054 7.74074 14.5005 7.87018 14.5005H11.0232C11.1526 14.5005 11.2575 14.6054 11.2575 14.7349V27.6665C11.2575 27.796 11.1526 27.9009 11.0232 27.9009Z" fill="#FFD659"/>
        <path d="M16.818 27.901H13.665C13.5355 27.901 13.4306 27.7961 13.4306 27.6667V16.063C13.4306 15.9336 13.5355 15.8286 13.665 15.8286H16.818C16.9474 15.8286 17.0523 15.9336 17.0523 16.063V27.6667C17.0523 27.7962 16.9474 27.901 16.818 27.901Z" fill="#4FC6F5"/>
        <path d="M3.77264 18.1223V27.901H5.34911C5.47854 27.901 5.58348 27.796 5.58348 27.6666V18.3567C5.58348 18.2273 5.47854 18.1223 5.34911 18.1223H3.77264Z" fill="#E62753"/>
        <path d="M9.44666 14.5005V27.9009H11.0231C11.1526 27.9009 11.2575 27.7959 11.2575 27.6665V14.7349C11.2575 14.6054 11.1526 14.5005 11.0231 14.5005H9.44666Z" fill="#FFBD54"/>
        <path d="M15.2415 15.8286V27.901H16.818C16.9474 27.901 17.0524 27.7961 17.0524 27.6667V16.063C17.0524 15.9336 16.9474 15.8286 16.818 15.8286H15.2415Z" fill="#3BB3E3"/>
        <path d="M2.6861 6.1875H15.9658C16.2086 6.1875 16.4053 5.99074 16.4053 5.74805C16.4053 5.50535 16.2086 5.30859 15.9658 5.30859H2.6861C2.44334 5.30859 2.24664 5.50535 2.24664 5.74805C2.24664 5.99074 2.44334 6.1875 2.6861 6.1875Z" fill="#50536E"/>
        <path d="M15.9657 7.32056H2.6861C2.44334 7.32056 2.24664 7.51731 2.24664 7.76001C2.24664 8.00271 2.44334 8.19946 2.6861 8.19946H15.9658C16.2086 8.19946 16.4053 8.00271 16.4053 7.76001C16.4053 7.51731 16.2085 7.32056 15.9657 7.32056Z" fill="#50536E"/>
        <path d="M15.9657 9.33276H2.6861C2.44334 9.33276 2.24664 9.52952 2.24664 9.77222C2.24664 10.0149 2.44334 10.2117 2.6861 10.2117H15.9658C16.2086 10.2117 16.4053 10.0149 16.4053 9.77222C16.4053 9.52952 16.2085 9.33276 15.9657 9.33276Z" fill="#50536E"/>
        <path d="M6.07117 11.345H2.6861C2.44334 11.345 2.24664 11.5417 2.24664 11.7844C2.24664 12.0271 2.44334 12.2239 2.6861 12.2239H6.07117C6.31393 12.2239 6.51063 12.0271 6.51063 11.7844C6.51063 11.5417 6.31393 11.345 6.07117 11.345Z" fill="#50536E"/>
        <path d="M24.1956 16.3841C27.9436 12.6361 27.9436 6.55926 24.1956 2.8112C20.4475 -0.936863 14.3707 -0.936864 10.6226 2.81119C6.87458 6.55925 6.87458 12.6361 10.6226 16.3841C14.3707 20.1322 20.4475 20.1322 24.1956 16.3841Z" fill="#50536E"/>
        <path d="M22.9153 15.1036C19.8793 18.1396 14.9393 18.1396 11.9032 15.1036C8.86711 12.0676 8.86717 7.12759 11.9032 4.0915C14.9392 1.05541 19.8792 1.05547 22.9153 4.0915C25.9514 7.12754 25.9514 12.0676 22.9153 15.1036Z" fill="#B5FCFF"/>
        <path d="M22.9153 4.09146C21.1671 2.34325 18.7876 1.60199 16.5038 1.86706C18.1861 2.06236 19.8166 2.80363 21.1044 4.09146C24.1404 7.12749 24.1404 12.0675 21.1044 15.1036C19.8166 16.3914 18.1861 17.1327 16.5038 17.328C18.7876 17.593 21.1671 16.8518 22.9153 15.1036C25.9513 12.0675 25.9513 7.12749 22.9153 4.09146Z" fill="#71F6FC"/>
    </g>
    <defs>
        <clipPath id="clip0">
            <rect width="30" height="30" fill="white"/>
        </clipPath>
    </defs>
</svg>
