<svg width="16" height="16" viewBox="0 0 16 16" fill="none" xmlns="http://www.w3.org/2000/svg">
    <path d="M11.2 11.3976C9.88747 11.3976 8.57497 10.898 7.57575 9.89875C6.83431 9.15731 5.84856 8.749 4.8 8.749C3.75144 8.749 2.76569 9.15731 2.02428 9.89875L1 10.9231V1.87697L1.17575 1.70122C3.17416 -0.297217 6.42587 -0.297217 8.42428 1.70122C9.16572 2.44266 10.1515 2.85097 11.2 2.85097C12.2486 2.85097 13.2343 2.44266 13.9758 1.70122L15 0.676908V9.72303L14.8243 9.89878C13.825 10.898 12.5125 11.3976 11.2 11.3976Z" fill="#FEDA44"/>
    <path d="M13.9757 1.70128C13.2343 2.44272 12.2486 2.85103 11.2 2.85103C10.1514 2.85103 9.16572 2.44272 8.42425 1.70128C8.28841 1.56544 8.14662 1.43916 8 1.32181V10.2783C8.932 11.0244 10.0659 11.3977 11.2 11.3977C12.5125 11.3977 13.825 10.8981 14.8243 9.89888L15 9.72313V0.677002L13.9757 1.70128Z" fill="#FECE00"/>
    <path d="M2.2 0H1V16H2.2V0Z" fill="#FE0B37"/>
    <path d="M6.20614 2.80005V6.19867H5.2727V4.86795H4.13342V6.19867H3.20001V2.80005H4.13345V4.0542H5.27273V2.80005H6.20614Z" fill="#FE0B37"/>
    <path d="M8.231 7.64792C7.98843 7.64792 7.76743 7.59848 7.56803 7.49951C7.36856 7.40063 7.19778 7.27054 7.05584 7.10938C6.91381 6.94829 6.80368 6.76398 6.72556 6.55651C6.64731 6.3491 6.60828 6.13526 6.60828 5.91507C6.60828 5.69176 6.64896 5.47635 6.73037 5.26888C6.81175 5.06148 6.92581 4.87876 7.07262 4.72076C7.21937 4.56279 7.39253 4.43676 7.592 4.3426C7.7914 4.24848 8.01084 4.20142 8.25018 4.20142C8.49271 4.20142 8.71371 4.25095 8.91318 4.34982C9.11259 4.44879 9.28334 4.57957 9.42537 4.74235C9.56734 4.9051 9.67668 5.09023 9.75325 5.29763C9.82984 5.5051 9.86815 5.71732 9.86815 5.93432C9.86815 6.15773 9.82743 6.37232 9.74606 6.57817C9.66465 6.78401 9.55218 6.96588 9.40859 7.12388C9.265 7.28185 9.09268 7.4087 8.89162 7.50445C8.6905 7.60004 8.47031 7.64792 8.231 7.64792ZM7.55603 5.92463C7.55603 6.03951 7.56956 6.15045 7.59671 6.25732C7.62381 6.36429 7.66612 6.4592 7.72356 6.54217C7.781 6.62517 7.85281 6.6922 7.93896 6.7432C8.02512 6.79429 8.12565 6.81979 8.24053 6.81979C8.35856 6.81979 8.46071 6.79348 8.5469 6.74079C8.63306 6.68817 8.70321 6.61954 8.75753 6.53495C8.81171 6.45042 8.8524 6.35385 8.87956 6.24535C8.90665 6.13692 8.92028 6.02682 8.92028 5.91507C8.92028 5.8002 8.9059 5.68935 8.87718 5.58238C8.84846 5.47551 8.80615 5.38135 8.75034 5.29995C8.69446 5.21854 8.6235 5.1532 8.53734 5.10367C8.45118 5.05423 8.35065 5.02948 8.23578 5.02948C8.11765 5.02948 8.01634 5.05507 7.93181 5.10607C7.84721 5.15717 7.77696 5.22498 7.72118 5.30951C7.66534 5.3941 7.62378 5.48982 7.59675 5.5967C7.56959 5.70367 7.55603 5.81295 7.55603 5.92463Z" fill="#FE0B37"/>
    <path d="M13.2912 6.61502H12.3147V9.1999H11.3812V6.61502H10.4V5.80127H13.2912V6.61502Z" fill="#C60024"/>
    <path d="M2.19998 0H1.59998V16H2.19998V0Z" fill="#C60024"/>
    <path d="M9.75315 5.2976C9.67655 5.0902 9.56724 4.90507 9.42527 4.74232C9.28324 4.57957 9.11246 4.44876 8.91308 4.34979C8.71362 4.25092 8.49262 4.20142 8.25008 4.20142C8.24668 4.20142 8.24337 4.20167 8.23999 4.20167V5.02964C8.35308 5.03023 8.45224 5.05492 8.5373 5.10373C8.62346 5.15326 8.69443 5.2186 8.7503 5.30001C8.80612 5.38139 8.84843 5.47557 8.87715 5.58245C8.90587 5.68942 8.92024 5.80026 8.92024 5.91514C8.92024 6.02689 8.90665 6.13698 8.87955 6.24542C8.8524 6.35395 8.81171 6.45054 8.75752 6.53501C8.70321 6.6196 8.63305 6.6882 8.54687 6.74085C8.46071 6.79348 8.35855 6.81985 8.24052 6.81985C8.24037 6.81985 8.24015 6.81985 8.23999 6.81985V7.64776C8.4758 7.64657 8.69302 7.59892 8.89155 7.50435C9.09258 7.40864 9.26493 7.28176 9.40852 7.12379C9.55212 6.96582 9.66462 6.78392 9.74599 6.57807C9.82737 6.37223 9.86808 6.15764 9.86808 5.93423C9.86808 5.71726 9.82974 5.50507 9.75315 5.2976Z" fill="#C60024"/>
</svg>
