<svg width="16" height="16" viewBox="0 0 16 16" fill="none" xmlns="http://www.w3.org/2000/svg">
    <g clip-path="url(#clip0)">
        <path d="M2.49463 1.47583H4.19165V4.55212H2.49463V1.47583Z" fill="#912C2C"/>
        <path d="M4.56458 1.86658H2.12207C1.88538 1.86658 1.69336 1.67468 1.69336 1.43799V1.00659C1.69336 0.769776 1.88538 0.577881 2.12207 0.577881H4.56458C4.80127 0.577881 4.99329 0.769776 4.99329 1.00659V1.43799C4.99317 1.67468 4.80127 1.86658 4.56458 1.86658Z" fill="#FC4E51"/>
        <path d="M13.7312 14.6935H2.20654V5.28504L7.96888 1.63721L13.7312 5.28504V14.6935Z" fill="#E7ECED"/>
        <path d="M7.96888 1.63721L6.57764 2.51795L11.532 5.6543C11.6796 5.74781 11.7689 5.91016 11.7689 6.08472V14.6934H13.7313V5.28516L7.96888 1.63721Z" fill="#D8D8D8"/>
        <path d="M7.84718 0.852631L0.514527 5.4946C0.320679 5.61729 0.203125 5.83079 0.203125 6.06028C0.203125 6.58787 0.784913 6.90806 1.23071 6.62595L7.84718 2.43735C7.9214 2.39035 8.01612 2.39035 8.09034 2.43735L14.7068 6.62595C15.1526 6.90806 15.7344 6.58787 15.7344 6.06028C15.7344 5.83079 15.617 5.61729 15.423 5.4946L8.09034 0.852631C8.01612 0.805634 7.9214 0.805634 7.84718 0.852631Z" fill="#FC4E51"/>
        <path d="M7.63697 14.4873H3.81055V8.83362C3.81055 8.63635 3.97046 8.47656 4.1676 8.47656H7.27979C7.47706 8.47656 7.63685 8.63635 7.63685 8.83362V14.4873H7.63697Z" fill="#912C2C"/>
        <path d="M12.0297 10.9386H9.27185C9.10962 10.9386 8.97803 10.807 8.97803 10.6448V8.77039C8.97803 8.60803 9.10962 8.47656 9.27185 8.47656H12.0297C12.192 8.47656 12.3236 8.60815 12.3236 8.77039V10.6448C12.3235 10.807 12.192 10.9386 12.0297 10.9386Z" fill="#69E6ED"/>
        <path d="M15.1093 15.4787H0.828248C0.483033 15.4787 0.203125 15.1988 0.203125 14.8536C0.203125 14.5083 0.483033 14.2285 0.828248 14.2285H15.1093C15.4545 14.2285 15.7344 14.5083 15.7344 14.8536C15.7344 15.1988 15.4545 15.4787 15.1093 15.4787Z" fill="#7BB72E"/>
        <path d="M12.1822 15.3864C12.4803 15.5064 12.8126 15.5094 13.1131 15.3952C13.9185 15.0887 15.5042 14.3173 15.7124 12.9358C15.8512 12.0146 15.2989 11.2402 15.0315 10.9268C14.9756 10.8614 14.8698 10.8848 14.8465 10.9677C14.5484 12.0292 13.7938 12.7488 13.6643 12.3273C13.457 11.6526 14.6129 11.012 13.9033 9.35197C13.5695 8.57109 12.6356 8.28898 12.2252 8.20072C12.1436 8.18315 12.0737 8.262 12.1016 8.34074C12.2058 8.63432 12.3452 9.26017 11.9847 9.934C11.3162 11.1834 10.2408 11.0334 9.93123 12.6597C9.64486 14.165 11.3336 15.0446 12.1822 15.3864Z" fill="#FCCF3F"/>
        <path d="M13.9033 9.35198C13.5696 8.57109 12.6356 8.28898 12.2252 8.20072C12.1437 8.18315 12.0737 8.262 12.1017 8.34074C12.2058 8.63432 12.3452 9.26018 11.9847 9.93401C11.9746 9.95293 11.9644 9.97136 11.9541 9.98955C12.347 10.2354 12.7492 10.5805 13.0184 11.0622C13.1537 11.304 13.4863 11.7025 13.6428 12.2233C13.5712 11.5842 14.5764 10.9267 13.9033 9.35198Z" fill="#F2BC25"/>
        <path d="M15.0315 10.9269C14.9756 10.8615 14.8697 10.8849 14.8464 10.9678C14.5586 11.9929 13.845 12.6991 13.6798 12.3665C13.7274 12.583 13.7363 12.8252 13.6993 13.0713C13.5422 14.1142 12.6002 14.8092 11.8013 15.2191C11.9388 15.2848 12.0681 15.3405 12.1823 15.3864C12.4803 15.5065 12.8126 15.5094 13.1132 15.3952C13.9186 15.0888 15.5043 14.3173 15.7124 12.9359C15.8512 12.0146 15.2988 11.2401 15.0315 10.9269Z" fill="#F2BC25"/>
        <path d="M14.2397 13.791C14.141 13.6448 14.2097 13.8931 13.6972 13.9627C12.9985 14.0574 12.4012 13.1852 12.4075 12.6593C12.4092 12.5161 12.246 12.4334 12.1313 12.5192C11.8279 12.7457 11.3684 13.1519 11.1444 13.6664C10.9729 14.0601 11.0531 14.4649 11.2038 14.8914C11.5545 15.113 11.9112 15.2771 12.1822 15.3862C12.4804 15.5063 12.8127 15.5093 13.1131 15.395C13.3963 15.2874 13.7758 15.1221 14.158 14.8932C14.3226 14.4497 14.4009 14.0303 14.2397 13.791Z" fill="#FC4E51"/>
        <path d="M14.1578 14.8933C14.3223 14.4499 14.4008 14.0304 14.2395 13.7912C14.1409 13.6449 14.2095 13.8932 13.6969 13.9628C13.5807 13.9786 13.4674 13.9671 13.359 13.9353C12.9768 14.514 12.3547 14.9351 11.8013 15.2191C11.8038 15.2205 11.8065 15.2217 11.8092 15.2229C11.8727 15.2531 11.9342 15.2812 11.9934 15.307C11.9976 15.3089 12.0018 15.3107 12.006 15.3125C12.0342 15.3249 12.0618 15.3367 12.0887 15.3479C12.0933 15.3499 12.0978 15.3518 12.1024 15.3537C12.1294 15.365 12.156 15.3759 12.1815 15.3863C12.1816 15.3863 12.1819 15.3864 12.182 15.3864H12.1821C12.4802 15.5065 12.8125 15.5094 13.1129 15.3952C13.3961 15.2875 13.7756 15.1222 14.1578 14.8933Z" fill="#E5394B"/>
        <path d="M6.50342 10.7043C6.3739 10.7043 6.26904 10.8092 6.26904 10.9387V12.0284C6.26904 12.1578 6.3739 12.2628 6.50342 12.2628C6.63282 12.2628 6.7378 12.1578 6.7378 12.0284V10.9387C6.7378 10.8092 6.63282 10.7043 6.50342 10.7043Z" fill="black"/>
        <path d="M15.4687 14.073C16.266 13.0114 16.0576 11.768 15.2097 10.7747C15.0324 10.567 14.6949 10.6414 14.6209 10.9046C14.4285 11.5896 14.0603 12.0496 13.8739 12.1795C13.8417 11.6741 14.8169 10.893 14.1189 9.26002C13.7401 8.37379 12.7029 8.06385 12.2746 7.97169C12.0875 7.93153 11.9031 8.05311 11.8673 8.24208H9.27199C8.98073 8.24208 8.74379 8.47901 8.74379 8.77028V10.6447C8.74379 10.9359 8.98073 11.1729 9.27199 11.1729H10.4495C10.1253 11.4827 9.83913 11.8906 9.70107 12.616C9.47793 13.7886 10.2925 14.6599 11.3394 15.2443H0.828379C0.612803 15.2443 0.437509 15.069 0.437509 14.8535C0.437509 14.6381 0.612803 14.4628 0.828379 14.4628H9.26845C9.39797 14.4628 9.50283 14.3578 9.50283 14.2284C9.50283 14.0989 9.39797 13.994 9.26845 13.994H7.87123V8.83351C7.87123 8.50733 7.60585 8.24208 7.27968 8.24208H4.16749C3.84144 8.24208 3.57606 8.50733 3.57606 8.83351V13.994H2.44081V6.13721L7.96877 2.6377L13.4967 6.13721V7.79408C13.4967 7.92347 13.6017 8.02845 13.7311 8.02845C13.8606 8.02845 13.9655 7.92347 13.9655 7.79408V6.43397C14.4741 6.72437 14.6636 6.96595 15.0641 6.96595C15.9728 6.96595 16.3076 5.77723 15.5484 5.29652L8.21572 0.654664C8.06569 0.559571 7.87185 0.559571 7.72182 0.654664L4.42628 2.74085V2.1012H4.56459C4.93019 2.1012 5.22768 1.80371 5.22768 1.43823V1.00671C5.22768 0.641236 4.93019 0.34375 4.56459 0.34375H2.12208C1.75648 0.34375 1.45899 0.641236 1.45899 1.00671V1.43823C1.45899 1.80383 1.75648 2.1012 2.12208 2.1012H2.26051V4.11194L0.389169 5.29652C-0.18505 5.66004 -0.172843 6.51637 0.436777 6.85206C0.729746 7.01331 1.07337 7.00282 1.35609 6.82386L1.97206 6.43397V13.994H0.828257C0.354379 13.994 -0.0312413 14.3797 -0.0312413 14.8535C-0.0312413 15.3275 0.354379 15.713 0.828257 15.713H15.1093C15.5832 15.713 15.9688 15.3275 15.9688 14.8535C15.9688 14.5078 15.7636 14.2094 15.4687 14.073ZM1.92775 1.43823V1.00671C1.92775 0.899659 2.0149 0.812501 2.12208 0.812501H4.56459C4.67177 0.812501 4.75893 0.899659 4.75893 1.00671V1.43823C4.75893 1.54529 4.67177 1.63245 4.56459 1.63245H2.12208C2.0149 1.63245 1.92775 1.54529 1.92775 1.43823ZM2.72926 2.1012H3.95753V3.0376L2.72926 3.81519V2.1012ZM1.10536 6.42786C0.96937 6.51392 0.803843 6.51905 0.662851 6.44141C0.369272 6.27979 0.363535 5.86756 0.639902 5.69263L7.96877 1.0531L15.2976 5.69263C15.4245 5.77283 15.5 5.91029 15.5 6.06019C15.5 6.40345 15.1222 6.61146 14.8323 6.42786C7.89516 2.06775 8.12502 2.16809 7.96877 2.16809C7.80861 2.16809 8.04079 2.06885 1.10536 6.42786ZM4.04481 8.83351C4.04481 8.76588 4.09987 8.71083 4.16749 8.71083H7.2798C7.34743 8.71083 7.40248 8.76588 7.40248 8.83351V13.994H4.04481V8.83351ZM9.21255 10.6447V8.7704C9.21255 8.73756 9.23916 8.71083 9.27199 8.71083H11.9571C12.1004 9.53297 11.6551 10.1864 11.0132 10.7042H9.27199C9.23928 10.7042 9.21255 10.6775 9.21255 10.6447ZM10.1616 12.7036C10.4528 11.1737 11.4842 11.3667 12.1914 10.0447C12.5181 9.43397 12.48 8.86061 12.3882 8.48329C12.8012 8.60157 13.4433 8.87196 13.6879 9.44423C14.3698 11.0397 13.182 11.556 13.4403 12.3964C13.4975 12.5823 13.6455 12.6873 13.8118 12.6842C14.2066 12.6795 14.7212 12.0498 14.9986 11.2637C15.7737 12.3295 15.6743 13.4351 14.5473 14.3377C14.6347 13.6743 14.2727 13.3362 13.9849 13.6052C13.9464 13.6411 13.8822 13.7011 13.6656 13.7305C13.1513 13.7999 12.6367 13.0914 12.6417 12.6622C12.6458 12.3251 12.2611 12.1297 11.991 12.3316C11.6388 12.5946 11.1687 13.0236 10.9295 13.573C10.8201 13.8242 10.7982 14.0752 10.8225 14.3158C10.214 13.7743 10.0634 13.2199 10.1616 12.7036ZM12.2698 15.1691C12.02 15.0685 11.7078 14.9248 11.3986 14.7366C11.2565 14.3078 11.2456 14.0209 11.3593 13.7601C11.5443 13.3352 11.9212 12.9833 12.1792 12.7782C12.2665 13.5807 13.1649 14.536 14.0919 14.0946C14.0994 14.2194 14.0756 14.4188 13.9668 14.7318C13.6087 14.94 13.2639 15.0871 13.0298 15.1762C12.7923 15.2666 12.521 15.2703 12.2698 15.1691ZM15.1093 15.2443H14.0154C14.3937 15.0431 14.7873 14.7852 15.1214 14.4634C15.3312 14.4699 15.5 14.6421 15.5 14.8535C15.5 15.069 15.3247 15.2443 15.1093 15.2443Z" fill="black"/>
    </g>
    <defs>
        <clipPath id="clip0">
            <rect width="16" height="16" fill="white"/>
        </clipPath>
    </defs>
</svg>
