<svg width="16" height="16" viewBox="0 0 16 16" fill="none" xmlns="http://www.w3.org/2000/svg">
    <path d="M3.625 0.3125V13.1875H3C2.30969 13.1875 1.75 13.7472 1.75 14.4375V2.1875C1.75 1.15186 2.58936 0.3125 3.625 0.3125Z" fill="#537983"/>
    <path d="M14.25 13.1875V15.0625C14.25 15.4078 13.9703 15.6875 13.625 15.6875H3C2.31006 15.6875 1.75 15.1276 1.75 14.4375C1.75 13.7472 2.30969 13.1875 3 13.1875H14.25Z" fill="#ECECF1"/>
    <path d="M14.25 0.9375V13.1875H3.625V0.3125H13.625C13.9703 0.3125 14.25 0.592163 14.25 0.9375Z" fill="#7FE881"/>
    <path d="M8.9375 3.3125C10.3159 3.3125 11.4375 4.43408 11.4375 5.8125C11.4375 7.19092 8.9375 10.1875 8.9375 10.1875C8.9375 10.1875 6.4375 7.19092 6.4375 5.8125C6.4375 4.43408 7.55908 3.3125 8.9375 3.3125Z" fill="#FF637B"/>
    <path d="M9.875 5.8125C9.875 6.33032 9.45532 6.75 8.9375 6.75C8.41968 6.75 8 6.33032 8 5.8125C8 5.29468 8.41968 4.875 8.9375 4.875C9.45532 4.875 9.875 5.29468 9.875 5.8125Z" fill="#ECECF1"/>
    <path d="M13.625 0H3.625C2.41882 0 1.4375 0.981323 1.4375 2.1875V4.59375C1.4375 4.76636 1.57739 4.90625 1.75 4.90625C1.92261 4.90625 2.0625 4.76636 2.0625 4.59375V2.1875C2.0625 1.43298 2.6001 0.801636 3.3125 0.656494V12.875H3C2.64856 12.875 2.32385 12.9917 2.0625 13.1884V7.09375C2.0625 6.92114 1.92261 6.78125 1.75 6.78125C1.57739 6.78125 1.4375 6.92114 1.4375 7.09375V14.4375C1.4375 15.3007 2.13672 16 3 16H13.625C14.142 16 14.5625 15.5795 14.5625 15.0625C14.5625 14.5088 14.5625 1.43311 14.5625 0.9375C14.5625 0.420532 14.142 0 13.625 0ZM3.9375 0.625H13.625C13.7974 0.625 13.9375 0.765137 13.9375 0.9375V12.875H3.9375V0.625ZM13.9375 15.0625C13.9375 15.2349 13.7974 15.375 13.625 15.375H3C2.4823 15.375 2.0625 14.9553 2.0625 14.4375C2.0625 13.9205 2.48303 13.5 3 13.5H13.9375V15.0625Z" fill="black"/>
    <path d="M11.75 5.8125C11.75 4.26172 10.4883 3 8.9375 3C7.38672 3 6.125 4.26172 6.125 5.8125C6.125 6.9624 7.58289 8.96289 8.28857 9.875H6.75C6.57739 9.875 6.4375 10.0149 6.4375 10.1875C6.4375 10.3601 6.57739 10.5 6.75 10.5H11.125C11.2976 10.5 11.4375 10.3601 11.4375 10.1875C11.4375 10.0149 11.2976 9.875 11.125 9.875H9.58643C10.2892 8.96667 11.75 6.9635 11.75 5.8125ZM6.75 5.8125C6.75 4.60632 7.73132 3.625 8.9375 3.625C10.1437 3.625 11.125 4.60632 11.125 5.8125C11.125 6.74268 9.71533 8.71155 8.9375 9.69177C8.15967 8.71155 6.75 6.74268 6.75 5.8125Z" fill="black"/>
    <path d="M10.1875 5.8125C10.1875 5.12329 9.62671 4.5625 8.9375 4.5625C8.24829 4.5625 7.6875 5.12329 7.6875 5.8125C7.6875 6.50171 8.24829 7.0625 8.9375 7.0625C9.62671 7.0625 10.1875 6.50171 10.1875 5.8125ZM8.3125 5.8125C8.3125 5.4679 8.5929 5.1875 8.9375 5.1875C9.2821 5.1875 9.5625 5.4679 9.5625 5.8125C9.5625 6.1571 9.2821 6.4375 8.9375 6.4375C8.5929 6.4375 8.3125 6.1571 8.3125 5.8125Z" fill="black"/>
    <path d="M3.3125 14.4375C3.3125 14.6101 3.45239 14.75 3.625 14.75H12.375C12.5476 14.75 12.6875 14.6101 12.6875 14.4375C12.6875 14.2649 12.5476 14.125 12.375 14.125H3.625C3.45239 14.125 3.3125 14.2649 3.3125 14.4375Z" fill="black"/>
    <path d="M1.75 6.15625C1.92249 6.15625 2.0625 6.01624 2.0625 5.84375C2.0625 5.67126 1.92249 5.53125 1.75 5.53125C1.57751 5.53125 1.4375 5.67126 1.4375 5.84375C1.4375 6.01624 1.57751 6.15625 1.75 6.15625Z" fill="black"/>
</svg>
