<svg width="53" height="55" viewBox="0 0 53 55" fill="none" xmlns="http://www.w3.org/2000/svg">
<path d="M40.1349 19.5391L32.9298 1.20723C32.5294 0.230385 31.4193 -0.248535 30.4307 0.128886L12.0394 7.31068C11.0506 7.70077 10.5664 8.81605 10.9576 9.80166L18.2168 28.1336C18.6081 29.1192 19.727 29.6019 20.7158 29.2119L39.053 22.0301C40.0418 21.64 40.5261 20.5247 40.1349 19.5391ZM20.1424 27.1091L13.1105 9.27327L31.0041 2.25323L38.0361 20.0999L20.1424 27.1091Z" fill="#2BBCEE"/>
<path d="M22.3714 31.0448H2.67104C1.60745 31.0448 0.745361 31.9041 0.745361 32.9642V52.6116C0.745361 53.6717 1.60745 54.531 2.67104 54.531H22.3714C23.435 54.531 24.2971 53.6717 24.2971 52.6116V32.9642C24.2971 31.9041 23.4348 31.0448 22.3714 31.0448ZM22.1334 52.3635H2.90904V33.2015H22.1334V52.3635Z" fill="#2BBCEE"/>
<path d="M51.4619 30.9372L32.4215 25.8906C31.3833 25.6382 30.3337 26.262 30.0631 27.2925L25.0001 46.2711C24.725 47.2951 25.3349 48.3474 26.3622 48.6216C26.3625 48.6217 26.3629 48.6217 26.3632 48.6219L45.4036 53.6685C46.4309 53.9426 47.4867 53.3347 47.7617 52.3107C47.7619 52.3104 47.7619 52.31 47.762 52.3098L52.7817 33.288C53.0599 32.2767 52.4722 31.2299 51.4619 30.9372ZM45.739 51.4255L27.1529 46.5623L32.0969 28.0473L50.6721 32.9753L45.739 51.4255Z" fill="#2BBCEE"/>
<path d="M32.0108 16.8C31.8143 16.4275 31.5544 16.0918 31.2427 15.808L25.8335 10.1251L25.1952 9.43494C25.0348 9.26914 24.8571 9.121 24.6651 8.99281C24.4709 8.86112 24.2487 8.7762 24.016 8.74479C23.4624 8.70624 22.921 8.92043 22.5447 9.3271C22.3959 9.50907 22.2922 9.72326 22.2418 9.95254C22.1869 10.2221 22.1615 10.497 22.1661 10.7721C22.1661 11.0848 22.1661 11.3544 22.1661 11.5808V19.4312C22.1877 19.7547 22.2057 20.0027 22.2201 20.1753C22.2284 20.3374 22.2613 20.4974 22.3175 20.6497C22.4227 20.9027 22.6314 21.099 22.8909 21.1889C23.1543 21.2967 23.4497 21.2967 23.7131 21.1889C23.981 21.113 24.1949 20.9118 24.2865 20.6497C24.3676 20.2344 24.3967 19.8105 24.373 19.3881V17.846L28.6463 16.1746L29.6632 17.2529L30.1284 17.7166C30.2609 17.8563 30.4098 17.9793 30.572 18.0833C30.6937 18.1563 30.8307 18.2005 30.9722 18.2127C31.1311 18.2241 31.2904 18.1982 31.4374 18.1372C31.6917 18.0331 31.8967 17.8365 32.0108 17.5872C32.1185 17.3358 32.1185 17.0514 32.0108 16.8ZM24.2756 16.0128L24.1242 11.1172L27.413 14.7835L24.2756 16.0128Z" fill="#2BBCEE"/>
<path d="M15.2202 41.9468C16.2508 41.5632 16.9269 40.5738 16.9078 39.4774C16.9088 39.1612 16.8538 38.8473 16.7456 38.5501C16.6394 38.2553 16.4819 37.9815 16.2804 37.7413C16.0817 37.5021 15.844 37.2978 15.5772 37.1374C15.2452 36.9394 14.8778 36.8076 14.4953 36.7492C14.0335 36.6789 13.5668 36.6465 13.0998 36.6522H9.50802C9.11842 36.6099 8.72815 36.7265 8.42618 36.9757C8.17938 37.2783 8.06281 37.666 8.10162 38.054V46.5082C8.06214 46.8947 8.17451 47.2812 8.41536 47.5865C8.71706 47.8448 9.11301 47.9658 9.50802 47.9208H12.9591C13.4628 47.9053 13.965 47.8584 14.4629 47.7806C14.8711 47.7328 15.2714 47.6313 15.6529 47.4787C16.1871 47.257 16.6428 46.8816 16.9619 46.4004C17.2878 45.8921 17.4572 45.2998 17.4488 44.6966C17.4737 43.3624 16.5339 42.2031 15.2202 41.9468ZM10.406 38.3883H12.2126C12.842 38.356 13.4714 38.4513 14.0626 38.6687C14.4717 38.8656 14.7137 39.2964 14.6684 39.747C14.6709 40.0011 14.6035 40.2509 14.4737 40.4695C14.3249 40.7592 14.0688 40.9797 13.7597 41.0842C13.3311 41.2076 12.8855 41.2622 12.4398 41.2459H10.3519L10.406 38.3883ZM15.1228 44.5456C15.1228 45.6527 14.351 46.2063 12.8077 46.2063H10.3519L10.406 42.9281H12.7536C13.3767 42.8889 13.9985 43.0233 14.5494 43.3163C14.9466 43.5949 15.165 44.0633 15.1228 44.5456Z" fill="#2BBCEE"/>
<path d="M44.3333 36.5871C44.0575 35.9067 43.6149 35.306 43.0459 34.8402C42.4183 34.3183 41.6777 33.9492 40.8822 33.7618C40.1785 33.5679 39.4435 33.513 38.7186 33.6001C38.0213 33.6849 37.3502 33.9164 36.7496 34.2794C36.1282 34.6609 35.5938 35.1677 35.1809 35.7676C34.7157 36.4503 34.3751 37.2097 34.1748 38.0105C34.0342 38.5214 33.9471 39.0453 33.9152 39.5741C33.8873 40.0687 33.9199 40.5649 34.0125 41.0515C34.0997 41.5135 34.2451 41.9628 34.4453 42.3886C34.6534 42.8256 34.931 43.2262 35.2675 43.5748C35.6026 43.9169 35.9896 44.2044 36.4142 44.4267C36.8989 44.678 37.4106 44.8733 37.9396 45.009C38.6175 45.2031 39.3278 45.2581 40.0276 45.1708C40.6172 45.0803 41.1812 44.8672 41.6828 44.5453C42.0974 44.2871 42.4635 43.9587 42.7647 43.5748C43.0208 43.2568 43.2085 42.8898 43.3164 42.4965C43.3924 42.2424 43.357 41.9682 43.219 41.7416C43.0876 41.5145 42.8688 41.3509 42.6132 41.2887C42.3633 41.1989 42.0853 41.2351 41.8667 41.3858C41.6578 41.5564 41.4786 41.7605 41.3366 41.9896C41.0007 42.4769 40.5259 42.8526 39.9735 43.068C39.4111 43.2508 38.805 43.2508 38.2425 43.068C37.7315 42.969 37.2568 42.7344 36.8686 42.3886C36.4931 41.9628 36.2588 41.4317 36.1978 40.8682C36.1254 40.1428 36.1951 39.4102 36.4034 38.7115C36.5964 37.6287 37.1535 36.6437 37.9829 35.9185C38.6758 35.3808 39.5874 35.2121 40.4279 35.4656C40.9405 35.5829 41.4049 35.8538 41.7585 36.242C42.1047 36.672 42.3422 37.1787 42.4509 37.7194C42.5061 38.0057 42.6045 38.282 42.743 38.5389C42.8826 38.7321 43.0921 38.8636 43.3272 38.9056C43.5746 38.9738 43.8395 38.9304 44.0521 38.7869C44.2718 38.6544 44.431 38.4416 44.4956 38.1938C44.6096 37.6544 44.5529 37.093 44.3333 36.5871Z" fill="#2BBCEE"/>
</svg>
