<svg width="270" height="270" viewBox="0 0 270 270" fill="none" xmlns="http://www.w3.org/2000/svg">
    <g clip-path="url(#clip0)">
        <path d="M134.514 232.065C206.582 232.065 265.005 224.836 265.005 215.919C265.005 207.002 206.582 199.773 134.514 199.773C62.4458 199.773 4.02301 207.002 4.02301 215.919C4.02301 224.836 62.4458 232.065 134.514 232.065Z" fill="url(#paint0_radial)"/>
        <path d="M60.345 51.678V60.669" stroke="#EAF2F4" stroke-width="0.25" stroke-miterlimit="10"/>
        <path d="M64.8539 51.057C64.8539 53.541 62.8289 55.566 60.3449 55.566C57.8609 55.566 55.8359 53.541 55.8359 51.057C55.8359 48.573 57.8609 46.548 60.3449 46.548C62.8289 46.521 64.8539 48.546 64.8539 51.057Z" fill="#8A89C2"/>
        <path d="M60.345 36.882V45.63" stroke="#EAF2F4" stroke-width="0.25" stroke-miterlimit="10"/>
        <path d="M64.8539 35.505C64.8539 37.989 62.8289 40.014 60.3449 40.014C57.8609 40.014 55.8359 37.989 55.8359 35.505C55.8359 33.021 57.8609 30.996 60.3449 30.996C62.8289 30.996 64.8539 33.021 64.8539 35.505Z" fill="#8A89C2"/>
        <path d="M59.9669 37.638L57.8879 34.938L59.7779 35.748L64.1249 31.941L59.9669 37.638Z" fill="white"/>
        <path d="M64.8539 66.879C64.8539 69.363 62.8289 71.388 60.3449 71.388C57.8609 71.388 55.8359 69.363 55.8359 66.879C55.8359 64.395 57.8609 62.37 60.3449 62.37C62.8289 62.37 64.8539 64.395 64.8539 66.879Z" fill="#8A89C2"/>
        <path d="M59.967 52.812L57.888 50.139L59.778 50.922L64.125 47.115L59.967 52.812Z" fill="white"/>
        <path d="M59.967 68.85L57.888 66.15L59.778 66.933L64.125 63.126L59.967 68.85Z" fill="white"/>
        <path d="M85.995 32.4H67.527V34.884H85.995V32.4Z" fill="#8A89C2"/>
        <path d="M99.846 35.964H67.527V42.93H99.846V35.964Z" fill="#EAF2F4"/>
        <path d="M99.846 51.435H67.527V58.401H99.846V51.435Z" fill="#EAF2F4"/>
        <path d="M99.846 67.095H67.527V74.061H99.846V67.095Z" fill="#EAF2F4"/>
        <path d="M85.995 48.06H67.527V50.544H85.995V48.06Z" fill="#8A89C2"/>
        <path d="M85.995 63.585H67.527V66.069H85.995V63.585Z" fill="#8A89C2"/>
        <path d="M139.254 45.2771C140.39 38.2406 135.607 31.6153 128.571 30.4791C121.534 29.3429 114.909 34.1262 113.773 41.1627C112.636 48.1993 117.42 54.8246 124.456 55.9607C131.493 57.0969 138.118 52.3137 139.254 45.2771Z" fill="#8A89C2"/>
        <path d="M130.842 29.7L126.522 43.227L114.075 31.293L131.706 27.324L130.842 29.7Z" fill="#EAF2F4"/>
        <path d="M130.842 29.7L126.522 43.227L141.264 34.155L131.706 27.324L130.842 29.7Z" fill="#6184C3"/>
        <path d="M126.522 56.133V43.227L141.264 34.155L142.398 49.518L129.546 57.915L126.522 56.133Z" fill="#73C9B8"/>
        <path d="M152.253 30.645H189.108" stroke="#EAF2F4" stroke-miterlimit="10"/>
        <path d="M152.253 33.183H189.108" stroke="#EAF2F4" stroke-miterlimit="10"/>
        <path d="M152.253 35.721H189.108" stroke="#EAF2F4" stroke-miterlimit="10"/>
        <path d="M152.253 38.259H189.108" stroke="#EAF2F4" stroke-miterlimit="10"/>
        <path d="M152.253 40.77H189.108" stroke="#EAF2F4" stroke-miterlimit="10"/>
        <path d="M152.253 43.308H189.108" stroke="#EAF2F4" stroke-miterlimit="10"/>
        <path d="M152.253 46.629H189.108" stroke="#EAF2F4" stroke-miterlimit="10"/>
        <path d="M152.253 49.113H189.108" stroke="#EAF2F4" stroke-miterlimit="10"/>
        <path d="M152.253 51.597H189.108" stroke="#EAF2F4" stroke-miterlimit="10"/>
        <path d="M152.253 54.054H189.108" stroke="#EAF2F4" stroke-miterlimit="10"/>
        <path d="M225.243 87.8634C231.172 85.2318 233.845 78.2922 231.213 72.3635C228.582 66.4348 221.642 63.7619 215.714 66.3935C209.785 69.0251 207.112 75.9647 209.744 81.8934C212.375 87.8221 219.315 90.495 225.243 87.8634Z" fill="#8A89C2"/>
        <path d="M224.424 64.854L220.482 77.139L209.196 66.285L225.18 62.694L224.424 64.854Z" fill="#EAF2F4"/>
        <path d="M224.424 64.854L220.482 77.139L235.764 78.462L230.337 66.231L224.424 64.854Z" fill="#EAF2F4"/>
        <path d="M220.482 88.884V77.139H233.604L234.9 82.836L223.236 90.477L220.482 88.884Z" fill="#73C9B8"/>
        <path d="M226.939 78.6621C227.784 75.0925 225.576 71.5133 222.006 70.6677C218.437 69.8222 214.858 72.0305 214.012 75.6001C213.167 79.1697 215.375 82.7489 218.945 83.5944C222.514 84.44 226.093 82.2317 226.939 78.6621Z" fill="white"/>
        <path d="M212.814 92.502H229.203" stroke="#EAF2F4" stroke-miterlimit="10"/>
        <path d="M212.814 96.093H229.203" stroke="#EAF2F4" stroke-miterlimit="10"/>
        <path d="M212.814 99.684H229.203" stroke="#EAF2F4" stroke-miterlimit="10"/>
        <path d="M70.9559 209.763H72.4139L84.3209 151.74H81.2969L70.9559 209.763Z" fill="#C8C7C6"/>
        <path d="M183.249 209.763H181.791L169.911 151.74H172.908L183.249 209.763Z" fill="#C8C7C6"/>
        <path d="M69.012 116.802C68.526 117.315 68.229 117.99 68.067 118.692C68.283 118.179 68.58 117.666 69.039 117.369C69.633 116.991 70.443 117.045 71.037 116.667C71.604 116.316 71.901 115.668 72.144 115.047C71.658 115.425 71.199 115.776 70.605 115.938C70.011 116.127 69.471 116.343 69.012 116.802Z" fill="#482D3B"/>
        <path d="M74.131 203.267H76.345V181.802H74.131V203.267Z" fill="#A6AEBA"/>
        <path d="M73.456 181.796H77.02V178.664H73.456V181.796Z" fill="#D3DDEB"/>
        <path d="M73.8878 201.712H76.5878V195.016H73.8878V201.712Z" fill="#D3DDEB"/>
        <path d="M73.456 204.818H77.02V201.686H73.456V204.818Z" fill="#D3DDEB"/>
        <path d="M70.9179 178.664H79.5579V172.751H70.9179V178.664Z" fill="#A6AEBA"/>
        <path d="M63.774 175.419H87.5881C87.6691 175.419 87.7231 175.365 87.7231 175.284V171.153C87.7231 171.072 87.6691 171.018 87.5881 171.018H63.774C63.693 171.018 63.639 171.072 63.639 171.153V175.284C63.639 175.338 63.693 175.419 63.774 175.419Z" fill="#A6AEBA"/>
        <path d="M66.663 207.819L73.467 204.444V202.095L65.772 207.252L66.663 207.819Z" fill="#A6AEBA"/>
        <path d="M65.772 210.06C66.6518 210.06 67.365 209.347 67.365 208.467C67.365 207.587 66.6518 206.874 65.772 206.874C64.8922 206.874 64.179 207.587 64.179 208.467C64.179 209.347 64.8922 210.06 65.772 210.06Z" fill="#A6AEBA"/>
        <path d="M75.2491 210.06C76.1289 210.06 76.8421 209.347 76.8421 208.467C76.8421 207.587 76.1289 206.874 75.2491 206.874C74.3693 206.874 73.6561 207.587 73.6561 208.467C73.6561 209.347 74.3693 210.06 75.2491 210.06Z" fill="#A6AEBA"/>
        <path d="M83.8351 207.819L77.0311 204.444V202.095L84.7261 207.252L83.8351 207.819Z" fill="#A6AEBA"/>
        <path d="M86.3191 208.467C86.3191 209.358 85.6171 210.06 84.7261 210.06C83.8351 210.06 83.1331 209.358 83.1331 208.467C83.1331 207.576 83.8351 206.874 84.7261 206.874C85.5901 206.874 86.3191 207.603 86.3191 208.467Z" fill="#A6AEBA"/>
        <path d="M74.806 208.47H75.67V203.286H74.806V208.47Z" fill="#A6AEBA"/>
        <path d="M59.616 173.394C58.806 173.421 58.104 172.881 57.915 172.098C57.321 169.695 56.268 165.213 56.241 154.008C56.214 141.642 53.649 132.246 52.758 128.304C52.515 127.197 53.001 126.09 53.973 125.523C54.513 125.226 55.107 125.064 55.701 125.064H77.22C77.22 125.064 86.049 140.859 87.21 146.259C88.371 151.659 89.991 172.422 89.991 172.422L59.616 173.394Z" fill="#F48996"/>
        <path d="M60.3179 173.448C60.3179 173.448 58.3199 169.506 58.2659 154.035C58.2389 141.291 55.7009 130.788 54.9719 126.738C54.8099 125.874 55.4849 125.064 56.3759 125.064H79.2179C79.2179 125.064 88.0469 140.859 89.2079 146.259C90.3689 151.659 91.9889 172.422 91.9889 172.422L60.3179 173.448Z" fill="#EF4757"/>
        <path d="M58.644 173.448H81.135V168.75H58.293V173.097C58.293 173.286 58.455 173.448 58.644 173.448Z" fill="#F48996"/>
        <path d="M63.639 173.448H96.714C96.957 173.448 97.146 173.259 97.146 173.016V169.182C97.146 168.939 96.957 168.75 96.714 168.75H64.071C63.828 168.75 63.639 168.939 63.639 169.182V173.448Z" fill="#EF4757"/>
        <path d="M66.852 119.637C66.852 119.637 70.173 118.584 70.497 117.153C70.767 115.992 71.199 112.32 71.199 112.32H77.004C77.004 112.32 76.788 115.587 77.004 116.64C77.544 119.259 80.838 120.123 80.838 120.123L81.297 128.331L72.765 135.486L64.53 127.197L66.852 119.637Z" fill="#FBC4AE"/>
        <path d="M80.109 103.383C81.567 105.327 81.27 105.597 81.081 108.297C80.919 110.592 80.325 112.833 79.92 113.832C79.515 114.831 77.463 119.205 73.791 117.612C71.766 116.721 69.444 114.561 68.796 113.076C68.31 111.996 68.04 110.025 68.013 108.189C67.986 106.407 67.959 104.085 68.04 102.762C68.256 98.064 77.436 99.819 80.109 103.383Z" fill="#FBC4AE"/>
        <path d="M89.667 158.625C92.826 157.95 94.581 158.949 96.498 161.217C98.388 163.485 97.632 168.993 96.498 173.529C95.364 178.065 91.017 208.359 91.017 208.359H87.804C87.804 208.359 86.967 196.425 86.4 187.704C85.833 178.983 87.777 166.509 87.777 166.509L75.492 158.598C75.465 158.625 86.832 159.246 89.667 158.625Z" fill="#123A50"/>
        <path d="M89.505 154.251C91.908 156.492 99.036 160.299 97.605 164.997L88.074 169.02C88.074 169.02 78.408 165.51 75.438 158.625C72.468 151.74 72.468 151.74 72.468 151.74L78.84 149.202L89.505 154.251Z" fill="#123A50"/>
        <path d="M82.566 160.299C84.321 161.568 89.046 163.647 88.101 169.02C87.615 171.774 79.866 188.352 75.654 195.318C73.494 198.882 69.66 206.307 69.66 206.307L66.069 207.171C66.069 207.171 68.85 198.153 70.74 189.81C72.63 181.467 78.138 171.531 78.138 171.531C78.138 171.531 74.061 168.777 71.037 167.454C68.013 166.131 66.366 165.591 70.929 161.244C75.465 156.87 79.137 157.842 82.566 160.299Z" fill="#123A50"/>
        <path d="M89.5051 134.649C89.9911 136.728 90.6121 138.78 91.3681 140.103C92.1241 141.426 107.73 147.177 107.73 147.177H98.6041C98.6041 147.177 89.9101 146.043 87.4531 142.722C84.9691 139.401 82.6741 134.676 82.6741 134.676H89.5051V134.649Z" fill="#FBC4AE"/>
        <path d="M83.9161 121.257C85.5361 121.986 87.0211 126.063 88.2091 129.519C89.3971 133.002 89.5051 134.649 89.5051 134.649C89.5051 134.649 85.3201 137.025 83.1061 136.431C83.1061 136.431 81.0001 128.871 82.4581 125.064C83.9161 121.257 83.9161 121.257 83.9161 121.257Z" fill="#123A50"/>
        <path d="M75.87 154.521C80.406 154.332 84.969 154.224 89.505 154.251C87.291 152.82 85.347 151.821 84.915 151.389C83.97 150.444 84.294 141.993 84.996 139.374C85.698 136.755 85.644 133.704 85.158 132.354C84.645 131.004 83.943 121.257 83.943 121.257L80.865 120.123C80.865 120.123 81.81 127.197 74.358 127.197C66.879 127.197 66.852 119.637 66.852 119.637L62.1 120.69C62.1 120.69 61.749 129.897 61.938 134.082C62.127 138.267 64.098 145.503 64.665 149.283C65.097 152.226 64.287 154.035 63.72 156.195C67.5 154.737 71.658 154.386 75.87 154.521Z" fill="#123A50"/>
        <path d="M69.876 205.713C68.85 205.497 68.499 205.929 67.581 206.523C66.663 207.144 65.637 207.144 65.637 207.144V209.898H72.738L69.876 205.713Z" fill="#F15F6A"/>
        <path d="M91.611 206.226C91.611 206.226 91.503 207.171 89.964 207.603C88.425 208.035 87.399 206.766 87.399 206.766L87.048 209.898L99.171 209.979L91.611 206.226Z" fill="#F15F6A"/>
        <path d="M91.827 146.448C90.477 146.286 89.154 145.017 83.889 144.963C82.944 144.963 76.68 143.721 74.979 143.235C71.658 142.263 69.957 141.075 69.957 141.075C69.957 141.075 68.013 133.866 67.284 129.303C65.151 129.06 62.991 128.79 60.885 128.439C60.804 134.136 64.854 144.288 66.204 145.314C68.823 147.285 74.979 147.177 76.464 147.204C79.893 147.258 94.473 147.663 94.473 147.663C94.473 147.663 95.58 146.907 91.827 146.448Z" fill="#FBC4AE"/>
        <path d="M69.012 136.512C69.012 136.512 67.068 125.118 66.501 123.903C63.585 117.693 59.589 121.014 60.183 125.793C60.426 127.845 60.588 133.11 61.614 138.105C63.936 138.24 67.392 137.43 69.012 136.512Z" fill="#123A50"/>
        <path d="M88.722 147.636H94.473L100.197 127.521H95.85L88.722 147.636Z" fill="#A6AEBA"/>
        <path d="M90.3691 147.636H112.779L118.53 127.521H96.1201L90.3691 147.636Z" fill="#D3DDEB"/>
        <path d="M87.0484 148.678H112.779V147.166H87.0484V148.678Z" fill="#D3DDEB"/>
        <path d="M74.2222 148.678H87.0742V147.166H74.2222V148.678Z" fill="#A6AEBA"/>
        <path d="M102.681 138.564C102.033 140.103 102.492 141.777 103.707 142.263C104.922 142.776 106.434 141.939 107.082 140.4C107.73 138.861 107.271 137.187 106.056 136.701C104.841 136.188 103.329 137.025 102.681 138.564Z" fill="#A6AEBA"/>
        <path d="M63.72 156.222C62.883 160.299 64.881 169.209 78.138 171.531L85.698 174.582C85.698 174.582 88.695 171.207 87.75 166.536C86.805 161.865 81.486 160.083 78.003 154.44C78.003 154.44 72.522 152.145 68.985 153.36C65.448 154.602 63.72 156.222 63.72 156.222Z" fill="#123A50"/>
        <path d="M81.2429 106.164C81.2429 106.164 79.65 106.218 77.679 103.275C77.679 103.275 77.8949 104.625 75.9779 106.407C74.0609 108.216 72.3599 107.73 72.0629 108.594C71.7659 109.458 71.739 110.241 71.739 110.241C71.739 110.241 71.4149 110.241 71.1179 109.782C70.9019 109.485 70.8209 108.729 70.4699 108.486C69.6059 107.919 68.0939 108.675 68.5799 110.376C68.8769 111.429 70.0109 112.131 70.0109 112.131C69.9839 115.02 71.1719 115.911 71.1719 115.911C71.1719 115.911 69.2009 116.802 68.2289 116.397C66.7979 115.803 66.4199 114.912 66.4739 113.292C66.4739 113.292 65.3939 113.13 64.5569 112.293C62.5589 110.322 64.8539 104.679 65.7989 103.977C65.7989 103.977 63.6119 100.872 66.3659 98.82C69.1469 96.714 70.2269 100.116 70.2269 100.116C71.1449 99.414 74.952 99.171 76.869 99.9C82.323 101.925 81.2429 106.164 81.2429 106.164Z" fill="#482D3B"/>
        <path d="M77.5439 103.248C77.7059 104.355 77.5439 106.92 74.601 108.918" stroke="#482D3B" stroke-width="0.25" stroke-miterlimit="10"/>
        <path d="M200.934 181.791H198.72V203.256H200.934V181.791Z" fill="#A6AEBA"/>
        <path d="M201.609 178.659H198.045V181.791H201.609V178.659Z" fill="#D3DDEB"/>
        <path d="M201.177 194.994H198.477V201.69H201.177V194.994Z" fill="#D3DDEB"/>
        <path d="M201.609 201.717H198.045V204.849H201.609V201.717Z" fill="#D3DDEB"/>
        <path d="M204.147 172.746H195.507V178.659H204.147V172.746Z" fill="#A6AEBA"/>
        <path d="M211.302 175.419H187.488C187.407 175.419 187.353 175.365 187.353 175.284V171.153C187.353 171.072 187.407 171.018 187.488 171.018H211.302C211.383 171.018 211.437 171.072 211.437 171.153V175.284C211.437 175.338 211.383 175.419 211.302 175.419Z" fill="#A6AEBA"/>
        <path d="M208.413 207.819L201.609 204.444V202.095L209.304 207.252L208.413 207.819Z" fill="#A6AEBA"/>
        <path d="M210.897 208.467C210.897 209.358 210.195 210.06 209.304 210.06C208.413 210.06 207.711 209.358 207.711 208.467C207.711 207.576 208.413 206.874 209.304 206.874C210.168 206.874 210.897 207.603 210.897 208.467Z" fill="#A6AEBA"/>
        <path d="M199.827 210.06C200.707 210.06 201.42 209.347 201.42 208.467C201.42 207.587 200.707 206.874 199.827 206.874C198.947 206.874 198.234 207.587 198.234 208.467C198.234 209.347 198.947 210.06 199.827 210.06Z" fill="#A6AEBA"/>
        <path d="M191.241 207.819L198.045 204.444V202.095L190.35 207.252L191.241 207.819Z" fill="#A6AEBA"/>
        <path d="M190.35 210.06C191.23 210.06 191.943 209.347 191.943 208.467C191.943 207.587 191.23 206.874 190.35 206.874C189.47 206.874 188.757 207.587 188.757 208.467C188.757 209.347 189.47 210.06 190.35 210.06Z" fill="#A6AEBA"/>
        <path d="M200.259 203.256H199.395V208.44H200.259V203.256Z" fill="#A6AEBA"/>
        <path d="M215.433 173.394C216.243 173.421 216.945 172.881 217.134 172.098C217.728 169.695 218.781 165.213 218.808 154.008C218.835 141.642 225.315 132.246 226.206 128.304C226.449 127.197 225.963 126.09 224.991 125.523C224.451 125.226 223.857 125.064 223.263 125.064H197.883C197.883 125.064 189.054 140.859 187.893 146.259C186.732 151.659 185.112 172.422 185.112 172.422L215.433 173.394Z" fill="#F48996"/>
        <path d="M214.731 173.448C214.731 173.448 216.729 169.506 216.783 154.035C216.81 141.291 223.263 130.788 223.992 126.738C224.154 125.874 223.479 125.064 222.588 125.064H195.831C195.831 125.064 187.002 140.859 185.841 146.259C184.68 151.659 183.06 172.422 183.06 172.422L214.731 173.448Z" fill="#EF4757"/>
        <path d="M216.405 173.448H186.894V168.75H216.783V173.097C216.756 173.286 216.594 173.448 216.405 173.448Z" fill="#F48996"/>
        <path d="M190.62 173.448H178.362C178.119 173.448 177.93 173.259 177.93 173.016V169.182C177.93 168.939 178.119 168.75 178.362 168.75H190.161C190.404 168.75 190.593 168.939 190.593 169.182V173.448H190.62Z" fill="#EF4757"/>
        <path d="M192.186 120.447C190.107 122.499 189.972 132.84 187.893 138.213C187.893 138.213 173.637 143.775 167.13 145.422L169.398 147.798C169.398 147.798 188.73 143.154 191.16 141.534C194.913 139.05 197.073 128.952 197.451 123.93C197.775 118.854 194.346 118.287 192.186 120.447Z" fill="#FBC4AE"/>
        <path d="M168.696 145.8L167.103 145.422C167.103 145.422 163.836 145.125 162.81 144.963C161.757 144.801 160.515 146.016 159.084 146.448C157.653 146.907 156.276 147.771 156.276 147.771H157.41L159.732 148.149L161.838 147.771C161.838 147.771 164.322 147.528 165.78 147.771C167.211 148.014 169.371 147.771 169.371 147.771L168.696 145.8Z" fill="#FBC4AE"/>
        <path d="M182.817 156.222C178.389 157.68 172.962 160.029 171.369 161.514C169.776 162.999 166.644 165.078 169.182 173.205C170.802 178.389 177.822 204.687 177.822 204.687L181.386 204.066C181.386 204.066 180.117 188.838 178.848 177.444C178.227 171.909 178.011 170.37 178.011 170.37L182.79 168.426C188.865 165.942 186.786 155.52 186.786 155.52L182.817 156.222Z" fill="#FBC4AE"/>
        <path d="M172.908 159.921C171.315 161.406 170.208 160.893 167.805 169.074C166.293 174.285 160.731 200.61 160.731 200.61L164.052 202.041C168.534 189.459 168.534 189.486 173.772 179.28C176.31 174.339 177.39 169.452 177.39 169.452L187.083 168.858C193.158 166.374 191.079 157.518 191.079 157.518C191.079 157.518 174.501 158.463 172.908 159.921Z" fill="#FBC4AE"/>
        <path d="M209.655 152.118C209.655 156.357 212.733 161.055 209.169 165.888C205.956 170.262 187.083 168.885 187.083 168.885C187.083 168.885 189.729 164.268 187.218 160.785C185.598 158.544 181.872 156.492 181.872 156.492L192.429 153.09L200.907 146.502L209.655 152.118Z" fill="#6184C3"/>
        <path d="M199.071 119.502C198.504 121.446 194.454 121.392 191.484 117.774C188.487 114.156 186.327 108 189.324 103.626C192.294 99.279 196.29 107.703 197.64 112.185C198.99 116.694 199.071 119.502 199.071 119.502Z" fill="#B66637"/>
        <path d="M189.675 103.572C188.865 104.517 189.648 108.135 189.783 108.675C190.053 109.728 189.54 111.159 189.837 111.402C190.134 111.645 190.296 111.456 190.809 111.564C190.863 111.564 192.267 114.318 192.51 114.912C192.888 115.776 194.913 114.237 195.534 114.885C195.993 115.344 195.993 116.235 196.155 117.315L194.967 122.121L204.687 120.258C204.687 120.258 201.852 116.046 201.123 114.102C200.394 112.158 201.312 110.052 201.069 107.46C200.826 104.868 199.665 101.52 195.993 101.196C192.78 100.899 190.62 102.438 189.675 103.572Z" fill="#FBC4AE"/>
        <path d="M192.726 152.523C192.726 152.523 195.183 151.983 199.233 152.523C203.283 153.063 209.25 151.929 209.25 151.929C209.25 151.929 206.793 139.266 206.955 133.542C207.117 127.818 207.549 121.608 207.549 121.608L196.803 119.799C196.803 119.799 194.211 120.744 192.726 124.929C191.268 129.141 191.484 147.258 192.726 152.523Z" fill="#E4DDD7"/>
        <path d="M196.128 117.315C195.345 118.098 192.726 119.124 192.726 120.258C192.726 121.392 190.701 131.139 190.809 133.164C190.917 135.189 191.673 142.938 191.214 145.314C190.755 147.69 190.755 152.955 190.755 152.955L192.726 152.496C192.726 152.496 192.159 139.023 192.726 134.055C193.293 129.06 196.803 119.907 196.803 119.907L195.48 119.448L196.128 117.315Z" fill="#123A50"/>
        <path d="M200.043 119.934L196.803 119.826C196.803 119.826 195.723 124.821 195.723 134.406C195.723 142.479 197.37 153.36 197.37 153.36C197.37 153.36 199.881 154.332 203.283 154.44C206.685 154.548 209.277 153.306 209.277 153.306C209.277 153.306 208.71 145.395 209.277 137.7C209.844 130.005 211.896 128.25 211.491 123.201C210.843 114.831 203.256 117.774 203.256 117.774L200.043 119.934Z" fill="#123A50"/>
        <path d="M196.803 119.799C196.803 119.799 202.014 117.315 202.797 115.722C202.797 115.722 203.364 117.072 203.256 117.747C203.148 118.422 198.153 123.174 198.153 123.174L196.803 119.799Z" fill="#6184C3"/>
        <path d="M201.123 120.393C202.392 113.967 198.99 112.077 195.237 109.782C191.484 107.487 189.297 103.626 189.297 103.626C189.297 103.626 190.755 98.928 194.967 97.956C199.179 96.984 204.579 99.63 205.956 106.272C206.928 110.997 208.197 112.644 211.383 114.966C215.244 117.747 216.405 124.821 211.896 128.25C207.738 131.409 210.141 123.903 208.602 119.691C208.332 118.989 205.092 122.607 203.283 123.201C201.393 123.822 200.907 121.446 201.123 120.393Z" fill="#B66637"/>
        <path d="M196.128 117.315C196.128 117.315 195.777 118.908 196.803 119.799L194.886 122.526C194.886 122.526 194.319 120.366 194.886 119.475C195.453 118.557 196.128 117.315 196.128 117.315Z" fill="#6184C3"/>
        <path d="M177.579 202.797C177.579 202.797 177.687 203.742 179.226 204.174C180.765 204.606 181.791 203.337 181.791 203.337L182.142 206.469L177.255 209.925H173.178L175.392 207.495L177.579 202.797Z" fill="#123A50"/>
        <path d="M161.244 198.477C161.244 198.477 160.515 199.827 161.865 200.691C163.188 201.582 164.565 200.691 164.565 200.691L163.944 203.769L152.388 200.151L161.244 198.477Z" fill="#123A50"/>
        <path d="M206.118 121.419C205.011 124.119 201.717 132.975 199.638 138.348C199.638 138.348 184.437 143.208 177.93 144.855L180.198 147.231C180.198 147.231 198.72 144.396 202.743 142.533C206.82 140.643 210.681 127.575 211.356 124.146C212.355 119.151 207.306 118.503 206.118 121.419Z" fill="#FBC4AE"/>
        <path d="M179.496 145.206L177.903 144.828C177.903 144.828 174.636 144.531 173.61 144.369C172.584 144.207 171.315 145.422 169.884 145.854C168.453 146.313 167.076 147.177 167.076 147.177H168.21L170.532 147.555L172.638 147.177C172.638 147.177 175.122 146.934 176.58 147.177C178.011 147.42 180.171 147.177 180.171 147.177L179.496 145.206Z" fill="#FBC4AE"/>
        <path d="M119.259 80.406L115.128 89.964L116.181 90.423L120.312 80.865C120.366 80.757 120.312 80.622 120.204 80.595C119.988 80.514 119.772 80.406 119.529 80.325C119.421 80.244 119.286 80.298 119.259 80.406Z" fill="#36456A"/>
        <path d="M119.286 82.728L118.611 82.431L119.772 79.758C119.853 79.569 120.069 79.488 120.258 79.569C120.447 79.65 120.528 79.866 120.447 80.055L119.286 82.728Z" fill="#36456A"/>
        <path d="M130.086 103.086C130.086 103.086 126.036 114.21 124.551 114.156C123.444 114.129 116.046 103.977 114.831 102.222C113.643 100.467 111.321 96.336 111.321 96.336L114.345 95.391C114.345 95.391 119.529 101.628 120.879 102.762C122.202 103.896 122.769 104.301 122.769 104.301L124.308 100.089L130.086 103.086Z" fill="#FBC4AE"/>
        <path d="M127.845 91.503C126.225 91.935 125.658 93.393 124.956 96.39C124.254 99.387 123.228 102.222 123.228 102.222L128.601 104.733C128.601 104.733 129.573 99.414 129.924 96.039C130.275 92.637 129.276 91.125 127.845 91.503Z" fill="#36456A"/>
        <path d="M149.877 206.118V210.06H142.29C142.29 210.06 142.587 208.629 146.178 207.981L146.718 206.118H149.877Z" fill="#123A50"/>
        <path d="M133.866 206.118V210.06H126.279C126.279 210.06 126.576 208.629 130.167 207.981L130.707 206.118H133.866Z" fill="#123A50"/>
        <path d="M148.23 126.63C148.23 126.63 149.607 139.158 149.661 152.631C149.715 166.104 150.498 206.118 150.498 206.118H145.071C145.071 206.118 139.455 167.454 137.43 158.787C135.405 150.12 130.086 126.792 130.086 126.792L148.23 126.63Z" fill="#123A50"/>
        <path d="M139.86 81.108C139.86 81.108 140.211 83.862 140.508 85.239C140.805 86.643 141.048 87.372 141.237 87.804C141.696 88.749 144.612 91.611 144.612 91.611C144.612 91.611 135.594 96.39 132.948 96.39C130.302 96.39 131.22 91.071 131.22 91.071C131.22 91.071 134.109 88.776 134.541 87.642C134.973 86.481 135.216 83.133 135.216 83.133L139.86 81.108Z" fill="#FBC4AE"/>
        <path d="M136.404 140.4C136.404 140.4 135.378 160.92 135.189 164.97C134.973 169.02 135.189 206.118 135.189 206.118C135.189 206.118 130.086 206.253 130.086 206.118C130.086 205.983 125.28 166.995 124.659 157.032C124.038 147.069 124.389 135.27 123.579 133.893C122.742 132.516 125.82 126.711 125.82 126.711L133.029 128.628L136.404 140.4Z" fill="#123A50"/>
        <path d="M142.776 88.938L152.037 92.934C152.037 92.934 150.201 100.44 150.093 103.41C149.985 106.38 148.932 129.951 148.932 129.951C148.932 129.951 146.097 134.352 132.381 132.597C127.089 131.922 124.497 129.357 124.497 129.357C124.497 129.357 125.982 103.41 126.387 100.44C126.792 97.47 127.818 91.503 127.818 91.503L132.273 90.126L134.109 92.853L142.776 88.938Z" fill="#EAF2F4"/>
        <path d="M142.371 87.318L134.136 92.853L136.404 95.445L142.776 88.938L142.371 87.318Z" fill="#36456A"/>
        <path d="M134.136 92.853L131.895 94.635L132.3 90.126L133.137 88.938L134.136 92.853Z" fill="#36456A"/>
        <path d="M125.442 108.999L117.531 111.294C116.721 111.537 115.776 111.105 115.425 110.349L107.703 93.879C107.352 93.15 107.703 92.34 108.513 92.124L116.37 89.802C117.801 89.667 118.503 89.937 118.881 90.693L126.603 107.028C126.981 107.811 126.846 108.351 125.442 108.999Z" fill="#97A3CC"/>
        <path d="M125.01 109.188L117.045 111.483C116.235 111.726 115.29 111.294 114.912 110.538L107.19 93.987C106.839 93.258 107.217 92.448 108.027 92.232L115.911 89.91C116.748 89.667 117.747 90.072 118.125 90.855L125.928 107.352C126.252 108.108 125.874 108.918 125.01 109.188Z" fill="url(#paint1_linear)"/>
        <path d="M147.987 104.733C147.987 104.733 140.616 116.937 139.644 117.369C138.672 117.801 125.955 109.512 123.579 107.973C121.203 106.434 119.205 104.922 118.908 104.679C118.611 104.436 117.909 101.952 117.936 101.952C117.963 101.952 118.26 101.52 118.26 101.52L118.584 101.682L118.422 100.683L118.719 100.116L119.016 100.224L119.124 99.225L119.556 98.469C119.556 98.469 120.798 99.873 121.581 100.737C122.364 101.574 123.255 102.222 123.255 102.222C123.255 102.222 123.174 100.899 123.255 100.602C123.336 100.305 123.12 99.414 123.12 99.414L124.362 100.143C124.362 100.143 125.442 103.572 125.658 103.842C125.874 104.112 126.441 106.218 129.384 107.325C134.649 109.323 137.592 110.079 137.592 110.079C137.376 110.052 142.398 100.953 142.398 100.953L147.987 104.733Z" fill="#FBC4AE"/>
        <path d="M152.388 97.551C151.686 100.872 146.826 108.135 146.826 108.135L140.859 103.68C140.859 103.68 143.208 99.009 144.504 96.552C145.962 93.852 147.285 90.558 149.85 91.503C152.307 92.421 152.955 94.905 152.388 97.551Z" fill="#36456A"/>
        <path d="M129.384 74.088C128.736 74.655 127.683 75.816 127.764 76.491C127.845 77.166 127.98 79.164 128.331 80.298C128.682 81.432 129.33 84.375 129.816 85.671C130.302 86.967 130.842 88.749 131.247 88.911C131.652 89.073 135.135 88.452 135.783 87.993C136.431 87.507 139.914 83.673 139.185 80.865C139.185 80.865 140.103 80.973 140.67 78.192C140.805 77.463 137.862 75.384 137.403 74.655C136.269 72.9 132.192 74.277 131.031 74.358C129.843 74.439 129.384 74.088 129.384 74.088Z" fill="#FBC4AE"/>
        <path d="M127.791 76.518C127.791 76.518 128.007 75.519 128.925 75.735C129.843 75.951 131.652 75.816 132.975 75.465C134.298 75.087 135.486 74.304 135.486 74.304C135.486 74.304 135.837 76.059 136.296 76.464C136.755 76.869 137.052 77.679 137.214 78.246C137.376 78.813 138.105 78.975 138.105 78.975C138.105 78.975 138.429 77.409 139.131 77.301C140.535 77.085 140.373 78.975 139.779 79.596C139.212 80.217 138.591 80.676 138.591 80.676C138.591 80.676 138.753 81.486 139.05 82.08C139.32 82.674 140.184 83.484 140.184 83.484C140.184 83.484 140.562 79.731 141.453 78.003C142.344 76.275 142.29 73.116 139.725 72.441C139.725 72.441 139.131 69.579 135.756 69.714C132.381 69.849 129.681 71.199 128.196 71.064C126.711 70.929 126.279 70.605 126.279 70.605C126.279 70.605 125.55 73.035 126.495 74.331C127.494 75.627 127.791 76.518 127.791 76.518Z" fill="#7C2C1A"/>
        <path d="M169.128 147.636H165.996L162.837 127.521H165.24L169.128 147.636Z" fill="#A6AEBA"/>
        <path d="M168.237 147.636H155.952L152.793 127.521H165.078L168.237 147.636Z" fill="#D3DDEB"/>
        <path d="M169.128 147.177H155.763V148.689H169.128V147.177Z" fill="#D3DDEB"/>
        <path d="M185.976 147.177H169.128V148.689H185.976V147.177Z" fill="#A6AEBA"/>
        <path d="M161.487 138.564C161.838 140.103 161.595 141.777 160.92 142.263C160.245 142.749 159.435 141.939 159.084 140.4C158.733 138.861 158.976 137.187 159.651 136.701C160.299 136.188 161.136 137.025 161.487 138.564Z" fill="#A6AEBA"/>
        <path d="M48.7746 151.75L200.137 151.75V148.834L48.7746 148.834V151.75Z" fill="#DCDBDB"/>
        <path d="M64.908 209.763H66.366L78.273 151.74H75.276L64.908 209.763Z" fill="#DCDBDB"/>
        <path d="M177.228 209.763H175.77L163.863 151.74H166.887L177.228 209.763Z" fill="#DCDBDB"/>
        <path d="M188.757 65.718H163.269V90.936H188.757V65.718Z" fill="#EAF2F4"/>
        <path d="M175.986 69.552H167.076V87.561H175.986V69.552Z" fill="white"/>
        <path d="M188.757 60.885H163.269V65.718H188.757V60.885Z" stroke="#EAF2F4" stroke-miterlimit="10"/>
        <path d="M185.652 72.495C185.652 74.25 184.221 75.654 182.493 75.654C180.765 75.654 179.334 74.223 179.334 72.495C179.334 70.74 180.765 69.336 182.493 69.336C184.221 69.336 185.652 70.74 185.652 72.495Z" fill="#73C9B8"/>
        <path d="M182.25 73.737L180.765 71.847L182.115 72.414L185.166 69.741L182.25 73.737Z" fill="white"/>
        <path d="M182.493 85.05C184.238 85.05 185.652 83.6357 185.652 81.891C185.652 80.1463 184.238 78.732 182.493 78.732C180.748 78.732 179.334 80.1463 179.334 81.891C179.334 83.6357 180.748 85.05 182.493 85.05Z" fill="#73C9B8"/>
        <path d="M182.25 83.133L180.765 81.243L182.115 81.81L185.166 79.137L182.25 83.133Z" fill="white"/>
        <path d="M211.329 42.876H206.955V52.11H211.329V42.876Z" fill="#73C9B8"/>
        <path d="M217.755 46.359H213.381V52.137H217.755V46.359Z" fill="#73C9B8"/>
        <path d="M224.181 43.605H219.807V52.11H224.181V43.605Z" fill="#73C9B8"/>
        <path d="M230.607 37.071H226.233V52.11H230.607V37.071Z" fill="#73C9B8"/>
        <path d="M206.955 39.798L211.356 38.286L215.595 39.798L227.853 29.943" stroke="#A2D8C8" stroke-miterlimit="10"/>
        <path d="M228.447 29.457L227.88 30.483L227.799 29.97L227.34 29.808L228.447 29.457Z" fill="#A2D8C8"/>
        <path d="M202.689 55.593H234.981V35.937" stroke="#EAF2F4" stroke-width="0.25" stroke-miterlimit="10"/>
    </g>
    <defs>
        <radialGradient id="paint0_radial" cx="0" cy="0" r="1" gradientUnits="userSpaceOnUse" gradientTransform="translate(135.27 185.105) rotate(-1.34859) scale(226.47 49.7196)">
            <stop offset="0.1724" stop-color="#8894CA"/>
            <stop offset="0.3716" stop-color="#A1AAD6" stop-opacity="0.7562"/>
            <stop offset="0.9892" stop-color="white" stop-opacity="0"/>
        </radialGradient>
        <linearGradient id="paint1_linear" x1="103.132" y1="105.505" x2="121.046" y2="96.5766" gradientUnits="userSpaceOnUse">
            <stop stop-color="#EEF4FB"/>
            <stop offset="0.289" stop-color="#E4EDF8"/>
            <stop offset="1" stop-color="#CFE1F3"/>
        </linearGradient>
        <clipPath id="clip0">
            <rect width="270" height="270" fill="white"/>
        </clipPath>
    </defs>
</svg>
