<svg width="32" height="33" viewBox="0 0 32 33" fill="none" xmlns="http://www.w3.org/2000/svg">
<path d="M31.4518 22.1041L26.668 17.3351C27.8238 15.8171 28.5453 13.9975 28.7303 12.0898C28.9569 9.74848 28.3719 7.383 27.0828 5.42879C26.9412 5.21432 26.652 5.15477 26.4371 5.29589C26.2219 5.43702 26.1622 5.72532 26.3037 5.93979C28.7432 9.63761 28.2315 14.5968 25.087 17.7314C21.4144 21.3924 15.439 21.3924 11.7665 17.7314C8.09386 14.0703 8.09386 8.11331 11.7665 4.45229C15.439 0.791262 21.4146 0.791262 25.0858 4.45108L25.1113 4.47674C25.293 4.65877 25.5881 4.65998 25.7707 4.47892C25.9535 4.29809 25.9545 4.00374 25.7731 3.8217L25.7464 3.79483C21.7102 -0.228568 15.1432 -0.228568 11.1069 3.79483C10.9802 3.92119 10.8575 4.04997 10.7388 4.18117H0.495454C0.238029 4.18117 0.0291748 4.38935 0.0291748 4.64594V6.70158C0.0291748 6.95841 0.238029 7.16659 0.495454 7.16659C0.753121 7.16659 0.961732 6.95841 0.961732 6.70158V5.11095H9.99078C9.63452 5.60985 9.32804 6.1332 9.07134 6.67471H3.26204C3.00462 6.67471 2.79576 6.88264 2.79576 7.13948C2.79576 7.39631 3.00462 7.60425 3.26204 7.60425H8.68545C8.55163 7.97751 8.44016 8.35683 8.35079 8.74051H3.26204C3.00462 8.74051 2.79576 8.94845 2.79576 9.20528C2.79576 9.46187 3.00462 9.67005 3.26204 9.67005H8.17837C8.12615 10.0469 8.09483 10.4263 8.08438 10.8061H3.26204C3.00462 10.8061 2.79576 11.0142 2.79576 11.2711C2.79576 11.5277 3.00462 11.7359 3.26204 11.7359H8.10066C8.18468 13.0861 8.53221 14.4228 9.14444 15.6615H8.36027C8.1026 15.6615 7.89399 15.8696 7.89399 16.1265V29.8856C7.89399 30.1424 8.1026 30.3506 8.36027 30.3506H12.0905C12.3482 30.3506 12.5568 30.1424 12.5568 29.8856V19.5926C12.9767 19.8809 13.4131 20.1351 13.8624 20.3547V29.8856C13.8624 30.1424 14.0712 30.3506 14.3286 30.3506H18.0589C18.3165 30.3506 18.5251 30.1424 18.5251 29.8856V21.4055C18.8887 21.4018 19.2518 21.3798 19.6134 21.3387V28.5181C19.6134 28.775 19.822 28.9831 20.0796 28.9831C20.3371 28.9831 20.5459 28.775 20.5459 28.5181V21.1891C22.0198 20.8841 23.4393 20.2571 24.69 19.308L29.4727 24.076C29.7372 24.3393 30.0886 24.4846 30.4621 24.4846C30.8359 24.4846 31.1873 24.3393 31.4515 24.076C31.9967 23.5328 31.997 22.6482 31.4518 22.1041ZM11.6242 29.4208H8.82654V16.5912H9.66657C10.07 17.2296 10.5498 17.8333 11.1069 18.3888C11.275 18.5563 11.4479 18.7163 11.6242 18.8698V29.4208ZM14.7952 29.4208V20.7546C15.6995 21.0908 16.6418 21.2965 17.5928 21.3726V29.4208H14.7952ZM30.7924 23.4185C30.7043 23.5064 30.587 23.5548 30.4624 23.5548C30.3378 23.5548 30.2205 23.5064 30.1326 23.4185L25.4088 18.7098C25.5232 18.6055 25.6359 18.499 25.7464 18.3888C25.8566 18.2789 25.964 18.1669 26.0687 18.0524L30.7919 22.7613C30.9738 22.9426 30.9741 23.2377 30.7924 23.4185Z" fill="#2BBCEE"/>
<path d="M20.0797 30.0564C19.8223 30.0564 19.6134 30.2643 19.6134 30.5212V31.5749H0.961735V8.71501C0.961735 8.45818 0.753123 8.25024 0.495455 8.25024C0.238029 8.25024 0.0291748 8.45818 0.0291748 8.71501V32.0397C0.0291748 32.2965 0.238029 32.5044 0.495455 32.5044H20.0797C20.3374 32.5044 20.546 32.2965 20.546 32.0397V30.5212C20.546 30.2643 20.3374 30.0564 20.0797 30.0564Z" fill="#2BBCEE"/>
<path d="M2.04968 19.8439V29.8846C2.04968 30.1412 2.25854 30.3494 2.51596 30.3494H6.24644C6.50387 30.3494 6.71272 30.1412 6.71272 29.8846V19.8439C6.71272 19.5873 6.50387 19.3791 6.24644 19.3791H2.51596C2.25854 19.3791 2.04968 19.5873 2.04968 19.8439ZM2.98224 20.3089H5.78016V29.4196H2.98224V20.3089Z" fill="#2BBCEE"/>
<path d="M6.74873 13.8009C7.0064 13.8009 7.21501 13.5927 7.21501 13.3359C7.21501 13.0793 7.0064 12.8712 6.74873 12.8712H3.26206C3.00463 12.8712 2.79578 13.0793 2.79578 13.3359C2.79578 13.5927 3.00463 13.8009 3.26206 13.8009H6.74873Z" fill="#2BBCEE"/>
<path d="M18.4269 2.63452C16.1576 2.63452 14.0263 3.51323 12.4259 5.10869C10.8255 6.70416 9.94397 8.82879 9.94397 11.0909C9.94397 13.353 10.8255 15.4777 12.4259 17.0731C14.0266 18.6686 16.1576 19.5473 18.4269 19.5473C20.6961 19.5473 22.8271 18.6686 24.4278 17.0731C26.0282 15.4777 26.9095 13.353 26.9095 11.0909C26.9095 8.82879 26.0282 6.70416 24.4278 5.10869C22.8271 3.51323 20.6961 2.63452 18.4269 2.63452ZM23.7682 16.4157C22.3438 17.8356 20.4469 18.6175 18.4269 18.6175C16.4066 18.6175 14.5099 17.8356 13.0855 16.4157C11.6609 14.9957 10.8765 13.1047 10.8765 11.0909C10.8765 9.07691 11.6609 7.18588 13.0855 5.76591C14.558 4.29801 16.4925 3.56382 18.4269 3.56382C20.3612 3.56382 22.2958 4.29801 23.7682 5.76591C25.1925 7.18588 25.9769 9.07691 25.9769 11.0909C25.9769 13.1047 25.1925 14.9957 23.7682 16.4157Z" fill="#2BBCEE"/>
</svg>
