<svg width="24" height="24" viewBox="0 0 24 24" fill="none" xmlns="http://www.w3.org/2000/svg">
<path d="M23.4994 4.58619C23.0678 4.06023 22.4128 3.76748 21.733 3.76748H6.98136C6.5596 3.76748 6.15769 3.88656 5.81036 4.09992L5.05615 1.46517C4.93211 1.03348 4.54012 0.735771 4.09355 0.735771H2.94735H0.759167C0.34237 0.735771 0 1.07318 0 1.49494V1.57433C0 1.99113 0.337408 2.3335 0.759167 2.3335H3.62713L5.09089 7.50873L7.10541 14.6489C5.95921 14.9367 5.11073 15.9737 5.11073 17.2042C5.11073 18.5985 6.19738 19.7447 7.57182 19.834C7.4577 20.1615 7.40312 20.5237 7.43289 20.8959C7.53213 22.1562 8.55924 23.1734 9.81955 23.2577C11.323 23.3619 12.5784 22.1661 12.5784 20.6875C12.5784 20.3898 12.5287 20.1069 12.4345 19.839H15.4513C15.3272 20.1913 15.2776 20.5833 15.3223 20.9852C15.4612 22.2058 16.4685 23.1684 17.699 23.2577C19.2025 23.3619 20.4628 22.1711 20.4628 20.6875C20.4628 19.2535 19.2719 18.1073 17.8429 18.1073H7.76534C7.27411 18.1073 6.85731 17.7252 6.83747 17.239C6.81762 16.7229 7.22945 16.3012 7.74053 16.3012H9.2539H17.4559H19.7632C20.7853 16.3012 21.6784 15.6016 21.9265 14.6092L23.9311 6.54117C24.1048 5.8465 23.946 5.13696 23.4994 4.58619ZM17.8876 19.834C18.354 19.834 18.736 20.2161 18.736 20.6825C18.736 21.1489 18.354 21.531 17.8876 21.531C17.4211 21.531 17.0391 21.1489 17.0391 20.6825C17.0391 20.2161 17.4162 19.834 17.8876 19.834ZM10.0031 19.834C10.4696 19.834 10.8516 20.2161 10.8516 20.6825C10.8516 21.1489 10.4696 21.531 10.0031 21.531C9.53673 21.531 9.15466 21.1489 9.15466 20.6825C9.15466 20.2161 9.53176 19.834 10.0031 19.834ZM6.88708 7.49881L6.50006 6.13429C6.44052 5.92589 6.52487 5.77208 6.58441 5.69765C6.63899 5.62322 6.768 5.49917 6.98136 5.49917H8.59893L9.04054 7.50377H6.88708V7.49881ZM7.37335 9.22554H9.41764L9.82452 11.0813H7.89435L7.37335 9.22554ZM9.2539 14.5645C9.03062 14.5645 8.83214 14.4157 8.7726 14.1973L8.38061 12.808H10.2016L10.5886 14.5596H9.2539V14.5645ZM13.5757 14.5645H12.3551L11.968 12.813H13.5707V14.5645H13.5757ZM13.5757 11.0813H11.5909L11.1841 9.22554H13.5757V11.0813ZM13.5757 7.49881H10.807L10.3654 5.49421H13.5757V7.49881ZM16.6719 14.5645H15.3074V12.813H17.0391L16.6719 14.5645ZM17.4063 11.0813H15.3074V9.22554H17.7983L17.4063 11.0813ZM15.3074 7.49881V5.49421H18.5822L18.1605 7.49881H15.3074ZM20.2544 14.1874C20.1998 14.4107 20.0013 14.5695 19.7681 14.5695H18.4383L18.8105 12.8179H20.5968L20.2544 14.1874ZM21.0235 11.0813H19.1727L19.5647 9.22554H21.4849L21.0235 11.0813ZM22.254 6.11445L21.9116 7.49385H19.9269L20.3487 5.48925H21.7678C21.9811 5.48925 22.1052 5.60833 22.1597 5.68276C22.2193 5.75719 22.3086 5.91101 22.254 6.11445Z" fill="#2BBCEE"/>
</svg>
