<svg width="44" height="44" viewBox="0 0 44 44" fill="none" xmlns="http://www.w3.org/2000/svg">
<g filter="url(#filter0_d)">
<circle cx="22" cy="21" r="18" fill="#F8F9FB"/>
</g>
<g clip-path="url(#clip0)">
<path d="M12.7376 23.5144C12.6505 23.4272 12.5295 23.377 12.4062 23.377C12.283 23.377 12.162 23.4272 12.0748 23.5144C11.9877 23.6015 11.9375 23.722 11.9375 23.8458C11.9375 23.969 11.9876 24.09 12.0748 24.1772C12.162 24.2643 12.283 24.3145 12.4062 24.3145C12.5295 24.3145 12.6505 24.2644 12.7376 24.1772C12.8248 24.0895 12.875 23.969 12.875 23.8458C12.875 23.7225 12.8248 23.6015 12.7376 23.5144Z" fill="#2BBCEE"/>
<path d="M13.6752 12.606L12.7377 11.6685C12.5546 11.4855 12.2579 11.4855 12.0748 11.6685L11.1373 12.606C10.9542 12.789 10.9542 13.0859 11.1373 13.2689C11.3204 13.4519 11.6171 13.4519 11.8002 13.2689L11.9375 13.1317V21.9557C11.9375 22.2145 12.1474 22.4244 12.4063 22.4244C12.6651 22.4244 12.875 22.2145 12.875 21.9557V13.1317L13.0123 13.269C13.1039 13.3604 13.2238 13.4062 13.3438 13.4062C13.4637 13.4062 13.5837 13.3604 13.6752 13.2689C13.8583 13.0859 13.8583 12.7891 13.6752 12.606Z" fill="#2BBCEE"/>
<path d="M34.8627 28.7311L33.9252 27.7936C33.7421 27.6106 33.4454 27.6106 33.2623 27.7936C33.0792 27.9766 33.0792 28.2734 33.2623 28.4565L33.3996 28.5938H31.7173V22.0157C31.7173 21.7568 31.5074 21.5469 31.2486 21.5469C30.9897 21.5469 30.7798 21.7568 30.7798 22.0157V28.5938H25.7002V25.5938C25.7002 25.3349 25.4903 25.125 25.2315 25.125C24.9726 25.125 24.7627 25.3349 24.7627 25.5938V28.5938H20.866V21.0715C20.866 20.8127 20.6561 20.6028 20.3973 20.6028C20.1384 20.6028 19.9285 20.8127 19.9285 21.0715V28.5938H16.1649V25.6641C16.1649 25.4053 15.955 25.1954 15.6962 25.1954C15.4373 25.1954 15.2274 25.4053 15.2274 25.6641V28.5938H12.875V25.8959C12.875 25.6371 12.6651 25.4271 12.4062 25.4271C12.1474 25.4271 11.9375 25.6371 11.9375 25.8959V29.0625C11.9375 29.3214 12.1474 29.5313 12.4062 29.5313H33.3995L33.2622 29.6686C33.0792 29.8516 33.0792 30.1484 33.2622 30.3315C33.3538 30.423 33.4737 30.4688 33.5937 30.4688C33.7136 30.4688 33.8336 30.423 33.9251 30.3315L34.8626 29.394C35.0458 29.2109 35.0458 28.9141 34.8627 28.7311Z" fill="#2BBCEE"/>
<path d="M31.2486 15.1628C30.3153 15.1628 29.5561 15.9221 29.5561 16.8554C29.5561 17.123 29.6188 17.3763 29.7299 17.6015L26.0594 21.272C25.8144 21.134 25.5321 21.0549 25.2315 21.0549C24.9376 21.0549 24.661 21.1303 24.4199 21.2626L21.9373 18.78C22.0349 18.5663 22.0898 18.3291 22.0898 18.0792C22.0898 17.1459 21.3305 16.3866 20.3973 16.3866C19.464 16.3866 18.7047 17.1459 18.7047 18.0792C18.7047 18.3672 18.7772 18.6385 18.9046 18.8761L16.5127 21.268C16.2704 21.1339 15.9921 21.0574 15.6962 21.0574C14.7629 21.0574 14.0037 21.8166 14.0037 22.7499C14.0037 23.6832 14.763 24.4424 15.6963 24.4424C16.6295 24.4424 17.3888 23.6832 17.3888 22.7499C17.3888 22.4526 17.3115 22.1732 17.1764 21.9302L19.5584 19.5482C19.8059 19.6901 20.0922 19.7717 20.3973 19.7717C20.7397 19.7717 21.0585 19.6692 21.3251 19.4937L23.7542 21.9227C23.6173 22.1669 23.539 22.4481 23.539 22.7474C23.539 23.6807 24.2982 24.4399 25.2315 24.4399C26.1648 24.4399 26.924 23.6807 26.924 22.7474C26.924 22.4548 26.8493 22.1794 26.7181 21.9391L30.3613 18.2959C30.6195 18.4555 30.9233 18.5479 31.2486 18.5479C32.1818 18.5479 32.9411 17.7886 32.9411 16.8554C32.9411 15.9221 32.1818 15.1628 31.2486 15.1628ZM15.6963 23.505C15.28 23.505 14.9413 23.1663 14.9413 22.75C14.9413 22.3337 15.2799 21.9949 15.6963 21.9949C15.9002 21.9949 16.0852 22.0765 16.2213 22.2084C16.2236 22.2108 16.2256 22.2134 16.2279 22.2158C16.2307 22.2185 16.2337 22.2209 16.2366 22.2236C16.3693 22.3597 16.4514 22.5453 16.4514 22.75C16.4514 23.1663 16.1126 23.505 15.6963 23.505ZM20.3974 18.8341C19.9811 18.8341 19.6423 18.4954 19.6423 18.0791C19.6423 17.6628 19.981 17.3241 20.3974 17.3241C20.8137 17.3241 21.1524 17.6628 21.1524 18.0791C21.1524 18.4954 20.8136 18.8341 20.3974 18.8341ZM25.2316 23.5024C24.8153 23.5024 24.4765 23.1636 24.4765 22.7473C24.4765 22.331 24.8153 21.9923 25.2316 21.9923C25.6479 21.9923 25.9866 22.331 25.9866 22.7473C25.9866 23.1637 25.6479 23.5024 25.2316 23.5024ZM31.2487 17.6104C30.8324 17.6104 30.4936 17.2716 30.4936 16.8553C30.4936 16.439 30.8323 16.1003 31.2487 16.1003C31.665 16.1003 32.0037 16.439 32.0037 16.8553C32.0037 17.2716 31.665 17.6104 31.2487 17.6104Z" fill="#2BBCEE"/>
<path d="M31.5801 19.7311C31.4929 19.6439 31.3719 19.5938 31.2487 19.5938C31.1254 19.5938 31.0044 19.6439 30.9173 19.7311C30.8301 19.8183 30.7799 19.9392 30.7799 20.0625C30.7799 20.1858 30.8301 20.3067 30.9173 20.3939C31.0044 20.481 31.1254 20.5312 31.2487 20.5312C31.3719 20.5312 31.4929 20.4811 31.5801 20.3939C31.6672 20.3067 31.7174 20.1858 31.7174 20.0625C31.7174 19.9392 31.6672 19.8183 31.5801 19.7311Z" fill="#2BBCEE"/>
</g>
<defs>
<filter id="filter0_d" x="0" y="0" width="44" height="44" filterUnits="userSpaceOnUse" color-interpolation-filters="sRGB">
<feFlood flood-opacity="0" result="BackgroundImageFix"/>
<feColorMatrix in="SourceAlpha" type="matrix" values="0 0 0 0 0 0 0 0 0 0 0 0 0 0 0 0 0 0 127 0"/>
<feOffset dy="1"/>
<feGaussianBlur stdDeviation="2"/>
<feColorMatrix type="matrix" values="0 0 0 0 0 0 0 0 0 0 0 0 0 0 0 0 0 0 0.1 0"/>
<feBlend mode="normal" in2="BackgroundImageFix" result="effect1_dropShadow"/>
<feBlend mode="normal" in="SourceGraphic" in2="effect1_dropShadow" result="shape"/>
</filter>
<clipPath id="clip0">
<rect width="24" height="24" fill="white" transform="translate(11 9)"/>
</clipPath>
</defs>
</svg>
