<svg width="24" height="24" viewBox="0 0 24 24" fill="none" xmlns="http://www.w3.org/2000/svg">
<g clip-path="url(#clip0)">
<path d="M23.2174 3.13045H10.6957C10.2635 3.13045 9.91303 3.48084 9.91303 3.91308V6.26091H7.04475C7.54673 5.59659 7.82606 4.78172 7.82606 3.91308C7.82611 1.75537 6.07069 0 3.91303 0C1.75537 0 0 1.75537 0 3.91303C0 5.16286 0.577969 6.30131 1.5652 7.03931V23.2174C1.5652 23.6496 1.91559 24 2.34783 24H5.47828C5.91047 24 6.26091 23.6497 6.26091 23.2174V18.7826C6.27548 18.7826 16.9567 18.7826 16.9567 18.7826C17.3871 18.7825 17.7391 18.4324 17.7391 18V15.6522H23.2174C23.6496 15.6522 24 15.3018 24 14.8695V3.91303C24 3.48084 23.6496 3.13045 23.2174 3.13045ZM4.69566 18V22.4348H3.13045V7.74689C3.64505 7.85316 4.19527 7.85016 4.69566 7.74689V18ZM3.91303 6.26086C2.66475 6.26086 1.5652 5.24958 1.5652 3.91303C1.5652 2.61844 2.61844 1.5652 3.91303 1.5652C5.20762 1.5652 6.26086 2.61844 6.26086 3.91303C6.26086 5.24784 5.16258 6.26086 3.91303 6.26086ZM6.26086 17.2174V7.82611H9.91303V14.8696C9.91303 15.1622 10.0791 15.4362 10.3456 15.5696L13.6413 17.2174H6.26086V17.2174ZM16.1739 16.7337L14.0108 15.6522H16.1739V16.7337ZM22.4348 14.087H16.9565H11.4783V7.04348V4.69566H22.4348V14.087Z" fill="#2BBCEE"/>
<path d="M14.6088 7.82619L13.0435 9.39151L14.6088 10.9568L16.1741 9.39151L14.6088 7.82619Z" fill="#2BBCEE"/>
<path d="M19.3041 7.82604L17.7388 9.39136L19.3041 10.9567L20.8694 9.39136L19.3041 7.82604Z" fill="#2BBCEE"/>
</g>
<defs>
<clipPath id="clip0">
<rect width="24" height="24" fill="white"/>
</clipPath>
</defs>
</svg>
