<svg width="36" height="36" viewBox="0 0 36 36" fill="none" xmlns="http://www.w3.org/2000/svg">
<path d="M9.7079 23.749L17.6925 32.2538C17.732 32.2958 17.7796 32.3293 17.8325 32.3522C17.8854 32.3751 17.9424 32.3869 18.0001 32.3869C18.0577 32.3869 18.1147 32.3751 18.1676 32.3522C18.2205 32.3293 18.2681 32.2958 18.3076 32.2538L26.2922 23.749C27.5077 22.4543 28.4027 21.0338 28.9525 19.5271C29.5135 18.0147 29.7502 16.4013 29.6473 14.7915C29.4539 11.849 28.2018 9.07601 26.1226 6.98501C25.0571 5.91622 23.7912 5.06822 22.3974 4.48961C21.0035 3.911 19.5092 3.61316 18.0001 3.61316C16.4909 3.61316 14.9966 3.911 13.6027 4.48961C12.2089 5.06822 10.943 5.91622 9.87749 6.98501C7.79826 9.07601 6.54623 11.849 6.3528 14.7915C6.24986 16.4013 6.48659 18.0147 7.04762 19.5271C7.5974 21.0338 8.4924 22.4543 9.7079 23.749ZM7.19458 14.8474C7.37461 12.1084 8.53994 9.52715 10.4752 7.58055C11.4623 6.59044 12.6351 5.80486 13.9263 5.26884C15.2176 4.73283 16.602 4.45691 18.0001 4.45691C19.3981 4.45691 20.7825 4.73283 22.0738 5.26884C23.365 5.80486 24.5378 6.59044 25.5249 7.58055C27.4602 9.52722 28.6256 12.1086 28.8055 14.8477C28.9004 16.3402 28.6804 17.8359 28.1598 19.2379C27.6494 20.6371 26.814 21.9604 25.6771 23.1714L18.0001 31.3486L10.323 23.1715C9.18611 21.9604 8.35072 20.6369 7.84033 19.2379C7.31969 17.8359 7.09968 16.3402 7.19458 14.8477V14.8474Z" fill="white"/>
<path d="M18 24.4034C22.8851 24.4034 26.8594 20.3274 26.8594 15.3174C26.8594 10.3073 22.8851 6.23145 18 6.23145C13.1149 6.23145 9.14062 10.3074 9.14062 15.3174C9.14062 20.3273 13.1149 24.4034 18 24.4034ZM18 7.0752C22.4198 7.0752 26.0156 10.7726 26.0156 15.3174C26.0156 19.8622 22.4198 23.5596 18 23.5596C13.5802 23.5596 9.98438 19.8622 9.98438 15.3174C9.98438 10.7726 13.5802 7.0752 18 7.0752Z" fill="white"/>
<path d="M18 16.3927C18.1119 16.3927 18.2192 16.3482 18.2983 16.2691C18.3774 16.19 18.4219 16.0827 18.4219 15.9708V11.8016C18.4219 11.6897 18.3774 11.5824 18.2983 11.5033C18.2192 11.4242 18.1119 11.3798 18 11.3798C17.8881 11.3798 17.7808 11.4242 17.7017 11.5033C17.6226 11.5824 17.5781 11.6897 17.5781 11.8016V15.9708C17.5781 16.0827 17.6226 16.19 17.7017 16.2691C17.7808 16.3482 17.8881 16.3927 18 16.3927Z" fill="white"/>
<path d="M18 19.2548C18.1119 19.2548 18.2192 19.2104 18.2983 19.1313C18.3774 19.0522 18.4219 18.9449 18.4219 18.833V18.2416C18.4219 18.1297 18.3774 18.0224 18.2983 17.9433C18.2192 17.8641 18.1119 17.8197 18 17.8197C17.8881 17.8197 17.7808 17.8641 17.7017 17.9433C17.6226 18.0224 17.5781 18.1297 17.5781 18.2416V18.833C17.5781 18.9449 17.6226 19.0522 17.7017 19.1313C17.7808 19.2104 17.8881 19.2548 18 19.2548Z" fill="white"/>
</svg>
