<svg width="17" height="14" viewBox="0 0 17 14" fill="none" xmlns="http://www.w3.org/2000/svg">
    <path d="M4.68568 0.897479C4.9257 0.406996 4.64393 0 4.64393 0C1.86801 0 3.36033 0 0.584405 0C0.135665 0 0 0.135665 0 0.594841C0 4.01778 0 7.44073 0 10.8532C0 11.2394 0 11.615 0 12.0012C0 12.2516 0.146101 12.4499 0.365253 12.4603C0.72007 12.4812 1.07489 12.4603 1.44014 12.4603V11.5629H0.91835V0.897479H4.68568Z" fill="black"/>
    <path d="M17 0.511354C17 0.166973 16.8539 0 16.5408 0C16.4991 0 16.4469 0 16.4051 0C13.9006 0 7.95215 0 5.45799 0C5.14492 0.427868 5.45799 0.897479 5.45799 0.897479H16.186V11.5942H11.6882V12.4812C11.7821 12.4812 11.8656 12.4812 11.9386 12.4812C13.8588 12.4812 14.5476 12.4812 16.4782 12.4812C16.8748 12.4812 17 12.3456 17 11.8864C17 8.93305 17 5.99015 17 3.03682C17 2.19152 17 1.35665 17 0.511354Z" fill="black"/>
    <path d="M16.0189 11.855H1.08528C0.845253 11.855 0.646973 11.6567 0.646973 11.4167V1.12702C0.646973 0.887001 0.845253 0.688721 1.08528 0.688721H16.0189C16.2589 0.688721 16.4572 0.887001 16.4572 1.12702V11.4167C16.4572 11.6567 16.2589 11.855 16.0189 11.855Z" fill="#EBEBEB"/>
    <path d="M9.17292 6.9502C9.16249 8.42165 7.98324 9.56959 6.50136 9.55915C5.07166 9.53828 3.92372 8.3486 3.93415 6.89802C3.94459 5.46832 5.13427 4.30995 6.58485 4.32038C8.02499 4.33082 9.18336 5.51006 9.17292 6.9502ZM4.57074 6.48059C4.48725 6.74149 4.49769 7.03369 4.54986 7.32589C4.76902 8.37991 5.78129 9.09998 6.82487 8.94344C7.92063 8.77647 8.6407 7.86855 8.54678 6.74149C8.51547 6.32406 8.30675 6.12578 7.88932 6.08403C7.48232 6.04229 7.12751 6.17795 6.79356 6.40754C6.397 6.68931 5.94826 6.79367 5.46822 6.71018C5.17601 6.64757 4.88381 6.55364 4.57074 6.48059Z" fill="black"/>
    <path d="M12.2723 7.83733C12.4288 7.83733 12.5749 7.82689 12.7314 7.84776C12.7732 7.84776 12.8358 7.92081 12.8358 7.96256C12.8462 8.1504 12.8462 8.34868 12.8358 8.53652C12.8358 8.5887 12.7628 8.66175 12.7106 8.66175C12.4079 8.67219 12.1053 8.67219 11.7922 8.66175C11.7505 8.66175 11.6774 8.57827 11.6774 8.52609C11.667 8.34868 11.6774 8.17127 11.667 7.99386C11.667 7.8895 11.7087 7.84776 11.8027 7.84776C11.9696 7.84776 12.1262 7.83733 12.2723 7.83733Z" fill="black"/>
    <path d="M9.64266 8.66152C9.49656 8.66152 9.3609 8.66152 9.21479 8.66152C9.11044 8.66152 9.05826 8.61978 9.06869 8.49455C9.07913 8.32758 9.06869 8.16061 9.06869 7.99363C9.06869 7.87884 9.1 7.82666 9.20436 7.82666C9.507 7.82666 9.80964 7.82666 10.1227 7.82666C10.1645 7.82666 10.2271 7.89971 10.2271 7.94145C10.2375 8.1293 10.2271 8.30671 10.2375 8.49455C10.2375 8.59891 10.1958 8.65109 10.1123 8.64065C9.9453 8.66152 9.7992 8.66152 9.64266 8.66152Z" fill="black"/>
    <path d="M14.8188 7.83726C14.9649 7.83726 15.111 7.84769 15.2571 7.83726C15.351 7.82682 15.3823 7.86857 15.3823 7.96249C15.3823 8.15033 15.3927 8.32774 15.3719 8.51559C15.3719 8.56776 15.2988 8.65125 15.2571 8.65125C14.9544 8.66169 14.6518 8.66169 14.3387 8.66169C14.2448 8.66169 14.203 8.61994 14.2135 8.50515C14.2135 8.33818 14.2135 8.16077 14.2135 7.9938C14.2135 7.879 14.2552 7.83726 14.3596 7.83726C14.5161 7.84769 14.6622 7.83726 14.8188 7.83726Z" fill="black"/>
    <path d="M9.64266 7.19033C9.49656 7.19033 9.3609 7.19033 9.21479 7.19033C9.11044 7.19033 9.05826 7.14859 9.06869 7.02336C9.07913 6.85639 9.06869 6.68941 9.06869 6.52244C9.06869 6.40765 9.1 6.35547 9.20436 6.35547C9.507 6.35547 15.0275 6.35547 15.3302 6.35547C15.3719 6.35547 15.4345 6.42852 15.4345 6.47026C15.445 6.65811 15.4345 6.83552 15.445 7.02336C15.445 7.12772 15.4032 7.1799 15.3197 7.16946C15.1632 7.19033 9.7992 7.19033 9.64266 7.19033Z" fill="#F7D614" stroke="#040504" stroke-width="0.2" stroke-miterlimit="10"/>
    <path d="M9.64266 5.7084C9.49656 5.7084 9.3609 5.7084 9.21479 5.7084C9.11044 5.7084 9.05826 5.66666 9.06869 5.54143C9.07913 5.37445 9.06869 5.20748 9.06869 5.04051C9.06869 4.92571 9.1 4.87354 9.20436 4.87354C9.507 4.87354 15.0275 4.87354 15.3302 4.87354C15.3719 4.87354 15.4345 4.94659 15.4345 4.98833C15.445 5.17617 15.4345 5.35358 15.445 5.54143C15.445 5.64578 15.4032 5.69796 15.3197 5.68753C15.1632 5.7084 9.7992 5.7084 9.64266 5.7084Z" fill="#F82A59" stroke="#040504" stroke-width="0.2" stroke-miterlimit="10"/>
    <path d="M4.57124 6.48073C4.87387 6.56421 5.16608 6.65814 5.46872 6.71032C5.94876 6.7938 6.38707 6.68944 6.79406 6.40768C7.11757 6.17809 7.48282 6.04243 7.88982 6.08417C8.30725 6.12591 8.51597 6.32419 8.54728 6.74162C8.6412 7.85825 7.93156 8.77661 6.82537 8.94358C5.78179 9.10012 4.76952 8.38004 4.5608 7.31559C4.49819 7.03383 4.48775 6.74162 4.57124 6.48073Z" fill="#FFCDAC"/>
    <path d="M1.84717 13.911H11.2394C11.2394 13.911 11.2498 10.916 9.12092 10.4672C6.99202 10.0185 4.27871 10.1959 3.08903 10.7177L1.84717 13.911Z" fill="#D8D5ED"/>
    <path d="M6.0216 12.7317C6.10509 12.3665 6.17814 12.043 6.26162 11.7195C6.29293 11.6047 6.29293 11.5108 6.18857 11.4273C5.91724 11.2185 5.90681 10.989 6.06334 10.6863C6.14683 10.5194 6.23031 10.4567 6.41816 10.4672C6.96082 10.4776 6.96082 10.4776 7.16954 10.9785C7.21128 11.0829 7.20084 11.1455 7.12779 11.2081C7.10692 11.229 7.08605 11.2603 7.06518 11.2812C6.83559 11.4481 6.78341 11.6673 6.89821 11.9282C6.95038 12.043 6.89821 12.116 6.80428 12.1786C6.55383 12.3561 6.3138 12.5335 6.0216 12.7317Z" fill="black"/>
    <path d="M11.2391 13.9109C10.112 13.9109 8.99541 13.9109 7.85791 13.9109C7.89965 13.7648 7.9414 13.6292 7.98314 13.504C8.27534 12.5543 8.56754 11.6046 8.84931 10.655C8.90149 10.488 8.97454 10.4567 9.13108 10.4671C10.2373 10.5298 11.1765 11.4272 11.2495 12.5334C11.26 12.9926 11.2391 13.4518 11.2391 13.9109Z" fill="black"/>
    <path d="M5.21811 13.9109C4.10148 13.9109 2.99529 13.9109 1.83691 13.9109C1.86822 13.3369 1.83691 12.7734 1.94127 12.2307C2.12912 11.208 3.04747 10.4879 4.08061 10.467C4.18497 10.467 4.24758 10.4879 4.28933 10.6027C4.59197 11.688 4.91547 12.7629 5.21811 13.8482C5.22855 13.8587 5.21811 13.8795 5.21811 13.9109Z" fill="black"/>
    <path d="M5.729 13.9423C5.79162 13.6814 5.83336 13.4727 5.88554 13.2535C5.89598 13.2222 5.91685 13.1805 5.93772 13.1596C6.2821 12.9091 6.62648 12.6691 6.99174 12.4082C7.04391 12.596 7.09609 12.763 7.11697 12.93C7.1274 12.9822 7.09609 13.0657 7.04391 13.097C6.6891 13.3683 6.32384 13.6188 5.95859 13.8797C5.91685 13.911 5.83336 13.911 5.729 13.9423Z" fill="black"/>
    <path d="M7.23203 13.3577C7.28421 13.5559 7.32595 13.7229 7.36769 13.9108C7.07549 13.9108 6.80416 13.9108 6.47021 13.9108C6.74155 13.7125 6.98157 13.5455 7.23203 13.3577Z" fill="black"/>
</svg>
