<svg width="16" height="16" viewBox="0 0 16 16" fill="none" xmlns="http://www.w3.org/2000/svg">
    <path d="M13.6773 5.41927V2.83862H12.645V14.7096C12.645 15.267 13.0863 15.7212 13.6386 15.7393C13.6514 15.7418 13.6644 15.7418 13.6773 15.7418C13.9612 15.7418 14.2192 15.6257 14.4076 15.4399C14.5934 15.2516 14.7095 14.9935 14.7095 14.7096V5.41927H13.6773Z" fill="#FF826E"/>
    <path d="M1.29053 14.7097V0.258057H12.6454V14.7097C12.6454 15.2671 13.0866 15.7213 13.6389 15.7394C13.6518 15.7419 13.6648 15.7419 13.6776 15.7419H2.32279C1.75247 15.7419 1.29053 15.28 1.29053 14.7097Z" fill="#E6E9ED"/>
    <path d="M11.613 8V14.7097H4.90332V8H11.613Z" fill="#FCD770"/>
    <path d="M10.5807 13.1664V13.6774H5.93555V13.1664C5.93555 12.7045 6.24011 12.2994 6.68391 12.1729L7.742 11.871V11.471C7.43492 11.2903 7.22587 10.9626 7.22587 10.5806V10.0645C7.22587 9.46068 7.74452 8.97807 8.35881 9.03742C8.8956 9.08908 9.29039 9.56904 9.29039 10.1084V10.5806C9.29039 10.9626 9.08134 11.2903 8.77426 11.471V11.871L9.83235 12.1729C10.2761 12.2994 10.5807 12.7045 10.5807 13.1664Z" fill="#F0D0B4"/>
    <path d="M3.65167 1.72388C4.08778 1.45031 4.60656 1.29028 5.16137 1.29028C5.18972 1.29028 5.2182 1.29028 5.24655 1.2928V1.29545C5.19237 1.43217 5.16137 1.57935 5.16137 1.73673C5.16137 2.10581 5.32909 2.45674 5.61815 2.68897L6.05943 3.03991C6.30716 3.23862 6.45169 3.54066 6.45169 3.85808C6.45169 4.43607 6.9188 4.90319 7.4968 4.90319C7.63881 4.90319 7.77553 4.88252 7.90456 4.84636H7.90721C7.59232 6.067 6.48269 6.9677 5.16137 6.9677C3.84005 6.9677 2.73294 6.06964 2.41553 4.849H2.41817C2.51104 4.88252 2.60908 4.90319 2.71228 4.90319C3.1252 4.90319 3.51747 5.06574 3.80905 5.35732L3.86071 5.40898C4.0336 5.58187 4.26583 5.67738 4.50588 5.67738C5.01167 5.67738 5.41943 5.26962 5.41943 4.76382V4.51609C5.41943 4.15999 5.13037 3.87093 4.77427 3.87093C4.41817 3.87093 4.12911 3.58187 4.12911 3.22577V2.83867C4.12911 2.50324 4.02074 2.17801 3.81938 1.90961C3.77037 1.84258 3.71366 1.78323 3.65431 1.7264L3.65167 1.72388Z" fill="#69D6F4"/>
    <path d="M7.99984 4.12891C7.99984 4.37665 7.96884 4.61669 7.90697 4.84628H7.90433C7.7753 4.88244 7.63858 4.90311 7.49657 4.90311C6.91857 4.90311 6.45146 4.436 6.45146 3.858C6.45146 3.54058 6.30692 3.23854 6.05919 3.03983L5.61791 2.68889C5.32885 2.45666 5.16113 2.10573 5.16113 1.73665C5.16113 1.57927 5.19213 1.43209 5.24631 1.29537V1.29272C6.77656 1.3367 7.99984 2.58821 7.99984 4.12891Z" fill="#B4DD7F"/>
    <path d="M3.81948 1.90961C4.02084 2.17801 4.12921 2.50324 4.12921 2.83867V3.22577C4.12921 3.58187 4.41827 3.87093 4.77437 3.87093C5.13047 3.87093 5.41953 4.15999 5.41953 4.51609V4.76382C5.41953 5.26962 5.01177 5.67738 4.50597 5.67738C4.26592 5.67738 4.03369 5.58187 3.86081 5.40898L3.80915 5.35732C3.51756 5.06574 3.1253 4.90319 2.71237 4.90319C2.60917 4.90319 2.51114 4.88252 2.41827 4.849H2.41562C2.35375 4.61929 2.32275 4.37672 2.32275 4.12899C2.32275 3.11475 2.85438 2.22703 3.65176 1.72388L3.65441 1.7264C3.71376 1.78323 3.77046 1.84258 3.81948 1.90961Z" fill="#B4DD7F"/>
    <path d="M13.9355 5.16129V2.58065H12.9032V0H1.03223V14.7097C1.03223 15.4211 1.61111 16 2.32255 16H13.6774C14.3888 16 14.9677 15.4211 14.9677 14.7097V5.16129H13.9355ZM2.32255 15.4839C1.89576 15.4839 1.54836 15.1365 1.54836 14.7097V0.516129H12.3871V14.7097C12.3871 15 12.4833 15.2681 12.6456 15.4839H2.32255ZM14.4516 14.7097C14.4516 15.1365 14.1042 15.4839 13.6774 15.4839C13.2506 15.4839 12.9032 15.1365 12.9032 14.7097V3.09677H13.4193V13.9355H13.9355V5.67742H14.4516V14.7097Z" fill="black"/>
    <path d="M13.4194 14.4517H13.9356V14.9678H13.4194V14.4517Z" fill="black"/>
    <path d="M9.90255 11.9248L9.03209 11.6763V11.6074C9.35366 11.3651 9.54821 10.9839 9.54821 10.5806V10.1088C9.54821 9.42595 9.03675 8.84253 8.38352 8.78028C8.022 8.74475 7.65835 8.86546 7.39007 9.10929C7.12168 9.35349 6.96757 9.70165 6.96757 10.0644V10.5806C6.96757 10.9839 7.16213 11.3651 7.4837 11.6074V11.6763L6.61298 11.9248C6.06207 12.0824 5.67725 12.5927 5.67725 13.1659V13.9354H10.8385V13.1659C10.8385 12.5927 10.4537 12.0824 9.90255 11.9248ZM10.3224 13.4193H6.19338V13.1659C6.19338 12.8221 6.42435 12.5158 6.75487 12.4213L7.99983 12.0654V11.3212L7.87155 11.2466C7.62873 11.1053 7.4837 10.8561 7.4837 10.5806V10.0644C7.4837 9.84656 7.57606 9.63789 7.7371 9.49122C7.90053 9.34265 8.11084 9.27373 8.3345 9.29364C8.72576 9.33106 9.03209 9.68918 9.03209 10.1088V10.5806C9.03209 10.8561 8.88705 11.1053 8.64423 11.2466L8.51596 11.3212V12.0654L9.76066 12.4213C10.0914 12.5158 10.3224 12.8221 10.3224 13.1659V13.4193Z" fill="black"/>
    <path d="M4.64502 14.9678H11.8708V7.74194H4.64502V14.9678ZM5.16115 8.25807H11.3547V14.4516H5.16115V8.25807Z" fill="black"/>
    <path d="M5.16123 7.22577C6.86889 7.22577 8.258 5.83666 8.258 4.129C8.258 2.42134 6.86889 1.03223 5.16123 1.03223C3.45357 1.03223 2.06445 2.42134 2.06445 4.129C2.06445 5.83666 3.45357 7.22577 5.16123 7.22577ZM5.16123 6.70965C4.10881 6.70965 3.20306 6.07532 2.80173 5.16983C3.11246 5.191 3.40329 5.31637 3.62544 5.53853L3.67937 5.59271C3.90026 5.8136 4.19424 5.93545 4.50699 5.93545C5.15241 5.93545 5.67736 5.4105 5.67736 4.76509V4.5161C5.67736 4.01799 5.27224 3.61287 4.77413 3.61287C4.56067 3.61287 4.38703 3.43923 4.38703 3.22577V2.83868C4.38703 2.46834 4.26758 2.10342 4.05462 1.80125C4.32151 1.67373 4.61234 1.58943 4.91992 1.5607C4.91274 1.61905 4.90316 1.67764 4.90316 1.73623C4.90316 2.1881 5.10553 2.60871 5.45772 2.89059L5.89774 3.24228C6.08562 3.39248 6.19349 3.61703 6.19349 3.8572C6.19349 4.5762 6.77854 5.16126 7.49754 5.16126C7.50674 5.16126 7.51657 5.15949 7.52589 5.15924C7.1272 6.07066 6.2178 6.70965 5.16123 6.70965ZM7.74187 4.129C7.74187 4.29962 7.72436 4.46632 7.6926 4.62787C7.62708 4.6382 7.56168 4.64513 7.49754 4.64513C7.06294 4.64513 6.70961 4.2918 6.70961 3.8572C6.70961 3.45927 6.53156 3.08817 6.22032 2.83918L5.78005 2.48724C5.55084 2.30403 5.41929 2.03021 5.41929 1.73623C5.41929 1.6789 5.42496 1.62144 5.4363 1.5636C6.73028 1.70133 7.74187 2.79899 7.74187 4.129ZM3.61486 2.06789C3.7798 2.28903 3.8709 2.56259 3.8709 2.83868V3.22577C3.8709 3.72388 4.27602 4.129 4.77413 4.129C4.98759 4.129 5.16123 4.30264 5.16123 4.5161V4.76509C5.16123 5.1256 4.8675 5.41932 4.50699 5.41932C4.33209 5.41932 4.16791 5.35115 4.0448 5.22829L3.99086 5.17411C3.64951 4.83301 3.19575 4.64513 2.71352 4.64513C2.68693 4.64513 2.65934 4.64148 2.63136 4.63744C2.59835 4.47275 2.58058 4.30289 2.58058 4.129C2.58058 3.28638 2.98834 2.53928 3.61486 2.06789Z" fill="black"/>
    <path d="M8.77441 1.03223H11.8712V1.54836H8.77441V1.03223Z" fill="black"/>
    <path d="M8.77441 2.06445H9.29054V2.58058H8.77441V2.06445Z" fill="black"/>
    <path d="M9.80664 2.06445H11.8712V2.58058H9.80664V2.06445Z" fill="black"/>
    <path d="M8.77441 3.09668H11.8712V3.61281H8.77441V3.09668Z" fill="black"/>
    <path d="M8.77441 4.12915H11.8712V4.64528H8.77441V4.12915Z" fill="black"/>
    <path d="M8.77441 5.16138H10.8389V5.67751H8.77441V5.16138Z" fill="black"/>
    <path d="M11.355 5.16138H11.8711V5.67751H11.355V5.16138Z" fill="black"/>
    <path d="M2.06445 14.1936H4.12897V14.7097H2.06445V14.1936Z" fill="black"/>
    <path d="M2.06445 13.1614H4.12897V13.6775H2.06445V13.1614Z" fill="black"/>
    <path d="M2.06445 12.1292H4.12897V12.6453H2.06445V12.1292Z" fill="black"/>
    <path d="M2.06445 11.0967H4.12897V11.6128H2.06445V11.0967Z" fill="black"/>
    <path d="M2.06445 10.0645H4.12897V10.5806H2.06445V10.0645Z" fill="black"/>
</svg>
