<svg width="30" height="30" viewBox="0 0 30 30" fill="none" xmlns="http://www.w3.org/2000/svg">
    <g clip-path="url(#clip0)">
        <path d="M9.85474 0.603561V30H24.735C26.8167 30 28.5043 28.3125 28.5043 26.2308V0.603561C28.5043 0.270309 28.2339 0 27.9007 0H10.4583C10.125 0 9.85474 0.270309 9.85474 0.603561Z" fill="#E3F4FF"/>
        <path d="M28.5045 0.603561V26.231C28.5045 28.3122 26.8167 30 24.735 30H23.002C25.0839 30 26.7716 28.3122 26.7716 26.231V0.603561C26.7716 0.270309 26.5011 0 26.1678 0H27.9009C28.2342 0 28.5045 0.270309 28.5045 0.603561Z" fill="#BDDFF4"/>
        <path d="M20.123 24.6968C20.4563 24.6968 20.7266 24.9669 20.7266 25.3003V26.231C20.7266 28.3124 22.4141 30 24.4956 30H5.84491C3.76323 30 2.07568 28.3124 2.07568 26.2307V25.3003C2.07568 24.9671 2.34576 24.6968 2.67924 24.6968H20.123Z" fill="#9CC6DB"/>
        <path d="M15.0655 10.1874C15.0655 10.7928 14.5745 11.2835 13.9691 11.2835C13.3638 11.2835 12.8728 10.7928 12.8728 10.1874C12.8728 9.58179 13.3638 9.09106 13.9691 9.09106C14.5745 9.09106 15.0655 9.58179 15.0655 10.1874Z" fill="#F9B200"/>
        <path d="M19.0984 10.7373H16.8803C16.6302 10.7373 16.4276 10.5347 16.4276 10.2845C16.4276 10.0346 16.6302 9.83203 16.8803 9.83203H19.0984C19.3486 9.83203 19.5512 10.0346 19.5512 10.2845C19.5512 10.5347 19.3486 10.7373 19.0984 10.7373Z" fill="#9CC6DB"/>
        <path d="M24.6129 11.8222H16.8803C16.6302 11.8222 16.4276 11.6196 16.4276 11.3695C16.4276 11.1195 16.6302 10.9167 16.8803 10.9167H24.6129C24.8631 10.9167 25.0656 11.1195 25.0656 11.3695C25.0656 11.6196 24.8631 11.8222 24.6129 11.8222Z" fill="#9CC6DB"/>
        <path d="M16.8825 9.4577C16.6337 9.4577 16.4291 9.25697 16.4275 9.00772C16.4259 8.75778 16.625 8.55385 16.875 8.55225H16.8795H16.8825C17.1311 8.55225 17.3337 8.75298 17.3353 9.002C17.3366 9.25217 17.1352 9.4561 16.8853 9.4577C16.8844 9.4577 16.8834 9.4577 16.8825 9.4577Z" fill="#9CC6DB"/>
        <path d="M15.0655 14.9696C15.0655 15.575 14.5745 16.066 13.9691 16.066C13.3638 16.066 12.8728 15.575 12.8728 14.9696C12.8728 14.3642 13.3638 13.8733 13.9691 13.8733C14.5745 13.8733 15.0655 14.3642 15.0655 14.9696Z" fill="#F9B200"/>
        <path d="M19.0983 15.5192H16.8802C16.6301 15.5192 16.4275 15.3167 16.4275 15.0667C16.4275 14.8166 16.6301 14.614 16.8802 14.614H19.0983C19.3485 14.614 19.551 14.8166 19.551 15.0667C19.551 15.3167 19.3485 15.5192 19.0983 15.5192Z" fill="#9CC6DB"/>
        <path d="M24.6128 16.6044H16.8802C16.6301 16.6044 16.4275 16.4019 16.4275 16.1517C16.4275 15.9018 16.6301 15.699 16.8802 15.699H24.6128C24.8629 15.699 25.0655 15.9018 25.0655 16.1517C25.0655 16.4019 24.8629 16.6044 24.6128 16.6044Z" fill="#9CC6DB"/>
        <path d="M16.8825 14.2399C16.6337 14.2399 16.4291 14.0392 16.4275 13.7902C16.4259 13.54 16.625 13.3361 16.875 13.3345H16.8795H16.8825C17.1311 13.3345 17.3337 13.5354 17.3353 13.7845C17.3366 14.0344 17.1352 14.2383 16.8853 14.2399C16.8844 14.2399 16.8834 14.2399 16.8825 14.2399Z" fill="#9CC6DB"/>
        <path d="M15.0655 19.7519C15.0655 20.3573 14.5745 20.8482 13.9691 20.8482C13.3638 20.8482 12.8728 20.3573 12.8728 19.7519C12.8728 19.1465 13.3638 18.6555 13.9691 18.6555C14.5745 18.6555 15.0655 19.1465 15.0655 19.7519Z" fill="#F9B200"/>
        <path d="M19.0983 20.3019H16.8802C16.6301 20.3019 16.4275 20.0992 16.4275 19.8492C16.4275 19.599 16.6301 19.3965 16.8802 19.3965H19.0983C19.3485 19.3965 19.551 19.599 19.551 19.8492C19.551 20.0992 19.3485 20.3019 19.0983 20.3019Z" fill="#9CC6DB"/>
        <path d="M24.6128 21.3867H16.8802C16.6301 21.3867 16.4275 21.1841 16.4275 20.9339C16.4275 20.684 16.6301 20.4814 16.8802 20.4814H24.6128C24.8629 20.4814 25.0655 20.684 25.0655 20.9339C25.0655 21.1841 24.8629 21.3867 24.6128 21.3867Z" fill="#9CC6DB"/>
        <path d="M16.8825 19.0222C16.6337 19.0222 16.4291 18.8214 16.4275 18.5724C16.4259 18.3222 16.625 18.1183 16.875 18.1167H16.8795H16.8825C17.1311 18.1167 17.3337 18.3177 17.3353 18.5667C17.3366 18.8166 17.1352 19.0206 16.8853 19.0222C16.8844 19.0222 16.8834 19.0222 16.8825 19.0222Z" fill="#9CC6DB"/>
        <path d="M24.6868 5.47998H13.6723C13.339 5.47998 13.0687 5.20967 13.0687 4.87619V3.45781C13.0687 3.12456 13.339 2.85425 13.6723 2.85425H24.6868C25.0202 2.85425 25.2903 3.12456 25.2903 3.45781V4.87619C25.2903 5.20967 25.0202 5.47998 24.6868 5.47998Z" fill="#FD6096"/>
        <path d="M9.85681 16.8538L11.8005 17.8201C12.0175 17.9279 12.2543 17.7151 12.1703 17.4878L11.4176 15.4519L9.85681 16.8538Z" fill="#4E7693"/>
        <path d="M9.43883 16.7345L1.63762 8.04955C1.47328 7.86667 1.48793 7.58492 1.67127 7.42012L2.91272 6.30501C3.09606 6.14044 3.37781 6.15578 3.54215 6.33888L11.3434 15.0236C11.5079 15.2069 11.493 15.4882 11.3095 15.653L10.0683 16.7681C9.88469 16.9327 9.60339 16.9178 9.43883 16.7345Z" fill="#C0FF66"/>
        <path d="M9.43883 16.7345L1.63762 8.04953C1.47328 7.86665 1.48793 7.5849 1.67127 7.4201L2.29199 6.86255L10.6888 16.2105L10.0683 16.7681C9.88469 16.9327 9.60339 16.9178 9.43883 16.7345Z" fill="#9BE058"/>
        <path d="M2.48267 8.99022L1.63764 8.04975C1.4733 7.86664 1.48818 7.58489 1.67151 7.42032L2.91274 6.3052C3.09631 6.14041 3.37783 6.15574 3.54217 6.33885L4.3872 7.27956L2.48267 8.99022Z" fill="#FD82AC"/>
    </g>
    <defs>
        <clipPath id="clip0">
            <rect width="30" height="30" fill="white"/>
        </clipPath>
    </defs>
</svg>
