<svg width="30" height="30" viewBox="0 0 30 30" fill="none" xmlns="http://www.w3.org/2000/svg">
    <path d="M7.09407 18.2385V20.025C7.09407 20.1665 7.14166 20.3035 7.22938 20.4146L9.58374 23.3895C9.75029 23.5998 10.0687 23.6012 10.2372 23.3928L12.6423 20.4158C12.7324 20.3042 12.7817 20.1648 12.7817 20.0214V18.2784C11.9398 18.7093 10.9861 18.9528 9.97525 18.9528C8.9341 18.9528 7.954 18.6937 7.09407 18.2385Z" fill="#F9CFCF"/>
    <path d="M11.5716 21.8123C11.1101 22.1408 10.5472 22.3352 9.93773 22.3352C9.32823 22.3352 8.76536 22.1406 8.30415 21.8123H4.06458C3.48489 22.552 3.13904 23.4836 3.13904 24.4964V25.3686H16.9455V24.4964C16.9455 23.4833 16.599 22.552 16.019 21.8123H11.5716Z" fill="#E0EBFC"/>
    <path d="M15.6619 14.1822H15.2271C14.2787 14.1822 13.5101 13.4136 13.5101 12.4654V7.7077C13.5101 6.75932 14.2787 5.99072 15.2271 5.99072H15.6619C16.61 5.99072 17.3789 6.75932 17.3789 7.7077V12.4654C17.3789 13.4136 16.61 14.1822 15.6619 14.1822Z" fill="#4671C6"/>
    <path d="M4.6181 14.1326H4.18333C3.23496 14.1326 2.46635 13.364 2.46635 12.4156V7.6579C2.46635 6.70976 3.23496 5.94092 4.18333 5.94092H4.6181C5.56624 5.94092 6.33508 6.70976 6.33508 7.6579V12.4156C6.33508 13.364 5.56624 14.1326 4.6181 14.1326Z" fill="#4671C6"/>
    <path d="M15.6994 14.4283H15.2646C14.1821 14.4283 13.3015 13.5477 13.3015 12.4655V7.70771C13.3015 6.62523 14.1821 5.74463 15.2646 5.74463H15.6994C16.7819 5.74463 17.6625 6.62523 17.6625 7.70771V12.4655C17.6625 13.5477 16.7819 14.4283 15.6994 14.4283ZM15.2646 6.23684C14.4535 6.23684 13.7937 6.89657 13.7937 7.70771V12.4655C13.7937 13.2764 14.4535 13.9361 15.2646 13.9361H15.6994C16.5105 13.9361 17.1702 13.2764 17.1702 12.4655V7.70771C17.1702 6.89657 16.5105 6.23684 15.6994 6.23684H15.2646Z" fill="#3762CC"/>
    <path d="M4.65556 14.3787H4.22079C3.13831 14.3787 2.25771 13.4981 2.25771 12.4156V7.65791C2.25771 6.57566 3.13831 5.69482 4.22079 5.69482H4.65556C5.73781 5.69482 6.61865 6.57566 6.61865 7.65791V12.4156C6.61841 13.4981 5.73781 14.3787 4.65556 14.3787ZM4.22079 6.18704C3.40965 6.18704 2.74992 6.84701 2.74992 7.65791V12.4156C2.74992 13.2268 3.40965 13.8865 4.22079 13.8865H4.65556C5.4667 13.8865 6.12643 13.2268 6.12643 12.4156V7.65791C6.12643 6.84701 5.4667 6.18704 4.65556 6.18704H4.22079Z" fill="#3762CC"/>
    <path d="M16.1479 10.434C16.1347 10.434 16.1219 10.4359 16.1089 10.4361V9.85305C16.1089 6.44481 13.346 3.68188 9.93778 3.68188C6.52954 3.68188 3.76661 6.44481 3.76661 9.85305V10.4361C3.75363 10.4359 3.74089 10.434 3.72768 10.434C2.68797 10.434 1.84486 11.2771 1.84486 12.3168C1.84486 13.3565 2.68797 14.1996 3.72768 14.1996C3.79593 14.1996 3.86323 14.1955 3.9298 14.1883C4.56646 16.9183 7.01382 18.9527 9.93778 18.9527C12.8617 18.9527 15.3091 16.9183 15.9458 14.1883C16.0123 14.1955 16.0796 14.1996 16.1479 14.1996C17.1878 14.1996 18.0307 13.3565 18.0307 12.3168C18.0307 11.2771 17.1878 10.434 16.1479 10.434Z" fill="#F9CFCF"/>
    <path d="M6.67995 12.5642C6.33339 12.5642 6.05243 12.2832 6.05243 11.9367V10.8907C6.05243 10.5441 6.33339 10.2632 6.67995 10.2632C7.02652 10.2632 7.30748 10.5441 7.30748 10.8907V11.9367C7.30748 12.2832 7.02652 12.5642 6.67995 12.5642Z" fill="#3762CC"/>
    <path d="M13.1955 12.5642C12.8487 12.5642 12.568 12.2832 12.568 11.9367V10.8907C12.568 10.5441 12.8487 10.2632 13.1955 10.2632C13.5421 10.2632 13.8231 10.5441 13.8231 10.8907V11.9367C13.8231 12.2832 13.5421 12.5642 13.1955 12.5642Z" fill="#3762CC"/>
    <path d="M10.0058 15.9844C9.10185 15.9844 8.36641 15.3184 8.36641 14.4998C8.36641 14.364 8.47672 14.2537 8.61252 14.2537C8.74831 14.2537 8.85862 14.364 8.85862 14.4998C8.85862 15.0468 9.37319 15.4921 10.0058 15.4921C10.6381 15.4921 11.1529 15.0468 11.1529 14.4998C11.1529 14.364 11.263 14.2537 11.399 14.2537C11.5348 14.2537 11.6451 14.364 11.6451 14.4998C11.6451 15.3181 10.9097 15.9844 10.0058 15.9844Z" fill="#3762CC"/>
    <path d="M9.97524 19.1991C7.04647 19.1991 4.52725 17.255 3.77763 14.4459C3.7733 14.4459 3.76922 14.4459 3.76513 14.4459C2.59108 14.4459 1.63622 13.4908 1.63622 12.317C1.63622 11.2129 2.48076 10.3027 3.55796 10.1982V9.85331C3.55796 6.31481 6.43673 3.43604 9.97524 3.43604C13.5137 3.43604 16.3923 6.31481 16.3923 9.85331V10.1982C17.4695 10.3027 18.314 11.2131 18.314 12.317C18.314 13.4949 17.3491 14.4519 16.1726 14.4457C15.4232 17.255 12.9038 19.1991 9.97524 19.1991ZM3.96726 13.9424C4.08046 13.9424 4.18068 14.0203 4.20687 14.1328C4.83488 16.826 7.20702 18.7069 9.97524 18.7069C12.7432 18.7069 15.1154 16.826 15.7436 14.1328C15.7717 14.0116 15.8873 13.9302 16.0094 13.9439C16.0712 13.9504 16.1286 13.9537 16.1853 13.9537C17.0878 13.9537 17.822 13.2195 17.822 12.317C17.822 11.4153 17.089 10.6815 16.1875 10.6803C16.1714 10.6815 16.1613 10.6822 16.151 10.6825C16.1493 10.6825 16.1478 10.6825 16.1464 10.6825C16.082 10.6825 16.02 10.657 15.9741 10.6118C15.927 10.5657 15.9003 10.5022 15.9003 10.4364V9.85331C15.9003 6.58615 13.2424 3.92825 9.97524 3.92825C6.70832 3.92825 4.05017 6.58615 4.05017 9.85331V10.4364C4.05017 10.5025 4.02374 10.5657 3.97663 10.6118C3.92952 10.658 3.86559 10.6832 3.7995 10.6822C3.78917 10.6822 3.77859 10.6815 3.76826 10.6806C3.76802 10.6806 3.76802 10.6806 3.76778 10.6806C2.86242 10.6806 2.12867 11.4148 2.12867 12.317C2.12867 13.2192 2.86266 13.9535 3.76513 13.9535C3.82185 13.9535 3.87929 13.9504 3.94106 13.9436C3.94971 13.9429 3.95861 13.9424 3.96726 13.9424Z" fill="#3762CC"/>
    <path d="M6.71745 12.5642C6.37088 12.5642 6.08992 12.2832 6.08992 11.9367V10.8907C6.08992 10.5441 6.37088 10.2632 6.71745 10.2632C7.06401 10.2632 7.34497 10.5441 7.34497 10.8907V11.9367C7.34497 12.2832 7.06401 12.5642 6.71745 12.5642Z" fill="#3762CC"/>
    <path d="M13.2331 12.5642C12.8865 12.5642 12.6055 12.2832 12.6055 11.9367V10.8907C12.6055 10.5441 12.8865 10.2632 13.2331 10.2632C13.5796 10.2632 13.8606 10.5441 13.8606 10.8907V11.9367C13.8606 12.2832 13.5796 12.5642 13.2331 12.5642Z" fill="#3762CC"/>
    <path d="M10.043 15.9844C9.13908 15.9844 8.40364 15.3184 8.40364 14.4998C8.40364 14.364 8.51396 14.2537 8.64975 14.2537C8.78578 14.2537 8.89585 14.364 8.89585 14.4998C8.89585 15.0468 9.41066 15.4921 10.043 15.4921C10.6756 15.4921 11.1901 15.0468 11.1901 14.4998C11.1901 14.364 11.3004 14.2537 11.4362 14.2537C11.572 14.2537 11.6823 14.364 11.6823 14.4998C11.6823 15.3181 10.9469 15.9844 10.043 15.9844Z" fill="#3762CC"/>
    <path d="M15.1894 1.74404H14.129C13.2897 1.74404 12.563 2.24611 12.2005 2.98106C12.1438 3.09594 11.9907 3.09859 11.9299 2.98587C11.5939 2.36267 10.9635 1.93198 10.2314 1.89401C5.76041 1.76519 3.09506 0.674053 2.24739 0.266439C2.10919 0.199865 1.95105 0.304893 1.95105 0.462074V4.85234C1.95105 6.46765 3.22124 7.77677 4.78776 7.77677H8.90236C10.1113 7.77677 11.1661 7.10335 11.7372 6.10113C11.8076 5.97736 11.983 6.01029 12.0181 6.14992C12.2344 7.00649 12.9742 7.63762 13.8541 7.63762H17.034C17.4844 7.63762 17.8497 7.25236 17.8497 6.77697V4.55119C17.8494 3.00077 16.6583 1.74404 15.1894 1.74404Z" fill="#4671C6"/>
    <path d="M8.93961 8.02318H4.82501C3.12534 8.02318 1.74243 6.60086 1.74243 4.85264V0.462136C1.74243 0.301109 1.82294 0.154262 1.95802 0.069423C2.08972 -0.0134937 2.25171 -0.0226266 2.39159 0.0446681C3.30655 0.484728 5.90702 1.52203 10.2759 1.64797C11.0265 1.68666 11.6941 2.08442 12.0977 2.72156C12.5353 1.96257 13.3138 1.49775 14.1665 1.49775H15.2266C16.8292 1.49775 18.133 2.86744 18.133 4.55101V6.77703C18.133 7.38725 17.6567 7.88379 17.0712 7.88379H13.8915C12.985 7.88379 12.1823 7.28607 11.8761 6.40715C11.2235 7.40912 10.1173 8.02318 8.93961 8.02318ZM2.23464 0.515251V4.85264C2.23464 6.32952 3.39668 7.53097 4.82501 7.53097H8.93985C10.0113 7.53097 11.0156 6.93637 11.5607 5.97959C11.6415 5.83803 11.796 5.76064 11.9556 5.78203C12.12 5.80438 12.2529 5.92527 12.2945 6.0899C12.4877 6.85634 13.1446 7.39157 13.8915 7.39157H17.0715C17.3856 7.39157 17.6411 7.11591 17.6411 6.77703V4.55125C17.6411 3.13903 16.5581 1.99021 15.2269 1.99021H14.1665C13.4476 1.99021 12.7934 2.41152 12.4586 3.09C12.3916 3.22603 12.2575 3.31231 12.1089 3.31495C11.9631 3.31832 11.8229 3.2366 11.7508 3.10297C11.4432 2.53241 10.8844 2.17238 10.2562 2.1397C5.88394 2.014 3.22532 0.982949 2.23464 0.515251Z" fill="#3762CC"/>
    <path d="M17.2219 7.27344C17.2219 8.83323 15.9577 10.0977 14.3979 10.0977C12.8381 10.0977 11.574 8.83323 11.574 7.27344C11.574 5.71388 12.8381 4.44946 14.3979 4.44946C15.9577 4.44946 17.2219 5.71388 17.2219 7.27344Z" fill="#FFEA92"/>
    <path d="M16.3853 7.27325C16.3853 8.37087 15.4955 9.26061 14.3979 9.26061C13.3003 9.26061 12.4106 8.37087 12.4106 7.27325C12.4106 6.17562 13.3003 5.28589 14.3979 5.28589C15.4955 5.28589 16.3853 6.17562 16.3853 7.27325Z" fill="#6BDDDD"/>
    <path d="M17.5134 6.27979H17.0416C17.158 6.58886 17.2219 6.92365 17.2219 7.27334C17.2219 7.66293 17.1431 8.03402 17.0005 8.37169H17.5134C17.699 8.37169 17.8497 8.22124 17.8497 8.0357V6.61578C17.8494 6.43024 17.699 6.27979 17.5134 6.27979Z" fill="#E0EBFC"/>
    <path d="M11.7542 6.27979H2.28704C2.1015 6.27979 1.95105 6.43024 1.95105 6.61578V8.0357C1.95105 8.22124 2.1015 8.37169 2.28704 8.37169H11.7953C11.6526 8.03402 11.5737 7.66293 11.5737 7.27334C11.5737 6.92365 11.6379 6.58886 11.7542 6.27979Z" fill="#E0EBFC"/>
    <path d="M14.4355 10.3438C12.7425 10.3438 11.3651 8.9664 11.3651 7.27345C11.3651 5.58051 12.7425 4.20337 14.4355 4.20337C16.1284 4.20337 17.5055 5.58051 17.5055 7.27345C17.5055 8.9664 16.1282 10.3438 14.4355 10.3438ZM14.4355 4.69558C13.0139 4.69558 11.8574 5.85209 11.8574 7.27345C11.8574 8.69505 13.0139 9.85156 14.4355 9.85156C15.8568 9.85156 17.0133 8.69505 17.0133 7.27345C17.0133 5.85209 15.8568 4.69558 14.4355 4.69558Z" fill="#3762CC"/>
    <path d="M14.4355 9.50696C13.204 9.50696 12.202 8.50499 12.202 7.2735C12.202 6.04201 13.204 5.04004 14.4355 5.04004C15.6669 5.04004 16.6687 6.04201 16.6687 7.2735C16.6687 8.50499 15.6669 9.50696 14.4355 9.50696ZM14.4355 5.53249C13.4753 5.53249 12.6942 6.31359 12.6942 7.27374C12.6942 8.23365 13.4753 9.01499 14.4355 9.01499C15.3954 9.01499 16.1765 8.23365 16.1765 7.27374C16.1765 6.31359 15.3954 5.53249 14.4355 5.53249Z" fill="#3762CC"/>
    <path d="M17.5509 8.61781H17.0378C16.9554 8.61781 16.8785 8.57647 16.8328 8.50773C16.7874 8.43876 16.779 8.35175 16.8112 8.27581C16.9453 7.95856 17.0133 7.62112 17.0133 7.27335C17.0133 6.96164 16.958 6.65641 16.8489 6.36632C16.8205 6.29061 16.8309 6.20601 16.8768 6.13968C16.9229 6.0731 16.9984 6.03345 17.0792 6.03345H17.5509C17.872 6.03345 18.1333 6.2947 18.1333 6.61579V8.03547C18.133 8.35656 17.872 8.61781 17.5509 8.61781ZM17.3858 8.1256H17.5509C17.6004 8.1256 17.6408 8.08522 17.6408 8.03571V6.61579C17.6408 6.56628 17.6004 6.5259 17.5509 6.5259H17.4137C17.4747 6.76936 17.5055 7.01956 17.5055 7.27335C17.5055 7.56489 17.4654 7.85017 17.3858 8.1256Z" fill="#3762CC"/>
    <path d="M11.8328 8.61782H2.32453C2.00344 8.61782 1.74243 8.35657 1.74243 8.03571V6.61579C1.74243 6.2947 2.00344 6.03369 2.32453 6.03369H11.7915C11.8722 6.03369 11.9479 6.07335 11.9941 6.13968C12.04 6.20625 12.0503 6.29085 12.0219 6.36632C11.9128 6.65665 11.8576 6.96164 11.8576 7.27336C11.8576 7.62113 11.9256 7.95833 12.0594 8.27581C12.0916 8.35176 12.0835 8.43876 12.0381 8.50774C11.9921 8.57648 11.9152 8.61782 11.8328 8.61782ZM2.32453 6.52591C2.27502 6.52591 2.23464 6.56628 2.23464 6.61579V8.03571C2.23464 8.08522 2.27502 8.1256 2.32453 8.1256H11.4848C11.4055 7.85017 11.3651 7.56489 11.3651 7.27336C11.3651 7.01956 11.3961 6.76937 11.4572 6.52591H2.32453Z" fill="#3762CC"/>
    <path d="M10.2372 23.3927C10.0685 23.6013 9.75003 23.5996 9.58371 23.3893L7.22936 20.4144C7.16951 20.3387 7.12986 20.25 7.10967 20.1568C4.88462 20.3529 3.13904 22.2203 3.13904 24.4966V25.3685H16.9455V24.4966C16.9455 22.1504 15.0913 20.2382 12.7684 20.1433L10.2372 23.3927Z" fill="#A4C9FF"/>
    <path d="M16.9455 25.6146H3.13904C3.00324 25.6146 2.89293 25.5043 2.89293 25.3685V24.4965C2.89293 22.1744 4.57674 20.256 6.84794 19.939V18.2386C6.84794 18.1521 6.89312 18.072 6.9669 18.0276C7.04093 17.9831 7.13298 17.9807 7.20916 18.0211C8.0566 18.4698 9.0129 18.707 9.97522 18.707C10.9238 18.707 11.8304 18.489 12.6694 18.0598C12.7458 18.0206 12.8369 18.024 12.91 18.0687C12.9833 18.1134 13.0278 18.1932 13.0278 18.2787V19.9142C15.3823 20.1358 17.1919 22.1025 17.1919 24.4968V25.3687C17.1916 25.5045 17.0815 25.6146 16.9455 25.6146ZM3.38514 25.1224H16.6994V24.4965C16.6994 22.2835 14.9685 20.4793 12.7583 20.3891C12.6225 20.3836 12.517 20.269 12.5226 20.1332C12.5235 20.1065 12.5291 20.0808 12.5379 20.0568C12.536 20.0452 12.5353 20.0337 12.5353 20.0214V18.6676C11.7282 19.0204 10.8688 19.199 9.97498 19.199C9.06746 19.199 8.16427 19.0041 7.33991 18.6327V20.025C7.33991 20.0471 7.34303 20.0726 7.35 20.1053C7.3649 20.1743 7.34952 20.2461 7.30746 20.3031C7.26564 20.3598 7.20123 20.3959 7.13105 20.4021C4.99541 20.5901 3.3849 22.3503 3.3849 24.4965V25.1224H3.38514Z" fill="#3762CC"/>
    <path d="M12.0792 23.2C11.8312 23.2 11.6302 22.9991 11.6302 22.751V22.5566C11.6302 22.3083 11.8312 22.1074 12.0792 22.1074C12.3275 22.1074 12.5284 22.3083 12.5284 22.5566V22.751C12.5284 22.9991 12.3275 23.2 12.0792 23.2Z" fill="#4671C6"/>
    <path d="M14.9462 23.2C15.1944 23.2 15.3954 22.9991 15.3954 22.751V22.5566C15.3954 22.3083 15.1944 22.1074 14.9462 22.1074C14.6981 22.1074 14.4972 22.3083 14.4972 22.5566V22.751C14.497 22.9991 14.6981 23.2 14.9462 23.2Z" fill="#4671C6"/>
    <path d="M12.9389 22.4178C12.6908 22.4178 12.4897 22.2166 12.4897 21.9686V21.7741C12.4897 21.5261 12.6908 21.325 12.9389 21.325C13.1869 21.325 13.3881 21.5261 13.3881 21.7741V21.9686C13.3881 22.2164 13.1869 22.4178 12.9389 22.4178Z" fill="#4671C6"/>
    <path d="M14.0622 22.4178C14.3102 22.4178 14.5114 22.2166 14.5114 21.9686V21.7741C14.5114 21.5261 14.3102 21.325 14.0622 21.325C13.8142 21.325 13.613 21.5261 13.613 21.7741V21.9686C13.613 22.2164 13.8142 22.4178 14.0622 22.4178Z" fill="#4671C6"/>
    <path d="M14.3953 23.2547C14.3554 23.2453 14.3278 23.2134 14.3278 23.1771C14.3278 22.7788 13.9629 22.4561 13.5128 22.4561C13.0626 22.4561 12.6976 22.7788 12.6976 23.1771C12.6976 23.2134 12.6699 23.2453 12.6303 23.2547C12.2866 23.3359 12.0333 23.6128 12.0333 23.9423V23.9599C12.0333 24.3533 12.3938 24.672 12.8384 24.672H14.1867C14.6313 24.672 14.9918 24.353 14.9918 23.9599V23.9423C14.9921 23.6128 14.739 23.3359 14.3953 23.2547Z" fill="#4671C6"/>
    <path d="M24.64 29.7538H20.3946C18.4409 29.7538 16.8568 28.1699 16.8568 26.216V21.9706C16.8568 20.0167 18.4409 18.4329 20.3946 18.4329H24.64C26.5939 18.4329 28.1778 20.0167 28.1778 21.9706V26.216C28.1778 28.1699 26.5939 29.7538 24.64 29.7538Z" fill="#F9A7A7"/>
    <path d="M20.3841 28.5232C19.1117 28.5232 18.0768 27.4883 18.0768 26.2159V21.9706C18.0768 20.6982 19.1117 19.6633 20.3841 19.6633H24.6294C25.9015 19.6633 26.9367 20.6982 26.9367 21.9706V26.2159C26.9367 27.4883 25.9015 28.5232 24.6294 28.5232H20.3841Z" fill="#FFEA92"/>
    <path d="M24.64 29.9999H20.3946C18.3082 29.9999 16.6107 28.3024 16.6107 26.216V21.9707C16.6107 19.8843 18.3082 18.1868 20.3946 18.1868H24.64C26.7266 18.1868 28.4238 19.8843 28.4238 21.9707V26.216C28.4238 28.3024 26.7266 29.9999 24.64 29.9999ZM20.3946 18.679C18.5796 18.679 17.1029 20.1556 17.1029 21.9707V26.216C17.1029 28.031 18.5796 29.5077 20.3946 29.5077H24.64C26.455 29.5077 27.9316 28.031 27.9316 26.216V21.9707C27.9316 20.1556 26.455 18.679 24.64 18.679H20.3946Z" fill="#3762CC"/>
    <path d="M23.049 20.3501C24.4588 20.3501 25.4161 21.1812 25.4161 22.549C25.4161 23.9251 24.5107 24.5858 23.2544 24.6745C23.0838 24.6865 22.9473 24.8211 22.9386 24.9922L22.9283 25.197C22.9194 25.3756 22.7718 25.5159 22.5928 25.5159H22.196C22.0148 25.5159 21.866 25.372 21.8602 25.1905L21.829 24.2107C21.823 24.021 21.9751 23.8641 22.1648 23.8641H22.1652C23.3539 23.8641 24.2694 23.6538 24.2694 22.549C24.2694 21.8126 23.8171 21.3602 23.0595 21.3602C22.4125 21.3602 21.9706 21.676 21.8641 22.2392C21.8338 22.3992 21.6971 22.5175 21.5339 22.5175H21.0727C20.8705 22.5175 20.7097 22.3394 20.7388 22.1392C20.8955 21.0709 21.7646 20.3501 23.049 20.3501ZM22.3755 27.8407C21.791 27.8407 21.3803 27.2226 21.7458 26.5883C21.7684 26.5489 21.8006 26.5141 21.8379 26.4879C22.4671 26.0468 23.1331 26.466 23.1331 27.0729C23.1331 27.5043 22.7966 27.8407 22.3755 27.8407Z" fill="#4671C6"/>
</svg>
