<svg width="28" height="30" viewBox="0 0 28 30" fill="none" xmlns="http://www.w3.org/2000/svg">
    <path d="M24.2155 1.03448C24.2137 0.463951 23.7516 0.00176792 23.181 0H7.14655V5.17241C7.14655 5.7437 6.68335 6.2069 6.11206 6.2069H0.422409V28.9655C0.424177 29.536 0.88636 29.9982 1.45689 30H23.181C23.7516 29.9982 24.2137 29.536 24.2155 28.9655V1.03448Z" fill="#FFE9CC"/>
    <path d="M8.34822 27.2473L9.07938 22.127L12.3712 23.2241L13.4689 26.5159L8.34822 27.2473Z" fill="#939598"/>
    <path d="M7.14655 30H23.181C23.7523 30 24.2155 29.5368 24.2155 28.9655V14.0125C21.3901 21.7516 15.0537 27.6865 7.14655 30Z" fill="#FFE2BD"/>
    <path d="M20.0523 11.1545L21.5152 9.69165L25.9041 14.0806L24.4413 15.5435L20.0523 11.1545Z" fill="#ACABB1"/>
    <path d="M24.1089 8.06901C23.9339 8.08619 23.7609 8.11902 23.5917 8.16726C23.0833 8.31197 22.6203 8.58423 22.2468 8.95853L21.5177 9.69322L25.9039 14.0794L26.633 13.35C27.5639 12.4199 27.8069 11.0038 27.2394 9.81647C26.6719 8.62919 25.4174 7.92884 24.1089 8.06901Z" fill="#C6C5CA"/>
    <path d="M20.0548 11.1519L9.07887 22.1276L12.0086 23.5894L18.5895 17.0059L12.0086 23.5894L12.669 24.91L13.4729 26.5133L24.112 15.8747L24.4431 15.5436L23.5937 14.6945L20.0548 11.1519ZM20.1018 15.4936L20.8337 14.7622L20.1018 15.4936Z" fill="#FFD733"/>
    <path d="M7.14655 5.17241V0L0.422409 6.2069H6.11206C6.68335 6.2069 7.14655 5.7437 7.14655 5.17241Z" fill="#FFA993"/>
    <path d="M13.3929 22.7201C13.1835 22.7204 12.9946 22.5944 12.9145 22.4009C12.8344 22.2074 12.8789 21.9847 13.0272 21.8367L18.5776 16.288C18.7044 16.1422 18.9019 16.0796 19.0896 16.1253C19.2772 16.1708 19.424 16.3173 19.4697 16.5049C19.5157 16.6926 19.4533 16.8901 19.308 17.0171L13.7586 22.5686C13.6616 22.6656 13.53 22.7201 13.3929 22.7201Z" fill="#F1F2F2"/>
    <path d="M20.4049 15.7075C20.1958 15.7073 20.0074 15.5815 19.9273 15.388C19.8472 15.1948 19.8914 14.9723 20.0392 14.8246L20.7706 14.0932C20.9736 13.8972 21.2962 13.9 21.4957 14.0995C21.6952 14.299 21.698 14.6215 21.502 14.8246L20.7706 15.556C20.6739 15.6532 20.5423 15.7078 20.4049 15.7075Z" fill="#F1F2F2"/>
    <path d="M14.9052 13.9656H4.04311C3.75746 13.9656 3.52586 13.734 3.52586 13.4484C3.52586 13.1627 3.75746 12.9312 4.04311 12.9312H14.9052C15.1908 12.9312 15.4224 13.1627 15.4224 13.4484C15.4224 13.734 15.1908 13.9656 14.9052 13.9656Z" fill="#FF7956"/>
    <path d="M11.8017 17.0689H4.04311C3.75746 17.0689 3.52586 16.8373 3.52586 16.5517C3.52586 16.266 3.75746 16.0344 4.04311 16.0344H11.8017C12.0874 16.0344 12.319 16.266 12.319 16.5517C12.319 16.8373 12.0874 17.0689 11.8017 17.0689Z" fill="#FF7956"/>
    <path d="M8.69828 20.1724H4.04311C3.75746 20.1724 3.52586 19.9408 3.52586 19.6552C3.52586 19.3695 3.75746 19.1379 4.04311 19.1379H8.69828C8.98392 19.1379 9.21552 19.3695 9.21552 19.6552C9.21552 19.9408 8.98392 20.1724 8.69828 20.1724Z" fill="#FF7956"/>
    <path d="M18.0086 10.8621H8.18103C7.89538 10.8621 7.66379 10.6305 7.66379 10.3449C7.66379 10.0592 7.89538 9.82764 8.18103 9.82764H18.0086C18.2943 9.82764 18.5259 10.0592 18.5259 10.3449C18.5259 10.6305 18.2943 10.8621 18.0086 10.8621Z" fill="#FF7956"/>
    <path d="M6.11207 10.8621H4.0431C3.75746 10.8621 3.52586 10.6305 3.52586 10.3449C3.52586 10.0592 3.75746 9.82764 4.0431 9.82764H6.11207C6.39771 9.82764 6.62931 10.0592 6.62931 10.3449C6.62931 10.6305 6.39771 10.8621 6.11207 10.8621Z" fill="#FF7956"/>
</svg>
