<svg width="50" height="50" viewBox="-0.5 -0.5 50 50" fill="none" xmlns="http://www.w3.org/2000/svg">
    <circle cx="24.5" cy="24.5" r="24.5" fill="#9CC6DB"/>
    <path d="M40.5073 18.2491C39.5038 17.2276 38.4883 16.2181 37.4728 15.2086C36.7938 14.5356 35.8504 14.5476 35.1714 15.2266C34.883 15.5151 34.6006 15.8095 34.246 16.17C34.234 15.9898 34.228 15.8996 34.228 15.8155C34.228 14.764 34.222 13.7124 34.228 12.6608C34.234 11.5732 33.5851 10.9183 32.4975 10.9183C31.7343 10.9183 30.9772 10.9243 30.2141 10.9243C29.505 10.9183 29.505 10.9123 29.505 10.2092C29.499 9.1877 28.8621 8.53273 27.8406 8.52672C24.0129 8.52071 20.1912 8.52071 16.3636 8.52672C15.7627 8.52672 15.1618 8.51471 14.5609 8.56879C13.8759 8.63488 13.3531 9.19371 13.275 9.87872C13.245 10.1251 13.2329 10.3775 13.251 10.6298C13.269 10.8762 13.1668 10.9303 12.9385 10.9303C12.0792 10.9183 11.214 10.9303 10.3547 10.9243C9.1469 10.9183 8.53399 11.5192 8.53399 12.7269C8.53399 21.548 8.54 30.3691 8.52197 39.1901C8.52197 40.2176 9.30313 40.9147 10.2525 40.9087C17.6735 40.8846 25.0945 40.8846 32.5095 40.9087C33.4649 40.9087 34.24 40.2056 34.234 39.1781C34.21 35.1642 34.228 31.1502 34.222 27.1303C34.222 26.926 34.2761 26.7757 34.4263 26.6315C36.4513 24.6065 38.4763 22.5815 40.4953 20.5505C41.1803 19.8595 41.1863 18.9401 40.5073 18.2491ZM15.7507 10.72C19.5062 10.726 23.2558 10.726 27.0113 10.72C27.2457 10.72 27.3238 10.7921 27.3178 11.0264C27.3058 11.8196 27.3118 12.6068 27.3118 13.3999C27.3118 13.4961 27.3058 13.5982 27.2998 13.7124C23.3459 13.7124 19.4161 13.7124 15.4622 13.7124C15.4502 13.6283 15.4322 13.5562 15.4322 13.4781C15.4322 12.6669 15.4382 11.8557 15.4262 11.0445C15.4202 10.7921 15.4983 10.72 15.7507 10.72ZM32.0167 38.6794C24.9263 38.6794 17.8358 38.6794 10.7272 38.6794C10.7272 30.1648 10.7272 21.6682 10.7272 13.1476C10.8054 13.1355 10.8835 13.1115 10.9556 13.1115C11.6286 13.1055 12.2956 13.1115 12.9686 13.1055C13.1729 13.0995 13.257 13.1596 13.245 13.3759C13.2269 13.6884 13.239 13.9948 13.245 14.3073C13.269 15.2567 13.8879 15.8876 14.8373 15.9056C15.997 15.9237 17.1628 15.9117 18.3225 15.9117C21.357 15.9117 24.3915 15.9117 27.426 15.9117C27.6242 15.9117 27.8285 15.9177 28.0268 15.9056C28.8741 15.8395 29.469 15.2206 29.499 14.3734C29.511 14.0309 29.511 13.6944 29.505 13.3519C29.499 13.1716 29.5651 13.0995 29.7454 13.1055C30.4364 13.1115 31.1274 13.1175 31.8185 13.1115C31.9927 13.1115 32.0408 13.1956 32.0408 13.3519C32.0348 14.9622 32.0408 16.5786 32.0288 18.189C32.0288 18.3212 31.9206 18.4835 31.8185 18.5856C29.7514 20.6647 27.6783 22.7438 25.6053 24.8168C24.049 26.3731 22.4806 27.9234 20.9424 29.5038C20.6359 29.8222 20.3655 30.2068 20.1852 30.6094C19.332 32.5202 18.5088 34.4431 17.6795 36.3599C17.5233 36.7205 17.4512 37.081 17.5954 37.4656C17.8538 38.1566 18.5929 38.433 19.344 38.1145C20.3715 37.6759 21.399 37.2192 22.4266 36.7745C23.2678 36.408 24.1151 36.0354 24.9563 35.6689C25.4971 35.4346 25.9718 35.1161 26.3864 34.6955C28.2011 32.8688 30.0158 31.0481 31.8365 29.2274C31.8846 29.1793 31.9386 29.1432 32.0228 29.0711C32.0167 32.2979 32.0167 35.4766 32.0167 38.6794ZM36.932 21.0252C32.9181 25.0512 28.9041 29.0771 24.8782 33.0971C24.6318 33.3435 24.3133 33.5478 23.9949 33.698C22.9854 34.1607 21.9639 34.5933 20.9424 35.032C20.8462 35.074 20.7441 35.1101 20.5698 35.1822C20.9724 34.2508 21.381 33.4096 21.6995 32.5383C22.048 31.5889 22.6429 30.8498 23.3519 30.1467C26.9693 26.5594 30.5626 22.9421 34.1619 19.3427C34.877 18.6277 35.592 17.9126 36.2831 17.2216C37.0282 17.9607 37.7612 18.6878 38.5304 19.4569C38.0136 19.9616 37.4668 20.4844 36.932 21.0252Z" fill="white"/>
    <path d="M13.8339 19.9196C16.3276 19.9196 18.8153 19.9196 21.309 19.9196C21.9699 19.9196 22.6309 19.9196 23.2919 19.9196C25.1607 19.9196 27.0354 19.9196 28.9042 19.9196C29.3188 19.9196 29.4871 19.7574 29.4931 19.3427C29.4991 19.0423 29.4871 18.7418 29.4871 18.4414C29.4871 17.8525 29.3729 17.7263 28.79 17.7263C25.0165 17.7203 21.2429 17.7203 17.4753 17.7203C16.2315 17.7203 14.9936 17.7203 13.7498 17.7263C13.3111 17.7263 13.1609 17.8766 13.1549 18.2912C13.1489 18.6097 13.1489 18.9341 13.1549 19.2526C13.1549 19.7874 13.2871 19.9196 13.8339 19.9196Z" fill="white"/>
    <path d="M13.8516 25.6461C15.1255 25.6461 16.3934 25.6461 17.6673 25.6461C19.3678 25.6461 21.0683 25.6461 22.7748 25.6401C23.1654 25.6401 23.3277 25.4718 23.3277 25.0933C23.3337 24.7508 23.3337 24.4143 23.3277 24.0718C23.3277 23.6151 23.1714 23.4589 22.7147 23.4589C21.2245 23.4589 19.7343 23.4589 18.2381 23.4589C18.2381 23.4589 18.2381 23.4589 18.2381 23.4649C16.7239 23.4649 15.2156 23.4649 13.7014 23.4649C13.3048 23.4649 13.1546 23.6151 13.1486 24.0057C13.1426 24.3241 13.1426 24.6486 13.1426 24.9671C13.1546 25.5139 13.2868 25.6461 13.8516 25.6461Z" fill="white"/>
    <path d="M18.8274 30.7657C18.8334 30.4051 18.8334 30.0446 18.8274 29.6841C18.8154 29.3536 18.6411 29.1913 18.3167 29.1793C18.0943 29.1733 17.878 29.1793 17.6557 29.1793C16.3578 29.1793 15.0538 29.1793 13.7559 29.1793C13.2932 29.1793 13.155 29.3295 13.155 29.7982C13.155 30.1287 13.149 30.4592 13.155 30.7897C13.161 31.2163 13.3052 31.3605 13.7379 31.3665C14.489 31.3726 15.2401 31.3665 15.9912 31.3665C16.7423 31.3665 17.4934 31.3665 18.2445 31.3665C18.6772 31.3665 18.8274 31.2163 18.8274 30.7657Z" fill="white"/>
</svg>
