<svg width="52" height="53" viewBox="0 0 52 53" fill="none" xmlns="http://www.w3.org/2000/svg">
<path d="M28.995 32.7486H36.9925C37.2924 32.7486 37.4923 32.5487 37.4923 32.2488V27.7502C37.4923 27.4503 37.2924 27.2504 36.9925 27.2504H28.995C28.6951 27.2504 28.4952 27.4503 28.4952 27.7502V32.2488C28.4951 32.5486 28.6951 32.7486 28.995 32.7486ZM29.4948 28.25H36.4927V31.7489H29.4948V28.25Z" fill="#FFA202"/>
<path d="M15.4992 26.2507H19.498C19.7979 26.2507 19.9978 26.0508 19.9978 25.7509C19.9978 25.451 19.7979 25.2511 19.498 25.2511H15.4992C15.1993 25.2511 14.9994 25.451 14.9994 25.7509C14.9994 26.0508 15.1993 26.2507 15.4992 26.2507Z" fill="#FFA202"/>
<path d="M21.4974 26.2507H25.4962C25.7961 26.2507 25.996 26.0508 25.996 25.7509C25.996 25.451 25.7961 25.2511 25.4962 25.2511H21.4974C21.1975 25.2511 20.9976 25.451 20.9976 25.7509C20.9976 26.0508 21.1975 26.2507 21.4974 26.2507Z" fill="#FFA202"/>
<path d="M15.4992 28.25H21.9972C22.2971 28.25 22.497 28.0501 22.497 27.7502C22.497 27.4503 22.2971 27.2504 21.9972 27.2504H15.4992C15.1993 27.2504 14.9994 27.4503 14.9994 27.7502C14.9994 28.0501 15.1993 28.25 15.4992 28.25Z" fill="#FFA202"/>
<path d="M25.4961 27.2502H23.9965C23.6966 27.2502 23.4967 27.4502 23.4967 27.7501C23.4967 28.05 23.6966 28.2499 23.9965 28.2499H25.4961C25.796 28.2499 25.9959 28.05 25.9959 27.7501C25.9959 27.4502 25.796 27.2502 25.4961 27.2502Z" fill="#FFA202"/>
<path d="M42.5408 21.0522C42.1909 20.6024 41.741 20.3524 41.1912 20.3025L39.9916 20.1571V18.7529V17.7533C39.9916 16.6536 39.0918 15.7539 37.9922 15.7539H14.9994C13.8997 15.7538 13 16.6536 13 17.7533V18.753V22.7517V33.7483C13 34.6511 13.6067 35.4187 14.4323 35.6648C14.4072 36.6759 15.1722 37.5537 16.199 37.6471L39.2918 40.2462C39.3418 40.2462 39.4418 40.2462 39.4917 40.2462C40.4914 40.2462 41.3912 39.4965 41.4911 38.5468L42.9906 22.5018C43.0406 22.0019 42.8906 21.4521 42.5408 21.0522ZM13.9997 19.2528H38.9919V20.5524V22.2519H13.9997V19.2528ZM14.9994 16.7536H37.9922C38.542 16.7536 38.9919 17.2034 38.9919 17.7533V18.2531H13.9997V17.7533C13.9997 17.2034 14.4496 16.7536 14.9994 16.7536ZM13.9997 33.7482V23.2515H38.9919V33.7482C38.9919 34.2981 38.5421 34.7479 37.9922 34.7479H15.0494H14.9994C14.4496 34.7479 13.9997 34.2981 13.9997 33.7482ZM41.9909 22.3018L40.4914 38.3468C40.4414 38.8967 39.9415 39.2965 39.3918 39.2465L16.3489 36.6474C15.8491 36.5974 15.4992 36.1975 15.4492 35.7476H37.9922C39.0918 35.7476 39.9915 34.8479 39.9915 33.7483V22.7517V21.1022L41.1412 21.2022C41.3911 21.2022 41.641 21.3521 41.7909 21.5521C41.941 21.752 42.0409 22.0519 41.9909 22.3018Z" fill="white"/>
<path d="M44.9804 51.2811L44.972 51.2808H44.9635H6.66777H6.65932L6.65088 51.2811C5.19432 51.3303 3.77762 50.8033 2.70982 49.8156C1.64452 48.8302 1.01274 47.4661 0.950928 46.0198V6.97661C1.01274 5.5303 1.64452 4.16617 2.70982 3.18078C3.77762 2.19306 5.19432 1.66609 6.65088 1.71532L6.65932 1.71561H6.66777H44.9635H44.972L44.9804 1.71532C46.437 1.66609 47.8537 2.19306 48.9215 3.18078C49.9868 4.16616 50.6185 5.53028 50.6804 6.97657V46.0198C50.6185 47.4661 49.9868 48.8302 48.9215 49.8156C47.8537 50.8033 46.437 51.3303 44.9804 51.2811Z" stroke="white"/>
</svg>
