<svg width="24" height="24" viewBox="0 0 24 24" fill="none" xmlns="http://www.w3.org/2000/svg">
    <path d="M19.4275 7.01057L16.0521 16.0178H6.19673L4.58594 5.16943H16.5391" fill="#79B2FF"/>
    <path d="M9.32863 22.2266C9.32863 22.9462 8.74525 23.5296 8.02564 23.5296C7.30603 23.5296 6.72266 22.9462 6.72266 22.2266C6.72266 21.507 7.30603 20.9236 8.02564 20.9236C8.74525 20.9236 9.32863 21.507 9.32863 22.2266Z" fill="#D7D6D8"/>
    <path d="M18.085 22.2266C18.085 22.9462 17.5016 23.5296 16.782 23.5296C16.0624 23.5296 15.479 22.9462 15.479 22.2266C15.479 21.507 16.0624 20.9236 16.782 20.9236C17.5016 20.9236 18.085 21.507 18.085 22.2266Z" fill="#D7D6D8"/>
    <path d="M22.8152 3.72011C22.8152 5.51474 21.3604 6.96952 19.5658 6.96952C17.7712 6.96952 16.3164 5.51474 16.3164 3.72011C16.3164 1.92548 17.7712 0.470703 19.5658 0.470703C21.3604 0.470703 22.8152 1.92548 22.8152 3.72011Z" fill="#FF6977"/>
    <path d="M5.13209 5.64005H16.3811C16.9053 6.50651 17.7732 7.14262 18.7942 7.35887L18.1143 9.17327C17.9045 9.73339 18.7841 10.0677 18.9956 9.50341L19.7711 7.43394C21.7272 7.32719 23.2858 5.7023 23.2858 3.71999C23.2858 1.66883 21.617 0 19.5658 0C17.5147 0 15.8458 1.66883 15.8458 3.71999C15.8458 4.05874 15.8922 4.38687 15.9775 4.69906H4.99274C4.79206 3.34298 4.59064 1.98231 4.59064 1.98231C4.5575 1.75764 4.36853 1.58882 4.14166 1.58076L1.26634 1.48097C0.662091 1.46082 0.629132 2.40034 1.23375 2.4214L3.71722 2.50764C3.80164 3.07802 3.96588 4.18783 4.11841 5.2189C4.11914 5.22549 4.11932 5.23209 4.12024 5.2385L5.65559 15.5787C4.78052 15.74 4.11511 16.5082 4.11511 17.4292V19.3935C4.11511 20.4314 4.95942 21.2757 5.99727 21.2757H6.52956C6.35414 21.5507 6.25197 21.8768 6.25197 22.2266C6.25197 23.2045 7.04756 24 8.02554 24C9.00333 24 9.79892 23.2044 9.79892 22.2266C9.79892 21.8768 9.69693 21.5507 9.52133 21.2757H15.2857C15.1103 21.5507 15.0081 21.8768 15.0081 22.2266C15.0081 23.2045 15.8037 24 16.7815 24C17.7595 24 18.5551 23.2044 18.5551 22.2266C18.5551 21.8768 18.4529 21.5507 18.2775 21.2757H18.4741C19.0784 21.2757 19.0793 20.3347 18.4741 20.3347H5.99727C5.47834 20.3347 5.0561 19.9125 5.0561 19.3935V17.4292C5.0561 16.9104 5.47834 16.4882 5.99727 16.4882H18.4741C19.0782 16.4882 19.0791 15.5472 18.4741 15.5472H16.7306L17.6705 13.0392C17.8825 12.4734 17.0016 12.1423 16.7894 12.7089L15.7257 15.5472H6.60225L5.13209 5.64005ZM8.02554 23.0592C7.56649 23.0592 7.19313 22.6856 7.19313 22.2268C7.19313 21.7677 7.56649 21.3942 8.02554 21.3942C8.48459 21.3942 8.85794 21.7677 8.85794 22.2268C8.85794 22.6858 8.48459 23.0592 8.02554 23.0592ZM16.7815 23.0592C16.3225 23.0592 15.9491 22.6856 15.9491 22.2268C15.9491 21.7677 16.3225 21.3942 16.7815 21.3942C17.2406 21.3942 17.6141 21.7677 17.6141 22.2268C17.6141 22.6858 17.2406 23.0592 16.7815 23.0592ZM19.5658 6.49882C18.0336 6.49882 16.7868 5.25223 16.7868 3.71999C16.7868 2.18757 18.0336 0.940985 19.5658 0.940985C21.0981 0.940985 22.3448 2.18757 22.3448 3.71999C22.3448 5.25223 21.0982 6.49882 19.5658 6.49882Z" fill="black"/>
    <path d="M17.8127 10.5959C17.5611 10.5959 17.3461 10.8062 17.3428 11.0581C17.3395 11.3189 17.5536 11.5351 17.8138 11.5355C18.0732 11.5358 18.2882 11.3145 18.2827 11.055C18.2776 10.8051 18.0622 10.5959 17.8127 10.5959Z" fill="black"/>
</svg>
