<svg width="30" height="30" viewBox="0 0 30 30" fill="none" xmlns="http://www.w3.org/2000/svg">
    <path d="M22.5 4.6875H28.125C28.6406 4.6875 29.0625 5.10938 29.0625 5.625V9.375C29.0625 9.89062 28.6406 10.3125 28.125 10.3125H26.25L23.4375 12.1875V10.3125H22.5C21.9844 10.3125 21.5625 9.89062 21.5625 9.375V5.625C21.5625 5.10938 21.9844 4.6875 22.5 4.6875Z" fill="#E6E9ED"/>
    <path d="M3.75 10.3125H1.875C1.35938 10.3125 0.9375 9.89062 0.9375 9.375V5.625C0.9375 5.10938 1.35938 4.6875 1.875 4.6875H7.5C8.01562 4.6875 8.4375 5.10938 8.4375 5.625V9.375C8.4375 9.89062 8.01562 10.3125 7.5 10.3125H6.5625V12.1875L3.75 10.3125Z" fill="#E6E9ED"/>
    <path d="M24.375 19.6875C26.9625 19.6875 29.0625 21.7875 29.0625 24.375C29.0625 26.9625 26.9625 29.0625 24.375 29.0625C22.4531 29.0625 20.8031 27.9047 20.0813 26.25C19.8281 25.6781 19.6875 25.0406 19.6875 24.375C19.6875 23.3719 20.0016 22.4391 20.5406 21.6797C21.3891 20.475 22.7906 19.6875 24.375 19.6875Z" fill="#FCD770"/>
    <path d="M9.84375 26.2499H7.03125V24.4967C7.03125 23.2452 7.86094 22.1436 9.06563 21.7967L11.2781 21.1592L12.6562 24.3749L15 22.4999L17.3438 24.3749L18.7219 21.1545L20.5406 21.6795C20.0016 22.4389 19.6875 23.3717 19.6875 24.3749C19.6875 25.0405 19.8281 25.678 20.0813 26.2499H20.0766H9.84375Z" fill="#B4DD7F"/>
    <path d="M18.7219 21.1547L17.3437 24.375L15 22.5L16.875 20.625L18.7219 21.1547Z" fill="#E6E9ED"/>
    <path d="M15.0002 22.5L12.6564 24.375L11.2783 21.1594L13.1252 20.625L15.0002 22.5Z" fill="#E6E9ED"/>
    <path d="M19.7437 14.9437C19.4906 14.6906 19.1391 14.5312 18.75 14.5312H18.2812H17.3438C15.8203 14.5312 14.3438 14.0391 13.125 13.125C12.4594 13.35 11.9625 13.8891 11.7891 14.55L11.7188 14.5312H11.25C10.4719 14.5312 9.84375 15.1594 9.84375 15.9375C9.84375 16.3266 10.0031 16.6781 10.2562 16.9312C10.5094 17.1844 10.8609 17.3438 11.25 17.3438H11.8547C12.0656 18.0609 12.5203 18.6797 13.125 19.0969V20.625L15 22.5L16.875 20.625V19.1438C17.4984 18.7219 17.9672 18.0891 18.1641 17.3438H18.75C19.5281 17.3438 20.1562 16.7156 20.1562 15.9375C20.1562 15.5484 19.9969 15.1969 19.7437 14.9437Z" fill="#F0D0B4"/>
    <path d="M20.1562 12.6562V15.9375C20.1562 15.5484 19.9969 15.1969 19.7437 14.9437C19.4906 14.6906 19.1391 14.5312 18.75 14.5312H18.2812H17.3438C15.8203 14.5312 14.3438 14.0391 13.125 13.125C12.4594 13.35 11.9625 13.8891 11.7891 14.55L11.7188 14.5312H11.25C10.4719 14.5312 9.84375 15.1594 9.84375 15.9375V12.6562C9.84375 9.80625 12.15 7.5 15 7.5C16.425 7.5 17.7141 8.07656 18.6469 9.00937C19.5797 9.94219 20.1562 11.2313 20.1562 12.6562Z" fill="#B27946"/>
    <path d="M24.375 22.9688C24.6333 22.9688 24.8438 23.1788 24.8438 23.4375H25.7812C25.7812 22.8272 25.388 22.3116 24.8438 22.1175V21.0938H23.9062V22.1175C23.362 22.3116 22.9688 22.8272 22.9688 23.4375C22.9688 24.2128 23.5997 24.8438 24.375 24.8438C24.6333 24.8438 24.8438 25.0538 24.8438 25.3125C24.8438 25.5712 24.6333 25.7812 24.375 25.7812C24.1167 25.7812 23.9062 25.5712 23.9062 25.3125H22.9688C22.9688 25.9228 23.362 26.4384 23.9062 26.6325V27.6562H24.8438V26.6325C25.388 26.4384 25.7812 25.9228 25.7812 25.3125C25.7812 24.5372 25.1503 23.9062 24.375 23.9062C24.1167 23.9062 23.9062 23.6962 23.9062 23.4375C23.9062 23.1788 24.1167 22.9688 24.375 22.9688Z" fill="black"/>
    <path d="M24.375 19.2188C22.755 19.2188 21.3089 19.9711 20.363 21.1434L17.3438 20.2725V19.3781C17.8603 18.9736 18.2639 18.4341 18.5034 17.8125H18.75C19.7841 17.8125 20.625 16.9716 20.625 15.9375V12.6562C20.625 9.55453 18.1017 7.03125 15 7.03125C11.8983 7.03125 9.375 9.55453 9.375 12.6562V15.9375C9.375 16.9716 10.2159 17.8125 11.25 17.8125H11.527C11.7698 18.4078 12.1613 18.9267 12.6562 19.3247V20.2725L8.93437 21.3459C7.53797 21.7491 6.5625 23.0452 6.5625 24.4988V26.7188H19.7878C20.6433 28.3856 22.3758 29.5312 24.375 29.5312C27.218 29.5312 29.5312 27.218 29.5312 24.375C29.5312 21.532 27.218 19.2188 24.375 19.2188ZM18.0825 21.4613L17.1553 23.6245L15.7012 22.4616L17.0105 21.1523L18.0825 21.4613ZM18.75 16.875H18.7312C18.7434 16.7531 18.75 16.6294 18.75 16.5042V15C19.267 15 19.6875 15.4205 19.6875 15.9375C19.6875 16.4545 19.267 16.875 18.75 16.875ZM11.25 16.875C10.733 16.875 10.3125 16.4545 10.3125 15.9375C10.3125 15.4205 10.733 15 11.25 15H11.2561C11.2552 15.0258 11.25 15.0502 11.25 15.0759V16.4062C11.25 16.5652 11.2631 16.7212 11.2828 16.875H11.25ZM11.4694 14.0625H11.25C10.9069 14.0625 10.5895 14.1619 10.3125 14.3231V12.6562C10.3125 10.0716 12.4153 7.96875 15 7.96875C17.5847 7.96875 19.6875 10.0716 19.6875 12.6562V14.3231C19.4105 14.1619 19.0931 14.0625 18.75 14.0625H18.2812H17.3438C15.9333 14.0625 14.535 13.5961 13.4062 12.75L13.2098 12.6028L12.9769 12.6806C12.2841 12.9113 11.7497 13.4236 11.4694 14.0625ZM12.1875 16.4062V15.0759C12.1875 14.4689 12.5306 13.9237 13.0617 13.6575C14.3114 14.5247 15.8212 15 17.3438 15H17.8125V16.5042C17.8125 18.0009 16.5952 19.2188 15.0984 19.2188H15.0159C13.4564 19.2188 12.1875 17.9573 12.1875 16.4062ZM15.0159 20.1562H15.0984C15.5597 20.1562 15.9994 20.0667 16.4062 19.9102V20.4309L15 21.8372L13.5938 20.4309V19.8764C14.033 20.0555 14.5125 20.1562 15.0159 20.1562ZM12.9891 21.1519L14.2983 22.4611L12.8442 23.6241L11.917 21.4608L12.9891 21.1519ZM10.3125 25.7812V23.9062H9.375V25.7812H7.5V24.4988C7.5 23.4609 8.19656 22.5352 9.19406 22.2469L11.0095 21.7228L12.4678 25.1255L15 23.1005L17.5317 25.1259L18.99 21.7233L19.8211 21.9628C19.4377 22.6833 19.2188 23.5036 19.2188 24.375C19.2188 24.863 19.2914 25.3336 19.4184 25.7812H10.3125ZM24.375 28.5938C22.0491 28.5938 20.1562 26.7014 20.1562 24.375C20.1562 22.0486 22.0491 20.1562 24.375 20.1562C26.7009 20.1562 28.5938 22.0486 28.5938 24.375C28.5938 26.7014 26.7009 28.5938 24.375 28.5938Z" fill="black"/>
    <path d="M28.125 4.21875H22.5C21.7247 4.21875 21.0938 4.84969 21.0938 5.625V9.375C21.0938 10.1503 21.7247 10.7813 22.5 10.7813H22.9688V13.0636L26.392 10.7813H28.125C28.9003 10.7813 29.5312 10.1503 29.5312 9.375V5.625C29.5312 4.84969 28.9003 4.21875 28.125 4.21875ZM28.5938 9.375C28.5938 9.63328 28.3833 9.84375 28.125 9.84375H26.108L23.9062 11.3114V9.84375H22.5C22.2417 9.84375 22.0312 9.63328 22.0312 9.375V5.625C22.0312 5.36672 22.2417 5.15625 22.5 5.15625H28.125C28.3833 5.15625 28.5938 5.36672 28.5938 5.625V9.375Z" fill="black"/>
    <path d="M25.3129 6.83729L24.238 5.76245L23.5752 6.42526L24.8441 7.69417V8.90635H25.7816V7.69417L27.0505 6.42526L26.3877 5.76245L25.3129 6.83729Z" fill="black"/>
    <path d="M7.03125 10.7813H7.5C8.27531 10.7813 8.90625 10.1503 8.90625 9.375V5.625C8.90625 4.84969 8.27531 4.21875 7.5 4.21875H1.875C1.09969 4.21875 0.46875 4.84969 0.46875 5.625V9.375C0.46875 10.1503 1.09969 10.7813 1.875 10.7813H3.60797L7.03125 13.0636V10.7813ZM6.09375 11.3114L3.89203 9.84375H1.875C1.61672 9.84375 1.40625 9.63328 1.40625 9.375V5.625C1.40625 5.36672 1.61672 5.15625 1.875 5.15625H7.5C7.75828 5.15625 7.96875 5.36672 7.96875 5.625V9.375C7.96875 9.63328 7.75828 9.84375 7.5 9.84375H6.09375V11.3114Z" fill="black"/>
    <path d="M5.15625 7.38937L4.50844 6.09375H3.28125V8.90625H4.21875V7.61063L4.86656 8.90625H6.09375V6.09375H5.15625V7.38937Z" fill="black"/>
    <path d="M14.5312 1.875C14.5312 1.61672 14.7417 1.40625 15 1.40625C15.2583 1.40625 15.4688 1.61672 15.4688 1.875V1.95516C15.4688 2.08031 15.42 2.19844 15.3314 2.28703L14.5312 3.08719V4.21875H15.4688V3.47531L15.9942 2.94984C16.26 2.68453 16.4062 2.33109 16.4062 1.95516V1.875C16.4062 1.09969 15.7753 0.46875 15 0.46875C14.2247 0.46875 13.5938 1.09969 13.5938 1.875V2.34375H14.5312V1.875Z" fill="black"/>
    <path d="M15.4688 5.15625H14.5312V6.09375H15.4688V5.15625Z" fill="black"/>
</svg>
