<svg width="150" height="150" viewBox="0 0 150 150" fill="none" xmlns="http://www.w3.org/2000/svg">
    <path d="M23.31 55.98H34.71C34.71 55.98 32.73 57.255 33.435 59.085C34.125 60.915 42.645 81.42 42.645 81.42C42.645 81.42 46.485 93.99 58.035 90.99C58.035 90.99 53.505 97.2 45.21 93.84C43.23 93 39.285 89.745 35.31 79.77C31.335 69.795 25.77 56.535 23.31 55.98Z" fill="#FDFFFE"/>
    <path d="M36.735 56.205H47.34C47.34 56.205 45.405 57.24 45.945 58.695C46.485 60.15 52.005 75.765 52.005 75.765C52.005 75.765 54.915 86.34 64.065 83.97C64.065 83.97 59.565 89.25 52.995 86.595C51.435 85.935 49.065 83.31 46.05 75.075C39.945 58.395 39.48 57.405 36.735 56.205Z" fill="#FDFFFE"/>
    <path d="M65.19 65.79V61.515L54.99 63.165L54.63 64.635H55.2C55.38 64.635 55.515 64.77 55.515 64.95C55.515 65.13 55.38 65.265 55.2 65.265H54.48L54.285 66.045H55.275C55.47 66.045 55.62 66.195 55.62 66.39C55.62 66.585 55.47 66.735 55.275 66.735H54.12L53.895 67.65H55.155C55.32 67.65 55.455 67.785 55.455 67.95C55.455 68.115 55.32 68.25 55.155 68.25H53.745L53.565 69.015C53.565 69.015 61.02 68.28 63.24 67.89C65.46 67.5 65.19 65.79 65.19 65.79ZM57.9 67.68H56.745V64.44H57.9V67.68ZM59.97 67.41H58.815V64.17H59.97V67.41ZM62.67 67.17C61.56 67.17 60.66 66.27 60.66 65.16C60.66 64.05 61.56 63.15 62.67 63.15C63.78 63.15 64.68 64.05 64.68 65.16C64.68 66.27 63.78 67.17 62.67 67.17Z" fill="#FDFFFE"/>
    <path d="M62.67 66.405C63.3079 66.405 63.825 65.8879 63.825 65.25C63.825 64.6121 63.3079 64.095 62.67 64.095C62.0321 64.095 61.515 64.6121 61.515 65.25C61.515 65.8879 62.0321 66.405 62.67 66.405Z" fill="#FDFFFE"/>
    <path d="M39.12 90.825H29.475V87.33L36.93 87.015C36.15 85.605 35.55 84.525 35.55 84.525C18.18 84.51 9.23999 81.6 9.23999 81.6L8.74499 83.355L17.52 85.035L17.34 85.98L8.48999 84.285L8.15999 85.44L16.785 87.09L16.605 88.035L7.88999 86.37L7.48499 87.78L16.47 88.89L16.35 89.835L7.21499 88.71L6.95999 89.61L16.47 90.78L16.35 91.725L6.68999 90.525L6.14999 92.46C27.645 95.37 40.65 93.06 40.65 93.06C40.47 92.97 39.855 92.04 39.12 90.825ZM20.01 88.815C19.89 89.835 19.395 90.6 18.915 90.54C18.435 90.48 18.15 89.61 18.27 88.605C18.39 87.585 18.885 86.82 19.365 86.88C19.845 86.925 20.13 87.795 20.01 88.815ZM22.875 89.055C22.755 89.97 22.32 90.675 21.885 90.615C21.45 90.555 21.195 89.775 21.3 88.86C21.42 87.945 21.855 87.24 22.29 87.3C22.725 87.345 22.98 88.14 22.875 89.055ZM25.635 89.295C25.53 90.18 25.095 90.87 24.675 90.81C24.255 90.765 24 89.985 24.105 89.1C24.21 88.215 24.645 87.525 25.065 87.585C25.5 87.645 25.755 88.41 25.635 89.295ZM28.08 89.325C28.035 90.18 27.66 90.855 27.255 90.825C26.85 90.795 26.565 90.09 26.61 89.235C26.655 88.38 27.03 87.705 27.435 87.735C27.84 87.765 28.125 88.485 28.08 89.325Z" fill="#FDFFFE"/>
    <path d="M65.595 93.615L66.18 90.72H66.555L66.315 91.92H67.77L68.01 90.72H68.385L67.8 93.615H67.425L67.695 92.25H66.24L65.955 93.615H65.595Z" fill="#FDFFFE"/>
    <path d="M68.43 93.615L69.015 90.72H71.04L70.98 91.05H69.33L69.15 91.95H70.755L70.695 92.28H69.09L68.88 93.285H70.65L70.59 93.615H68.43ZM69.255 94.26L69.33 93.855H69.72L69.63 94.26H69.255ZM70.08 90.48L69.84 90.615H69.45L69.9 90.375H70.26L70.62 90.615H70.245L70.08 90.48Z" fill="#FDFFFE"/>
    <path d="M72.855 93.615L73.38 91.05H72.45L72.51 90.72H74.715L74.655 91.05H73.74L73.215 93.615H72.855Z" fill="#FDFFFE"/>
    <path d="M74.535 93.615L75.12 90.72H75.495L75.255 91.92H76.71L76.95 90.72H77.325L76.74 93.615H76.365L76.635 92.25H75.18L74.895 93.615H74.535Z" fill="#FDFFFE"/>
    <path d="M77.55 92.4C77.55 91.89 77.7 91.47 77.985 91.14C78.27 90.825 78.63 90.66 79.035 90.66C79.38 90.66 79.665 90.78 79.89 91.02C80.115 91.26 80.22 91.575 80.22 91.965C80.22 92.25 80.16 92.505 80.055 92.745C79.965 92.925 79.86 93.075 79.74 93.21C79.62 93.345 79.485 93.435 79.335 93.51C79.14 93.6 78.945 93.645 78.72 93.645C78.495 93.645 78.285 93.585 78.105 93.48C77.925 93.375 77.775 93.21 77.685 93.015C77.61 92.835 77.55 92.625 77.55 92.4ZM77.925 92.43C77.925 92.595 77.955 92.76 78.03 92.895C78.105 93.03 78.195 93.15 78.33 93.225C78.465 93.3 78.615 93.345 78.75 93.345C78.9 93.345 79.035 93.315 79.155 93.24C79.29 93.165 79.395 93.075 79.5 92.94C79.605 92.82 79.68 92.655 79.74 92.475C79.8 92.295 79.83 92.115 79.83 91.935C79.83 91.65 79.755 91.41 79.59 91.245C79.44 91.08 79.245 90.99 79.005 90.99C78.705 90.99 78.45 91.125 78.225 91.38C78.045 91.635 77.925 91.98 77.925 92.43ZM79.14 90.48L78.9 90.615H78.51L78.96 90.375H79.32L79.68 90.615H79.305L79.14 90.48ZM79.23 90H79.665L79.215 90.285H78.96L79.23 90Z" fill="#FDFFFE"/>
    <path d="M80.4449 93.6149L81.03 90.72H81.3899L81.87 91.8C82.02 92.13 82.125 92.415 82.215 92.64C82.26 92.775 82.32 92.955 82.38 93.18C82.41 92.94 82.455 92.685 82.515 92.43L82.86 90.735H83.22L82.635 93.63H82.26L81.555 91.95C81.435 91.65 81.3299 91.395 81.2699 91.17C81.2549 91.365 81.2099 91.59 81.1649 91.86L80.805 93.6149H80.4449Z" fill="#FDFFFE"/>
    <path d="M84.69 92.475L84.75 92.145H85.98L85.74 93.33C85.59 93.435 85.41 93.51 85.215 93.57C85.02 93.63 84.825 93.66 84.63 93.66C84.225 93.66 83.91 93.54 83.715 93.285C83.55 93.075 83.46 92.79 83.46 92.46C83.46 92.115 83.535 91.8 83.685 91.515C83.835 91.23 84.015 91.02 84.255 90.885C84.48 90.75 84.735 90.675 85.005 90.675C85.2 90.675 85.38 90.705 85.545 90.78C85.71 90.855 85.83 90.96 85.905 91.08C85.995 91.2 86.055 91.365 86.085 91.56L85.71 91.605C85.665 91.41 85.59 91.26 85.47 91.155C85.35 91.05 85.185 90.99 84.99 90.99C84.78 90.99 84.6 91.05 84.42 91.155C84.24 91.275 84.105 91.44 84 91.665C83.895 91.89 83.835 92.16 83.835 92.445C83.835 92.73 83.91 92.955 84.045 93.105C84.18 93.255 84.375 93.33 84.615 93.33C84.855 93.33 85.125 93.24 85.41 93.075L85.53 92.46H84.69V92.475Z" fill="#FDFFFE"/>
    <path d="M87.405 93.615L87.99 90.72H88.455L88.74 92.595C88.77 92.835 88.8 93.075 88.815 93.3C88.89 93.105 89.025 92.835 89.205 92.505L90.195 90.705H90.66L90.075 93.6H89.7L90 92.19C90.075 91.86 90.165 91.5 90.285 91.095C90.21 91.29 90.105 91.485 89.985 91.71L88.935 93.6H88.575L88.29 91.74C88.26 91.575 88.245 91.365 88.23 91.14C88.2 91.395 88.17 91.59 88.14 91.74L87.765 93.585H87.405V93.615Z" fill="#FDFFFE"/>
    <path d="M90.42 93.615L92.01 90.72H92.46L92.925 93.615H92.55L92.415 92.775H91.275L90.825 93.615H90.42ZM91.365 94.26L91.44 93.855H91.83L91.74 94.26H91.365ZM91.44 92.49H92.37L92.265 91.77C92.22 91.485 92.19 91.245 92.19 91.05C92.13 91.215 92.04 91.41 91.905 91.635L91.44 92.49Z" fill="#FDFFFE"/>
    <path d="M93.3 93.6149L93.885 90.72H94.245L94.725 91.8C94.875 92.13 94.98 92.415 95.07 92.64C95.115 92.775 95.175 92.955 95.235 93.18C95.265 92.94 95.31 92.685 95.37 92.43L95.715 90.735H96.075L95.49 93.63H95.115L94.41 91.95C94.29 91.65 94.185 91.395 94.125 91.17C94.11 91.365 94.065 91.59 94.02 91.86L93.66 93.6149H93.3Z" fill="#FDFFFE"/>
    <path d="M97.56 92.475L97.62 92.145H98.85L98.61 93.33C98.46 93.435 98.28 93.51 98.085 93.57C97.89 93.63 97.695 93.66 97.5 93.66C97.095 93.66 96.78 93.54 96.585 93.285C96.42 93.075 96.33 92.79 96.33 92.46C96.33 92.115 96.405 91.8 96.555 91.515C96.705 91.23 96.885 91.02 97.125 90.885C97.35 90.75 97.605 90.675 97.875 90.675C98.07 90.675 98.25 90.705 98.415 90.78C98.58 90.855 98.7 90.96 98.775 91.08C98.865 91.2 98.925 91.365 98.955 91.56L98.58 91.605C98.535 91.41 98.46 91.26 98.34 91.155C98.22 91.05 98.055 90.99 97.86 90.99C97.65 90.99 97.47 91.05 97.29 91.155C97.11 91.275 96.975 91.44 96.87 91.665C96.765 91.89 96.705 92.16 96.705 92.445C96.705 92.73 96.78 92.955 96.915 93.105C97.05 93.255 97.245 93.33 97.485 93.33C97.725 93.33 97.995 93.24 98.28 93.075L98.4 92.46H97.56V92.475Z" fill="#FDFFFE"/>
    <path d="M100.305 93.615L100.575 92.295H100.275L100.335 92.025H100.635L100.905 90.705H101.745C101.925 90.705 102.045 90.705 102.12 90.72C102.225 90.735 102.345 90.78 102.435 90.84C102.525 90.9 102.63 90.975 102.705 91.08C102.78 91.185 102.84 91.305 102.87 91.44C102.9 91.575 102.93 91.725 102.93 91.875C102.93 92.115 102.9 92.325 102.825 92.505C102.75 92.7 102.66 92.865 102.555 93.015C102.45 93.165 102.33 93.27 102.21 93.36C102.09 93.435 101.94 93.495 101.775 93.54C101.655 93.57 101.49 93.585 101.31 93.585H100.305V93.615ZM100.74 93.285H101.19C101.385 93.285 101.565 93.27 101.73 93.225C101.82 93.195 101.91 93.165 101.985 93.12C102.075 93.06 102.165 92.985 102.24 92.88C102.33 92.745 102.42 92.61 102.465 92.445C102.525 92.28 102.555 92.085 102.555 91.875C102.555 91.635 102.51 91.455 102.435 91.335C102.36 91.215 102.255 91.125 102.135 91.08C102.045 91.05 101.895 91.035 101.715 91.035H101.22L101.01 92.025H101.79L101.73 92.295H100.95L100.74 93.285Z" fill="#FDFFFE"/>
    <path d="M102.84 93.615L104.43 90.72H104.88L105.345 93.615H104.985L104.85 92.775H103.71L103.26 93.615H102.84ZM103.875 92.49H104.805L104.7 91.77C104.655 91.485 104.625 91.245 104.625 91.05C104.565 91.215 104.475 91.41 104.34 91.635L103.875 92.49ZM104.685 90.48L104.445 90.615H104.055L104.505 90.375H104.865L105.225 90.615H104.85L104.685 90.48ZM104.775 90H105.21L104.76 90.285H104.505L104.775 90Z" fill="#FDFFFE"/>
    <path d="M106.32 90.72H106.695L106.335 92.505C106.305 92.655 106.29 92.76 106.29 92.835C106.29 92.985 106.35 93.12 106.47 93.21C106.59 93.3 106.74 93.345 106.92 93.345C107.07 93.345 107.19 93.315 107.325 93.24C107.445 93.165 107.55 93.075 107.61 92.94C107.685 92.805 107.745 92.595 107.805 92.31L108.135 90.72H108.51L108.165 92.415C108.105 92.7 108.03 92.94 107.94 93.105C107.85 93.27 107.715 93.405 107.535 93.51C107.37 93.615 107.175 93.66 106.95 93.66C106.74 93.66 106.56 93.63 106.395 93.555C106.245 93.48 106.125 93.375 106.05 93.255C105.975 93.135 105.93 92.985 105.93 92.82C105.93 92.715 105.96 92.55 106.005 92.295L106.32 90.72Z" fill="#FDFFFE"/>
    <path d="M110.355 93.615L110.88 91.05H109.95L110.01 90.72H112.215L112.155 91.05H111.24L110.715 93.615H110.355Z" fill="#FDFFFE"/>
    <path d="M112.035 93.615L112.62 90.72H112.995L112.755 91.92H114.21L114.45 90.72H114.825L114.24 93.615H113.865L114.135 92.25H112.68L112.395 93.615H112.035Z" fill="#FDFFFE"/>
    <path d="M114.615 93.615L116.205 90.72H116.655L117.12 93.615H116.76L116.625 92.775H115.485L115.035 93.615H114.615ZM115.65 92.49H116.58L116.475 91.77C116.43 91.485 116.4 91.245 116.4 91.05C116.34 91.215 116.25 91.41 116.115 91.635L115.65 92.49ZM116.46 90.48L116.22 90.615H115.83L116.28 90.375H116.64L117 90.615H116.625L116.46 90.48ZM116.76 90.285H116.505L116.055 90H116.49L116.76 90.285Z" fill="#FDFFFE"/>
    <path d="M118.095 90.72H118.47L118.11 92.505C118.08 92.655 118.065 92.76 118.065 92.835C118.065 92.985 118.125 93.12 118.245 93.21C118.365 93.3 118.515 93.345 118.695 93.345C118.845 93.345 118.965 93.315 119.1 93.24C119.22 93.165 119.325 93.075 119.385 92.94C119.46 92.805 119.52 92.595 119.58 92.31L119.91 90.72H120.285L119.94 92.415C119.88 92.7 119.805 92.94 119.715 93.105C119.625 93.27 119.49 93.405 119.31 93.51C119.145 93.615 118.95 93.66 118.725 93.66C118.515 93.66 118.335 93.63 118.17 93.555C118.02 93.48 117.9 93.375 117.825 93.255C117.75 93.135 117.705 92.985 117.705 92.82C117.705 92.715 117.735 92.55 117.78 92.295L118.095 90.72Z" fill="#FDFFFE"/>
    <path d="M123.615 93.39C123.705 93.51 123.84 93.615 124.005 93.72L123.84 93.945C123.675 93.825 123.51 93.69 123.375 93.525C123.18 93.615 123 93.66 122.835 93.66C122.7 93.66 122.55 93.63 122.385 93.585C122.22 93.525 122.085 93.45 121.965 93.345C121.86 93.24 121.77 93.09 121.71 92.925C121.65 92.76 121.62 92.565 121.62 92.355C121.62 92.1 121.665 91.86 121.755 91.635C121.83 91.44 121.935 91.275 122.055 91.14C122.175 91.005 122.31 90.9 122.46 90.825C122.655 90.72 122.865 90.675 123.09 90.675C123.435 90.675 123.72 90.795 123.945 91.035C124.17 91.275 124.275 91.59 124.275 91.98C124.275 92.265 124.215 92.535 124.095 92.79C123.975 93.015 123.825 93.225 123.615 93.39ZM123.39 93.135C123.54 93.015 123.675 92.835 123.765 92.625C123.855 92.415 123.915 92.19 123.915 91.95C123.915 91.665 123.84 91.425 123.675 91.26C123.525 91.095 123.33 91.005 123.105 91.005C122.91 91.005 122.73 91.065 122.565 91.17C122.385 91.29 122.25 91.455 122.145 91.665C122.04 91.89 121.995 92.13 121.995 92.385C121.995 92.715 122.1 92.955 122.295 93.135C122.445 93.27 122.61 93.345 122.79 93.345C122.925 93.345 123.06 93.33 123.165 93.285C123.045 93.18 122.925 93.09 122.805 93.015L122.94 92.775C123.03 92.805 123.105 92.85 123.165 92.91C123.21 92.955 123.285 93.03 123.39 93.135Z" fill="#FDFFFE"/>
    <path d="M125.07 90.72H125.445L125.085 92.505C125.055 92.655 125.04 92.76 125.04 92.835C125.04 92.985 125.1 93.12 125.22 93.21C125.34 93.3 125.49 93.345 125.67 93.345C125.82 93.345 125.94 93.315 126.075 93.24C126.195 93.165 126.3 93.075 126.36 92.94C126.435 92.805 126.495 92.595 126.555 92.31L126.885 90.72H127.26L126.915 92.415C126.855 92.7 126.78 92.94 126.69 93.105C126.6 93.27 126.465 93.405 126.285 93.51C126.12 93.615 125.925 93.66 125.7 93.66C125.49 93.66 125.31 93.63 125.145 93.555C124.995 93.48 124.875 93.375 124.8 93.255C124.725 93.12 124.68 92.985 124.68 92.82C124.68 92.715 124.71 92.55 124.755 92.295L125.07 90.72Z" fill="#FDFFFE"/>
    <path d="M127.485 92.4C127.485 91.89 127.635 91.47 127.92 91.14C128.205 90.825 128.565 90.66 128.97 90.66C129.315 90.66 129.6 90.78 129.825 91.02C130.05 91.26 130.155 91.575 130.155 91.965C130.155 92.25 130.095 92.505 129.99 92.745C129.9 92.925 129.795 93.075 129.675 93.21C129.555 93.345 129.42 93.435 129.27 93.51C129.075 93.6 128.88 93.645 128.655 93.645C128.43 93.645 128.22 93.585 128.04 93.48C127.86 93.375 127.71 93.21 127.62 93.015C127.53 92.835 127.485 92.625 127.485 92.4ZM127.86 92.43C127.86 92.595 127.89 92.76 127.965 92.895C128.04 93.03 128.13 93.15 128.265 93.225C128.4 93.3 128.55 93.345 128.685 93.345C128.835 93.345 128.97 93.315 129.09 93.24C129.225 93.165 129.33 93.075 129.435 92.94C129.54 92.82 129.615 92.655 129.675 92.475C129.735 92.295 129.765 92.115 129.765 91.935C129.765 91.65 129.69 91.41 129.525 91.245C129.375 91.08 129.18 90.99 128.94 90.99C128.64 90.99 128.385 91.125 128.16 91.38C127.965 91.635 127.86 91.98 127.86 92.43ZM129.06 90.48L128.82 90.615H128.43L128.88 90.375H129.24L129.6 90.615H129.225L129.06 90.48ZM129.165 90H129.6L129.15 90.285H128.895L129.165 90Z" fill="#FDFFFE"/>
    <path d="M132.54 92.595L132.915 92.655C132.795 92.985 132.63 93.24 132.405 93.42C132.18 93.585 131.925 93.675 131.655 93.675C131.31 93.675 131.04 93.57 130.845 93.36C130.65 93.15 130.545 92.835 130.545 92.445C130.545 91.92 130.695 91.5 130.995 91.155C131.265 90.855 131.595 90.705 132 90.705C132.3 90.705 132.54 90.78 132.72 90.945C132.9 91.11 133.005 91.335 133.035 91.605L132.69 91.635C132.66 91.425 132.57 91.275 132.465 91.17C132.345 91.065 132.195 91.02 132.015 91.02C131.67 91.02 131.4 91.17 131.175 91.485C130.995 91.755 130.905 92.085 130.905 92.445C130.905 92.745 130.98 92.97 131.115 93.12C131.25 93.27 131.445 93.36 131.67 93.36C131.865 93.36 132.045 93.3 132.195 93.165C132.36 93.015 132.48 92.835 132.54 92.595Z" fill="#FDFFFE"/>
    <path d="M135.705 92.475L135.765 92.145H136.995L136.755 93.33C136.605 93.435 136.425 93.51 136.23 93.57C136.035 93.63 135.84 93.66 135.645 93.66C135.24 93.66 134.925 93.54 134.73 93.285C134.565 93.075 134.475 92.79 134.475 92.46C134.475 92.115 134.55 91.8 134.7 91.515C134.85 91.23 135.03 91.02 135.27 90.885C135.495 90.75 135.75 90.675 136.02 90.675C136.215 90.675 136.395 90.705 136.56 90.78C136.725 90.855 136.845 90.96 136.92 91.08C137.01 91.2 137.07 91.365 137.1 91.56L136.725 91.605C136.68 91.41 136.605 91.26 136.485 91.155C136.365 91.05 136.2 90.99 136.005 90.99C135.795 90.99 135.615 91.05 135.435 91.155C135.255 91.275 135.12 91.44 135.015 91.665C134.91 91.89 134.85 92.16 134.85 92.445C134.85 92.73 134.925 92.955 135.06 93.105C135.195 93.255 135.39 93.33 135.63 93.33C135.87 93.33 136.14 93.24 136.425 93.075L136.545 92.46H135.705V92.475Z" fill="#FDFFFE"/>
    <path d="M137.385 93.615L137.97 90.72H138.345L137.76 93.615H137.385Z" fill="#FDFFFE"/>
    <path d="M138.165 93.615L139.755 90.72H140.205L140.67 93.615H140.31L140.175 92.775H139.035L138.585 93.615H138.165ZM139.185 92.49H140.115L140.01 91.77C139.965 91.485 139.935 91.245 139.935 91.05C139.875 91.215 139.785 91.41 139.65 91.635L139.185 92.49Z" fill="#FDFFFE"/>
    <path d="M103.035 38.4C102.6 38.07 101.865 38.955 101.535 39.27C101.205 39.585 85.155 54.075 74.895 57.84C72.45 56.775 68.565 57.225 66.78 60.99C66.525 61.515 66.375 63.735 66.675 65.25C68.73 68.985 63.135 80.1 57.615 80.94L59.4 82.005C59.4 82.005 65.685 78.855 68.535 71.52C68.94 70.68 68.505 66.945 69.015 66.585C69.525 66.225 70.035 66.18 70.035 67.68C70.035 69.18 70.275 76.86 61.53 82.44C61.53 82.44 63.42 82.95 64.995 82.155C66.57 81.345 70.41 76.2 71.64 70.455C72.885 64.71 73.62 64.53 78.075 61.14C82.53 57.735 92.805 49.335 92.805 49.335L102.63 39.825C102.63 39.825 103.47 38.73 103.035 38.4ZM71.085 65.565C69.495 65.565 68.19 64.275 68.19 62.67C68.19 61.08 69.48 59.775 71.085 59.775C72.675 59.775 73.98 61.065 73.98 62.67C73.98 64.26 72.69 65.565 71.085 65.565ZM76.68 60.465L75.585 59.16C80.445 56.34 83.805 54.48 83.985 54.885C84.18 55.29 76.68 60.465 76.68 60.465Z" fill="#FDFFFE"/>
    <path d="M71.19 64.815C70.035 64.815 69.09 63.87 69.09 62.715C69.09 61.56 70.035 60.615 71.19 60.615C72.345 60.615 73.29 61.56 73.29 62.715C73.29 63.87 72.36 64.815 71.19 64.815ZM71.19 61.26C70.395 61.26 69.75 61.905 69.75 62.7C69.75 63.495 70.395 64.14 71.19 64.14C71.985 64.14 72.63 63.495 72.63 62.7C72.645 61.905 71.985 61.26 71.19 61.26Z" fill="#FDFFFE"/>
    <path d="M67.44 87.33H73.005L78.015 76.065L80.625 87.33H84.675L93.45 68.235H88.74L83.7 79.2L81.12 68.235H76.08C76.08 68.235 76.68 69 76.41 69.6C76.14 70.2 69.225 87.465 67.44 87.33Z" fill="#FDFFFE"/>
    <path d="M96.69 68.235C96.69 68.235 97.245 68.955 96.96 69.6C96.69 70.26 89.565 87.405 88.02 87.33H102L103.815 83.58L94.995 83.415L97.455 79.245L105.24 79.305L106.77 75.9L99.15 75.735L101.235 71.76H109.29L110.985 68.22H96.69V68.235Z" fill="#FDFFFE"/>
    <path d="M105.27 87.33H105.03C105.075 87.42 105.165 87.42 105.27 87.33Z" fill="#FDFFFE"/>
    <path d="M123.945 68.235H113.685C113.685 68.235 114.24 68.4 113.685 69.765C113.175 71.04 106.74 86.25 105.27 87.33L110.67 87.39L113.355 81.705C113.355 81.705 121.305 82.635 124.32 78.585C127.335 74.535 129.255 69.33 123.945 68.235ZM120.645 76.62C119.385 78.435 115.275 77.775 115.275 77.775L117.9 71.73C117.9 71.73 118.89 71.73 120.975 71.73C122.955 72.39 121.92 74.805 120.645 76.62Z" fill="#FDFFFE"/>
    <path d="M125.505 81.33H129.87C129.87 81.33 129.765 83.745 131.16 83.82C132.555 83.895 135.63 84.345 135.93 81.57C136.095 80.25 133.275 79.425 132.195 79.485C131.13 79.545 127.53 77.955 129.42 73.515C131.31 69.075 137.265 67.815 139.98 68.22C142.695 68.625 145.305 70.53 144.15 74.145L139.575 74.205C139.575 74.205 139.935 72.06 138.885 71.88C137.85 71.685 134.985 71.25 134.475 73.245C133.95 75.24 137.085 76.32 139.65 76.995C142.215 77.67 141.975 81.795 139.08 84.615C136.17 87.435 131.19 88.395 127.125 86.7C125.01 85.8 125.01 82.815 125.505 81.33Z" fill="#FDFFFE"/>
</svg>
