<svg width="32" height="32" viewBox="0 0 32 32" fill="none" xmlns="http://www.w3.org/2000/svg">
<g clip-path="url(#clip0)">
<path d="M15.58 18.332H14.803C14.4 18.332 14.073 18.006 14.073 17.603C14.073 17.454 14.133 17.31 14.24 17.206C14.692 16.767 15.072 16.176 15.347 15.539C15.403 15.58 15.463 15.61 15.531 15.61C15.967 15.61 16.481 14.646 16.481 13.989C16.481 13.332 16.42 12.799 15.983 12.799C15.931 12.799 15.877 12.808 15.821 12.822C15.79 11.04 15.34 8.81702 12.619 8.81702C9.77997 8.81702 9.44897 11.036 9.41697 12.816C9.37697 12.808 9.33697 12.799 9.29997 12.799C8.86297 12.799 8.80297 13.332 8.80297 13.989C8.80297 14.646 9.31497 15.61 9.75197 15.61C9.80597 15.61 9.85597 15.595 9.90297 15.568C10.177 16.195 10.552 16.774 10.997 17.209C11.104 17.313 11.164 17.455 11.164 17.605C11.164 18.008 10.837 18.335 10.434 18.335H9.65597C7.99397 18.335 6.64697 19.682 6.64697 21.344V22.178C6.64697 22.702 7.07197 23.128 7.59697 23.128H17.639C18.163 23.128 18.588 22.702 18.588 22.178V21.344C18.589 19.68 17.242 18.332 15.58 18.332Z" fill="#2BBCEE"/>
<path d="M24.589 10.077H16.168C16.411 10.615 16.585 11.277 16.657 12.096C16.837 12.207 16.972 12.386 17.082 12.602H24.589C24.979 12.602 25.293 12.287 25.293 11.898V10.781C25.293 10.393 24.979 10.077 24.589 10.077Z" fill="#2BBCEE"/>
<path d="M24.589 14.678H17.254C17.055 15.43 16.565 16.217 15.886 16.427C15.866 16.464 15.843 16.496 15.822 16.533V17.203H24.588C24.977 17.203 25.292 16.888 25.292 16.498V15.382C25.293 14.993 24.979 14.678 24.589 14.678Z" fill="#2BBCEE"/>
<path d="M24.589 19.279H18.863C19.241 19.877 19.463 20.582 19.463 21.341V21.804H24.589C24.979 21.804 25.293 21.489 25.293 21.1V19.983C25.293 19.594 24.979 19.279 24.589 19.279Z" fill="#2BBCEE"/>
<path d="M27.615 3.05701H4.325C1.936 3.05701 0 4.99301 0 7.38201V24.558C0 26.948 1.936 28.883 4.325 28.883H27.615C30.004 28.883 31.939 26.947 31.939 24.558V7.38201C31.939 4.99301 30.004 3.05701 27.615 3.05701ZM29.898 24.558C29.898 25.817 28.874 26.841 27.615 26.841H4.325C3.066 26.841 2.042 25.817 2.042 24.558V7.38201C2.042 6.12301 3.066 5.09901 4.325 5.09901H27.615C28.874 5.09901 29.898 6.12301 29.898 7.38201V24.558Z" fill="#2BBCEE"/>
</g>
<defs>
<clipPath id="clip0">
<rect width="31.939" height="31.939" fill="white"/>
</clipPath>
</defs>
</svg>
