<svg width="24" height="24" viewBox="0 0 24 24" fill="none" xmlns="http://www.w3.org/2000/svg">
    <path d="M22.3284 14.7573L19.5217 11.9509V9.96802C19.5217 9.57965 19.207 9.26489 18.8186 9.26489C18.4304 9.26489 18.1155 9.57965 18.1155 9.96802V11.9509L15.309 14.7573C15.1772 14.8893 15.103 15.0681 15.103 15.2546C15.103 15.441 15.177 15.6199 15.309 15.7518L16.8152 17.258C17.0899 17.5325 17.535 17.5327 17.8097 17.258C18.0842 16.9833 18.0842 16.5382 17.8097 16.2637L16.8006 15.2546L18.8188 13.2365L20.8368 15.2546L19.8279 16.2637C19.5532 16.5382 19.5532 16.9833 19.8279 17.258C19.9652 17.3953 20.145 17.464 20.325 17.464C20.5048 17.464 20.6848 17.3953 20.8221 17.258L22.3284 15.7518C22.6028 15.4771 22.6028 15.032 22.3284 14.7573Z" fill="#003365"/>
    <path d="M19.522 11.9509V9.96802C19.522 9.57965 19.2072 9.26489 18.8188 9.26489V13.2365L20.837 15.2546L19.8279 16.2637C19.5535 16.5382 19.5535 16.9835 19.8279 17.258C19.9653 17.3953 20.1453 17.464 20.3253 17.464C20.5051 17.464 20.6851 17.3953 20.8224 17.258L22.3286 15.7518C22.6031 15.4771 22.6031 15.032 22.3286 14.7573L19.522 11.9509Z" fill="#000B34"/>
    <path d="M17.1912 9.86163L13.0488 5.71906C12.7741 5.4444 12.7741 4.99927 13.0488 4.72461L15.3088 2.46454C15.5833 2.18988 16.0286 2.18988 16.3031 2.46454L20.4457 6.60712C21.3444 7.50562 21.346 8.96149 20.4457 9.86163C19.5472 10.7601 18.0915 10.7618 17.1912 9.86163Z" fill="#FF9A00"/>
    <path d="M20.4457 6.60712L16.3031 2.46454C16.0286 2.18988 15.5833 2.18988 15.3088 2.46454L14.1787 3.59467L20.4457 9.86163C21.346 8.96149 21.3444 7.50562 20.4457 6.60712Z" fill="#FF6600"/>
    <path d="M14.0441 4.72461C14.0415 4.72205 14.0388 4.71985 14.036 4.71729L11.7847 2.46527C11.5103 2.19061 11.0649 2.19061 10.7903 2.46527L5.51849 7.73724C5.24384 8.01172 5.24384 8.45685 5.51849 8.73151L7.77783 10.9908C7.91516 11.1282 8.09515 11.1968 8.27496 11.1968C8.45496 11.1968 8.63495 11.1282 8.77228 10.9908L14.0441 5.71906C14.3187 5.4444 14.3187 4.99927 14.0441 4.72461Z" fill="#FFC200"/>
    <path d="M14.0443 4.72461C14.0417 4.72205 14.0389 4.71985 14.0362 4.71729L12.9145 3.59521L6.64844 9.86127L7.77802 10.9908C7.91534 11.1282 8.09534 11.1968 8.27515 11.1968C8.45514 11.1968 8.63513 11.1282 8.77246 10.9908L14.0443 5.71906C14.3189 5.4444 14.3189 4.99927 14.0443 4.72461Z" fill="#FF9A00"/>
    <path d="M8.27502 9.79053H3.75635C3.36798 9.79053 3.05322 10.1053 3.05322 10.4937V19.5312C3.05322 19.9194 3.36798 20.2343 3.75635 20.2343H8.27502C8.66339 20.2343 8.97815 19.9194 8.97815 19.5312V10.4937C8.97815 10.1053 8.66339 9.79053 8.27502 9.79053Z" fill="#FFD700"/>
    <path d="M8.97809 19.5312V10.4937C8.97809 10.1053 8.66333 9.79053 8.27496 9.79053H6.01562V20.2343H8.27496C8.66333 20.2343 8.97809 19.9194 8.97809 19.5312Z" fill="#FFC200"/>
    <path d="M13.5469 5.92493C11.9135 5.92493 10.5845 4.59613 10.5845 2.96246C10.5845 1.32898 11.9135 0 13.5469 0C15.1804 0 16.5094 1.32898 16.5094 2.96246C16.5094 4.59595 15.1804 5.92493 13.5469 5.92493Z" fill="#004984"/>
    <path d="M8.2749 18.8281H3.75623C2.53601 18.8281 1.54688 19.8173 1.54688 21.0375V23.2968C1.54688 23.6852 1.86163 23.9999 2.25 23.9999H9.78113C10.1695 23.9999 10.4843 23.6852 10.4843 23.2968V21.0375C10.4843 19.8173 9.49512 18.8281 8.2749 18.8281Z" fill="#FF9A00"/>
    <path d="M10.4843 23.2968V21.0375C10.4843 19.8173 9.49518 18.8281 8.27496 18.8281H6.01562V23.9999H9.78119C10.1696 23.9999 10.4843 23.6852 10.4843 23.2968Z" fill="#FF6600"/>
    <path d="M6.01569 13.4562C4.3822 13.4562 3.05322 12.1272 3.05322 10.4937C3.05322 8.86023 4.3822 7.53125 6.01569 7.53125C7.64917 7.53125 8.97815 8.86023 8.97815 10.4937C8.97815 12.1272 7.64935 13.4562 6.01569 13.4562Z" fill="#004984"/>
    <path d="M8.97809 10.4937C8.97809 8.86023 7.64929 7.53125 6.01562 7.53125V13.4562C7.64929 13.4562 8.97809 12.1272 8.97809 10.4937Z" fill="#003365"/>
    <path d="M6.01569 8.9375C5.15765 8.9375 4.45947 9.63568 4.45947 10.4937C4.45947 11.3517 5.15765 12.0499 6.01569 12.0499C6.8739 12.0499 7.5719 11.3517 7.5719 10.4937C7.5719 9.63568 6.8739 8.9375 6.01569 8.9375Z" fill="#9BE4FF"/>
    <path d="M7.57184 10.4937C7.57184 9.6355 6.87384 8.9375 6.01562 8.9375V12.0499C6.87384 12.0499 7.57184 11.3519 7.57184 10.4937Z" fill="#57CAFF"/>
    <path d="M16.5093 2.96246C16.5093 1.32898 15.1804 0 13.5469 0V5.92493C15.1804 5.92493 16.5093 4.59613 16.5093 2.96246Z" fill="#003365"/>
    <path d="M13.5469 1.40625C12.6887 1.40625 11.9907 2.10443 11.9907 2.96246C11.9907 3.82068 12.6889 4.51868 13.5469 4.51868C14.405 4.51868 15.1031 3.82068 15.1031 2.96246C15.1031 2.10443 14.4052 1.40625 13.5469 1.40625Z" fill="#9BE4FF"/>
    <path d="M15.1031 2.96246C15.1031 2.10443 14.4051 1.40625 13.5469 1.40625V4.51868C14.4051 4.51868 15.1031 3.82068 15.1031 2.96246Z" fill="#57CAFF"/>
</svg>
