<svg width="200" height="86" viewBox="0 0 200 86" fill="none" xmlns="http://www.w3.org/2000/svg">
    <path d="M87.48 76.5599H88.2L87.84 78.3399H89.58L89.94 76.5599H90.66L89.78 80.9599H89.06L89.46 78.9799H87.72L87.32 80.9599H86.6L87.48 76.5599Z" fill="#4E4E50"/>
    <path d="M91.78 76.56H94.3L94.18 77.18H92.38L92.14 78.36H93.66L93.54 78.98H92.02L91.74 80.36H93.6L93.48 80.98H90.9L91.78 76.56ZM91.68 82.04C91.68 81.78 91.9 81.56 92.16 81.56C92.38 81.56 92.58 81.7 92.58 81.94C92.58 82.2 92.36 82.42 92.1 82.42C91.88 82.42 91.68 82.28 91.68 82.04ZM92.08 76.06L92.86 75.34H93.7L94.22 76.08L93.86 76.3L93.26 75.7H93.24L92.38 76.3L92.08 76.06Z" fill="#4E4E50"/>
    <path d="M97.28 77.1799H96.06L96.18 76.5599H99.34L99.22 77.1799H98L97.24 80.9599H96.52L97.28 77.1799Z" fill="#4E4E50"/>
    <path d="M100.08 76.5599H100.8L100.44 78.3399H102.18L102.54 76.5599H103.26L102.38 80.9599H101.66L102.06 78.9799H100.32L99.94 80.9599H99.2L100.08 76.5599Z" fill="#4E4E50"/>
    <path d="M103.68 79.2C103.68 77.74 104.64 76.48 105.88 76.48C106.88 76.48 107.46 77.2 107.46 78.34C107.46 79.8 106.5 81.06 105.26 81.06C104.26 81.06 103.68 80.34 103.68 79.2ZM106.72 78.4C106.72 77.62 106.42 77.12 105.84 77.12C105.06 77.12 104.44 78.12 104.44 79.16C104.44 79.94 104.74 80.44 105.32 80.44C106.08 80.42 106.72 79.42 106.72 78.4ZM105.14 76.08L105.88 75.44H106.56L107.06 76.08L106.72 76.3L106.18 75.82H106.16L105.44 76.3L105.14 76.08ZM106.8 75.52L107.58 74.98L107.8 75.34L107.02 75.82L106.8 75.52Z" fill="#4E4E50"/>
    <path d="M108.74 76.5599H109.46L110.32 79.1199L110.58 80.0599H110.6C110.66 79.5999 110.7 79.0399 110.8 78.5599L111.2 76.5599H111.9L111.02 80.9599H110.32L109.46 78.4199L109.2 77.4599H109.18C109.12 77.9399 109.08 78.4599 108.98 78.9399L108.58 80.9599H107.88L108.74 76.5599Z" fill="#4E4E50"/>
    <path d="M112.28 79.24C112.28 77.78 113.24 76.48 114.66 76.48C115.2 76.48 115.58 76.74 115.82 77.16L115.32 77.54C115.16 77.28 114.94 77.1 114.62 77.1C113.66 77.1 113.02 78.14 113.02 79.18C113.02 79.9 113.32 80.42 114.08 80.42C114.32 80.42 114.54 80.34 114.7 80.22L114.92 79.18H114.1L114.22 78.58H115.68L115.28 80.58C114.96 80.84 114.5 81.04 113.96 81.04C112.88 81.06 112.28 80.36 112.28 79.24Z" fill="#4E4E50"/>
    <path d="M118.34 76.5599H119.14L119.5 78.7599L119.62 79.5999H119.64L120.08 78.7599L121.3 76.5599H122.1L121.22 80.9599H120.54L120.98 78.8399C121.06 78.4199 121.22 77.8599 121.34 77.4599H121.32L120.78 78.4599L119.62 80.5199H119.28L118.92 78.4599L118.78 77.4599H118.76C118.72 77.8799 118.66 78.4199 118.58 78.8399L118.16 80.9599H117.5L118.34 76.5599Z" fill="#4E4E50"/>
    <path d="M124.08 76.5599H124.94L125.42 80.9599H124.66L124.58 79.7199H123.14L122.52 80.9599H121.72L124.08 76.5599ZM123.02 82.0399C123.02 81.7799 123.24 81.5599 123.5 81.5599C123.72 81.5599 123.92 81.6999 123.92 81.9399C123.92 82.1999 123.7 82.4199 123.44 82.4199C123.22 82.4199 123.02 82.2799 123.02 82.0399ZM123.42 79.1799H124.54L124.5 78.5199C124.48 78.0599 124.44 77.6399 124.42 77.1599H124.4C124.18 77.6399 123.98 78.0599 123.76 78.5199L123.42 79.1799Z" fill="#4E4E50"/>
    <path d="M126.78 76.5599H127.5L128.36 79.1199L128.62 80.0599H128.64C128.7 79.5999 128.74 79.0399 128.84 78.5599L129.24 76.5599H129.94L129.06 80.9599H128.36L127.5 78.4199L127.24 77.4599H127.2C127.14 77.9399 127.1 78.4599 127 78.9399L126.6 80.9599H125.9L126.78 76.5599Z" fill="#4E4E50"/>
    <path d="M130.32 79.24C130.32 77.78 131.28 76.48 132.7 76.48C133.24 76.48 133.62 76.74 133.86 77.16L133.36 77.54C133.2 77.28 132.98 77.1 132.66 77.1C131.7 77.1 131.06 78.14 131.06 79.18C131.06 79.9 131.36 80.42 132.12 80.42C132.38 80.42 132.58 80.34 132.74 80.22L132.96 79.18H132.14L132.26 78.58H133.72L133.32 80.58C133 80.84 132.54 81.04 132 81.04C130.94 81.06 130.32 80.36 130.32 79.24Z" fill="#4E4E50"/>
    <path d="M135.64 78.5L136.12 78.48L136.5 76.58H137.4C138.62 76.58 139.3 77.18 139.3 78.3C139.3 79.96 138.36 80.98 136.9 80.98H135.62L136.04 78.86H135.56L135.64 78.5ZM136.9 80.38C137.9 80.38 138.58 79.64 138.58 78.34C138.58 77.56 138.14 77.16 137.4 77.16H137.14L136.88 78.48H137.8L137.72 78.86H136.8L136.5 80.4H136.9V80.38Z" fill="#4E4E50"/>
    <path d="M141.44 76.56H142.3L142.78 80.96H142.02L141.94 79.72H140.5L139.88 80.96H139.08L141.44 76.56ZM140.78 79.18H141.9L141.86 78.52C141.84 78.06 141.8 77.64 141.78 77.16H141.76C141.54 77.64 141.34 78.06 141.12 78.52L140.78 79.18ZM140.96 76.08L141.7 75.44H142.38L142.88 76.08L142.54 76.3L142 75.82H141.98L141.26 76.3L140.96 76.08ZM142.62 75.52L143.4 74.98L143.62 75.34L142.84 75.82L142.62 75.52Z" fill="#4E4E50"/>
    <path d="M143.88 76.5599H144.6L144.1 79.0199C144.06 79.1999 144.04 79.3799 144.04 79.5399C144.04 80.0999 144.28 80.4199 144.82 80.4199C145.28 80.4199 145.64 80.0799 145.82 79.1799L146.34 76.5599H147.06L146.52 79.1799C146.26 80.4999 145.66 81.0399 144.8 81.0399C143.84 81.0399 143.32 80.5599 143.32 79.5799C143.32 79.3799 143.36 79.1399 143.4 78.9199L143.88 76.5599Z" fill="#4E4E50"/>
    <path d="M150.18 77.1799H148.96L149.08 76.5599H152.24L152.12 77.1799H150.9L150.14 80.9599H149.42L150.18 77.1799Z" fill="#4E4E50"/>
    <path d="M152.96 76.5599H153.68L153.32 78.3399H155.06L155.42 76.5599H156.14L155.26 80.9599H154.54L154.94 78.9799H153.2L152.8 80.9599H152.08L152.96 76.5599Z" fill="#4E4E50"/>
    <path d="M158.14 76.56H159L159.48 80.96H158.72L158.64 79.72H157.2L156.58 80.96H155.78L158.14 76.56ZM157.12 75.26L157.46 74.96L158.02 75.56L157.74 75.8L157.12 75.26ZM157.46 79.18H158.58L158.54 78.52C158.52 78.06 158.48 77.64 158.46 77.16H158.44C158.22 77.64 158.02 78.06 157.8 78.52L157.46 79.18ZM157.64 76.08L158.38 75.44H159.06L159.56 76.08L159.22 76.3L158.68 75.82H158.66L157.94 76.3L157.64 76.08Z" fill="#4E4E50"/>
    <path d="M160.56 76.5599H161.28L160.78 79.0199C160.74 79.1999 160.72 79.3799 160.72 79.5399C160.72 80.0999 160.94 80.4199 161.5 80.4199C161.96 80.4199 162.32 80.0799 162.5 79.1799L163.02 76.5599H163.74L163.2 79.1799C162.94 80.4999 162.34 81.0399 161.48 81.0399C160.5 81.0399 160 80.5599 160 79.5799C160 79.3799 160.04 79.1399 160.08 78.9199L160.56 76.5599Z" fill="#4E4E50"/>
    <path d="M166.54 80.98C165.86 80.78 165.44 80.14 165.44 79.2C165.44 77.74 166.4 76.48 167.64 76.48C168.64 76.48 169.22 77.2 169.22 78.34C169.22 79.7 168.4 80.88 167.28 81.04C167.46 81.38 167.84 81.52 168.26 81.52C168.42 81.52 168.54 81.5 168.66 81.46L168.7 82.02C168.56 82.08 168.36 82.1 168.2 82.1C167.4 82.1 166.8 81.76 166.54 80.98ZM168.48 78.4C168.48 77.62 168.18 77.12 167.6 77.12C166.82 77.12 166.2 78.12 166.2 79.16C166.2 79.94 166.5 80.44 167.08 80.44C167.86 80.42 168.48 79.42 168.48 78.4Z" fill="#4E4E50"/>
    <path d="M170.48 76.5599H171.2L170.7 79.0199C170.66 79.1999 170.64 79.3799 170.64 79.5399C170.64 80.0999 170.86 80.4199 171.42 80.4199C171.88 80.4199 172.24 80.0799 172.4 79.1799L172.92 76.5599H173.64L173.1 79.1799C172.84 80.4999 172.24 81.0399 171.38 81.0399C170.42 81.0399 169.9 80.5599 169.9 79.5799C169.9 79.3799 169.94 79.1399 169.98 78.9199L170.48 76.5599Z" fill="#4E4E50"/>
    <path d="M174.04 79.2C174.04 77.74 175.02 76.48 176.24 76.48C177.24 76.48 177.82 77.2 177.82 78.34C177.82 79.8 176.86 81.06 175.62 81.06C174.64 81.06 174.04 80.34 174.04 79.2ZM177.1 78.4C177.1 77.62 176.8 77.12 176.22 77.12C175.44 77.12 174.82 78.12 174.82 79.16C174.82 79.94 175.1 80.44 175.7 80.44C176.46 80.42 177.1 79.42 177.1 78.4ZM175.5 76.08L176.24 75.44H176.92L177.42 76.08L177.08 76.3L176.54 75.82H176.52L175.8 76.3L175.5 76.08ZM177.18 75.52L177.96 74.98L178.18 75.34L177.4 75.82L177.18 75.52Z" fill="#4E4E50"/>
    <path d="M178.4 79.24C178.4 77.78 179.36 76.48 180.72 76.48C181.22 76.48 181.6 76.74 181.84 77.16L181.34 77.54C181.18 77.28 180.96 77.1 180.68 77.1C179.78 77.1 179.16 78.14 179.16 79.18C179.16 79.92 179.46 80.42 180.18 80.42C180.48 80.42 180.76 80.28 181.02 80.06L181.34 80.52C181.04 80.78 180.6 81.04 180.04 81.04C179 81.06 178.4 80.34 178.4 79.24Z" fill="#4E4E50"/>
    <path d="M183.48 79.24C183.48 77.78 184.44 76.48 185.86 76.48C186.4 76.48 186.78 76.74 187.02 77.16L186.52 77.54C186.36 77.28 186.14 77.1 185.82 77.1C184.86 77.1 184.22 78.14 184.22 79.18C184.22 79.9 184.52 80.42 185.28 80.42C185.52 80.42 185.74 80.34 185.9 80.22L186.12 79.18H185.3L185.42 78.58H186.88L186.48 80.58C186.16 80.84 185.7 81.04 185.16 81.04C184.1 81.06 183.48 80.36 183.48 79.24Z" fill="#4E4E50"/>
    <path d="M188.24 76.5599H188.96L188.08 80.9599H187.36L188.24 76.5599Z" fill="#4E4E50"/>
    <path d="M190.94 76.5599H191.8L192.26 80.9599H191.5L191.42 79.7199H190L189.38 80.9599H188.58L190.94 76.5599ZM190.28 79.1799H191.4L191.36 78.5199C191.34 78.0599 191.3 77.6399 191.28 77.1599H191.26C191.04 77.6399 190.84 78.0599 190.62 78.5199L190.28 79.1799Z" fill="#4E4E50"/>
    <path d="M177.56 63.44L177.42 63.82C176.9 65.68 178.52 66.92 180.9 66.92C182.72 66.92 185.02 66.16 185.56 64.28C186.02 62.68 184.6 62.12 182.78 61.48L180.44 60.66C177.4 59.6 175.04 57.66 176.28 53.34C177.88 47.7 183.5 44.64 189.46 44.64C195.62 44.64 198.58 48.04 197.38 52.28C197.28 52.62 197.16 52.9 197.08 53.06H190.84L190.96 52.74C191.52 50.8 189.88 49.84 187.96 49.84C185.94 49.84 184.12 50.84 183.7 52.42C183.3 53.84 184.42 54.66 186.38 55.32L188.88 56.16C191.66 57.1 194.26 58.76 193 63.2C191.38 68.94 185.46 72.06 179.22 72.06C173.98 72.06 169.28 69.7 170.82 64.26C170.92 63.92 171 63.68 171.14 63.42H177.56V63.44Z" fill="#2BBCEE"/>
    <path d="M118.9 44.46L111.78 60H111.48L108.2 44.46H104.64H102.7H100.96C101.22 44.88 101.36 45.36 101.36 45.88C101.36 46.14 101.32 46.38 101.26 46.62L101.28 46.58C100.96 47.76 100.42 48.98 100.3 49.24L93 65.12L92.18 66.86C91.84 67.6 91.52 68.3 91.18 68.92L91.16 68.94C91.04 69.16 90.92 69.36 90.8 69.56C89.96 71 89.04 71.92 87.8 72.08H89.78H96.18H96.58L103.76 56.36H104.06L107.38 72.08H113L125.68 44.46H118.9Z" fill="#2BBCEE"/>
    <path d="M147.82 50.24L150.46 44.46H133.74H131.62H131.44H130.08C130.34 44.88 130.48 45.36 130.48 45.86C130.48 46.08 130.46 46.3 130.4 46.52L130.42 46.48C130.06 47.82 129.4 49.28 129.4 49.28L120.16 69.4C120.12 69.46 120.1 69.52 120.06 69.58C119.2 71.02 118.3 71.94 117.06 72.1H118.92H125.44H137.8L140.46 66.3H128.82L131.34 60.8H142.28L144.64 55.62H133.74L136.22 50.26H147.82V50.24Z" fill="#2BBCEE"/>
    <path d="M166.34 44.44H157.72H155.56H154.42V44.46H154.06C154.3 44.88 154.44 45.36 154.44 45.86C154.44 46.14 154.4 46.4 154.32 46.64L154.34 46.62C154.16 47.32 153.88 48.02 153.68 48.54L143.94 69.74C143.12 71.06 142.24 71.94 141.04 72.08H142.86H149.4H150.08L153.82 63.94H158.24C165.04 63.94 169.86 60.28 172.2 55.38C172.58 54.6 172.88 53.76 173.12 52.94C174.6 47.7 172.14 44.44 166.34 44.44ZM165.76 53.3C165.64 53.72 165.44 54.24 165.2 54.64C164.16 56.68 162.14 58.24 159.4 58.24H156.46L160.4 49.7H163.04C165 49.7 166.5 50.74 165.76 53.3Z" fill="#2BBCEE"/>
    <path d="M51.36 76C54.12 80.04 58.74 82.66 64 82.66C68.74 82.66 72.98 80.5 75.78 77.12L75.8 77.1C74.32 77.56 72.74 77.8 71.1 77.8C65.66 77.8 60.88 75.12 57.94 71.02C55.98 68.44 54.78 65.98 54.78 65.98L40.9 32.04C40.9 32.04 40.9 32.02 40.9 32C40.72 31.58 40.6 31.12 40.6 30.62C40.6 29.84 40.88 29.12 41.32 28.54C41.4 28.44 41.48 28.34 41.56 28.26C41.58 28.22 41.62 28.18 41.66 28.14C41.68 28.12 41.7 28.12 41.72 28.1C42 27.84 42.32 27.62 42.66 27.46H39.04H38.24H35.04H29.62H26.46C28.36 28.5 29.96 30.02 31.12 31.84C31.24 32 31.36 32.18 31.46 32.34V32.32C31.46 32.32 31.56 32.48 31.68 32.7C31.78 32.84 31.86 32.98 31.96 33.12H31.98C32.08 33.3 32.18 33.5 32.28 33.68C32.44 33.96 32.62 34.26 32.8 34.58C36.7 43.34 41.56 57.78 44.64 63.78C46.46 67.32 48.82 72.32 51.36 75.98V76Z" fill="#DD1F26"/>
    <path d="M93.36 33.76C91.76 34.08 90.7 35.62 91 37.24C91.32 38.86 92.88 39.9 94.48 39.6C96.1 39.28 97.14 37.74 96.84 36.12C96.52 34.52 94.96 33.46 93.36 33.76ZM94.3 38.6C93.24 38.8 92.22 38.12 92.02 37.06C91.82 36 92.5 34.98 93.56 34.76C94.62 34.56 95.64 35.24 95.86 36.3C96.04 37.38 95.34 38.4 94.3 38.6Z" fill="#DD1F26"/>
    <path d="M50.92 80C50.16 78.96 49.38 77.78 48.64 76.58C40.44 77.38 34.46 76.94 34.46 76.94L34.94 71.72C34.94 71.72 39.92 71.64 45.62 71.28C45.56 71.16 45.48 71.02 45.42 70.9C44.46 69.1 43.84 67.84 43.84 67.84C36.74 68.12 29.14 67.5 22.64 66.66C13.68 65.6 6.38 63.86 6.38 63.86L5.7 66.28L18.06 68.74L17.8 69.84L5.38 67.42L4.84 69.32L17.4 71.52L17.16 72.46L4.52 70.38L4.02 72.16L16.78 74.04L16.56 74.98C13.08 74.7 6.08 73.78 3.66 73.44L3.18 75.14L16.16 76.72L15.92 77.72L2.86 76.22L2.72 76.72L2 79.24C2 79.24 16.14 81.36 32.32 81.2C37.96 81.18 44.38 80.88 50.92 80ZM21.58 74.1C21.4 75.52 20.72 76.62 20.12 76.54C19.5 76.46 19.14 75.24 19.32 73.8C19.5 72.38 20.16 71.28 20.78 71.36C21.4 71.46 21.76 72.68 21.58 74.1ZM25.64 74.48C25.48 75.78 24.86 76.76 24.24 76.68C23.62 76.6 23.26 75.48 23.42 74.2C23.58 72.92 24.2 71.94 24.82 72.02C25.44 72.08 25.8 73.18 25.64 74.48ZM29.54 74.62C29.42 75.86 28.8 76.8 28.18 76.74C27.56 76.68 27.18 75.62 27.3 74.38C27.44 73.14 28.04 72.2 28.66 72.26C29.28 72.32 29.66 73.38 29.54 74.62ZM31.78 76.82C31.22 76.78 30.84 75.7 30.96 74.44C31.08 73.18 31.62 72.2 32.18 72.24C32.76 72.28 33.12 73.36 33 74.62C32.9 75.88 32.34 76.86 31.78 76.82Z" fill="#DD1F26"/>
    <path d="M138.94 2.03999C138.26 1.77999 137.42 3.01999 137.42 3.01999C133.32 7.63999 119.7 17.76 119.7 17.76C112.26 23.32 98.98 29.86 98.98 29.86C93.22 27.44 89.02 32.28 89.02 32.28C86.48 35.2 87.6 40.36 87.6 40.36L87.96 44.1C87.96 44.16 88.38 50.46 83.82 56.48C82.58 57.88 81.28 59.02 80.06 59.92C79.68 60.2 79.28 60.48 78.86 60.74C76.44 62.3 74.56 62.9 74.56 62.9C75.38 63.4 76.24 63.84 77.14 64.16C79.48 62.96 82 61.24 84.26 58.88C85.78 57.28 88 54.86 89.76 50.58C90.48 48.86 90.98 47.42 90.82 42.98C90.82 42.98 90.72 42.06 91.48 42.02C91.48 42.02 92.52 41.72 92.5 43.88C92.5 43.88 93.12 49.38 89.22 55.48C88.5 56.56 85.32 62.34 79.96 64.9C79.96 64.9 81.76 65.34 83.68 64.98C83.76 64.96 83.84 64.96 83.94 64.94C84.38 64.8 85 64.56 85.76 64.1C85.92 63.98 86.56 63.5 87.24 62.66C88.42 61.26 89.64 59.72 90.62 57.92C92.78 53.92 93.68 52.34 95.02 45.68C95.3 44.52 95.64 43.56 96 42.8C96 42.8 96.08 42.62 96.26 42.3C96.42 42 96.58 41.72 96.74 41.5C97.64 40.1 99.42 37.82 102.58 35.64C103.3 35.06 103.8 34.72 103.8 34.72L109.36 30.38L126.04 16.64C133.26 10.08 138.12 4.47999 138.12 4.47999C139.92 2.39999 138.94 2.03999 138.94 2.03999ZM94.62 40.68C92.42 41.1 90.28 39.66 89.84 37.46C89.42 35.24 90.86 33.12 93.06 32.68C95.26 32.26 97.4 33.7 97.84 35.9C98.28 38.12 96.82 40.26 94.62 40.68ZM111.76 26.28L101.64 33.72C101.26 32.64 100.28 31.82 100.28 31.82C101.6 31.5 110.26 26.18 110.26 26.18C111.92 25.08 112.3 25.24 112.3 25.24C112.36 25.66 111.76 26.28 111.76 26.28Z" fill="#DD1F26"/>
    <path d="M85.74 40.04C85.64 38.68 85.42 36.08 85.42 36.08C84.44 36.16 75.48 37.32 71.2 37.88L70.74 39.5L71.82 39.42L71.78 40.42L70.44 40.52L70.14 41.54L71.74 41.42L71.7 42.54L69.82 42.7L69.54 43.64L71.66 43.46L71.62 44.34L69.26 44.62L68.9 45.86L82.88 44.14C86.3 43.58 85.74 40.04 85.74 40.04ZM75.14 43.78L73.6 43.96L73.66 39.34L75.24 39.16L75.14 43.78ZM78.06 43.44L76.54 43.62L76.6 39L78.18 38.82L78.06 43.44ZM82.24 43.04C80.76 43.16 79.46 42.06 79.34 40.58C79.22 39.1 80.32 37.8 81.8 37.68C83.28 37.56 84.58 38.66 84.7 40.14C84.82 41.62 83.72 42.92 82.24 43.04Z" fill="#DD1F26"/>
    <path d="M81.9 38.8C81.04 38.86 80.4 39.62 80.46 40.5C80.52 41.36 81.28 42.02 82.16 41.94C83.02 41.86 83.66 41.12 83.6 40.24C83.52 39.38 82.78 38.72 81.9 38.8Z" fill="#DD1F26"/>
    <path d="M80.02 67.52C76.02 67.52 72.48 65.48 70.38 62.38C69.7 61.44 69.16 60.52 68.8 59.76C66.14 54.2 61.62 40.96 59.08 33.26C58.94 32.74 58.76 32.06 58.7 31.36C58.66 31.06 58.68 30.76 58.72 30.46C58.78 29.1 59.62 27.96 60.8 27.46H57.2H54.38H52.88H47.98H45.1C47.88 28.98 50 31.5 51.08 34.52C52.64 38.2 54.16 42.92 55.64 47.64C58.3 55.4 63.64 68.94 69.22 71.32C70.48 71.76 71.82 71.98 73.22 71.98C77.2 71.98 80.72 70.1 82.98 67.18C83 67.16 83.02 67.14 83.02 67.12C82.04 67.38 81.04 67.52 80.02 67.52Z" fill="#DD1F26"/>
    <path d="M85.7 35.24C78.2 37.18 71.2 37.88 71.2 37.88L71.6 38.28L83.6 36.68L85.6 38.5C85.52 37.96 85.42 36.68 85.7 35.24Z" fill="#DD1F26"/>
</svg>
