<svg width="16" height="16" viewBox="0 0 16 16" fill="none" xmlns="http://www.w3.org/2000/svg">
    <g clip-path="url(#clip0)">
        <path d="M2.66699 2.03271H11.4674V3.09943H2.66699V2.03271Z" fill="#4799CF"/>
        <path d="M0.266602 3.09937H12.5339V10.5664H0.266602V3.09937Z" fill="#EBEBEB"/>
        <path d="M1.6 1.23267C0.863636 1.23267 0.266602 1.82957 0.266602 2.56607V10.5665H2.9334V2.56607C2.9334 1.82957 2.33636 1.23267 1.6 1.23267Z" fill="#F0F0F0"/>
        <path d="M9.86727 7.36648H5.60041C5.48946 7.36635 5.39011 7.29746 5.35105 7.19355C5.31198 7.08964 5.34141 6.97232 5.42488 6.89913L7.55831 5.03238C7.65883 4.94461 7.80884 4.94461 7.90937 5.03238L10.0428 6.89913C10.1263 6.97232 10.1557 7.08964 10.1166 7.19355C10.0776 7.29746 9.97821 7.36635 9.86727 7.36648ZM6.31007 6.83312H9.1576L7.73384 5.58735L6.31007 6.83312Z" fill="#5D9AA4"/>
        <path d="M3.7334 3.89941H4.26676V9.49967H3.7334V3.89941Z" fill="#D9D9D9"/>
        <path d="M4 4.43286H4.80002V4.96622H4V4.43286Z" fill="#D9D9D9"/>
        <path d="M4 6.03296H4.80002V6.56633H4V6.03296Z" fill="#D9D9D9"/>
        <path d="M4 7.63306H4.80002V8.16643H4V7.63306Z" fill="#D9D9D9"/>
        <path d="M4 8.96631H11.2003V9.49965H4V8.96631Z" fill="#D9D9D9"/>
        <path d="M15.3372 1.34258C15.7187 1.56551 15.8473 2.05551 15.6243 2.43691L12.2604 8.19305L10.8789 7.38572L14.2429 1.62958C14.4658 1.24818 14.9558 1.11966 15.3372 1.34258Z" fill="#F55648"/>
        <path d="M12.2606 8.19305L15.6244 2.43651C15.7823 2.16528 15.7668 1.82672 15.585 1.57085C15.2063 1.36693 14.7343 1.49897 14.5162 1.86956L11.1875 7.56554L12.2606 8.19305Z" fill="#DC4D41"/>
        <path d="M10.8802 7.38525L10.587 8.77491C10.5543 8.93078 10.625 9.09003 10.7624 9.17037C10.8999 9.25072 11.0734 9.23405 11.1932 9.1291L12.2599 8.19272L10.8802 7.38525Z" fill="#F9D7C0"/>
        <path d="M10.6842 8.31274L10.5869 8.77489C10.5544 8.93076 10.6251 9.08988 10.7625 9.1701C10.9 9.25044 11.0733 9.2339 11.1931 9.12908L11.5469 8.8176L10.6842 8.31274Z" fill="#A8A8A8"/>
        <path d="M15.3373 1.34205C14.9559 1.11991 14.4667 1.24843 14.2439 1.62931L13.7871 2.41099L15.1687 3.21819L15.6256 2.43651C15.8483 2.05472 15.7193 1.56459 15.3373 1.34205Z" fill="#EBEBEB"/>
        <path d="M15.1678 3.2182L15.6246 2.43652C15.7824 2.16528 15.7669 1.82672 15.5852 1.57085C15.2065 1.36693 14.7345 1.49897 14.5164 1.86956L14.0947 2.59121L15.1678 3.2182Z" fill="#E4E4E2"/>
        <path d="M2.9334 10.5666C2.9334 9.83006 2.33636 9.23315 1.6 9.23315C0.863636 9.23315 0.266602 9.83006 0.266602 10.5666C0.266602 11.1557 0.744229 11.6333 1.33332 11.6333H12.2672V10.5666H2.9334Z" fill="#DEDEDC"/>
        <path d="M9.06726 9.49978H6.40047C6.2532 9.49978 6.13379 9.38038 6.13379 9.23311V7.09969C6.13379 6.95228 6.2532 6.83301 6.40047 6.83301H9.06726C9.21453 6.83301 9.33394 6.95228 9.33394 7.09969V9.23311C9.33394 9.38038 9.21453 9.49978 9.06726 9.49978ZM6.66715 8.96643H8.80058V7.36636H6.66715V8.96643Z" fill="#5D9AA4"/>
        <path d="M13.3062 3.24728L13.8449 2.32666L15.2257 3.13477L14.687 4.05526L13.3062 3.24728Z" fill="#D9D9D9"/>
        <path d="M13.6099 3.42101L14.148 2.5L15.2213 3.12712L14.683 4.04813L13.6099 3.42101Z" fill="#CDCDCD"/>
        <path d="M2.93359 3.09937H3.20027V10.5664H2.93359V3.09937Z" fill="#E4E4E4"/>
        <path d="M15.4725 1.11193C14.9638 0.814386 14.3102 0.985748 14.0129 1.49463L12.8006 3.56908V3.09952C12.8006 2.95212 12.6812 2.83284 12.5339 2.83284H11.7339V2.03281C11.7339 1.8854 11.6145 1.76613 11.4672 1.76613H2.97957C2.91173 1.64463 2.82839 1.53252 2.73164 1.43238C2.27316 0.976112 1.58523 0.840299 0.987679 1.08836C0.390254 1.33629 0.000651072 1.91926 0 2.56616V10.5666C0.000911505 11.3025 0.597295 11.899 1.3334 11.9H12.2673C12.4145 11.9 12.5339 11.7806 12.5339 11.6333V10.8332C12.6812 10.8332 12.8006 10.7138 12.8006 10.5666V7.79728L14.9807 4.06702L15.4512 3.2619L15.8547 2.57137C16.1512 2.06275 15.9802 1.40999 15.4725 1.11193ZM15.2031 1.57224C15.457 1.72133 15.5427 2.04752 15.3946 2.30209L15.1252 2.76266L14.2042 2.22422L14.4732 1.76365C14.6218 1.50908 14.9488 1.4234 15.2031 1.57224ZM11.0176 8.92859C10.9843 8.95815 10.9357 8.96283 10.8973 8.94031C10.8589 8.91778 10.8392 8.87325 10.8483 8.82962L11.064 7.80236L11.8067 8.23624L11.0176 8.92859ZM12.1643 7.82801L11.7046 7.55886L11.244 7.28957L13.3969 3.60619L14.318 4.14463L12.1643 7.82801ZM13.9345 2.68479L14.8554 3.22297L14.5874 3.68354L13.6666 3.1451L13.9345 2.68479ZM12.2673 4.48162L10.6491 7.2509C10.6406 7.26835 10.6342 7.28684 10.6301 7.30585C10.6257 7.31379 10.6217 7.32213 10.6181 7.33059L10.3264 8.71998C10.3096 8.80124 10.3092 8.88497 10.325 8.96648H9.33379V7.3664H9.86715C9.9781 7.36627 10.0774 7.29739 10.1165 7.19348C10.1556 7.08956 10.1261 6.97224 10.0427 6.89906L7.90924 5.0323C7.80872 4.94454 7.65871 4.94454 7.55818 5.0323L5.42475 6.89906C5.34128 6.97224 5.31185 7.08956 5.35091 7.19348C5.38998 7.29739 5.48933 7.36627 5.60028 7.3664H6.13364V8.96648H4.26688V8.16644H4.80024V7.63308H4.26688V6.56636H4.80024V6.033H4.26688V4.96628H4.80024V4.43292H4.26688V3.89956H3.73352V9.49984H10.9339C10.966 9.49932 10.9979 9.49281 11.0278 9.48083C11.1542 9.46585 11.2732 9.41312 11.3693 9.32965L12.2673 8.54159V10.2999H3.20016V3.3662H12.2673V4.48162ZM6.30995 6.83304L7.73371 5.58728L9.15748 6.83304H6.30995ZM6.667 7.3664H8.80043V8.96648H6.667V7.3664ZM11.2006 2.83284H3.20016V2.56616C3.19951 2.47671 3.19156 2.38751 3.1762 2.29948H11.2006V2.83284ZM0.53336 2.56616C0.53388 2.13463 0.793919 1.74594 1.19251 1.5807C1.59109 1.41546 2.04984 1.50609 2.35558 1.81066C2.55638 2.01054 2.66862 2.28269 2.6668 2.56616V9.3747C2.05987 8.83028 1.14029 8.83028 0.53336 9.3747V2.56616ZM12.0006 11.3666H1.3334C0.89158 11.3666 0.53336 11.0084 0.53336 10.5666C0.53336 9.97734 1.01099 9.49984 1.60008 9.49984C2.18917 9.49984 2.6668 9.97734 2.6668 10.5666C2.6668 10.7138 2.7862 10.8332 2.93348 10.8332H12.0006V11.3666Z" fill="black"/>
    </g>
    <defs>
        <clipPath id="clip0">
            <rect width="16" height="16" fill="white"/>
        </clipPath>
    </defs>
</svg>
