<svg width="16" height="16" viewBox="0 0 16 16" fill="none" xmlns="http://www.w3.org/2000/svg">
    <g clip-path="url(#clip0)">
        <path d="M11.9229 9.90289C11.7655 9.93495 11.6591 9.91765 11.541 9.79858C9.7272 7.97822 7.91004 6.16127 6.08949 4.3477C6.04231 4.30844 6.00757 4.25632 5.98949 4.19769C5.97141 4.13906 5.97077 4.07644 5.98765 4.01745C6.23767 2.75294 5.564 1.53881 4.374 1.10119C3.83578 0.903752 3.28992 0.882889 2.68347 1.07778L4.34752 2.71274C3.82662 3.22719 3.32913 3.72129 2.82757 4.21438C2.78633 4.25509 2.73999 4.2902 2.67074 4.35024C2.39781 4.07088 2.13404 3.79813 1.86621 3.52895C1.59837 3.25976 1.3346 3.00228 1.04996 2.72037C0.898184 3.174 0.881555 3.66192 1.0021 4.12482C1.1603 4.7569 1.55416 5.3047 2.10313 5.65618C2.65211 6.00767 3.31472 6.13629 3.95544 6.01573C4.06288 5.9964 4.22379 6.01573 4.29253 6.08188C6.1416 7.91377 7.98387 9.7538 9.81936 11.602C9.84909 11.6379 9.87101 11.6796 9.88372 11.7245C9.89643 11.7693 9.89966 11.8163 9.89319 11.8625C9.78449 12.3806 9.83654 12.9196 10.0424 13.4074C10.6173 14.7564 12.0889 15.224 13.1892 14.8256L11.5858 13.2573L13.2585 11.5597L14.8329 13.1637C14.8454 13.1386 14.8566 13.113 14.8665 13.0868C15.4032 11.3053 13.7651 9.53092 11.9229 9.90289Z" fill="#666666"/>
        <path d="M9.02349 12.2087C9.03469 12.0388 9.00668 11.9166 8.87582 11.8103C8.7888 11.7421 8.71048 11.6635 8.64261 11.5762C8.4761 11.3523 8.26733 11.2953 7.98727 11.3009C6.18064 11.3365 4.66272 9.94226 4.60467 8.13938C4.5894 7.65902 4.45802 7.32979 4.10668 7.03668C3.97327 6.92524 3.86073 6.86062 3.68404 6.87232C2.97599 6.91938 2.27121 6.74125 1.67068 6.36347C1.58568 6.31605 1.48764 6.29731 1.39113 6.31004C0.988861 6.36906 0.590669 6.45455 0.187894 6.50951C0.0198586 6.53292 -0.0157852 6.60772 -0.0157852 6.75885C-0.010184 7.55572 -0.00712886 8.3531 -0.0157852 9.15048C-0.0157852 9.32451 0.0483736 9.38455 0.211317 9.40898C0.630386 9.47157 1.04895 9.54026 1.46241 9.62931C1.51322 9.64657 1.56002 9.6739 1.6 9.70966C1.63999 9.74542 1.67234 9.78888 1.69512 9.83744C1.87283 10.2298 2.021 10.6358 2.19973 11.0277C2.26084 11.161 2.26389 11.2495 2.17631 11.3691C1.88759 11.766 1.61059 12.1711 1.34428 12.5512L3.33982 14.5535C3.73547 14.2787 4.1413 13.9882 4.55833 13.7154C4.60265 13.6927 4.65111 13.6791 4.70081 13.6755C4.75052 13.6719 4.80043 13.6784 4.84756 13.6946C5.25848 13.8508 5.65922 14.0325 6.06963 14.1897C6.19591 14.2406 6.25549 14.2945 6.27738 14.4339C6.35427 14.9245 6.44949 15.4125 6.53758 15.903H9.3509C9.43135 15.4425 9.51741 15.0105 9.57698 14.5749C9.59468 14.4386 9.56996 14.3002 9.5062 14.1785C9.15384 13.5658 8.97715 12.913 9.02349 12.2087Z" fill="#666666"/>
        <path d="M15.8982 6.72847C15.8982 6.59515 15.86 6.5346 15.7179 6.51323C15.2825 6.44606 14.8482 6.37126 14.4179 6.27763C14.3674 6.26044 14.3208 6.23317 14.2811 6.19749C14.2413 6.1618 14.2092 6.11844 14.1868 6.07001C14.0085 5.67768 13.8614 5.27111 13.6801 4.88081C13.6154 4.74139 13.6327 4.65386 13.7147 4.53937C14.0014 4.14195 14.2789 3.73792 14.5687 3.32371C13.9342 2.6912 13.3125 2.06632 12.679 1.45264C12.6337 1.40837 12.4891 1.40684 12.43 1.44551C12.0542 1.69129 11.6932 1.95997 11.3179 2.2088C11.2774 2.2301 11.2328 2.2429 11.1871 2.2464C11.1414 2.2499 11.0955 2.24403 11.0521 2.22916C10.6341 2.06887 10.2191 1.89891 9.8102 1.71572C9.76578 1.69332 9.72636 1.66216 9.69433 1.62411C9.6623 1.58607 9.63832 1.54193 9.62383 1.49437C9.52199 1.00688 9.44205 0.515323 9.35243 0.015625H6.53402C6.44695 0.498531 6.35428 0.970751 6.27942 1.44602C6.26619 1.53253 6.31761 1.64092 6.3665 1.72233C6.67202 2.22712 6.89606 2.77923 6.8482 3.35678C6.80543 3.86564 7.02336 4.15569 7.3523 4.45439C7.48215 4.57194 7.59723 4.62537 7.77494 4.61621C9.62943 4.51901 11.2156 5.91939 11.2772 7.78181C11.2935 8.27998 11.4549 8.60005 11.8007 8.89824C11.9178 9.00001 12.0155 9.05853 12.178 9.0453C12.8908 8.98678 13.5528 9.1598 14.173 9.52159C14.2876 9.58563 14.4192 9.61265 14.5498 9.59894C14.9358 9.54805 15.3177 9.46562 15.7021 9.40303C15.8437 9.38013 15.8997 9.32161 15.8982 9.16997C15.8931 8.35631 15.8946 7.54214 15.8982 6.72847Z" fill="#666666"/>
    </g>
    <defs>
        <clipPath id="clip0">
            <rect width="16" height="16" fill="white"/>
        </clipPath>
    </defs>
</svg>
