<svg width="30" height="30" viewBox="0 0 30 30" fill="none" xmlns="http://www.w3.org/2000/svg">
    <g clip-path="url(#clip0)">
        <path d="M24.8276 28.9655H5.17241C4.60106 28.9655 4.13794 28.5023 4.13794 27.931V1.03447C4.13794 0.463124 4.60106 0 5.17241 0H24.8275C25.3989 0 25.862 0.463124 25.862 1.03447V27.931C25.8621 28.5023 25.3989 28.9655 24.8276 28.9655Z" fill="#C3E678"/>
        <path d="M23.7931 24.8274V4.13779C22.6504 4.13779 21.7241 3.21148 21.7241 2.06885H8.27588C8.27588 3.21148 7.34957 4.13779 6.20694 4.13779V24.8274C7.34957 24.8274 8.27588 25.7537 8.27588 26.8963H21.7241C21.7241 25.7537 22.6504 24.8274 23.7931 24.8274Z" fill="#EFF2FA"/>
        <path d="M21.7241 27.4136H8.27589C7.99024 27.4136 7.75862 27.182 7.75862 26.8963C7.75862 26.0407 7.06253 25.3446 6.20689 25.3446C5.92124 25.3446 5.68962 25.113 5.68962 24.8273V4.13778C5.68962 3.85213 5.92124 3.62051 6.20689 3.62051C7.06253 3.62051 7.75862 2.92442 7.75862 2.06878C7.75862 1.78313 7.99024 1.55151 8.27589 1.55151H21.7241C22.0098 1.55151 22.2414 1.78313 22.2414 2.06878C22.2414 2.92442 22.9375 3.62051 23.7931 3.62051C24.0788 3.62051 24.3104 3.85213 24.3104 4.13778V24.8274C24.3104 25.113 24.0788 25.3446 23.7931 25.3446C22.9375 25.3446 22.2414 26.0407 22.2414 26.8964C22.2414 27.182 22.0098 27.4136 21.7241 27.4136ZM8.74106 26.3791H21.2589C21.465 25.3674 22.2641 24.5683 23.2758 24.3622V4.60295C22.2641 4.39688 21.465 3.59778 21.2589 2.58604H8.74106C8.53499 3.59778 7.73589 4.39688 6.72415 4.60295V24.3621C7.73589 24.5683 8.53499 25.3673 8.74106 26.3791Z" fill="#FFD782"/>
        <path d="M22.3435 29.1661L21.139 28.8678L20.4003 29.865C20.2415 30.0793 19.9079 30.0301 19.8177 29.7792L18.1035 25.0123L21.0238 23.9622L22.738 28.729C22.8283 28.98 22.6023 29.2302 22.3435 29.1661Z" fill="#FF6464"/>
        <path d="M14.8979 29.1661L16.1025 28.8678L16.8412 29.865C17 30.0793 17.3335 30.0301 17.4238 29.7792L19.1379 25.0123L16.2176 23.9622L14.5033 28.729C14.4131 28.98 14.639 29.2302 14.8979 29.1661Z" fill="#FF6464"/>
        <path d="M18.6207 25.862C20.6204 25.862 22.2414 24.2409 22.2414 22.2413C22.2414 20.2416 20.6204 18.6206 18.6207 18.6206C16.6211 18.6206 15.0001 20.2416 15.0001 22.2413C15.0001 24.2409 16.6211 25.862 18.6207 25.862Z" fill="#FFD782"/>
        <path d="M18.6207 24.8274C20.049 24.8274 21.2069 23.6696 21.2069 22.2412C21.2069 20.8129 20.049 19.655 18.6207 19.655C17.1924 19.655 16.0345 20.8129 16.0345 22.2412C16.0345 23.6696 17.1924 24.8274 18.6207 24.8274Z" fill="#FFC36E"/>
        <path d="M19.6552 8.27573H10.3448C10.0592 8.27573 9.82756 8.04411 9.82756 7.75847C9.82756 7.47283 10.0592 7.24121 10.3448 7.24121H19.6552C19.9408 7.24121 20.1724 7.47283 20.1724 7.75847C20.1724 8.04417 19.9408 8.27573 19.6552 8.27573Z" fill="#FFD782"/>
        <g opacity="0.97">
            <path opacity="0.97" d="M10.8621 12.4137H9.82764C9.542 12.4137 9.31038 12.1821 9.31038 11.8964C9.31038 11.6108 9.542 11.3792 9.82764 11.3792H10.8621C11.1478 11.3792 11.3794 11.6108 11.3794 11.8964C11.3793 12.1822 11.1478 12.4137 10.8621 12.4137Z" fill="#AFB9D2"/>
        </g>
        <g opacity="0.97">
            <path opacity="0.97" d="M20.1723 12.4137H12.931C12.6454 12.4137 12.4138 12.1821 12.4138 11.8964C12.4138 11.6108 12.6454 11.3792 12.931 11.3792H20.1724C20.458 11.3792 20.6897 11.6108 20.6897 11.8964C20.6896 12.1822 20.458 12.4137 20.1723 12.4137Z" fill="#C7CFE2"/>
        </g>
        <g opacity="0.97">
            <path opacity="0.97" d="M10.8621 14.4828H9.82764C9.542 14.4828 9.31038 14.2512 9.31038 13.9655C9.31038 13.6799 9.542 13.4482 9.82764 13.4482H10.8621C11.1478 13.4482 11.3794 13.6799 11.3794 13.9655C11.3793 14.2512 11.1478 14.4828 10.8621 14.4828Z" fill="#AFB9D2"/>
        </g>
        <g opacity="0.97">
            <path opacity="0.97" d="M20.1723 14.4828H12.931C12.6454 14.4828 12.4138 14.2512 12.4138 13.9655C12.4138 13.6799 12.6454 13.4482 12.931 13.4482H20.1724C20.458 13.4482 20.6897 13.6799 20.6897 13.9655C20.6896 14.2512 20.458 14.4828 20.1723 14.4828Z" fill="#C7CFE2"/>
        </g>
        <g opacity="0.97">
            <path opacity="0.97" d="M10.8621 16.5516H9.82764C9.542 16.5516 9.31038 16.32 9.31038 16.0344C9.31038 15.7487 9.542 15.5171 9.82764 15.5171H10.8621C11.1478 15.5171 11.3794 15.7487 11.3794 16.0344C11.3793 16.32 11.1478 16.5516 10.8621 16.5516Z" fill="#AFB9D2"/>
        </g>
        <g opacity="0.97">
            <path opacity="0.97" d="M20.1723 16.5516H12.931C12.6454 16.5516 12.4138 16.32 12.4138 16.0344C12.4138 15.7487 12.6454 15.5171 12.931 15.5171H20.1724C20.458 15.5171 20.6897 15.7487 20.6897 16.0344C20.6896 16.32 20.458 16.5516 20.1723 16.5516Z" fill="#C7CFE2"/>
        </g>
        <path d="M13.4483 21.2069H9.82764C9.542 21.2069 9.31038 20.9753 9.31038 20.6896C9.31038 20.404 9.542 20.1724 9.82764 20.1724H13.4483C13.734 20.1724 13.9656 20.404 13.9656 20.6896C13.9655 20.9753 13.734 21.2069 13.4483 21.2069Z" fill="#D7DEED"/>
        <path d="M11.8966 23.276H9.82764C9.542 23.276 9.31038 23.0444 9.31038 22.7587C9.31038 22.4731 9.542 22.2415 9.82764 22.2415H11.8966C12.1822 22.2415 12.4139 22.4731 12.4139 22.7587C12.4138 23.0444 12.1822 23.276 11.8966 23.276Z" fill="#D7DEED"/>
        <path d="M18.1034 6.20689H11.8965C11.6109 6.20689 11.3793 5.97527 11.3793 5.68963C11.3793 5.40398 11.6109 5.17236 11.8965 5.17236H18.1034C18.3891 5.17236 18.6207 5.40398 18.6207 5.68963C18.6207 5.97527 18.3891 6.20689 18.1034 6.20689Z" fill="#FFD782"/>
    </g>
    <defs>
        <clipPath id="clip0">
            <rect width="30" height="30" fill="white"/>
        </clipPath>
    </defs>
</svg>
