<svg width="44" height="44" viewBox="0 0 44 44" fill="none" xmlns="http://www.w3.org/2000/svg">
<g filter="url(#filter0_d)">
<circle cx="22" cy="21" r="18" fill="#F8F9FB"/>
</g>
<g clip-path="url(#clip0)">
<path d="M18.2759 9C13.7035 9 10 12.1489 10 16.0345C10.0095 17.4961 10.5292 18.9084 11.4689 20.0275L10 23.8966L14.0842 22.1008C15.2084 22.659 16.4348 22.9817 17.6883 23.0484C17.8827 23.0649 18.0772 23.069 18.2759 23.069C22.1697 23.069 25.4304 20.7848 26.3117 17.7103C26.4713 17.1659 26.5521 16.6016 26.5517 16.0345C26.5517 12.1489 22.8482 9 18.2759 9ZM19.6124 17.8295C19.2922 18.2471 18.8018 18.4995 18.2759 18.5172C17.1333 18.5172 16.2069 17.2205 16.2069 15.6207C16.2069 14.0209 17.1333 12.7241 18.2759 12.7241C19.4184 12.7241 20.3448 14.0209 20.3448 15.6207C20.3636 16.4196 20.1048 17.2001 19.6124 17.8295Z" fill="#2BBCEE"/>
<path d="M19.6124 17.8295C20.1048 17.2001 20.3636 16.4196 20.3448 15.6207C20.3448 14.0209 19.4184 12.7242 18.2759 12.7242C17.1333 12.7242 16.2069 14.0209 16.2069 15.6207C16.2069 17.2205 17.1333 18.5173 18.2759 18.5173C18.8018 18.4995 19.2922 18.2471 19.6124 17.8295Z" fill="#2BBCEE"/>
<path d="M34 24.7241C34 21.0083 30.611 17.9628 26.3117 17.7103C25.4303 20.7848 22.1697 23.069 18.2758 23.069C18.0772 23.069 17.8826 23.0649 17.6883 23.0484C17.5287 23.5927 17.4478 24.157 17.4482 24.7241C17.4482 28.6097 21.1518 31.7586 25.7241 31.7586C27.057 31.7645 28.3758 31.4865 29.5931 30.9434L34 33L32.2868 29.0069C33.3756 27.8452 33.987 26.3163 34 24.7241Z" fill="#25A6D2"/>
<path d="M20.9718 18.1626L20.2042 17.702C20.5745 17.0716 20.7663 16.3519 20.7586 15.6207C20.7586 13.7954 19.6451 12.3103 18.2758 12.3103C16.9066 12.3103 15.7931 13.7954 15.7931 15.6207C15.7931 17.446 16.9066 18.931 18.2758 18.931C18.7994 18.9221 19.3 18.7152 19.677 18.3518L20.5458 18.8726C20.7414 18.9854 20.9912 18.9207 21.1073 18.7274C21.2235 18.534 21.1633 18.2831 20.9722 18.1634L20.9718 18.1626ZM18.2758 18.1034C17.3788 18.1034 16.6207 16.9663 16.6207 15.6207C16.6207 14.275 17.3788 13.1379 18.2758 13.1379C19.1729 13.1379 19.931 14.275 19.931 15.6207C19.9373 16.2016 19.7866 16.7734 19.4948 17.2759L18.9028 16.9209C18.7072 16.8081 18.4575 16.8728 18.3413 17.0661C18.2251 17.2595 18.2853 17.5104 18.4765 17.63L18.9222 17.8973C18.7319 18.0285 18.507 18.1 18.2758 18.1034Z" fill="#FFCD00"/>
<path d="M28.1828 28.3093L26.1138 22.5162C26.0552 22.3513 25.8991 22.2412 25.7241 22.2412C25.5491 22.2412 25.3929 22.3513 25.3343 22.5162L23.2654 28.3093C23.1886 28.5245 23.3007 28.7613 23.5161 28.838C23.7313 28.9148 23.9681 28.8027 24.0449 28.5873L24.686 26.7931H26.7622L27.4033 28.5873C27.4621 28.7522 27.6181 28.8621 27.793 28.8621C27.9276 28.8621 28.0537 28.7966 28.1313 28.6867C28.2089 28.5768 28.2281 28.436 28.1828 28.3093ZM24.9814 25.9655L25.7241 23.8854L26.4688 25.9655H24.9814Z" fill="white"/>
</g>
<defs>
<filter id="filter0_d" x="0" y="0" width="44" height="44" filterUnits="userSpaceOnUse" color-interpolation-filters="sRGB">
<feFlood flood-opacity="0" result="BackgroundImageFix"/>
<feColorMatrix in="SourceAlpha" type="matrix" values="0 0 0 0 0 0 0 0 0 0 0 0 0 0 0 0 0 0 127 0"/>
<feOffset dy="1"/>
<feGaussianBlur stdDeviation="2"/>
<feColorMatrix type="matrix" values="0 0 0 0 0 0 0 0 0 0 0 0 0 0 0 0 0 0 0.1 0"/>
<feBlend mode="normal" in2="BackgroundImageFix" result="effect1_dropShadow"/>
<feBlend mode="normal" in="SourceGraphic" in2="effect1_dropShadow" result="shape"/>
</filter>
<clipPath id="clip0">
<rect width="24" height="24" fill="white" transform="translate(10 9)"/>
</clipPath>
</defs>
</svg>
