<svg width="18" height="18" viewBox="0 0 18 18" fill="none" xmlns="http://www.w3.org/2000/svg"><g clip-path="url(#clip0)"><path d="M15.697 12.2651H15.6959C15.1783 12.2648 14.886 11.9962 14.7188 11.3675C14.5478 10.7246 14.542 9.79209 14.536 8.80484C14.5287 7.6087 14.5205 6.25299 14.2232 5.04052C14.188 4.89715 14.0431 4.80939 13.8997 4.84455C13.7565 4.8797 13.6688 5.02445 13.7038 5.16782C13.9863 6.31919 13.9942 7.64153 14.0014 8.80813C14.0077 9.83041 14.0134 10.796 14.202 11.5049C14.284 11.8132 14.4015 12.0665 14.5534 12.2651H3.414C3.56588 12.0665 3.68344 11.8132 3.76542 11.5049C3.95397 10.796 3.95988 9.83041 3.96606 8.80813C3.97553 7.24739 3.98638 5.47846 4.62496 4.12467C5.34374 2.60073 6.76949 1.85984 8.98378 1.85984C10.1998 1.85984 11.1949 2.08836 11.9413 2.53921C12.5885 2.93005 13.0637 3.48554 13.394 4.23742C13.4533 4.37255 13.6111 4.43407 13.7462 4.37461C13.8813 4.31528 13.9429 4.15763 13.8835 4.02236C13.5126 3.17806 12.9522 2.52507 12.2177 2.08149C11.7489 1.79832 11.1983 1.59411 10.5713 1.46969C10.5081 0.648879 9.82053 0 8.98378 0C8.14704 0 7.45929 0.649016 7.39653 1.46997C6.79833 1.58848 6.26948 1.77951 5.8156 2.04249C5.08529 2.46574 4.52197 3.08962 4.14129 3.89657C3.45245 5.35706 3.44119 7.18875 3.43144 8.80484C3.42539 9.79209 3.41976 10.7246 3.24865 11.3675C3.08139 11.9962 2.78915 12.2648 2.27156 12.2651H2.27046C1.40625 12.2651 0.703125 12.9682 0.703125 13.8326C0.703125 14.6968 1.40625 15.3999 2.27046 15.3999H3.96249C4.11012 15.3999 4.22987 15.2802 4.22987 15.1325C4.22987 14.9849 4.11012 14.8653 3.96249 14.8653H2.27046C1.70109 14.8653 1.23775 14.4019 1.23775 13.8326C1.23775 13.2632 1.70096 12.8 2.27032 12.7999H2.27046H2.27142H15.6959H15.6968H15.6971C16.2663 12.8 16.7295 13.2632 16.7295 13.8326C16.7295 14.4019 16.2662 14.8653 15.6968 14.8653H5.03187C4.88424 14.8653 4.76463 14.9849 4.76463 15.1325C4.76463 15.2802 4.88424 15.3999 5.03187 15.3999H6.12926C6.26453 16.8562 7.4928 18 8.98378 18C10.4746 18 11.7029 16.8562 11.8382 15.3999H15.697C16.5612 15.3999 17.2643 14.6968 17.2643 13.8326C17.2643 12.9682 16.5612 12.2651 15.697 12.2651ZM8.98378 0.534621C9.49574 0.534621 9.92393 0.900328 10.021 1.38414C9.69281 1.34541 9.34729 1.32522 8.98378 1.32522C8.62027 1.32522 8.27475 1.34527 7.94667 1.384C8.04376 0.90019 8.47182 0.534621 8.98378 0.534621ZM8.98378 17.4653C7.78792 17.4653 6.79984 16.5606 6.66677 15.3999H11.3007C11.1676 16.5606 10.1795 17.4653 8.98378 17.4653Z" fill="white"/><path d="M13.2762 1.67776C13.281 1.68037 13.7569 1.95201 14.2252 2.58303C14.8526 3.42816 15.1705 4.48394 15.1705 5.72114C15.1705 5.86877 15.2902 5.98852 15.4379 5.98852C15.5855 5.98852 15.7052 5.86877 15.7052 5.72114C15.7052 4.01799 15.1236 2.88749 14.6357 2.23916C14.0996 1.5267 13.5584 1.22279 13.5356 1.21016C13.4066 1.13902 13.2448 1.18571 13.1732 1.31425C13.1015 1.44293 13.1478 1.60553 13.2762 1.67776Z" fill="white"/><path d="M15.2931 1.77581C15.3361 1.80397 16.3467 2.48224 16.3467 4.18869C16.3467 4.33632 16.4664 4.45593 16.614 4.45593C16.7617 4.45593 16.8813 4.33632 16.8813 4.18869C16.8813 2.17599 15.6345 1.3593 15.5813 1.32551C15.4573 1.24655 15.2933 1.28308 15.2137 1.40681C15.134 1.53041 15.1699 1.69548 15.2931 1.77581Z" fill="white"/><path d="M2.52951 5.98844C2.67714 5.98844 2.79689 5.86869 2.79689 5.72106C2.79689 4.48386 3.11495 3.42808 3.74213 2.58295C4.20754 1.95591 4.68064 1.68372 4.69107 1.67768C4.81975 1.60613 4.86644 1.44381 4.79517 1.31485C4.72362 1.18563 4.56102 1.1388 4.4318 1.21007C4.409 1.22271 3.86779 1.52662 3.33165 2.23908C2.84386 2.88741 2.26227 4.0179 2.26227 5.72106C2.26227 5.86869 2.38188 5.98844 2.52951 5.98844Z" fill="white"/><path d="M1.35338 4.45592C1.50101 4.45592 1.62062 4.3363 1.62062 4.18867C1.62062 2.4836 2.62971 1.80492 2.67421 1.77594C2.79781 1.69643 2.83406 1.53177 2.7551 1.40762C2.67586 1.28306 2.51065 1.2464 2.38596 1.32564C2.33295 1.35942 1.086 2.17598 1.086 4.18867C1.086 4.3363 1.20575 4.45592 1.35338 4.45592Z" fill="white"/></g><defs><clipPath id="clip0"><rect width="18" height="18" fill="white"/></clipPath></defs></svg>