<svg width="30" height="30" viewBox="0 0 30 30" fill="none" xmlns="http://www.w3.org/2000/svg">
    <g clip-path="url(#clip0)">
        <path d="M24.0872 5.55551C23.9746 5.33579 23.7055 5.24904 23.4857 5.36142C23.266 5.47403 23.179 5.74342 23.2917 5.96315C23.9669 7.28151 24.3093 8.70652 24.3093 10.1986C24.3093 12.2382 23.6615 14.1745 22.4361 15.7979C21.9277 16.4715 21.6478 17.3186 21.6478 18.1831V18.2401C21.6478 19.4575 20.6575 20.4479 19.4403 20.4479H15.4509V14.7879C17.0638 14.5688 18.3114 13.1834 18.3114 11.5115C18.3114 11.2645 18.1112 11.0645 17.8644 11.0645C17.6175 11.0645 17.4174 11.2645 17.4174 11.5115C17.4174 12.8422 16.3348 13.925 15.0039 13.925C13.6729 13.925 12.5903 12.8422 12.5903 11.5115C12.5903 11.2645 12.3903 11.0645 12.1433 11.0645C11.8966 11.0645 11.6963 11.2645 11.6963 11.5115C11.6963 13.1834 12.9439 14.5688 14.5569 14.7879V20.4479H10.5675C9.35028 20.4479 8.35991 19.4575 8.35991 18.2401V18.1824C8.35991 17.3129 8.0777 16.4757 7.54372 15.7611C6.35582 14.1706 5.71793 12.2782 5.69894 10.2888C5.67536 7.79855 6.633 5.44565 8.39515 3.66335C10.1569 1.88174 12.4976 0.898011 14.9865 0.893433H15.0041C17.9317 0.893433 20.6295 2.22964 22.4077 4.56148C22.5576 4.75763 22.838 4.7954 23.0342 4.64571C23.2305 4.49602 23.2683 4.21564 23.1186 4.01949C22.185 2.79498 20.9669 1.78172 19.5961 1.08936C18.1583 0.363116 16.6044 -0.00469598 14.9849 -0.000576123C12.2559 0.00445926 9.68994 1.08249 7.75955 3.03462C5.82848 4.98766 4.77929 7.56692 4.80515 10.2972C4.82598 12.478 5.52521 14.5524 6.82778 16.296C7.24526 16.8549 7.4659 17.5072 7.4659 18.1824V18.2401C7.4659 19.1934 7.89848 20.0471 8.57712 20.6166C7.92252 20.9139 7.4659 21.5733 7.4659 22.3378C7.4659 23.2068 8.05595 23.9404 8.85612 24.1601C8.64876 24.4634 8.52745 24.8296 8.52745 25.2237C8.52745 26.2658 9.37522 27.1136 10.4173 27.1136H11.686C11.9053 28.7407 13.3019 29.9993 14.9881 29.9993C16.6742 29.9993 18.0709 28.7405 18.2899 27.1136H19.5586C20.6007 27.1136 21.4485 26.2658 21.4485 25.2237C21.4485 24.8296 21.3272 24.4634 21.12 24.1601C21.9202 23.9404 22.51 23.2068 22.51 22.3378C22.51 21.5813 22.063 20.9276 21.4196 20.626C22.1047 20.0565 22.5418 19.1987 22.5418 18.2403V18.1833C22.5418 17.5118 22.7577 16.8561 23.1495 16.3365C24.4928 14.5567 25.203 12.4341 25.203 10.1988C25.203 8.56347 24.8277 7.00135 24.0872 5.55551ZM14.9881 29.1055C13.7958 29.1055 12.8016 28.2454 12.591 27.1136H17.3851C17.1746 28.2454 16.1801 29.1055 14.9881 29.1055ZM20.6202 21.3419C21.1695 21.3419 21.6162 21.7887 21.6162 22.3378C21.6162 22.8871 21.1695 23.3339 20.6202 23.3339H12.8393C12.5926 23.3339 12.3923 23.5339 12.3923 23.7806C12.3923 24.0276 12.5926 24.2276 12.8393 24.2276H19.5586C20.1079 24.2276 20.5547 24.6744 20.5547 25.2237C20.5547 25.7728 20.1079 26.2196 19.5586 26.2196H10.4173C9.86823 26.2196 9.42146 25.7728 9.42146 25.2237C9.42146 24.6744 9.86823 24.2276 10.4173 24.2276H11.0515C11.2983 24.2276 11.4983 24.0276 11.4983 23.7806C11.4983 23.5339 11.2983 23.3339 11.0515 23.3339H9.35577C8.80668 23.3339 8.35991 22.8868 8.35991 22.3378C8.35991 21.7884 8.80668 21.3419 9.35577 21.3419H20.6202Z" fill="white"/>
    </g>
    <defs>
        <clipPath id="clip0">
            <rect width="30" height="30" fill="white"/>
        </clipPath>
    </defs>
</svg>
