<svg width="30" height="30" viewBox="0 0 30 30" fill="none" xmlns="http://www.w3.org/2000/svg">
    <path d="M29.4959 0.498968L29.2862 1.60057L28.2281 1.76674C28.2281 1.74183 28.2281 1.71699 28.2156 1.70451C27.9173 1.63004 26.2393 2.28874 24.5987 4.2029C24.2755 4.57578 23.7162 4.61311 23.3558 4.30227C22.9705 3.96671 22.9456 3.41975 23.2564 3.05941C24.7852 1.28194 26.7242 0.063859 28.1038 0.00175086C28.8247 -0.0230338 29.2597 0.26284 29.4959 0.498968Z" fill="#BBDCFF"/>
    <path d="M25.7287 16.6753L26.7729 16.4764L29.6813 8.91939C29.7931 8.58378 29.7187 8.23574 29.4701 7.98713L22.0124 0.529519C21.7638 0.280911 21.4157 0.20644 21.0801 0.318234L13.5231 3.22671L13.2745 4.22103L12.0689 4.25835L0.261008 16.0663C-0.0869734 16.4143 -0.0870319 16.9612 0.261008 17.3092L12.6904 29.7386C13.0384 30.0866 13.5853 30.0866 13.9333 29.7386L25.7412 17.9307L25.7287 16.6753Z" fill="#FF5B5B"/>
    <path d="M25.7412 17.9307L13.9333 29.7385C13.5853 30.0865 13.0384 30.0866 12.6904 29.7385L6.47571 23.5238L25.7412 4.2583L29.4701 7.98713C29.7187 8.23574 29.7932 8.58378 29.6814 8.9194L26.7729 16.4764L25.7288 16.6753L25.7412 17.9307Z" fill="#FF193D"/>
    <path d="M17.8858 19.4967C18.035 19.1984 18.0102 18.8255 17.7988 18.5646L16.2576 16.4764L17.0905 14.0279C17.1898 13.7047 17.0655 13.3815 16.8418 13.1578C16.6181 12.934 16.2949 12.8098 15.9718 12.9091L13.5233 13.742L11.4351 12.2008C11.1741 11.9894 10.8012 11.9646 10.5029 12.1137C10.2046 12.2628 10.0182 12.5736 10.0306 12.9091L10.0678 15.5069L7.95492 16.9984C7.68153 17.1973 7.53235 17.5204 7.5944 17.8561C7.63173 18.1917 7.88034 18.4652 8.19105 18.5521L10.6769 19.3227L11.4475 21.8085C11.5345 22.1193 11.8079 22.3679 12.1435 22.4052C12.4792 22.4672 12.8024 22.3181 13.0012 22.0447L14.4927 19.9318L17.0905 19.969C17.426 19.9815 17.7368 19.7951 17.8858 19.4967Z" fill="#FFDA2D"/>
    <path d="M17.0904 19.9691L14.4927 19.9318L13.0012 22.0447C12.8023 22.3181 12.4791 22.4673 12.1435 22.4052C11.8079 22.3679 11.5344 22.1193 11.4475 21.8086L10.6769 19.3227L16.8419 13.1577C17.0656 13.3814 17.1899 13.7046 17.0905 14.0278L16.2577 16.4763L17.7989 18.5645C18.0102 18.8255 18.0351 19.1984 17.8859 19.4967C17.7368 19.795 17.426 19.9814 17.0904 19.9691Z" fill="#FDBF00"/>
    <path d="M16.4191 7.3656C16.0711 7.71358 15.5242 7.71364 15.1762 7.3656L12.0688 4.25826L12.6903 3.63677C12.7774 3.54976 12.8893 3.48765 13.0011 3.42543L13.5231 3.22656L16.4191 6.12262C16.7672 6.47078 16.7672 7.01756 16.4191 7.3656Z" fill="#FFCEBF"/>
    <path d="M21.3909 12.3375C21.0429 12.6854 20.496 12.6855 20.148 12.3375L17.6621 9.85161C17.3141 9.50357 17.3141 8.95667 17.6621 8.60869C18.0102 8.26065 18.557 8.26065 18.9051 8.60869L21.3909 11.0945C21.739 11.4426 21.739 11.9894 21.3909 12.3375Z" fill="#FFCEBF"/>
    <path d="M21.3909 12.3375C21.0429 12.6855 20.496 12.6855 20.148 12.3375L18.905 11.0945L20.148 9.85156L21.3909 11.0945C21.739 11.4426 21.739 11.9894 21.3909 12.3375Z" fill="#FFB99C"/>
    <path d="M26.3627 17.3092L25.7412 17.9306L22.6338 14.8233C22.2858 14.4753 22.2858 13.9283 22.6338 13.5804C22.9819 13.2323 23.5287 13.2323 23.8767 13.5804L26.7728 16.4764L26.5739 16.9984C26.5118 17.1102 26.4497 17.2221 26.3627 17.3092Z" fill="#FFB99C"/>
    <path d="M27.6314 6.09222C25.8416 7.88204 23.3185 9.23688 22.0383 7.95663C21.6902 7.60859 21.6902 7.06175 22.0383 6.71371C22.3862 6.36573 22.9331 6.36567 23.2812 6.71371C23.5049 6.7883 24.8472 6.39063 26.3885 4.84929C27.8427 3.39508 28.2777 2.11483 28.228 1.76685L29.4958 0.499023C30.7761 1.77921 29.4213 4.30239 27.6314 6.09222Z" fill="#BBDCFF"/>
    <path d="M27.6314 6.09222C25.8416 7.88204 23.3185 9.23688 22.0382 7.95663L23.2811 6.71371C23.5048 6.7883 24.8472 6.39063 26.3885 4.84929C27.8427 3.39508 28.2777 2.11483 28.228 1.76685L29.4958 0.499023C30.7761 1.77921 29.4212 4.30239 27.6314 6.09222Z" fill="#9ABADB"/>
    <path d="M21.3907 17.3092C21.7339 16.966 21.7339 16.4095 21.3907 16.0663C21.0474 15.723 20.491 15.723 20.1477 16.0663C19.8045 16.4095 19.8045 16.966 20.1477 17.3092C20.491 17.6524 21.0474 17.6524 21.3907 17.3092Z" fill="#FFB99C"/>
    <path d="M13.9332 9.85146C14.2764 9.50822 14.2764 8.95174 13.9332 8.60851C13.5899 8.26527 13.0334 8.26527 12.6902 8.60851C12.347 8.95174 12.347 9.50822 12.6902 9.85146C13.0334 10.1947 13.5899 10.1947 13.9332 9.85146Z" fill="#FFCEBF"/>
    <path d="M13.933 24.7667C14.2763 24.4235 14.2763 23.867 13.933 23.5238C13.5898 23.1806 13.0333 23.1806 12.6901 23.5238C12.3468 23.867 12.3468 24.4235 12.6901 24.7667C13.0333 25.11 13.5898 25.11 13.933 24.7667Z" fill="#FFB99C"/>
    <path d="M6.47551 17.3092C6.81874 16.966 6.81874 16.4095 6.47551 16.0663C6.13228 15.723 5.57579 15.723 5.23256 16.0663C4.88933 16.4095 4.88933 16.966 5.23256 17.3092C5.57579 17.6524 6.13228 17.6524 6.47551 17.3092Z" fill="#FFCEBF"/>
</svg>
