<svg width="44" height="44" viewBox="0 0 44 44" fill="none" xmlns="http://www.w3.org/2000/svg">
<g filter="url(#filter0_d)">
<circle cx="22" cy="21" r="18" fill="#F8F9FB"/>
</g>
<g clip-path="url(#clip0)">
<path d="M14.7384 29.8025C14.1991 30.3419 13.3516 30.3419 12.8508 29.8025C12.3115 29.2632 12.3115 28.4157 12.8508 27.9149L22.4816 18.2841C23.0209 17.7447 23.8684 17.7447 24.3692 18.2841C24.9086 18.8234 24.9086 19.6709 24.3692 20.1717L14.7384 29.8025Z" fill="#2BBCEE"/>
<path d="M24.3692 18.2841C24.9085 18.8234 24.9085 19.6709 24.3692 20.1717L14.7384 29.8025C14.199 30.3419 13.3515 30.3419 12.8507 29.8025" fill="#2BBCEE"/>
<path d="M14.4687 32.191C13.8523 32.8073 12.8892 32.8073 12.2729 32.191L10.4623 30.3804C9.84591 29.764 9.84591 28.8009 10.4623 28.1845C11.0787 27.5682 12.0417 27.5682 12.6581 28.1845L14.4687 29.9951C15.0851 30.6115 15.0851 31.5746 14.4687 32.191Z" fill="#2BBCEE"/>
<path d="M12.6581 28.1847L14.4687 29.9953C15.085 30.6117 15.085 31.5747 14.4687 32.1911C13.8523 32.8075 12.8892 32.8075 12.2728 32.1911" fill="#2BBCEE"/>
<path d="M30.5714 21.8668C28.9534 23.4848 27.2199 22.5988 25.6019 20.9808L21.634 17.0129C20.016 15.3949 19.1685 13.6614 20.748 12.0434L21.4414 11.35C23.0594 9.73198 24.7929 10.618 26.4109 12.236L30.3788 16.2039C31.9968 17.8219 32.8443 19.5554 31.2648 21.1734L30.5714 21.8668Z" fill="#2BBCEE"/>
<path d="M26.4109 12.2745L30.3788 16.2424C31.9968 17.8604 32.8443 19.5939 31.2649 21.2119L30.5714 21.9053C28.9535 23.5233 27.2199 22.6373 25.6019 21.0193" fill="#2BBCEE"/>
<path d="M19.9004 14.8556C19.5923 15.1638 19.0914 15.1638 18.7833 14.8556C18.4751 14.5474 18.4751 14.0466 18.7833 13.7384L23.0979 9.38528C23.4061 9.0771 23.9069 9.0771 24.215 9.38528C24.5232 9.69347 24.5232 10.1943 24.215 10.5025L19.9004 14.8556Z" fill="#2BBCEE"/>
<path d="M24.2151 9.38525C24.5233 9.69344 24.5233 10.1942 24.2151 10.5024L19.9005 14.8556C19.5923 15.1637 19.0915 15.1637 18.7833 14.8556" fill="#2BBCEE"/>
<path d="M28.915 23.87C28.6068 24.1782 28.106 24.1782 27.7978 23.87C27.4896 23.5619 27.4896 23.0611 27.7978 22.7529L32.1124 18.4383C32.4206 18.1301 32.9214 18.1301 33.2296 18.4383C33.5378 18.7464 33.5378 19.2473 33.2296 19.5554L28.915 23.87Z" fill="#2BBCEE"/>
<path d="M33.268 18.4382C33.5762 18.7464 33.5762 19.2472 33.268 19.5554L28.9149 23.87C28.6067 24.1782 28.1059 24.1782 27.7977 23.87" fill="#2BBCEE"/>
<path d="M24.9085 21.2119C24.6389 21.4816 24.1766 21.4816 23.9069 21.2119L21.48 18.785C21.2103 18.5153 21.2103 18.053 21.48 17.7834C21.7496 17.5137 22.2119 17.5137 22.4816 17.7834L24.9085 20.2103C25.1782 20.48 25.1782 20.9423 24.9085 21.2119Z" fill="#2BBCEE"/>
<path d="M33.5762 28.6084H25.4863V32.0755H33.5762V28.6084Z" fill="#2BBCEE"/>
<path d="M25.4865 28.6084H33.5763V32.0755" fill="#2BBCEE"/>
<path d="M33.9615 32.5378C33.9615 32.6919 33.846 32.846 33.6534 32.846H25.4094C25.2553 32.846 25.1012 32.7304 25.1012 32.5378V32.3452C25.1012 32.1911 25.2168 32.037 25.4094 32.037H33.6919C33.846 32.037 34.0001 32.1526 34.0001 32.3452V32.5378H33.9615Z" fill="#2BBCEE"/>
<path d="M33.9615 28.3002C33.9615 28.4543 33.846 28.6084 33.6534 28.6084H25.4094C25.2553 28.6084 25.1012 28.4929 25.1012 28.3002V28.1076C25.1012 27.9535 25.2168 27.7994 25.4094 27.7994H33.6919C33.846 27.7994 34.0001 27.915 34.0001 28.1076V28.3002H33.9615Z" fill="#2BBCEE"/>
</g>
<defs>
<filter id="filter0_d" x="0" y="0" width="44" height="44" filterUnits="userSpaceOnUse" color-interpolation-filters="sRGB">
<feFlood flood-opacity="0" result="BackgroundImageFix"/>
<feColorMatrix in="SourceAlpha" type="matrix" values="0 0 0 0 0 0 0 0 0 0 0 0 0 0 0 0 0 0 127 0"/>
<feOffset dy="1"/>
<feGaussianBlur stdDeviation="2"/>
<feColorMatrix type="matrix" values="0 0 0 0 0 0 0 0 0 0 0 0 0 0 0 0 0 0 0.1 0"/>
<feBlend mode="normal" in2="BackgroundImageFix" result="effect1_dropShadow"/>
<feBlend mode="normal" in="SourceGraphic" in2="effect1_dropShadow" result="shape"/>
</filter>
<clipPath id="clip0">
<rect width="24" height="24" fill="white" transform="translate(10 9)"/>
</clipPath>
</defs>
</svg>
