<svg width="145" height="86" viewBox="0 0 145 86" fill="none" xmlns="http://www.w3.org/2000/svg">
    <path d="M51.36 76C54.12 80.04 58.74 82.66 64 82.66C68.74 82.66 72.98 80.5 75.78 77.12L75.8 77.1C74.32 77.56 72.74 77.8 71.1 77.8C65.66 77.8 60.88 75.12 57.94 71.02C55.98 68.44 54.78 65.98 54.78 65.98L40.9 32.04C40.9 32.04 40.9 32.02 40.9 32C40.72 31.58 40.6 31.12 40.6 30.62C40.6 29.84 40.88 29.12 41.32 28.54C41.4 28.44 41.48 28.34 41.56 28.26C41.58 28.22 41.62 28.18 41.66 28.14C41.68 28.12 41.7 28.12 41.72 28.1C42 27.84 42.32 27.62 42.66 27.46H39.04H38.24H35.04H29.62H26.46C28.36 28.5 29.96 30.02 31.12 31.84C31.24 32 31.36 32.18 31.46 32.34V32.32C31.46 32.32 31.56 32.48 31.68 32.7C31.78 32.84 31.86 32.98 31.96 33.12H31.98C32.08 33.3 32.18 33.5 32.28 33.68C32.44 33.96 32.62 34.26 32.8 34.58C36.7 43.34 41.56 57.78 44.64 63.78C46.46 67.32 48.82 72.32 51.36 75.98V76Z" fill="#DD1F26"/>
    <path d="M93.36 33.76C91.76 34.08 90.7 35.62 91 37.24C91.32 38.86 92.88 39.9 94.48 39.6C96.1 39.28 97.14 37.74 96.84 36.12C96.52 34.52 94.96 33.46 93.36 33.76ZM94.3 38.6C93.24 38.8 92.22 38.12 92.02 37.06C91.82 36 92.5 34.98 93.56 34.76C94.62 34.56 95.64 35.24 95.86 36.3C96.04 37.38 95.34 38.4 94.3 38.6Z" fill="#DD1F26"/>
    <path d="M50.92 80C50.16 78.96 49.38 77.78 48.64 76.58C40.44 77.38 34.46 76.94 34.46 76.94L34.94 71.72C34.94 71.72 39.92 71.64 45.62 71.28C45.56 71.16 45.48 71.02 45.42 70.9C44.46 69.1 43.84 67.84 43.84 67.84C36.74 68.12 29.14 67.5 22.64 66.66C13.68 65.6 6.38 63.86 6.38 63.86L5.7 66.28L18.06 68.74L17.8 69.84L5.38 67.42L4.84 69.32L17.4 71.52L17.16 72.46L4.52 70.38L4.02 72.16L16.78 74.04L16.56 74.98C13.08 74.7 6.08 73.78 3.66 73.44L3.18 75.14L16.16 76.72L15.92 77.72L2.86 76.22L2.72 76.72L2 79.24C2 79.24 16.14 81.36 32.32 81.2C37.96 81.18 44.38 80.88 50.92 80ZM21.58 74.1C21.4 75.52 20.72 76.62 20.12 76.54C19.5 76.46 19.14 75.24 19.32 73.8C19.5 72.38 20.16 71.28 20.78 71.36C21.4 71.46 21.76 72.68 21.58 74.1ZM25.64 74.48C25.48 75.78 24.86 76.76 24.24 76.68C23.62 76.6 23.26 75.48 23.42 74.2C23.58 72.92 24.2 71.94 24.82 72.02C25.44 72.08 25.8 73.18 25.64 74.48ZM29.54 74.62C29.42 75.86 28.8 76.8 28.18 76.74C27.56 76.68 27.18 75.62 27.3 74.38C27.44 73.14 28.04 72.2 28.66 72.26C29.28 72.32 29.66 73.38 29.54 74.62ZM31.78 76.82C31.22 76.78 30.84 75.7 30.96 74.44C31.08 73.18 31.62 72.2 32.18 72.24C32.76 72.28 33.12 73.36 33 74.62C32.9 75.88 32.34 76.86 31.78 76.82Z" fill="#DD1F26"/>
    <path d="M138.94 2.03999C138.26 1.77999 137.42 3.01999 137.42 3.01999C133.32 7.63999 119.7 17.76 119.7 17.76C112.26 23.32 98.98 29.86 98.98 29.86C93.22 27.44 89.02 32.28 89.02 32.28C86.48 35.2 87.6 40.36 87.6 40.36L87.96 44.1C87.96 44.16 88.38 50.46 83.82 56.48C82.58 57.88 81.28 59.02 80.06 59.92C79.68 60.2 79.28 60.48 78.86 60.74C76.44 62.3 74.56 62.9 74.56 62.9C75.38 63.4 76.24 63.84 77.14 64.16C79.48 62.96 82 61.24 84.26 58.88C85.78 57.28 88 54.86 89.76 50.58C90.48 48.86 90.98 47.42 90.82 42.98C90.82 42.98 90.72 42.06 91.48 42.02C91.48 42.02 92.52 41.72 92.5 43.88C92.5 43.88 93.12 49.38 89.22 55.48C88.5 56.56 85.32 62.34 79.96 64.9C79.96 64.9 81.76 65.34 83.68 64.98C83.76 64.96 83.84 64.96 83.94 64.94C84.38 64.8 85 64.56 85.76 64.1C85.92 63.98 86.56 63.5 87.24 62.66C88.42 61.26 89.64 59.72 90.62 57.92C92.78 53.92 93.68 52.34 95.02 45.68C95.3 44.52 95.64 43.56 96 42.8C96 42.8 96.08 42.62 96.26 42.3C96.42 42 96.58 41.72 96.74 41.5C97.64 40.1 99.42 37.82 102.58 35.64C103.3 35.06 103.8 34.72 103.8 34.72L109.36 30.38L126.04 16.64C133.26 10.08 138.12 4.47999 138.12 4.47999C139.92 2.39999 138.94 2.03999 138.94 2.03999ZM94.62 40.68C92.42 41.1 90.28 39.66 89.84 37.46C89.42 35.24 90.86 33.12 93.06 32.68C95.26 32.26 97.4 33.7 97.84 35.9C98.28 38.12 96.82 40.26 94.62 40.68ZM111.76 26.28L101.64 33.72C101.26 32.64 100.28 31.82 100.28 31.82C101.6 31.5 110.26 26.18 110.26 26.18C111.92 25.08 112.3 25.24 112.3 25.24C112.36 25.66 111.76 26.28 111.76 26.28Z" fill="#DD1F26"/>
    <path d="M85.74 40.04C85.64 38.68 85.42 36.08 85.42 36.08C84.44 36.16 75.48 37.32 71.2 37.88L70.74 39.5L71.82 39.42L71.78 40.42L70.44 40.52L70.14 41.54L71.74 41.42L71.7 42.54L69.82 42.7L69.54 43.64L71.66 43.46L71.62 44.34L69.26 44.62L68.9 45.86L82.88 44.14C86.3 43.58 85.74 40.04 85.74 40.04ZM75.14 43.78L73.6 43.96L73.66 39.34L75.24 39.16L75.14 43.78ZM78.06 43.44L76.54 43.62L76.6 39L78.18 38.82L78.06 43.44ZM82.24 43.04C80.76 43.16 79.46 42.06 79.34 40.58C79.22 39.1 80.32 37.8 81.8 37.68C83.28 37.56 84.58 38.66 84.7 40.14C84.82 41.62 83.72 42.92 82.24 43.04Z" fill="#DD1F26"/>
    <path d="M81.9 38.8C81.04 38.86 80.4 39.62 80.46 40.5C80.52 41.36 81.28 42.02 82.16 41.94C83.02 41.86 83.66 41.12 83.6 40.24C83.52 39.38 82.78 38.72 81.9 38.8Z" fill="#DD1F26"/>
    <path d="M80.02 67.52C76.02 67.52 72.48 65.48 70.38 62.38C69.7 61.44 69.16 60.52 68.8 59.76C66.14 54.2 61.62 40.96 59.08 33.26C58.94 32.74 58.76 32.06 58.7 31.36C58.66 31.06 58.68 30.76 58.72 30.46C58.78 29.1 59.62 27.96 60.8 27.46H57.2H54.38H52.88H47.98H45.1C47.88 28.98 50 31.5 51.08 34.52C52.64 38.2 54.16 42.92 55.64 47.64C58.3 55.4 63.64 68.94 69.22 71.32C70.48 71.76 71.82 71.98 73.22 71.98C77.2 71.98 80.72 70.1 82.98 67.18C83 67.16 83.02 67.14 83.02 67.12C82.04 67.38 81.04 67.52 80.02 67.52Z" fill="#DD1F26"/>
    <path d="M85.7 35.24C78.2 37.18 71.2 37.88 71.2 37.88L71.6 38.28L83.6 36.68L85.6 38.5C85.52 37.96 85.42 36.68 85.7 35.24Z" fill="#DD1F26"/>
</svg>
