<svg width="16" height="16" viewBox="0 0 16 16" fill="none" xmlns="http://www.w3.org/2000/svg">
    <g clip-path="url(#clip0)">
        <path d="M8.87049 0.511719C6.46037 0.511719 4.32727 1.71488 3.03611 3.55093C3.30332 3.72526 3.56379 3.96432 3.81572 4.27164C4.77896 2.83135 6.33642 1.82084 8.13844 1.60361L8.87038 2.84223L9.60233 1.60359C12.3723 1.93742 14.5741 4.13909 14.9081 6.90905L13.6693 7.6411L14.9081 8.37318C14.6848 10.2251 13.6242 11.8195 12.1196 12.7751C12.2154 12.9935 12.2694 13.2169 12.279 13.4473C12.286 13.6156 12.2686 13.7746 12.2337 13.9256C14.4734 12.7221 16 10.3569 16 7.64123C16 3.70991 12.8018 0.511719 8.87049 0.511719ZM10.6899 12.2533C9.04633 10.9325 8.58675 11.5818 7.84102 12.3274C7.3204 12.8482 6.00291 11.7606 4.86531 10.623C3.72764 9.48518 2.64029 8.1679 3.16087 7.6472C3.90664 6.90155 4.55574 6.44171 3.23451 4.79862C1.91373 3.15493 1.03326 4.41684 0.31088 5.13927C-0.523107 5.97297 0.266932 9.07982 3.33752 12.1509C6.40853 15.2215 9.51535 16.011 10.3488 15.1777C11.0711 14.4552 12.3334 13.5748 10.6899 12.2533ZM5.68434 8.75697C5.68434 7.29606 7.39467 7.0358 7.39467 6.46571C7.39467 6.18908 7.17323 6.07295 6.96842 6.07295C6.59203 6.07295 6.38191 6.49342 6.38191 6.49342L5.66241 6.01198C5.66241 6.01198 6.02772 5.15969 7.05708 5.15969C7.70455 5.15969 8.4074 5.53054 8.4074 6.37172C8.4074 7.60591 6.81347 7.84398 6.78576 8.35313H8.46837V9.18322H5.72871C5.70097 9.02829 5.68434 8.89002 5.68434 8.75697ZM8.87297 7.6392L10.4007 5.22599H11.585V7.4233H12.0553V8.22568H11.585V9.18327H10.6274V8.22568H8.873V7.6392H8.87297ZM10.6274 7.42327V6.53776C10.6274 6.32186 10.6606 6.09488 10.6606 6.09488H10.6495C10.6495 6.09488 10.5666 6.33849 10.4558 6.50453L9.85825 7.41224V7.42333L10.6274 7.42327Z" fill="#666666"/>
    </g>
    <defs>
        <clipPath id="clip0">
            <rect width="16" height="16" fill="white"/>
        </clipPath>
    </defs>
</svg>
