<svg width="44" height="44" viewBox="0 0 44 44" fill="none" xmlns="http://www.w3.org/2000/svg">
<g filter="url(#filter0_d)">
<circle cx="22" cy="21" r="18" fill="#F8F9FB"/>
</g>
<g clip-path="url(#clip0)">
<path d="M22 21.4169C23.519 21.4169 27.0905 19.5888 27.0905 15.2084C27.0905 14.5974 27.0756 14.0072 27.0253 13.4495C26.9426 12.3519 26.7178 11.3792 26.158 10.6337C25.4402 9.61932 24.184 9 22 9C19.8164 9 18.5604 9.61914 17.8425 10.6331C17.2824 11.3787 17.0575 12.3518 16.9748 13.4497C16.9245 14.0073 16.9095 14.5975 16.9095 15.2084C16.9095 19.5888 20.481 21.4169 22 21.4169ZM20.1131 11.0531C20.2241 10.8499 20.4366 10.7235 20.6677 10.7233C20.9341 10.7233 21.1622 10.8886 21.2556 11.1215H22.7437C22.7751 11.0429 22.822 10.9707 22.8835 10.9091C23.0027 10.7895 23.1616 10.7234 23.3305 10.7232C23.5623 10.7232 23.7748 10.8488 23.8861 11.0513C23.8926 11.0631 23.8924 11.0773 23.8854 11.089C23.8786 11.1006 23.8661 11.1078 23.8527 11.1078L23.2883 11.1087C23.2784 11.1325 23.2594 11.1985 23.2597 11.356C23.2599 11.5134 23.2792 11.5794 23.2892 11.6031L23.8536 11.6022C23.8671 11.6023 23.8794 11.6094 23.8863 11.621C23.8933 11.6326 23.8934 11.6469 23.8871 11.6588C23.776 11.8618 23.5635 11.9883 23.3324 11.9886L23.3315 11.9884C23.0658 11.9884 22.8379 11.8233 22.7445 11.5903H21.2564C21.225 11.6688 21.1782 11.7411 21.1167 11.8026C20.9975 11.9223 20.8386 11.9884 20.6696 11.9887C20.6696 11.9886 20.6686 11.9887 20.6686 11.9887C20.4379 11.9887 20.2253 11.863 20.114 11.6606C20.1074 11.6487 20.1078 11.6344 20.1146 11.6228C20.1213 11.6112 20.1339 11.604 20.1474 11.604L20.7116 11.6031C20.7216 11.5794 20.7407 11.5133 20.7403 11.3559C20.74 11.1984 20.7208 11.1324 20.7107 11.1087L20.1464 11.1096V11.1097C20.133 11.1096 20.1206 11.1025 20.1136 11.0909C20.1069 11.0793 20.1067 11.0651 20.1131 11.0531ZM17.6669 14.2586C17.7255 14.387 17.9747 14.8801 18.3603 14.9263C18.8037 14.9795 19.5395 13.3562 22 13.3523C24.4604 13.3563 25.1964 14.9795 25.6397 14.9263C26.0254 14.8801 26.2745 14.3869 26.3331 14.2586C26.3451 14.573 26.3495 14.8911 26.3495 15.2084C26.3495 17.3496 25.404 18.6763 24.6109 19.4121C23.6115 20.3394 22.502 20.6759 22 20.6759C21.4981 20.6759 20.3885 20.3394 19.3892 19.4121C18.596 18.6763 17.6506 17.3496 17.6506 15.2084C17.6506 14.8911 17.6549 14.573 17.6669 14.2586Z" fill="#2BBCEE"/>
<path d="M31.4506 27.7843C31.1908 26.1683 30.6558 24.0868 29.5826 23.3469C28.85 22.8419 26.294 21.4762 25.2025 20.8931L25.1825 20.8825C25.0577 20.8158 24.9053 20.8291 24.794 20.9165C24.222 21.3655 23.5955 21.6681 22.9318 21.8159C22.8146 21.842 22.7184 21.9253 22.6758 22.0376L21.9999 23.8189L21.3241 22.0376C21.2815 21.9253 21.1853 21.8419 21.0681 21.8159C20.4044 21.6681 19.7779 21.3655 19.2059 20.9165C19.0946 20.8291 18.9422 20.8157 18.8174 20.8825C17.7386 21.459 15.1505 22.8529 14.4205 23.3448C13.1852 24.1771 12.645 27.189 12.5493 27.7843C12.5398 27.8434 12.5453 27.9038 12.5653 27.9602C12.6014 28.0621 13.3657 30.0362 18.1426 30.7565C18.5601 31.4863 19.1838 32.0932 19.9295 32.4878C20.5631 32.823 21.2808 33.0002 22.0051 33.0002C22.2888 33.0002 22.5727 32.973 22.8493 32.9192C23.8052 32.7332 24.6881 32.2252 25.3351 31.4887C25.534 31.2624 25.7081 31.0166 25.8561 30.7567C30.634 30.0365 31.3985 28.0621 31.4346 27.9602C31.4546 27.9037 31.4601 27.8433 31.4506 27.7843ZM25.7993 28.7734C25.7527 29.6187 25.4176 30.4342 24.8587 31.07C24.3063 31.6989 23.5501 32.1367 22.7282 32.2966C22.4896 32.3431 22.2473 32.366 22.0052 32.366C21.3886 32.366 20.7736 32.2169 20.2262 31.9272C19.4921 31.5387 18.8944 30.9095 18.5452 30.1557C18.1823 29.3721 18.0987 28.4706 18.3095 27.6331C18.5131 26.8233 18.9892 26.0932 19.6437 25.5755C20.3115 25.0473 21.1485 24.7561 21.9999 24.7561C22.3805 24.7561 22.7608 24.813 23.1243 24.9257C23.9201 25.1722 24.6228 25.6848 25.1048 26.3638C25.6004 27.062 25.8464 27.9186 25.7993 28.7734Z" fill="#2BBCEE"/>
<path d="M22.5968 28.5611C22.9526 28.6316 23.3062 28.7374 23.6379 28.8845C23.9584 29.0267 24.2456 29.2273 24.5436 29.4091C24.5641 29.4218 24.5848 29.4339 24.6055 29.4462C24.6999 29.1684 24.7519 28.8709 24.7519 28.5611C24.7519 28.2513 24.6999 27.9539 24.6055 27.676C24.3002 27.8582 24.0099 28.0658 23.6863 28.2158C23.3414 28.3758 22.9694 28.4874 22.5968 28.5611Z" fill="#2BBCEE"/>
<path d="M24.5436 29.4092C24.4775 29.3688 24.5792 29.431 24.5436 29.4092V29.4092Z" fill="#2BBCEE"/>
<path d="M20.3621 28.8847C20.6938 28.7376 21.0474 28.6318 21.4032 28.5613C21.0251 28.4865 20.6469 28.3729 20.2976 28.2086C19.9804 28.0593 19.6948 27.8554 19.3945 27.6762C19.3001 27.954 19.2482 28.2516 19.2482 28.5613C19.2482 28.8711 19.3001 29.1686 19.3945 29.4465C19.4152 29.4342 19.4359 29.422 19.4563 29.4094C19.7544 29.2275 20.0418 29.0269 20.3621 28.8847Z" fill="#2BBCEE"/>
<path d="M19.4564 29.4092C19.4209 29.431 19.5225 29.3688 19.4564 29.4092V29.4092Z" fill="#2BBCEE"/>
<path d="M22.5058 25.8567C22.5149 26.2167 22.5544 26.5761 22.5246 26.9361C22.4923 27.3258 22.4036 27.7167 22.2778 28.0865C22.5372 27.7963 22.8337 27.5284 23.1564 27.3096C23.4565 27.1062 23.7903 26.9639 24.1095 26.7948C23.7078 26.3155 23.1457 25.9756 22.5058 25.8567Z" fill="#2BBCEE"/>
<path d="M21.7222 28.0864C21.5964 27.7167 21.5078 27.3258 21.4754 26.936C21.4457 26.576 21.4852 26.2166 21.4942 25.8566C20.8543 25.9755 20.2923 26.3154 19.8905 26.7947C20.2151 26.9666 20.5545 27.1109 20.8585 27.3195C21.175 27.5369 21.4665 27.8004 21.7222 28.0864Z" fill="#2BBCEE"/>
<path d="M21.4754 30.1865C21.5078 29.797 21.596 29.4058 21.7222 29.0362C21.4626 29.3263 21.1662 29.5943 20.8435 29.8131C20.5436 30.0165 20.2099 30.1588 19.8905 30.3279C20.2923 30.8071 20.8543 31.1469 21.4942 31.2659C21.4852 30.9059 21.4457 30.5464 21.4754 30.1865Z" fill="#2BBCEE"/>
<path d="M22.2778 29.0362C22.4041 29.4058 22.4923 29.797 22.5246 30.1865C22.5544 30.5464 22.515 30.9059 22.5058 31.2659C23.1457 31.147 23.7077 30.8071 24.1095 30.3279C23.785 30.1559 23.4457 30.0116 23.1418 29.8031C22.825 29.5857 22.5337 29.3221 22.2778 29.0362Z" fill="#2BBCEE"/>
</g>
<defs>
<filter id="filter0_d" x="0" y="0" width="44" height="44" filterUnits="userSpaceOnUse" color-interpolation-filters="sRGB">
<feFlood flood-opacity="0" result="BackgroundImageFix"/>
<feColorMatrix in="SourceAlpha" type="matrix" values="0 0 0 0 0 0 0 0 0 0 0 0 0 0 0 0 0 0 127 0"/>
<feOffset dy="1"/>
<feGaussianBlur stdDeviation="2"/>
<feColorMatrix type="matrix" values="0 0 0 0 0 0 0 0 0 0 0 0 0 0 0 0 0 0 0.1 0"/>
<feBlend mode="normal" in2="BackgroundImageFix" result="effect1_dropShadow"/>
<feBlend mode="normal" in="SourceGraphic" in2="effect1_dropShadow" result="shape"/>
</filter>
<clipPath id="clip0">
<rect width="24" height="24" fill="white" transform="translate(10 9)"/>
</clipPath>
</defs>
</svg>
