<svg width="24" height="25" viewBox="0 0 24 25" fill="none" xmlns="http://www.w3.org/2000/svg">
<g clip-path="url(#clip0)">
<path d="M16.3134 7.28684C16.0542 7.28684 15.8438 7.49672 15.8438 7.75632C15.8438 8.01574 16.0542 8.22599 16.3134 8.22599C16.5732 8.22599 16.7831 8.01574 16.7831 7.75632C16.7831 7.49672 16.5732 7.28684 16.3134 7.28684Z" fill="#2BBCEE"/>
<path d="M7.77973 15.8203C7.51994 15.8203 7.31006 16.0307 7.31006 16.2899C7.31006 16.5497 7.51994 16.7596 7.77973 16.7596C8.03896 16.7596 8.24939 16.5497 8.24939 16.2899C8.24939 16.0307 8.03896 15.8203 7.77973 15.8203Z" fill="#2BBCEE"/>
<path d="M23.4861 2.88939C23.3276 2.85251 23.161 2.90039 23.0465 3.01598L21.0994 4.97849H20.1659L19.1383 3.91385V2.96736L21.0576 1.01952C21.1711 0.904307 21.2174 0.738639 21.1798 0.581044C21.1423 0.423632 21.0264 0.296675 20.873 0.244938C20.3909 0.0823893 19.8863 1.40406e-05 19.3732 1.40406e-05C17.8435 1.40406e-05 16.4537 0.713321 15.5603 1.95702C14.724 3.12128 14.4663 4.54808 14.8356 5.9136L11.376 9.37318L5.6123 3.59627V2.46247C5.6123 2.29753 5.5257 2.14452 5.38425 2.05976L2.06337 0.0669783C1.87844 -0.0440173 1.64196 -0.0148465 1.48968 0.137612L0.161402 1.46571C0.0091273 1.61816 -0.0200434 1.85465 0.0907687 2.03958L2.08319 5.36046C2.16795 5.50191 2.32077 5.58832 2.48571 5.5885L3.61914 5.58887L9.38339 11.3658L5.93703 14.8121C4.57151 14.443 3.14397 14.7012 1.97916 15.5379C0.736194 16.4308 0.0234375 17.8202 0.0234375 19.3499C0.0234375 19.8629 0.105813 20.3676 0.268362 20.8496C0.320282 21.0039 0.448523 21.1204 0.607036 21.1571C0.765732 21.1939 0.932134 21.1461 1.0468 21.0305L2.99372 19.0681H3.93232L5.00173 20.1376V21.0762L3.0394 23.0231C2.92382 23.1377 2.87593 23.3041 2.91281 23.4628C2.9495 23.6213 3.066 23.7496 3.22029 23.8015C3.70225 23.9641 4.20696 24.0464 4.71993 24.0464C6.24965 24.0464 7.63884 23.3335 8.53194 22.0905C9.36872 20.9257 9.62685 19.4984 9.25772 18.1328L12.0256 15.3649L12.6597 16.0536L12.3687 16.3444C12.1853 16.5279 12.1853 16.8253 12.3687 17.0088C12.5522 17.192 12.8494 17.192 13.033 17.0088L13.2965 16.7453L19.2455 23.2073C19.2499 23.212 19.2545 23.2166 19.2591 23.2212C20.3598 24.322 22.1433 24.3224 23.2446 23.221C24.3428 22.1223 24.3428 20.3344 23.2446 19.2356C23.2399 19.2309 23.2349 19.2263 23.23 19.2217L16.7579 13.2841L17.0184 13.0236C17.2019 12.8403 17.2019 12.5429 17.0184 12.3594C16.835 12.176 16.5377 12.176 16.3541 12.3594L16.0651 12.6486L15.3751 12.0152L18.1565 9.23393C18.5518 9.33961 18.9598 9.39318 19.3732 9.39318C21.963 9.39318 24.0697 7.28628 24.0697 4.69669C24.0697 4.18354 23.9873 3.67901 23.8247 3.19687C23.7728 3.04258 23.6446 2.92608 23.4861 2.88939ZM4.14642 4.7875C4.05836 4.69926 3.93892 4.65431 3.81417 4.65431L2.75191 4.65394L1.08496 1.87079L1.89458 1.06117L4.67296 2.72849V3.79074C4.67296 3.91513 4.72231 4.03438 4.81019 4.12245L10.7119 10.0375L10.0475 10.7016L4.14642 4.7875ZM16.093 13.949L22.5871 19.9066C23.3125 20.6397 23.3103 21.8267 22.5803 22.5571C21.8487 23.2887 20.6642 23.2909 19.9296 22.5635L13.9612 16.0804L16.093 13.949ZM15.4003 13.3132L13.3244 15.3888L12.6903 14.7001L14.7103 12.6799L15.4003 13.3132ZM19.3732 8.45384C18.9624 8.45384 18.5584 8.38798 18.1728 8.25809C18.0038 8.2014 17.817 8.24506 17.6908 8.3711C15.3362 10.7257 10.2627 15.799 8.39452 17.6674C8.2683 17.7936 8.22445 17.9804 8.28151 18.1495C8.67192 19.3088 8.48516 20.5454 7.76891 21.5425C7.05469 22.5367 5.94326 23.1071 4.71993 23.1071C4.58251 23.1071 4.44583 23.0996 4.31044 23.0851L5.80218 21.6049C5.89098 21.5168 5.94106 21.3968 5.94106 21.2715V19.9429C5.94106 19.8183 5.89153 19.6989 5.80346 19.6108L4.45886 18.2662C4.3708 18.1782 4.25136 18.1286 4.12679 18.1286H2.79814C2.67284 18.1286 2.55285 18.1787 2.46461 18.2675L0.984604 19.7592C0.969927 19.6239 0.962589 19.4872 0.962589 19.3498C0.962589 18.1262 1.53279 17.015 2.52717 16.3008C3.52411 15.5845 4.76084 15.3976 5.92033 15.7882C6.0893 15.8452 6.27607 15.8014 6.40229 15.6752C6.42816 15.6495 15.692 6.38547 15.6986 6.37887C15.8248 6.25264 15.8685 6.06606 15.8116 5.89691C15.421 4.7376 15.6074 3.50142 16.3231 2.50503C17.0379 1.50992 18.1495 0.939349 19.373 0.939349C19.5146 0.939349 19.6553 0.947238 19.7948 0.962649L18.334 2.44522C18.2474 2.5331 18.199 2.65143 18.199 2.77472V4.10337C18.199 4.22519 18.2462 4.34205 18.3307 4.42956L19.6284 5.77417C19.7168 5.8659 19.8388 5.91764 19.9663 5.91764H21.295C21.4201 5.91764 21.5401 5.86774 21.6283 5.77876L23.1083 4.2872C23.123 4.42259 23.1303 4.55927 23.1303 4.69669C23.1303 6.76836 21.4449 8.45384 19.3732 8.45384Z" fill="#2BBCEE"/>
<path d="M14.6529 8.75252L8.77564 14.6298C8.59236 14.8131 8.59236 15.1105 8.77564 15.2939C8.95911 15.4774 9.2565 15.4774 9.43997 15.2939L15.3172 9.41666C15.5007 9.23338 15.5007 8.93599 15.3172 8.75252C15.1338 8.56906 14.8364 8.56906 14.6529 8.75252Z" fill="#2BBCEE"/>
<path d="M20.5883 21.229C20.7717 21.4119 21.0691 21.4119 21.2526 21.2279C21.4357 21.0442 21.4352 20.7468 21.2515 20.5637L17.0181 16.3439C16.8344 16.1608 16.5369 16.1613 16.3539 16.345C16.1707 16.5288 16.1712 16.826 16.3549 17.0091L20.5883 21.229Z" fill="#2BBCEE"/>
</g>
<defs>
<clipPath id="clip0">
<rect width="24" height="24.047" fill="white"/>
</clipPath>
</defs>
</svg>
