<svg width="18" height="18" viewBox="0 0 18 18" fill="none" xmlns="http://www.w3.org/2000/svg">
    <path d="M9 15.75C5.2875 15.75 2.25 12.7125 2.25 9C2.25 5.2875 5.2875 2.25 9 2.25C12.7125 2.25 15.75 5.2875 15.75 9C15.75 12.7125 12.7125 15.75 9 15.75ZM9 0C4.05 0 0 4.05 0 9C0 13.95 4.05 18 9 18C13.95 18 18 13.95 18 9C18 4.05 13.95 0 9 0Z" fill="white" fill-opacity="0.9"/>
    <path d="M10.125 7.875H7.875V13.5H10.125V7.875Z" fill="white" fill-opacity="0.9"/>
    <path d="M10.125 5.62501C10.125 6.01876 9.9 6.41252 9.5625 6.58127C9.225 6.80627 8.775 6.80627 8.4375 6.58127C8.1 6.35627 7.875 6.01876 7.875 5.62501C7.875 5.23126 8.1 4.8375 8.4375 4.66875C8.775 4.44375 9.225 4.44375 9.5625 4.66875C9.9 4.89375 10.125 5.23126 10.125 5.62501Z" fill="white" fill-opacity="0.9"/>
</svg>
