<svg width="34" height="39" viewBox="0 0 34 39" fill="none" xmlns="http://www.w3.org/2000/svg">
<path d="M17 0C7.61056 0 0 7.62531 0 17.0329C0 23.4687 3.56048 29.0623 8.8128 31.9606L8.61288 39L16.6342 34.0468C16.7552 34.0495 16.8762 34.0659 17 34.0659C26.3894 34.0659 34 26.4406 34 17.0329C34 7.62531 26.3894 0 17 0ZM16.237 27.2772C14.7193 27.2772 13.6857 26.1572 13.6857 24.6637C13.6857 23.1389 14.7451 22.0474 16.237 22.0474C17.7874 22.0474 18.7911 23.1389 18.8183 24.6637C18.8197 26.1531 17.7888 27.2772 16.237 27.2772ZM19.7064 16.5874C18.647 17.766 18.2158 18.8848 18.2458 20.182V20.6957H14.431L14.401 19.9504C14.3154 18.4869 14.8022 16.9893 16.0956 15.44C17.0109 14.3458 17.7589 13.4274 17.7589 12.4504C17.7589 11.4461 17.0966 10.7853 15.6618 10.7294C14.7193 10.7294 13.5687 11.0714 12.8275 11.5906L11.851 8.45516C12.8833 7.85287 14.601 7.28193 16.6382 7.28193C20.4258 7.28193 22.1435 9.37766 22.1435 11.7636C22.1449 13.9439 20.7985 15.3801 19.7064 16.5874Z" fill="#FFA202"/>
</svg>
