<svg width="44" height="44" viewBox="0 0 44 44" fill="none" xmlns="http://www.w3.org/2000/svg">
<g filter="url(#filter0_d)">
<circle cx="22" cy="21" r="18" fill="#F8F9FB"/>
</g>
<path d="M31.5999 9H13.6C13.3791 9 13.2 9.1791 13.2 9.4V15.4H14V9.8H31.1999V31.8C31.2038 32.0103 31.0415 32.1865 30.8315 32.2C30.7971 32.2 30.7627 32.1972 30.7283 32.1964C30.6575 32.1944 30.5867 32.1928 30.5171 32.1856C30.5111 32.1856 30.5055 32.1856 30.4995 32.1832C29.1931 32.0404 28.1612 31.0094 28.0171 29.7032C28.0171 29.6976 28.0151 29.6916 28.0143 29.686C28.0046 29.5909 27.9998 29.4955 27.9999 29.4V28.6C27.9999 28.3791 27.8208 28.2 27.5999 28.2H14V21H13.2V28.2H9.99997C9.77908 28.2 9.59998 28.3791 9.59998 28.6V29.4C9.60218 31.3873 11.2127 32.9978 13.2 33H30.8399C31.489 32.983 32.0049 32.4493 31.9999 31.8V9.4C31.9999 9.1791 31.8208 9 31.5999 9ZM13.2 32.2C11.6543 32.1982 10.4017 30.9456 10.4 29.4V29H27.1999V29.4C27.2005 29.5319 27.2081 29.6637 27.2227 29.7948C27.2263 29.8296 27.2331 29.8632 27.2379 29.8976C27.2511 29.9944 27.2671 30.0908 27.2883 30.1856C27.2955 30.2188 27.3047 30.2516 27.3131 30.2848C27.3375 30.3812 27.3651 30.476 27.3971 30.5696C27.4063 30.5964 27.4159 30.6228 27.4259 30.6496C27.4623 30.7488 27.5035 30.8456 27.5487 30.9412C27.5583 30.9608 27.5671 30.9812 27.5767 30.9992C27.6269 31.1005 27.6819 31.199 27.7419 31.2948C27.7499 31.3076 27.7571 31.3208 27.7651 31.3348C27.8303 31.4369 27.9007 31.5357 27.9759 31.6308L27.9887 31.648C28.076 31.7576 28.1695 31.8622 28.2687 31.9612C28.3549 32.0465 28.4442 32.1265 28.5367 32.2012L13.2 32.2Z" fill="#2BBCEE"/>
<path d="M21.2 20.2C21.3061 20.2 21.4078 20.1578 21.4828 20.0828L23.0828 18.4828C23.2389 18.3266 23.2389 18.0734 23.0828 17.9172L21.4828 16.3172C21.4078 16.2422 21.3061 16.2 21.2 16.2H10C8.89545 16.2 8 17.0955 8 18.2C8 19.3046 8.89545 20.2 10 20.2H21.2ZM21.0968 17.0624L22.2344 18.2L21.0968 19.3376L20.8124 18.2L21.0968 17.0624ZM11.2 17H20.288L20.088 17.8H12V18.6H20.088L20.288 19.4H11.2V17ZM8.8 18.2C8.8 17.5373 9.33725 17 10 17H10.4V19.4H10C9.33725 19.4 8.8 18.8628 8.8 18.2Z" fill="#2BBCEE"/>
<path d="M17.2 26.2H29.1999C29.4208 26.2 29.5999 26.0209 29.5999 25.8V13.8C29.5999 13.5791 29.4208 13.4001 29.1998 13.4001C29.0938 13.4001 28.9921 13.4423 28.9171 13.5172L16.9172 25.5172C16.761 25.6735 16.761 25.9267 16.9173 26.0829C16.9923 26.1579 17.0939 26.2 17.2 26.2ZM28.7999 14.7656V15.8H27.9999V16.6H28.7999V17.4H27.9999V18.2H28.7999V19H27.9999V19.8H28.7999V20.6H27.9999V21.4H28.7999V22.2H27.9999V23H28.7999V23.8H27.9999V24.6H28.7999V25.4H27.9999V24.6H27.1999V25.4H26.3999V24.6H25.5999V25.4H24.8V24.6H24V25.4H23.2V24.6H22.4V25.4H21.6V24.6H20.8V25.4H20V24.6H19.2V25.4H18.1656L28.7999 14.7656Z" fill="#2BBCEE"/>
<path d="M22.9939 23.7999H26.7999C27.0208 23.7999 27.1999 23.6208 27.1999 23.3999V19.5939C27.1999 19.373 27.0208 19.194 26.7998 19.194C26.6938 19.194 26.5921 19.2362 26.5171 19.3111L22.7111 23.1171C22.5549 23.2734 22.555 23.5266 22.7112 23.6828C22.7862 23.7578 22.8879 23.7999 22.9939 23.7999ZM26.3999 20.5599V22.9999H23.9599L26.3999 20.5599Z" fill="#2BBCEE"/>
<path d="M26.4 11.4H18.4V12.2H26.4V11.4Z" fill="#2BBCEE"/>
<path d="M27.5999 13H17.2V13.8H27.5999V13Z" fill="#2BBCEE"/>
<path d="M17.1999 21.4H14.7999V22.2H17.1999V21.4Z" fill="#2BBCEE"/>
<path d="M16.3999 23H14.7999V23.8H16.3999V23Z" fill="#2BBCEE"/>
<defs>
<filter id="filter0_d" x="0" y="0" width="44" height="44" filterUnits="userSpaceOnUse" color-interpolation-filters="sRGB">
<feFlood flood-opacity="0" result="BackgroundImageFix"/>
<feColorMatrix in="SourceAlpha" type="matrix" values="0 0 0 0 0 0 0 0 0 0 0 0 0 0 0 0 0 0 127 0"/>
<feOffset dy="1"/>
<feGaussianBlur stdDeviation="2"/>
<feColorMatrix type="matrix" values="0 0 0 0 0 0 0 0 0 0 0 0 0 0 0 0 0 0 0.1 0"/>
<feBlend mode="normal" in2="BackgroundImageFix" result="effect1_dropShadow"/>
<feBlend mode="normal" in="SourceGraphic" in2="effect1_dropShadow" result="shape"/>
</filter>
</defs>
</svg>
