<svg width="260" height="260" viewBox="0 0 260 260" fill="none" xmlns="http://www.w3.org/2000/svg">
    <path d="M238.94 174.954C238.94 174.954 238.914 174.46 239.07 174.304C239.226 174.122 239.356 173.836 239.382 173.732C239.434 173.602 239.72 173.238 239.564 173.186C239.408 173.134 239.07 173.758 238.966 173.862C238.862 173.966 238.758 173.342 238.654 173.238C238.55 173.134 237.484 173.446 237.588 173.862C237.718 174.278 237.978 174.642 238.056 174.798C238.082 174.876 238.212 175.188 238.212 175.188L238.94 174.954Z" fill="#EFA986"/>
    <path d="M244.296 198.744C244.296 198.744 242.762 202.072 242.242 202.722C241.722 203.372 240.526 205.478 240.578 205.868C240.63 206.258 240.656 206.752 241.15 207.532C241.644 208.312 241.878 210.132 241.826 210.704C241.774 211.302 241.436 214.734 241.488 215.02C241.566 215.306 240.578 215.384 240.578 214.994C240.578 214.396 239.98 210.626 239.694 209.56C239.382 208.494 238.342 206.466 238.42 205.894C238.498 205.296 239.148 202.436 239.408 201.578C239.85 200.044 240.734 197.392 240.864 197.028C241.02 196.638 244.894 194.194 244.296 198.744Z" fill="#EFAA87"/>
    <path d="M245.908 195.572C245.908 195.572 247.078 196.976 246.688 198.588C246.298 200.174 245.284 203.684 245.232 204.256C245.18 204.828 244.816 205.738 245.258 205.712C245.882 205.686 246.61 205.556 247.884 205.842C248.716 206.024 249.912 205.816 250.77 205.868C251.108 205.894 251.082 206.544 250.796 206.778C250.562 206.986 244.712 208 243.646 207.766C243.178 207.662 242.97 207.09 242.814 205.374C242.762 204.594 242.84 201.916 242.736 200.98C242.632 200.044 242.736 198.614 242.736 198.614C242.736 198.614 241.124 194.506 245.908 195.572Z" fill="#EFAA87"/>
    <path d="M240.292 197.21C241.254 198.354 243.178 199.42 243.36 199.472C243.516 199.524 243.724 199.55 243.724 199.55C244.114 198.51 244.608 197.834 245.102 197.418C246.272 196.404 247.468 196.768 247.468 196.768C247.468 196.742 247.442 196.69 247.442 196.664C247.364 196.222 246.974 195.702 246.948 195.65C243.36 196.82 240.942 196.456 240.656 196.404C240.63 196.404 240.63 196.404 240.63 196.404C240.526 196.56 240.292 197.21 240.292 197.21Z" fill="#74C5B8"/>
    <path d="M254.514 194.922C254.514 194.922 254.748 195.026 254.878 195.156C254.982 195.26 255.216 195.364 255.32 195.416C255.424 195.468 255.918 195.806 255.996 195.91C256.022 195.962 256.152 196.3 256.256 196.378C256.334 196.456 256.542 196.586 256.464 196.664C256.386 196.742 256.178 196.664 256.178 196.664C256.178 196.664 256.256 196.742 256.204 196.82C256.126 196.976 255.996 196.976 255.996 196.976C255.996 196.976 256.022 197.106 255.97 197.158C255.866 197.288 255.736 197.288 255.736 197.288C255.736 197.288 255.71 197.392 255.632 197.444C255.502 197.522 255.372 197.47 255.372 197.47C255.372 197.47 255.242 197.626 255.138 197.574C255.034 197.548 254.982 197.444 254.904 197.418C254.826 197.366 254.384 196.768 254.254 196.222C254.124 195.65 253.552 195.39 253.552 195.39L254.514 194.922Z" fill="#EFA986"/>
    <path d="M256.152 196.586C256.152 196.586 255.762 196.066 255.528 196.04C255.294 196.04 255.424 196.222 255.424 196.222C255.424 196.222 255.294 196.014 255.112 196.118C254.93 196.196 255.112 196.43 255.112 196.43C255.112 196.43 254.982 196.3 254.826 196.456C254.696 196.612 254.878 196.768 254.878 196.768C254.878 196.768 254.592 196.69 254.618 196.95C254.696 197.366 255.112 197.574 255.112 197.574C255.112 197.574 255.216 197.626 255.346 197.47C255.346 197.47 255.606 197.6 255.71 197.288C255.71 197.288 256.048 197.236 255.97 196.976C256.022 196.976 256.36 196.898 256.152 196.586Z" fill="#DC9D7C"/>
    <path d="M243.256 184.964C243.256 184.964 242.502 183.924 242.19 183.378C241.826 182.754 241.176 180.83 241.072 180.258C240.916 179.504 239.07 174.564 239.07 174.564L237.952 175.266C237.952 175.266 239.304 179.712 239.434 180.128C239.642 180.726 240.24 182.988 240.396 183.482C240.526 183.898 240.916 184.912 241.072 185.484C241.202 186.03 241.644 187.33 241.644 187.33L243.256 184.964Z" fill="#EDDAD3"/>
    <path d="M238.758 203.918C238.758 203.918 239.538 204.88 245.18 204.88C245.18 204.88 248.56 198.146 247.338 196.196C246.272 194.48 240.838 195.65 240.838 195.65C240.838 195.65 239.616 197.626 238.758 203.918Z" fill="#254480"/>
    <path d="M244.634 184.652C244.634 184.652 243.724 184.938 243.412 184.964C243.1 184.99 241.748 186.342 241.462 186.888C241.176 187.408 241.28 188.266 241.592 189.306C241.878 190.346 241.436 190.606 241.514 191.62C241.592 192.634 241.488 194.714 241.384 195.26C241.28 195.806 246.168 196.534 247.416 195.702C247.416 195.702 246.506 193.856 246.402 193.596C246.298 193.336 246.584 192.036 246.766 191.724C246.948 191.412 248.196 188.838 248.196 188.838C248.196 188.838 249.21 186.55 248.612 185.952C248.092 185.432 246.584 185.094 246.324 184.938C246.012 184.782 245.206 184.626 244.634 184.652Z" fill="#E6B74C"/>
    <path d="M247.104 178.932C246.662 178.594 244.972 177.606 243.802 179.816C242.658 182.026 243.412 184.08 244.738 184.002C246.064 183.924 247.286 182.546 247.754 181.324C248.222 180.128 247.65 179.348 247.104 178.932Z" fill="#EFA986"/>
    <path d="M243.802 179.816C243.802 179.816 244.322 177.788 246.35 178.334C248.352 178.88 248.378 180.674 247.858 181.818C247.338 182.962 246.298 183.326 246.298 183.326C246.298 183.326 246.662 182.39 246.35 182.026C246.038 181.662 244.66 180.674 244.348 179.296C244.348 179.296 243.932 179.582 243.802 179.816Z" fill="#262E3B"/>
    <path d="M246.35 180.362C246.376 181.246 247 181.948 247.754 181.922C248.508 181.922 249.132 181.194 249.106 180.31C249.08 179.426 248.456 178.724 247.702 178.75C246.948 178.776 246.35 179.504 246.35 180.362Z" fill="#262E3B"/>
    <path d="M244.348 183.586C244.348 183.586 244.322 185.198 244.218 185.718C244.218 185.718 244.998 186.732 246.272 184.912C246.272 184.912 245.934 184.054 246.402 182.988C246.896 181.922 244.348 183.586 244.348 183.586Z" fill="#EFA986"/>
    <path d="M244.218 185.718L244.114 186.55L245.258 185.9L244.218 185.718Z" fill="#EFA986"/>
    <path d="M246.428 184.964C246.428 184.964 244.972 186.654 244.816 187.46C244.66 188.266 244.374 194.428 244.53 196.43C244.686 198.432 247.936 196.638 247.936 196.638C247.936 196.638 246.376 193.154 247.468 190.684C248.56 188.214 249.21 186.55 249.21 186.55C249.21 186.55 248.794 185.666 247.988 185.432C247.156 185.198 246.428 184.964 246.428 184.964Z" fill="#EDDAD3"/>
    <path d="M241.332 187.122C241.332 187.122 240.994 188.188 241.67 189.878C241.67 189.878 241.358 191.906 241.254 192.582C241.15 193.258 240.656 195.832 240.656 195.832L241.436 196.43C241.592 196.56 241.826 196.43 241.826 196.248C241.852 194.246 242.034 186.628 243.984 184.834L243.282 184.938C243.256 184.964 241.592 186.108 241.332 187.122Z" fill="#EDDAD3"/>
    <path d="M246.298 181.532C246.428 181.376 246.688 181.402 246.792 181.532C246.896 181.688 246.87 182.026 246.532 182.364C246.194 182.702 245.31 182.754 246.298 181.532Z" fill="#EFA986"/>
    <path d="M244.348 183.95V184.262C244.348 184.262 245.05 184.496 246.142 183.482C246.116 183.482 245.336 184.184 244.348 183.95Z" fill="#A77961"/>
    <path d="M246.194 184.496C246.194 184.496 245.232 184.756 244.322 184.418L244.192 184.886L243.958 186.758C243.958 186.758 245.856 185.692 245.856 185.64C245.856 185.588 246.35 184.938 246.35 184.938L246.194 184.496Z" fill="#E6B74C"/>
    <path d="M248.092 185.484C248.092 185.484 248.378 185.562 248.872 186.082C249.366 186.602 249.6 187.382 249.73 187.668C249.86 187.954 251.472 190.71 251.576 190.788C251.68 190.84 252.434 191.854 253.058 192.712C253.708 193.622 254.852 195.156 254.852 195.156L253.838 195.962C253.838 195.962 251.29 192.972 250.666 192.14C249.99 191.256 247.598 188.63 247.598 188.63C247.598 188.63 246.116 186.186 248.092 185.484Z" fill="#EDDAD3"/>
    <path d="M239.746 216.97C240.89 215.982 240.578 214.942 240.578 214.942C240.578 214.942 241.02 214.786 241.41 214.864C241.774 214.968 241.982 215.826 241.826 216.112L241.722 217.568L241.54 217.542L241.592 216.762C241.384 217.516 241.176 218.452 240.656 218.582C239.98 218.79 238.888 218.66 238.784 218.426C238.628 218.244 239.746 216.97 239.746 216.97Z" fill="#254480"/>
    <path d="M240.578 214.942C240.578 214.942 240.448 215.566 240.292 216.034C240.136 216.476 239.382 217.464 239.408 217.594C239.434 217.724 240.266 217.906 240.63 217.594C240.994 217.308 241.332 216.372 241.41 215.826C241.488 215.254 241.488 214.916 241.488 214.916C241.488 214.916 241.02 214.552 240.578 214.942Z" fill="#EFA986"/>
    <path d="M250.276 206.934C250.276 206.934 250.978 206.778 251.238 206.83C251.524 206.908 253.084 206.96 253.318 207.194C253.552 207.428 253.968 207.948 254.098 207.87C254.228 207.818 254.8 207.428 254.254 206.648C253.734 205.868 253.578 205.686 253.24 205.634C252.928 205.582 251.862 205.244 251.732 205.036L252.694 204.386L252.564 204.178C252.564 204.178 251.238 204.802 250.9 204.802C250.562 204.802 249.808 205.556 249.73 206.18C249.678 206.804 250.276 206.934 250.276 206.934Z" fill="#EFA986"/>
    <path d="M253.344 207.194C253.344 207.194 252.85 206.258 252.304 206.102C251.758 205.946 250.744 205.972 250.224 205.27C250.224 205.27 250.38 204.776 251.42 204.646C251.42 204.646 252.46 204.256 252.59 204.152L252.72 204.36L251.758 205.01C251.758 205.01 252.59 205.504 253.5 205.608C253.5 205.608 254.774 206.908 254.514 207.506C254.514 207.506 254.384 207.818 254.124 207.922C253.864 208.026 253.344 207.194 253.344 207.194Z" fill="#254480"/>
    <path d="M190.32 101.53C190.32 101.53 212.498 115.154 199.55 148.226C186.628 181.298 194.428 194.012 194.428 194.012C194.428 194.012 149.838 158.34 190.32 101.53Z" fill="#BBD071"/>
    <path d="M226.85 96.668C226.85 96.668 249.288 119.6 223.886 155.272C198.51 190.944 204.048 208.494 204.048 208.494C204.048 208.494 161.382 152.49 226.85 96.668Z" fill="#97A33B"/>
    <path d="M196.248 198.172C183.534 201.682 192.218 164.008 210.756 151.216C229.32 138.424 246.532 136.11 256.62 124.358C256.62 124.358 258.882 180.908 196.248 198.172Z" fill="#49763A"/>
    <path d="M137.93 112.528C137.15 109.356 135.928 106.34 134.316 103.558L138.138 97.942L132.964 92.664L127.816 87.36L122.096 91.078C119.366 89.414 116.376 88.14 113.204 87.282L111.93 80.6L104.546 80.522L97.162 80.444L95.758 87.1C92.586 87.88 89.57 89.102 86.788 90.714L81.146 86.84L75.868 92.014L70.59 97.188L74.308 102.908C72.644 105.638 71.37 108.628 70.512 111.8L63.83 113.074L63.752 120.458L63.674 127.842L70.33 129.246C71.11 132.418 72.332 135.434 73.944 138.216L70.122 143.832L75.296 149.11L80.47 154.388L86.19 150.67C88.92 152.334 91.91 153.608 95.082 154.466L96.356 161.148L103.74 161.226L111.124 161.304L112.528 154.648C115.7 153.868 118.716 152.646 121.498 151.034L127.114 154.856L132.34 149.76L137.618 144.586L133.9 138.866C135.564 136.136 136.838 133.146 137.696 129.974L144.378 128.7L144.456 121.316L144.534 113.932L137.93 112.528ZM103.896 139.022C93.886 138.918 85.852 130.702 85.956 120.692C86.06 110.682 94.276 102.648 104.286 102.752C114.296 102.856 122.33 111.072 122.226 121.082C122.122 131.118 113.906 139.126 103.896 139.022Z" fill="url(#paint0_linear)"/>
    <path d="M187.538 150.228C188.552 147.472 189.15 144.638 189.332 141.804L194.974 139.542L193.778 133.042L192.582 126.542L186.498 126.438C185.302 123.838 183.742 121.394 181.818 119.184L184.21 113.594L178.776 109.85L173.342 106.106L169 110.344C166.244 109.33 163.41 108.732 160.576 108.55L158.314 102.908L151.814 104.104L145.314 105.3L145.21 111.384C142.61 112.58 140.166 114.14 137.956 116.064L132.366 113.672L128.648 119.08L124.904 124.514L129.116 128.882C128.102 131.638 127.504 134.472 127.322 137.306L121.68 139.568L122.876 146.068L124.072 152.568L130.156 152.672C131.352 155.272 132.912 157.716 134.836 159.926L132.444 165.516L137.878 169.26L143.312 173.004L147.68 168.792C150.436 169.806 153.27 170.404 156.104 170.586L158.366 176.228L164.866 175.032L171.366 173.836L171.47 167.752C174.07 166.556 176.514 164.996 178.724 163.072L184.314 165.464L188.058 160.03L191.802 154.596L187.538 150.228ZM149.136 152.88C141.778 147.81 139.932 137.722 145.002 130.364C150.072 123.006 160.16 121.16 167.518 126.23C174.876 131.3 176.722 141.388 171.652 148.746C166.582 156.104 156.494 157.95 149.136 152.88Z" fill="url(#paint1_linear)"/>
    <path d="M62.218 123.344C62.816 121.732 63.154 120.068 63.284 118.378L66.586 117.052L65.884 113.23L65.182 109.408L61.62 109.356C60.918 107.822 59.982 106.392 58.864 105.092L60.268 101.816L57.07 99.606L53.872 97.396L51.298 99.866C49.686 99.268 48.022 98.93 46.332 98.8L45.006 95.472L41.184 96.174L37.362 96.876L37.31 100.438C35.776 101.14 34.346 102.05 33.046 103.194L29.77 101.79L27.56 104.988L25.35 108.186L27.82 110.76C27.222 112.372 26.884 114.036 26.754 115.726L23.426 117.052L24.128 120.874L24.83 124.696L28.392 124.748C29.094 126.282 30.004 127.712 31.148 129.012L29.744 132.288L32.942 134.498L36.14 136.708L38.714 134.238C40.326 134.836 41.99 135.174 43.68 135.304L45.006 138.632L48.828 137.93L52.65 137.228L52.702 133.666C54.236 132.964 55.666 132.028 56.966 130.91L60.242 132.314L62.452 129.116L64.662 125.918L62.218 123.344ZM39.65 124.904C35.334 121.914 34.242 116.012 37.232 111.67C40.222 107.354 46.124 106.262 50.466 109.252C54.782 112.242 55.874 118.144 52.884 122.486C49.894 126.802 43.992 127.894 39.65 124.904Z" fill="url(#paint2_linear)"/>
    <path d="M63.622 176.566H110.11C110.032 176.02 109.954 175.162 109.876 174.356C109.434 169.52 109.148 166.296 109.148 166.296C109.148 166.296 71.006 147.42 66.846 159.848C65.494 163.826 64.558 168.818 63.908 174.382C63.804 175.214 63.7 176.046 63.622 176.566Z" fill="#6871B5"/>
    <path d="M102.96 112.346C102.96 112.346 105.092 124.982 106.808 133.354C107.51 136.734 108.134 139.412 108.524 140.27C109.018 141.336 112.996 145.626 117.884 150.644C126.464 159.458 137.774 170.586 137.774 170.586L142.194 162.188C142.194 162.188 132.132 150.384 125.32 142.532C122.174 138.892 119.704 136.084 119.262 135.694C117.832 134.42 116.194 121.862 113.854 111.488C111.54 101.14 106.86 95.42 106.86 95.42L102.96 112.346Z" fill="#FFC656"/>
    <path d="M117.884 150.618C126.464 159.432 137.774 170.56 137.774 170.56L142.194 162.162C142.194 162.162 132.132 150.358 125.32 142.506C123.214 143.52 119.392 145.964 117.884 150.618Z" fill="#EFA986"/>
    <path d="M64.402 168.922C64.09 170.04 107.432 170.508 107.432 170.508C107.432 170.508 105.586 156.988 104.546 153.842C103.506 150.696 107.536 131.846 108.212 125.71C108.758 120.796 110.11 98.774 106.86 95.394C103.48 91.884 91.26 88.192 91.26 88.192L73.45 88.842C73.45 88.842 70.512 89.466 68.406 90.428C66.3 91.39 54.288 95.68 52.338 101.686C50.388 107.692 64.324 126.984 64.324 126.984C64.324 126.984 64.35 127.842 64.402 129.272C64.454 131.17 64.532 134.056 64.61 137.176C64.714 141.232 64.792 145.678 64.792 148.928C64.766 156.572 64.714 167.804 64.402 168.922Z" fill="#FFC656"/>
    <path d="M86.372 49.478C86.372 49.478 101.816 45.994 98.306 65.442C94.77 84.89 91.052 86.424 81.744 82.394C72.41 78.364 73.242 65.91 72.774 59.8C72.28 53.69 81.432 49.712 86.372 49.478Z" fill="#EFA986"/>
    <path d="M90.454 93.158C90.454 93.158 83.616 100.412 72.8 93.808C72.8 93.808 75.218 78.078 73.944 70.408C72.67 62.738 88.062 82.29 88.062 82.29C87.854 82.394 87.724 83.122 87.698 84.162C87.672 85.046 87.724 86.138 87.854 87.282C88.166 89.856 88.946 92.534 90.454 93.158Z" fill="#EFA986"/>
    <path d="M78.078 62.868C77.87 61.152 74.49 60.528 74.204 63.102C73.944 65.676 75.738 70.2 77.038 69.758C78.312 69.316 78.364 65.234 78.078 62.868Z" fill="#EFA986"/>
    <path d="M73.502 69.784C73.502 69.784 73.892 63.648 76.128 63.466C78.364 63.284 78.702 65.754 78.702 65.754L80.964 66.17C80.964 66.17 80.262 60.788 82.472 59.852C84.708 58.916 96.954 62.816 98.748 61.23C100.542 59.644 99.71 48.75 96.46 47.268C93.21 45.786 84.266 42.432 77.688 46.878C77.688 46.878 72.566 46.306 71.812 50.414C71.084 54.574 72.124 66.716 73.502 69.784Z" fill="#3B4048"/>
    <path d="M87.854 87.308C76.7 83.876 75.842 77.142 75.842 77.038C79.508 83.356 87.698 84.188 87.698 84.188C87.646 85.072 87.698 86.164 87.854 87.308Z" fill="#A77961"/>
    <path d="M68.224 90.506C68.224 90.506 76.388 106.782 89.596 105.716C102.804 104.676 91.858 88.322 91.26 88.166C90.584 88.01 77.714 84.812 68.224 90.506Z" fill="#EFA986"/>
    <path d="M50.284 151.346C50.882 152.048 58.838 155.246 67.834 158.704C80.106 163.436 93.964 167.908 93.964 167.908L97.11 161.148C97.11 161.148 82.602 153.27 72.8 147.732C68.172 145.132 64.584 143.026 64.09 142.558C62.504 141.05 62.114 138.658 63.258 134.446C64.428 130.26 67.08 110.968 67.392 108.706C67.704 106.444 66.638 100.464 61.022 100.152C55.406 99.84 52.52 101.452 52.52 101.452C52.52 101.452 51.116 102.05 50.05 115.7C49.01 129.376 48.854 149.708 50.284 151.346Z" fill="#FFC656"/>
    <path d="M64.402 129.272C64.454 131.17 64.532 134.056 64.61 137.176C70.096 123.708 66.924 112.97 66.872 112.788C67.47 116.454 64.428 129.09 64.402 129.272Z" fill="#C69940"/>
    <path d="M106.782 133.328C107.484 136.708 108.108 139.386 108.498 140.244C110.37 131.17 108.68 119.548 108.68 119.548C108.446 125.086 106.782 133.328 106.782 133.328Z" fill="#C69940"/>
    <path d="M67.834 158.704C80.106 163.436 97.422 167.388 97.422 167.388L99.866 161.486C99.866 161.486 82.602 153.27 72.8 147.732C72.8 147.758 69.238 149.474 67.834 158.704Z" fill="#EFA986"/>
    <path d="M99.866 161.486C99.866 161.486 103.454 160.914 105.95 160.342C107.874 159.9 112.658 160.524 113.854 161.746C115.076 162.968 118.95 171.574 119.678 172.094C120.406 172.614 119.314 173.836 118.014 173.212C118.014 173.212 117.052 174.902 114.14 173.498C111.228 172.094 109.044 171.08 107.51 170.534C105.976 169.988 97.11 167.258 97.11 167.258C97.11 167.258 97.578 160.576 99.866 161.486Z" fill="#EFA986"/>
    <path d="M112.58 162.5C112.58 162.5 114.894 163.618 115.492 164.112C116.09 164.606 118.534 166.426 119.132 166.868C119.73 167.31 118.248 168.532 113.88 166.634C109.512 164.736 112.58 162.5 112.58 162.5Z" fill="#EFA986"/>
    <path d="M112.788 137.228L108.758 174.616H161.694L165.724 137.228H112.788Z" fill="#254480"/>
    <path d="M104.547 174.628H113.387V171.274H104.547V174.628Z" fill="#254480"/>
    <path d="M54.6 73.372L39.13 72.176L38.948 81.224L52.858 81.38L54.6 73.372Z" fill="#C5C6CE"/>
    <path d="M53.924 72.514L39.13 72.176L38.948 81.224L52.858 81.38L53.924 72.514Z" fill="#E2E3ED"/>
    <path d="M54.288 61.984C54.288 61.984 53.924 62.374 53.794 62.192C53.664 62.01 53.508 61.776 53.508 61.776L54.288 61.984Z" fill="#EFAA87"/>
    <path d="M55.043 58.292L54.575 60.398C54.705 60.216 54.965 59.956 55.043 60.034C55.147 60.164 54.783 60.71 54.705 60.97C54.653 61.204 54.549 61.542 54.471 61.75L54.289 62.088L53.535 61.776C53.535 61.776 53.587 60.268 53.613 59.93C53.665 59.384 54.731 58.214 54.835 58.188C55.017 58.188 55.043 58.292 55.043 58.292Z" fill="#EFAA87"/>
    <path d="M39.65 94.9C39.65 94.9 39.442 95.42 39.26 95.602C39.078 95.81 38.376 96.148 38.376 96.772C38.376 97.422 39.52 97.266 39.988 97.24C40.456 97.214 40.482 96.876 40.69 96.512C40.898 96.148 41.08 96.2 41.106 95.914C41.158 95.628 40.976 94.952 40.976 94.952L39.65 94.9Z" fill="#2E335F"/>
    <path d="M49.764 98.202C49.764 98.202 50.388 98.878 51.038 99.034C51.688 99.19 52.13 99.372 52.13 99.736C52.13 100.126 50.284 100.36 49.53 99.944C48.438 99.346 48.334 99.528 48.204 99.242C48.074 98.956 48.36 98.202 48.36 98.098C48.36 97.968 49.764 98.202 49.764 98.202Z" fill="#2E335F"/>
    <path d="M48.308 78.962C48.308 78.962 48.906 83.798 49.166 85.436C49.452 87.36 49.556 88.92 49.634 89.908C49.738 91.156 49.868 97.682 49.946 98.046C50.024 98.41 48.204 98.202 48.204 98.202C48.204 98.202 46.982 89.7 46.67 88.374C46.384 87.126 45.578 82.056 45.292 82.368C45.006 82.706 41.626 86.372 41.418 87.334C41.21 88.296 41.054 94.848 41.054 94.848C41.054 94.848 39.754 95.472 39.39 95.16C39.39 95.16 38.61 89.414 38.766 87.594C38.818 86.892 40.872 81.068 42.094 78C42.692 76.44 48.308 78.962 48.308 78.962Z" fill="#404785"/>
    <path d="M46.5139 67.366C46.5139 67.366 48.2819 67.756 48.4639 67.938C48.6979 68.146 49.0619 70.07 49.0879 70.616C49.1139 71.162 48.8539 73.398 48.5939 74.23C48.3599 75.062 48.3599 79.43 48.4379 80.106C48.4379 80.106 44.9019 80.756 41.4179 80.262C41.4179 80.262 42.0679 76.492 41.9379 75.348C41.7819 73.892 41.3919 70.486 41.3919 70.486C41.3919 70.486 41.8859 68.224 42.1979 67.964C42.5099 67.704 44.6679 67.314 44.6679 67.314L46.5139 67.366Z" fill="#FDCDA3"/>
    <path d="M45.838 61.906C45.838 61.906 47.97 61.152 47.788 63.96C47.632 66.768 47.112 67.054 45.734 66.638C44.356 66.222 44.252 64.454 44.07 63.596C43.914 62.738 45.136 62.01 45.838 61.906Z" fill="#EFA986"/>
    <path d="M46.852 67.808C46.852 67.808 45.734 68.692 44.694 67.288C44.694 67.288 44.746 66.144 44.434 65.104C44.122 64.038 46.644 66.534 46.644 66.534C46.618 66.56 46.618 66.664 46.618 66.794C46.618 66.924 46.644 67.08 46.696 67.236C46.774 67.574 46.774 67.522 46.852 67.808Z" fill="#EFA986"/>
    <path d="M44.356 65C44.356 65 44.356 64.246 44.668 64.194C44.98 64.116 45.136 64.558 45.136 64.558H45.396C45.396 64.558 45.188 63.804 45.474 63.622C45.786 63.44 47.554 63.622 47.788 63.362C48.022 63.102 47.71 61.594 47.216 61.438C46.722 61.282 45.396 60.97 44.564 61.698C44.564 61.698 43.81 61.698 43.81 62.608C43.81 63.18 44.122 64.584 44.356 65Z" fill="#173342"/>
    <path d="M46.696 67.236C45.058 66.95 44.824 66.014 44.824 65.988C45.448 66.82 46.618 66.794 46.618 66.794C46.644 66.924 46.67 67.08 46.696 67.236Z" fill="#A77961"/>
    <path d="M45.032 63.856C44.954 63.596 44.408 63.622 44.46 64.038C44.512 64.428 44.928 65.052 45.11 64.922C45.292 64.818 45.162 64.194 45.032 63.856Z" fill="#EFA986"/>
    <path d="M44.1219 67.392C44.1219 67.392 45.084 69.42 46.566 69.264C48.022 69.108 47.19 67.704 47.06 67.496C47.034 67.47 46.176 66.898 44.1219 67.392Z" fill="#EFA986"/>
    <path d="M53.352 65.884C53.768 65.078 54.73 61.984 54.73 61.984L53.456 61.698C53.456 61.698 52.754 63.258 52.416 64.324C52.26 64.844 52.026 65.364 51.974 65.442C51.922 65.52 49.712 67.158 49.478 67.262C49.244 67.392 48.308 67.678 47.866 68.12C47.424 68.562 47.632 69.16 47.632 69.16C48.542 70.356 50.284 68.822 50.284 68.822C50.284 68.822 52.78 67.002 53.352 65.884Z" fill="#FDCDA3"/>
    <path d="M51.194 68.146C51.194 68.146 49.14 70.33 49.062 71.162C49.01 71.734 48.672 69.394 48.672 69.394L51.194 68.146Z" fill="#FDCDA3"/>
    <path d="M52.9913 71.8235L37.8089 71.6414L37.6941 81.2085L52.8766 81.3906L52.9913 71.8235Z" fill="#6660AB"/>
    <path d="M40.0399 81.718C40.0399 81.718 39.9619 81.536 39.9879 81.458C39.9879 81.458 40.0139 81.302 40.0139 81.172C40.0139 81.146 40.0139 81.094 40.0139 81.068C40.0139 80.99 39.9879 80.782 40.0399 80.574C40.0919 80.366 40.3519 79.612 40.3519 79.612L41.0279 79.716L41.626 79.638C41.626 79.638 42.042 80.938 42.016 81.146C42.016 81.172 42.016 81.198 42.016 81.198C41.99 81.38 41.886 81.484 41.834 81.588C41.834 81.614 41.678 81.926 41.6 81.978C41.47 82.03 41.34 82.004 41.288 81.926C41.288 81.926 41.028 82.004 40.8459 81.926C40.8459 81.926 40.5859 82.004 40.4039 81.848C40.4039 81.796 40.1179 81.848 40.0399 81.718Z" fill="#EFAA88"/>
    <path d="M43.186 67.886C43.42 67.99 43.654 68.536 43.446 69.628C43.238 70.798 42.848 71.292 42.692 71.578C42.536 71.838 41.548 73.658 41.548 73.944C41.548 74.646 41.522 76.518 41.522 76.648C41.548 76.882 41.678 79.69 41.678 79.69L40.196 80.028C40.196 80.028 39.936 76.856 39.832 75.894C39.78 75.504 39.676 74.464 39.832 73.398C39.962 72.384 40.742 70.148 40.82 69.992C40.924 69.862 41.678 67.288 43.186 67.886Z" fill="#FDCDA3"/>
    <path d="M21.372 106.054L14.04 94.224L17.81 96.018L21.372 106.054Z" fill="#D7D6D6"/>
    <path d="M21.372 106.054L21.008 98.982L18.304 97.396L21.372 106.054Z" fill="#E9E8E8"/>
    <path d="M15.73 96.954L14.768 98.176L21.372 106.054L15.73 96.954Z" fill="#C2C2C2"/>
    <g opacity="0.61">
        <path opacity="0.61" d="M58.162 129.506V161.33C58.162 163.436 56.446 165.152 54.34 165.152H7.02C4.914 165.152 3.198 163.436 3.198 161.33V129.506C3.198 127.4 4.914 125.71 7.02 125.71H54.34C56.472 125.71 58.162 127.4 58.162 129.506Z" fill="#DAE8F4"/>
    </g>
    <path d="M28.7051 135.668C27.0151 130.962 22.5171 128.05 17.7591 128.206C16.6151 128.232 15.4451 128.466 14.3011 128.856C10.8431 130.104 8.34708 132.86 7.33308 136.11C6.63108 138.372 6.63108 140.868 7.48908 143.26C7.56708 143.494 7.67108 143.728 7.77508 143.962C8.21708 145.002 8.81508 145.938 9.51708 146.77C12.4551 150.228 17.3691 151.71 21.8931 150.072C27.7431 147.966 30.8111 141.518 28.7051 135.668ZM20.9311 147.42C17.5251 148.642 13.8591 147.55 11.6491 144.95C11.1291 144.326 10.6871 143.624 10.3491 142.844C10.2711 142.662 10.1931 142.506 10.1411 142.324C9.49108 140.53 9.49108 138.658 10.0371 136.968C10.7911 134.524 12.6631 132.47 15.2631 131.534C16.1211 131.222 17.0051 131.066 17.8631 131.04C21.4251 130.936 24.8051 133.094 26.0791 136.656C27.6131 140.998 25.3251 145.834 20.9311 147.42Z" fill="#85BEE7"/>
    <path d="M10.036 136.942L7.332 136.11C8.346 132.86 10.842 130.104 14.3 128.856C15.444 128.44 16.614 128.232 17.758 128.206L17.836 131.014C16.978 131.04 16.094 131.196 15.236 131.508C12.662 132.418 10.79 134.498 10.036 136.942Z" fill="#1A5A8D"/>
    <path d="M10.348 142.844L7.74801 143.962C7.64401 143.728 7.56601 143.494 7.46201 143.26C6.60401 140.868 6.60401 138.372 7.30601 136.11L10.01 136.942C9.49001 138.632 9.49001 140.504 10.114 142.298C10.192 142.48 10.27 142.662 10.348 142.844Z" fill="#2274B5"/>
    <path d="M9.49002 146.77C8.78802 145.938 8.19002 145.002 7.74802 143.962L10.348 142.844C10.686 143.624 11.128 144.326 11.648 144.95L9.49002 146.77Z" fill="#5CA4DA"/>
    <path d="M10.192 162.968C12.48 164.06 15.132 163.488 16.796 161.72C17.186 161.304 17.524 160.81 17.81 160.238C18.616 158.548 18.512 156.676 17.706 155.142C17.16 154.076 16.25 153.192 15.08 152.62C14.976 152.568 14.846 152.516 14.716 152.464C14.17 152.256 13.624 152.126 13.078 152.074C10.79 151.892 8.50201 153.114 7.46201 155.324C6.13601 158.21 7.35801 161.616 10.192 162.968ZM8.78801 155.974C9.56801 154.31 11.284 153.4 13 153.53C13.416 153.556 13.832 153.66 14.222 153.816C14.3 153.842 14.404 153.894 14.482 153.92C15.366 154.336 16.016 155.012 16.432 155.792C17.03 156.936 17.108 158.34 16.51 159.614C16.302 160.03 16.068 160.394 15.756 160.732C14.508 162.058 12.532 162.474 10.816 161.668C8.68401 160.68 7.77401 158.106 8.78801 155.974Z" fill="#74B2E1"/>
    <path d="M16.432 155.818L17.706 155.142C18.512 156.676 18.616 158.548 17.81 160.238C17.55 160.784 17.212 161.278 16.796 161.72L15.756 160.732C16.068 160.42 16.302 160.03 16.51 159.614C17.108 158.392 17.03 156.962 16.432 155.818Z" fill="#1A5A8D"/>
    <path d="M14.222 153.816L14.742 152.49C14.872 152.542 14.976 152.594 15.106 152.646C16.276 153.192 17.16 154.102 17.732 155.168L16.458 155.844C16.042 155.038 15.366 154.362 14.508 153.972C14.404 153.894 14.3 153.868 14.222 153.816Z" fill="#2274B5"/>
    <path d="M13.104 152.126C13.65 152.178 14.196 152.308 14.742 152.516L14.222 153.842C13.832 153.686 13.416 153.582 13 153.556L13.104 152.126Z" fill="#5CA4DA"/>
    <g opacity="0.79">
        <path opacity="0.79" d="M58.162 129.506V161.33C58.162 163.436 56.446 165.152 54.34 165.152H33.384V125.71H54.34C56.472 125.71 58.162 127.4 58.162 129.506Z" fill="#98C4E9"/>
    </g>
    <g opacity="0.62">
        <path opacity="0.62" d="M54.782 131.794H36.764C36.66 131.794 36.556 131.716 36.556 131.586V130C36.556 129.896 36.634 129.792 36.764 129.792H54.782C54.886 129.792 54.99 129.87 54.99 130V131.612C54.99 131.716 54.912 131.794 54.782 131.794Z" fill="white"/>
    </g>
    <g opacity="0.62">
        <path opacity="0.62" d="M54.782 136.11H36.764C36.66 136.11 36.556 136.032 36.556 135.902V134.29C36.556 134.186 36.634 134.082 36.764 134.082H54.782C54.886 134.082 54.99 134.16 54.99 134.29V135.902C54.99 136.006 54.912 136.11 54.782 136.11Z" fill="#4591CE"/>
    </g>
    <g opacity="0.62">
        <path opacity="0.62" d="M54.34 161.694H37.258C36.894 161.694 36.608 161.408 36.608 161.044V139.698C36.608 139.334 36.894 139.048 37.258 139.048H54.34C54.704 139.048 54.99 139.334 54.99 139.698V161.044C54.99 161.408 54.704 161.694 54.34 161.694Z" fill="#4591CE"/>
    </g>
    <path d="M28.054 155.454H20.644C20.54 155.454 20.436 155.35 20.436 155.246V153.582C20.436 153.478 20.54 153.374 20.644 153.374H28.054C28.158 153.374 28.262 153.478 28.262 153.582V155.246C28.262 155.376 28.158 155.454 28.054 155.454Z" fill="#74B2E1"/>
    <path d="M28.054 158.86H20.644C20.54 158.86 20.436 158.756 20.436 158.652V156.988C20.436 156.884 20.54 156.78 20.644 156.78H28.054C28.158 156.78 28.262 156.884 28.262 156.988V158.652C28.262 158.756 28.158 158.86 28.054 158.86Z" fill="#5CA4DA"/>
    <path d="M28.054 162.24H20.644C20.54 162.24 20.436 162.136 20.436 162.032V160.368C20.436 160.264 20.54 160.16 20.644 160.16H28.054C28.158 160.16 28.262 160.264 28.262 160.368V162.032C28.262 162.162 28.158 162.24 28.054 162.24Z" fill="#2274B5"/>
    <path d="M166.14 174.538H22.256V176.826H166.14V174.538Z" fill="#FCB857"/>
    <path d="M44.798 144.95C44.798 144.95 44.46 144.352 45.006 142.766C45.526 141.232 47.32 141.362 47.892 142.35C48.464 143.338 48.282 143.936 47.424 145.054C46.592 146.172 45.162 145.444 44.798 144.95Z" fill="#EFA986"/>
    <path d="M48.958 172.224C48.958 172.224 49.036 172.874 49.062 172.978C49.062 173.082 50.05 172.926 50.05 172.926L50.128 172.146C50.128 172.146 49.088 172.146 48.958 172.224Z" fill="#EFA986"/>
    <path d="M49.062 172.9C49.062 172.9 48.75 173.29 48.464 173.472C48.152 173.654 47.684 173.706 47.528 173.888C47.398 174.018 47.06 174.564 48.308 174.564C49.556 174.564 50.154 174.642 50.284 174.434C50.414 174.226 50.102 172.874 50.102 172.874C50.102 172.874 49.764 172.926 49.062 172.9Z" fill="#21253B"/>
    <path d="M42.198 172.224C42.198 172.224 42.276 172.874 42.302 172.978C42.302 173.082 43.29 172.926 43.29 172.926L43.368 172.146C43.368 172.146 42.328 172.146 42.198 172.224Z" fill="#EFA986"/>
    <path d="M42.302 172.9C42.302 172.9 41.99 173.29 41.704 173.472C41.418 173.654 40.3 173.784 40.118 173.966C39.988 174.096 39.78 174.616 41.522 174.564C42.77 174.538 43.368 174.642 43.498 174.434C43.628 174.226 43.316 172.874 43.316 172.874C43.316 172.874 42.926 172.926 42.302 172.9Z" fill="#21253B"/>
    <path d="M48.646 156C48.646 156 49.14 157.56 49.088 158.886C49.01 160.238 49.348 161.694 49.478 163.098C49.634 164.658 50.232 168.35 50.258 169.208C50.284 170.04 50.154 172.718 50.154 172.718L48.932 172.744C48.932 172.744 47.918 166.27 47.658 165.62C47.398 164.97 46.098 160.264 46.046 159.718C45.994 159.198 48.646 156 48.646 156Z" fill="#2E314F"/>
    <path d="M43.602 155.844C43.602 155.844 42.874 159.952 42.77 160.784C42.692 161.616 42.614 164.762 42.588 165.282C42.536 165.802 42.302 171.99 42.068 172.77H43.42C43.42 172.77 44.798 168.272 44.798 166.14C44.798 164.008 45.708 161.512 46.306 160.082C46.904 158.678 48.256 158.652 48.62 156.026C48.646 156 44.096 155.012 43.602 155.844Z" fill="#2E314F"/>
    <path d="M45.292 145.366C45.292 145.366 45.448 145.808 45.292 146.12C45.136 146.432 47.242 146.25 47.242 146.25C47.242 146.25 47.138 145.6 47.424 145.054C47.684 144.508 45.292 145.366 45.292 145.366Z" fill="#EFA986"/>
    <path d="M48.75 156.338C48.75 156.338 47.996 157.118 43.55 156.208L43.628 155.818L48.672 156L48.75 156.338Z" fill="#2C3B57"/>
    <path d="M44.98 146.224C44.98 146.224 44.2 146.302 43.992 146.354C43.758 146.406 42.276 146.094 41.964 146.068C41.652 146.042 40.352 145.132 40.3 145.028C40.248 144.924 39.494 143.026 39.468 142.61C39.416 142.194 38.74 142.402 38.792 142.688C38.896 143.208 39.052 144.508 39.13 144.872C39.208 145.288 39.442 146.198 39.572 146.302C39.702 146.406 40.872 147.316 42.016 147.68C43.16 148.07 44.044 148.616 44.044 148.616H49.712C49.712 148.616 51.922 145.47 51.974 144.976C52.026 144.508 50.44 141.336 50.102 140.946C49.79 140.556 49.322 141.076 49.322 141.076C49.322 141.076 50.284 143.858 50.388 144.248C50.518 144.638 49.296 146.38 48.958 146.38C48.62 146.38 47.762 146.276 47.372 146.25C46.982 146.224 46.592 146.068 46.592 146.068L44.98 146.224Z" fill="#EFA986"/>
    <path d="M42.536 148.33C42.536 148.33 43.238 148.798 43.29 149.578C43.342 150.358 43.602 151.632 43.732 152.048C43.862 152.464 43.628 155.584 43.602 155.792C43.576 156.026 47.996 156.546 48.672 156.026C48.672 156.026 48.854 153.114 48.932 152.308C49.01 151.476 49.4 149.5 49.53 149.214C49.66 148.954 51.194 146.796 51.246 146.51C51.246 146.51 50.44 145.236 49.868 145.236C49.868 145.236 48.958 146.302 48.672 146.354C48.386 146.406 46.566 146.068 46.566 146.068C46.566 146.068 46.358 146.328 45.318 146.016C45.318 146.016 44.07 146.146 43.862 146.172C43.628 146.198 41.912 145.964 41.912 145.964C41.912 145.964 41.236 147.134 41.34 147.706L42.536 148.33Z" fill="#FFC656"/>
    <path d="M39.494 142.844C39.494 142.844 39.338 142.116 39.52 141.908C39.624 141.778 39.884 141.466 39.91 141.414C39.936 141.362 40.196 141.206 40.196 141.128C40.196 141.05 39.936 140.946 39.702 141.18C39.468 141.388 39.312 141.44 39.234 141.414C39.13 141.388 39 140.608 39 140.426C39 140.244 38.922 139.724 38.792 139.75C38.662 139.776 38.688 140.01 38.688 140.01C38.688 140.01 38.558 139.62 38.454 139.698C38.35 139.776 38.376 139.958 38.376 139.958C38.376 139.958 38.194 139.75 38.142 139.906C38.09 140.062 38.142 140.192 38.142 140.192C38.142 140.192 37.96 140.088 37.96 140.348C37.96 140.582 38.012 141.31 38.142 141.57C38.272 141.83 38.74 142.506 38.818 142.766C38.844 143.026 39.494 142.844 39.494 142.844Z" fill="#EFA986"/>
    <path d="M49.478 141.544C49.478 141.544 48.958 140.66 48.776 140.582C48.594 140.504 48.334 140.452 48.126 140.296C47.892 140.14 47.606 140.01 47.632 139.958C47.658 139.906 47.918 139.932 48.178 140.036C48.464 140.166 48.594 140.088 48.62 140.036C48.646 139.984 48.464 139.516 48.386 139.412C48.308 139.308 47.71 138.71 47.788 138.606C47.892 138.528 48.282 138.84 48.334 138.918C48.334 138.918 48.022 138.268 48.152 138.242C48.282 138.216 48.49 138.45 48.49 138.45C48.49 138.45 48.464 137.878 49.062 138.788C49.062 138.788 48.932 138.476 49.114 138.58C49.296 138.684 49.478 139.256 49.53 139.542C49.582 139.828 49.842 140.738 50.076 140.946C50.336 141.18 49.478 141.544 49.478 141.544Z" fill="#EFA986"/>
    <path d="M47.424 145.054C47.424 145.054 47.138 145.08 46.566 144.872C45.968 144.664 45.942 143.624 45.812 143.754C45.552 144.014 45.292 143.832 45.214 143.676C45.214 143.676 45.5 143.286 45.37 143.104C45.24 142.922 45.006 142.792 45.006 142.792C45.006 142.792 45.422 140.79 47.32 141.7C49.504 142.792 47.424 145.054 47.424 145.054Z" fill="#363B3D"/>
    <path d="M45.292 146.12L45.37 145.834C45.37 145.834 46.566 145.808 47.242 145.912L47.32 146.25C47.294 146.25 46.462 146.64 45.292 146.12Z" fill="#D5D8E8"/>
    <path d="M45.578 143.494C45.682 143.312 46.098 143.182 46.15 143.702C46.176 144.092 45.422 144.534 45.422 144.17C45.422 143.806 45.526 143.624 45.578 143.494Z" fill="#EFA986"/>
    <path d="M39.468 142.662C39.468 142.662 39.026 142.662 38.818 142.87C38.818 142.87 38.792 143 38.844 143.078C38.844 143.078 39.234 142.896 39.52 142.87C39.52 142.87 39.52 142.714 39.468 142.662Z" fill="#E45354"/>
    <path d="M38.948 142.792C38.896 142.896 38.948 143 39.052 143.026C39.156 143.078 39.26 143.026 39.286 142.922C39.338 142.818 39.286 142.714 39.182 142.688C39.104 142.636 39 142.688 38.948 142.792Z" fill="#363B3D"/>
    <path d="M172.77 166.296C172.77 166.296 160.446 176.384 165.412 185.328C170.378 194.272 173.55 186.992 173.55 186.992C173.55 186.992 177.242 188.422 172.432 177.476C170.144 172.354 172.77 166.296 172.77 166.296Z" fill="#BBD071"/>
    <path d="M152.386 152.854C152.386 152.854 142.818 162.526 153.504 177.71C164.19 192.894 161.798 200.304 161.798 200.304C161.798 200.304 180.024 176.67 152.386 152.854Z" fill="#97A33B"/>
    <path d="M165.126 195.936C170.508 197.444 166.92 181.454 159.094 175.994C151.268 170.534 143.962 169.52 139.724 164.502C139.698 164.502 138.606 188.474 165.126 195.936Z" fill="#49763A"/>
    <path d="M253.838 218.556H123.344V220.844H253.838V218.556Z" fill="#FCB857"/>
    <path d="M119.34 232.596C119.34 232.596 118.118 234.676 117.598 235.014C116.896 235.482 117.338 235.924 117.676 235.95C118.014 235.95 119.704 236.08 120.068 235.638C120.432 235.222 120.64 233.948 120.978 233.61C121.316 233.272 121.68 231.946 120.796 231.634C120.042 231.348 119.34 232.596 119.34 232.596Z" fill="#FFCB57"/>
    <path d="M119.886 231.686C119.886 231.686 118.482 234.104 118.248 234.468C118.014 234.832 118.69 234.832 119.132 234.65C119.574 234.468 120.64 232.752 120.796 232.414C120.978 232.024 120.822 231.608 120.822 231.608L119.886 231.686Z" fill="#C98E72"/>
    <path d="M121.29 232.986L120.978 235.482H120.796L120.848 233.688L121.29 232.986Z" fill="#FFCB57"/>
    <path d="M131.456 232.596C131.456 232.596 130.234 234.676 129.714 235.014C129.012 235.482 129.454 235.924 129.792 235.95C130.13 235.95 131.82 236.08 132.184 235.638C132.548 235.222 132.756 233.948 133.094 233.61C133.432 233.272 133.822 231.92 132.912 231.634C132.158 231.374 131.456 232.596 131.456 232.596Z" fill="#FFCB57"/>
    <path d="M131.924 231.686C131.924 231.686 130.598 234.104 130.364 234.468C130.13 234.832 130.806 234.832 131.248 234.65C131.69 234.468 132.756 232.752 132.912 232.414C133.094 232.024 132.938 231.608 132.938 231.608L131.924 231.686Z" fill="#DF9E7D"/>
    <path d="M133.406 232.986L133.068 235.482H132.912L132.964 233.688L133.406 232.986Z" fill="#FFCB57"/>
    <path d="M136.864 213.772L125.814 218.816C125.814 218.816 124.592 219.206 124.436 220.584C123.994 224.848 120.796 231.634 120.796 231.634C119.782 232.128 119.86 231.712 119.86 231.712C120.51 229.632 121.29 221.078 121.576 217.646C121.628 216.918 121.68 216.424 121.68 216.268C121.68 216.164 121.81 216.008 122.018 215.852C123.526 214.63 129.766 212.082 129.766 212.082C134.472 211.926 136.864 213.772 136.864 213.772Z" fill="#EFA986"/>
    <path d="M138.944 215.93C138.606 218.92 134.342 218.582 134.342 218.582H129.168C129.168 218.582 130.52 221.598 131.04 224.146C131.586 226.85 132.912 231.634 132.912 231.634C132.912 231.634 132.834 231.79 131.898 231.712C131.898 231.712 127.842 223.626 126.282 221.598C125.944 221.156 124.982 218.79 124.826 217.36C124.774 216.892 124.8 216.528 124.982 216.372C125.164 216.216 125.58 215.93 126.126 215.592C127.738 214.578 130.546 212.992 132.132 212.654C134.238 212.186 137.54 211.302 137.54 211.302C137.54 211.302 139.308 212.94 138.944 215.93Z" fill="#EFA986"/>
    <path d="M135.434 192.92C135.434 192.92 136.214 191.464 135.824 189.878C135.434 188.318 134.004 186.758 131.872 187.46C129.74 188.188 128.024 189.826 129.298 191.724C130.572 193.622 128.154 194.506 128.752 195.39C129.376 196.3 129.142 197.236 128.882 197.47C128.622 197.678 127.764 198.432 127.868 199.316C127.972 200.2 132.002 196.716 132.002 196.716C132.002 196.716 134.212 192.348 135.434 192.92Z" fill="#474341"/>
    <path d="M128.96 211.692C128.96 211.692 129.272 213.252 137.54 211.276C137.54 211.276 134.784 210.366 128.96 211.692Z" fill="#EA4747"/>
    <path d="M137.644 211.718C137.774 211.952 137.904 212.212 138.034 212.446C135.018 212.524 132.002 212.628 128.986 212.706C129.454 211.12 129.298 208.936 129.22 207.298C129.116 205.296 127.998 203.892 128.128 201.864C127.53 201.968 127.426 201.968 126.828 202.072C127.738 199.472 128.05 198.172 130.884 197.184C131.82 196.846 132.418 196.794 133.406 196.872C136.682 197.132 137.696 197.184 139.308 200.174C136.786 200.564 137.202 201.474 136.422 203.996C136.058 205.218 135.668 206.596 135.85 207.896C136.058 209.144 137.644 210.548 137.644 211.718Z" fill="#FFCB57"/>
    <path d="M132.392 197.808C133.744 197.548 133.458 196.794 133.458 196.794C133.458 196.794 133.406 196.378 133.38 195.832C133.38 195.702 133.38 195.546 133.38 195.416C133.38 195.182 133.38 194.974 133.406 194.766C133.51 193.856 130.962 194.402 130.962 194.402C130.962 194.402 131.118 196.222 130.754 196.768C130.39 197.314 131.04 198.068 132.392 197.808Z" fill="#EFA986"/>
    <path d="M134.94 196.82C134.94 196.82 132.236 199.966 131.222 200.694C131.222 200.694 130.078 199.654 130.78 196.898C130.78 196.872 132.106 196.222 134.94 196.82Z" fill="#EFA986"/>
    <path d="M134.888 189.254C134.888 189.254 136.292 191.958 134.888 194.532C133.484 197.106 130.754 193.414 130.572 192.972C130.39 192.53 129.454 190.086 131.326 189.332C133.198 188.63 134.472 188.526 134.888 189.254Z" fill="#EFA986"/>
    <path d="M134.42 190.216C134.42 190.216 135.382 191.49 135.512 192.426C135.512 192.426 135.902 190.658 134.81 188.942C133.718 187.226 130.936 188.864 130.572 189.54C130.208 190.216 129.116 190.814 130.936 193.752C130.91 193.778 134.212 191.49 134.42 190.216Z" fill="#474341"/>
    <path d="M132.158 194.818C132.158 194.818 132.392 195.364 133.354 195.858C133.354 195.728 133.354 195.572 133.354 195.442C133.354 195.416 132.704 195.338 132.158 194.818Z" fill="#A77961"/>
    <path d="M146.406 209.274C146.406 209.274 147.082 209.56 147.394 209.43C147.706 209.3 148.2 209.274 148.356 209.274C148.564 209.274 149.214 209.04 149.214 209.3C149.214 209.56 148.148 209.742 147.94 209.82C147.732 209.898 148.59 210.366 148.668 210.574C148.746 210.782 147.784 212.16 147.238 211.77C146.692 211.38 146.406 210.6 146.302 210.548C146.198 210.496 145.886 210.288 145.886 210.288L146.406 209.274Z" fill="#EFA986"/>
    <path d="M148.538 210.444C148.538 210.444 150.098 211.744 150.124 211.926C150.15 212.108 150.072 212.186 149.916 212.056C149.76 211.952 148.356 210.834 148.356 210.834C148.356 210.834 149.942 212.706 149.994 212.836C150.02 212.914 149.864 213.096 149.786 213.018C149.708 212.966 148.018 211.224 148.018 211.224C148.018 211.224 149.474 212.966 149.5 213.096C149.5 213.2 149.318 213.33 149.214 213.2C149.084 213.07 147.628 211.536 147.628 211.536C147.628 211.536 148.616 212.862 148.538 212.992C148.512 213.07 148.382 213.226 148.148 212.862C147.914 212.498 147.238 211.744 147.238 211.744L148.538 210.444Z" fill="#EFA986"/>
    <path d="M129.714 218.556H134.342C134.342 218.556 138.606 218.894 138.944 215.904C139.282 212.914 137.54 211.25 137.54 211.25C137.54 211.25 135.278 211.848 133.328 212.316C132.34 212.108 131.144 211.978 129.766 212.004C129.766 212.004 121.42 214.76 121.68 216.216C121.706 216.242 125.19 214.37 129.714 218.556Z" fill="#1F2338"/>
    <path d="M132.73 213.408L123.916 213.278L128.362 215.54L132.73 213.408Z" fill="#5F5954"/>
    <path d="M130 212.264C130 212.264 131.976 213.044 134.42 212.342L134.524 211.432L129.506 211.718L130 212.264Z" fill="#FFCB57"/>
    <path d="M128.362 215.54L132.73 213.824V213.408L128.024 215.098L128.362 215.54Z" fill="#91887E"/>
    <path d="M130.026 212.68C130.052 213.018 129.714 213.252 129.428 213.122L128.908 212.914C128.752 212.836 128.674 212.68 128.7 212.524C128.908 211.198 129.376 205.998 128.7 205.114C128.44 204.776 128.31 204.49 128.206 204.256C127.764 205.4 127.218 206.856 126.984 207.662L122.824 213.2L121.42 213.564C123.162 209.352 124.566 207.142 124.566 207.142C124.826 206.414 125.632 204.204 126.308 202.228C126.75 200.98 127.14 199.836 127.374 199.212C127.478 198.9 127.712 198.64 127.972 198.458C128.622 198.068 129.688 197.47 130.676 197.002C130.702 196.976 130.728 196.976 130.78 196.95C128.934 199.68 129.662 207.61 130.026 212.68Z" fill="#EDDAD3"/>
    <path d="M136.916 197.106C137.514 197.21 138.996 198.64 139.776 200.07C140.66 201.708 141.57 203.606 142.272 204.204C143.52 205.348 147.03 209.352 147.186 209.248C147.238 209.222 146.224 210.444 146.094 210.496C146.042 210.522 140.322 205.582 139.776 204.828C139.256 204.126 137.878 201.11 137.462 201.188C137.436 201.266 136.916 202.358 136.448 203.944C136.448 203.97 136.422 203.996 136.422 204.022C136.084 205.14 136.11 206.362 136.292 207.714C136.422 208.754 137.202 210.418 137.644 211.25C137.696 211.354 137.696 211.536 137.618 211.666C137.592 211.744 137.54 211.822 137.462 211.848L135.798 212.472L135.408 212.628C135.122 212.732 134.836 212.68 134.602 212.524C134.42 212.394 134.29 212.186 134.264 211.952C133.9 209.092 133.432 206.154 133.042 205.062C131.404 200.226 133.692 196.586 133.692 196.586C133.692 196.586 136.396 196.924 136.916 197.106Z" fill="#EDDAD3"/>
    <path d="M128.362 215.54L125.736 208.364L117.286 208.494L119.782 215.098L128.362 215.54Z" fill="#6E6760"/>
    <path d="M123.032 211.536C123.292 212.056 123.214 212.602 122.85 212.784C122.486 212.966 121.992 212.68 121.732 212.16C121.472 211.64 121.55 211.094 121.914 210.912C122.278 210.73 122.772 211.016 123.032 211.536Z" fill="#807167"/>
    <path d="M131.95 191.958C131.95 191.958 131.404 192.79 131.898 193.518C132.392 194.246 131.768 194.948 131.664 195.728C131.56 196.508 133.744 198.536 131.3 199.576C128.856 200.616 128.076 198.9 128.7 197.964C129.324 197.028 129.766 196.274 129.818 194.922C129.896 193.622 130.338 191.542 131.95 191.958Z" fill="#474341"/>
    <path d="M143.91 188.474H138.814V192.166V192.946L139.594 192.166H143.91V188.474Z" fill="#FFCB57"/>
    <path d="M11.414 85.904C11.414 85.878 11.206 85.332 10.946 84.344L11.284 84.24C11.544 85.228 11.752 85.774 11.752 85.774L11.414 85.904Z" fill="#C3BEBC"/>
    <path d="M151.32 122.044L151.242 121.706C152.256 121.446 153.296 121.134 154.31 120.796L154.414 121.134C153.374 121.472 152.334 121.784 151.32 122.044ZM157.456 120.042L157.326 119.704C158.314 119.314 159.302 118.924 160.29 118.482L160.446 118.82C159.458 119.262 158.444 119.678 157.456 120.042ZM163.358 117.442L163.202 117.13C164.164 116.662 165.1 116.142 166.036 115.622L166.218 115.934C165.256 116.454 164.294 116.948 163.358 117.442ZM168.974 114.244L168.792 113.932C169.702 113.36 170.586 112.762 171.444 112.138L171.652 112.424C170.768 113.074 169.858 113.672 168.974 114.244ZM174.226 110.526L173.992 110.24C174.824 109.564 175.656 108.888 176.462 108.186L176.696 108.446C175.916 109.174 175.084 109.85 174.226 110.526ZM179.062 106.262L178.802 106.002C179.556 105.248 180.31 104.468 181.012 103.662L181.272 103.896C180.57 104.702 179.816 105.482 179.062 106.262ZM183.326 101.426L183.04 101.218C183.69 100.36 184.314 99.476 184.886 98.618L185.198 98.826C184.626 99.658 184.002 100.568 183.326 101.426ZM186.862 96.018L186.55 95.836C187.07 94.874 187.538 93.912 187.928 92.95L188.266 93.08C187.85 94.068 187.382 95.056 186.862 96.018ZM189.384 90.064L189.046 89.96C189.358 88.946 189.618 87.88 189.826 86.866L190.19 86.944C189.956 87.984 189.696 89.024 189.384 90.064ZM190.58 83.72L190.216 83.694C190.268 83.122 190.268 82.524 190.268 81.926C190.268 81.458 190.268 80.964 190.216 80.496L190.58 80.47C190.606 80.938 190.632 81.432 190.632 81.926C190.632 82.524 190.606 83.122 190.58 83.72ZM10.192 81.224C9.98401 80.184 9.80201 79.118 9.64601 78.052L10.01 78C10.166 79.066 10.348 80.132 10.556 81.146L10.192 81.224ZM189.852 77.35C189.67 76.31 189.41 75.27 189.098 74.256L189.436 74.152C189.748 75.192 190.008 76.258 190.19 77.298L189.852 77.35ZM9.28201 74.828C9.20401 73.762 9.12601 72.67 9.10001 71.604H9.46401C9.49001 72.67 9.54201 73.736 9.64601 74.802L9.28201 74.828ZM188.006 71.24C187.616 70.33 187.174 69.42 186.68 68.51L186.602 68.38L186.914 68.198L186.992 68.328C187.486 69.238 187.954 70.174 188.344 71.084L188.006 71.24ZM9.49001 68.38L9.12601 68.354C9.17801 67.262 9.25601 66.196 9.36001 65.13L9.72401 65.156C9.59401 66.248 9.54201 67.314 9.49001 68.38ZM184.938 65.624C184.34 64.714 183.716 63.856 183.066 63.05L183.352 62.816C184.002 63.648 184.652 64.506 185.25 65.416L184.938 65.624ZM10.166 62.01L9.80201 61.958C9.98401 60.892 10.218 59.826 10.478 58.812L10.816 58.89C10.582 59.904 10.348 60.97 10.166 62.01ZM180.96 60.658C180.232 59.878 179.452 59.15 178.646 58.474L178.88 58.214C179.686 58.916 180.466 59.644 181.22 60.424L180.96 60.658ZM176.124 56.498C175.266 55.9 174.356 55.328 173.42 54.808L173.602 54.496C174.538 55.016 175.474 55.614 176.332 56.212L176.124 56.498ZM11.726 55.822L11.388 55.718C11.726 54.704 12.116 53.69 12.532 52.702L12.87 52.832C12.454 53.794 12.064 54.808 11.726 55.822ZM170.586 53.378C169.65 52.962 168.636 52.546 167.622 52.156L167.752 51.818C168.792 52.208 169.78 52.598 170.742 53.04L170.586 53.378ZM164.58 51.168C163.592 50.882 162.552 50.596 161.486 50.336L161.564 49.998C162.656 50.258 163.696 50.544 164.684 50.83L164.58 51.168ZM14.248 49.92L13.936 49.764C14.43 48.802 14.976 47.866 15.548 46.982L15.86 47.164C15.288 48.048 14.742 48.984 14.248 49.92ZM158.34 49.66C157.352 49.452 156.312 49.27 155.168 49.088L155.22 48.724C156.338 48.906 157.378 49.088 158.392 49.296L158.34 49.66ZM151.996 48.594C151.06 48.464 149.994 48.308 148.798 48.152L148.85 47.788C150.046 47.944 151.086 48.1 152.048 48.23L151.996 48.594ZM145.626 47.736H145.522C144.508 47.606 143.468 47.476 142.428 47.346L142.48 46.982C143.52 47.112 144.534 47.242 145.574 47.372H145.678L145.626 47.736ZM139.256 46.878C138.112 46.722 137.072 46.566 136.084 46.41L136.136 46.046C137.15 46.202 138.164 46.358 139.308 46.514L139.256 46.878ZM132.886 45.864C131.794 45.656 130.728 45.448 129.714 45.24L129.792 44.876C130.806 45.084 131.872 45.292 132.938 45.5L132.886 45.864ZM17.68 44.538L17.394 44.33C18.044 43.472 18.72 42.64 19.448 41.834L19.708 42.068C19.006 42.848 18.304 43.68 17.68 44.538ZM126.594 44.512C125.528 44.252 124.488 43.966 123.474 43.68L123.578 43.342C124.592 43.628 125.632 43.914 126.672 44.174L126.594 44.512ZM120.406 42.718C119.392 42.38 118.352 42.016 117.364 41.626L117.494 41.288C118.482 41.678 119.496 42.042 120.51 42.38L120.406 42.718ZM114.4 40.404C113.412 39.962 112.45 39.494 111.488 39L111.644 38.688C112.58 39.182 113.568 39.624 114.53 40.066L114.4 40.404ZM21.918 39.754L21.658 39.494C22.412 38.766 23.218 38.038 24.05 37.336L24.284 37.622C23.478 38.298 22.672 39.026 21.918 39.754ZM108.654 37.466C108.056 37.128 107.484 36.764 106.886 36.4C106.548 36.192 106.236 35.984 105.898 35.776L106.08 35.464C106.418 35.672 106.756 35.88 107.068 36.088C107.64 36.452 108.238 36.816 108.81 37.154L108.654 37.466ZM26.832 35.646L26.624 35.36C27.482 34.736 28.392 34.138 29.302 33.566L29.484 33.878C28.6 34.424 27.69 35.022 26.832 35.646ZM103.142 34.164C102.206 33.644 101.244 33.15 100.308 32.682L100.464 32.37C101.426 32.838 102.388 33.358 103.324 33.878L103.142 34.164ZM32.266 32.24L32.084 31.928C33.02 31.408 33.982 30.914 34.97 30.472L35.126 30.784C34.138 31.226 33.176 31.72 32.266 32.24ZM97.396 31.304C96.434 30.862 95.42 30.446 94.432 30.056L94.562 29.718C95.55 30.108 96.564 30.55 97.526 30.966L97.396 31.304ZM38.038 29.484L37.908 29.146C38.896 28.756 39.91 28.366 40.924 28.002L41.054 28.34C40.04 28.704 39.026 29.094 38.038 29.484ZM91.442 28.938C90.428 28.574 89.414 28.236 88.4 27.924L88.504 27.586C89.518 27.898 90.558 28.236 91.572 28.6L91.442 28.938ZM44.096 27.352L43.992 27.014C45.006 26.702 46.046 26.416 47.112 26.182L47.19 26.52C46.15 26.78 45.11 27.066 44.096 27.352ZM85.306 27.04C84.266 26.78 83.226 26.52 82.186 26.286L82.264 25.948C83.304 26.182 84.37 26.442 85.384 26.702L85.306 27.04ZM50.336 25.818L50.258 25.454C51.298 25.246 52.364 25.064 53.43 24.908L53.482 25.272C52.442 25.428 51.376 25.61 50.336 25.818ZM79.04 25.662C78 25.48 76.934 25.298 75.868 25.168L75.92 24.804C76.986 24.96 78.052 25.116 79.092 25.298L79.04 25.662ZM56.68 24.856L56.654 24.492C57.72 24.388 58.786 24.284 59.878 24.206L59.904 24.57C58.812 24.648 57.72 24.752 56.68 24.856ZM72.696 24.778C71.63 24.674 70.564 24.596 69.498 24.518L69.524 24.154C70.59 24.206 71.682 24.31 72.748 24.414L72.696 24.778ZM63.076 24.44V24.076C64.142 24.05 65.234 24.05 66.3 24.076V24.44C65.208 24.414 64.142 24.414 63.076 24.44Z" fill="#C3BEBC"/>
    <path d="M146.432 123.084L146.38 122.72C146.9 122.642 147.446 122.538 147.966 122.434L148.044 122.798C147.498 122.902 146.978 122.98 146.432 123.084Z" fill="#C3BEBC"/>
    <path d="M151.84 86.164L147.264 82.498L149.63 79.56L154.31 83.122L151.84 86.164Z" fill="#616262"/>
    <path d="M151.736 85.8L147.654 82.524L149.76 79.924L153.92 83.07L151.736 85.8Z" fill="#E0CFC8"/>
    <path d="M152.282 84.916L152.568 85.124L153.4 84.084L153.166 83.798L152.282 84.916Z" fill="#616262"/>
    <path d="M145.158 94.12C145.158 94.12 145.184 94.952 145.21 95.29C145.236 95.628 145.496 95.784 145.262 95.836C145.028 95.888 144.248 96.33 144.04 96.642C143.858 96.954 142.74 99.034 142.22 98.904C141.7 98.774 141.908 97.682 142.324 96.2C142.766 94.718 142.402 94.562 143 93.678C143.208 93.418 145.158 94.12 145.158 94.12Z" fill="#1D2133"/>
    <path d="M145.782 94.146L145.158 94.12L145.21 95.68L145.808 95.732L145.782 94.146Z" fill="#EFA986"/>
    <path d="M170.664 103.376C170.664 103.376 171.366 102.934 171.626 102.752C171.912 102.57 171.912 102.258 172.068 102.44C172.224 102.596 172.978 103.064 173.342 103.09C173.706 103.09 176.02 103.012 176.15 103.532C176.28 104.026 175.266 104.416 173.81 104.754C172.354 105.118 172.38 105.508 171.34 105.43C171.028 105.404 170.664 103.376 170.664 103.376Z" fill="#1D2133"/>
    <path d="M170.404 102.96L170.716 103.48L171.964 102.648L171.678 102.128L170.404 102.96Z" fill="#EFA986"/>
    <path d="M161.642 89.154C161.434 89.362 161.07 89.752 160.654 90.194C160.498 90.376 160.316 90.584 160.134 90.766C159.302 91.702 158.496 92.69 158.496 92.69C158.496 92.69 154.934 96.382 153.738 96.564C151.372 96.902 145.08 95.94 145.08 95.94V93.496C145.08 93.496 148.642 93.912 150.176 93.782C151.97 93.626 153.062 93.938 153.894 92.69C154.44 91.858 155.896 88.92 155.922 88.894C156.546 87.386 157.404 85.462 158.054 84.968C158.652 84.526 161.642 89.154 161.642 89.154Z" fill="#2A2C47"/>
    <path d="M168.376 93.678C168.246 92.898 166.972 90.87 166.062 89.648C164.632 87.724 163.67 86.19 163.67 86.19C163.67 86.19 157.144 86.814 157.274 87.464C157.534 88.686 160.602 90.064 161.174 90.532L162.344 91.364C162.344 91.364 163.514 92.196 164.372 92.95C165.516 93.938 165.334 94.458 166.062 95.94C166.712 97.266 170.43 103.818 170.43 103.818L172.432 102.57C172.432 102.544 168.558 94.9 168.376 93.678Z" fill="#2A2C47"/>
    <path d="M171.808 80.288C171.808 80.288 171.262 80.392 170.976 80.366C170.664 80.366 171.314 79.43 171.314 79.43L171.808 80.288Z" fill="#EFA986"/>
    <path d="M171.184 79.196C171.184 79.196 171.522 78.442 171.574 78.312C171.626 78.208 171.938 78.026 172.302 77.844C172.666 77.662 173.264 77.61 173.316 77.636C173.368 77.662 173.446 77.688 173.524 77.844C173.602 78 173.576 78.182 173.576 78.182C173.576 78.182 173.758 78.338 173.706 78.572C173.706 78.572 173.862 78.728 173.784 78.962C173.784 78.962 173.94 79.118 173.862 79.3C173.862 79.3 173.55 79.482 173.446 79.586C173.342 79.69 172.484 80.054 171.808 80.262C171.808 80.288 171.288 80.236 171.184 79.196Z" fill="#EFA986"/>
    <path d="M172.302 78.832C172.302 78.832 172.302 79.248 172.224 79.378C172.172 79.482 173.056 79.794 173.056 79.794C173.056 79.794 172.822 78.858 172.302 78.832Z" fill="#CE8C6B"/>
    <path d="M173.238 77.688C173.238 77.688 172.302 78.156 172.354 78.312C172.406 78.468 172.536 78.494 172.536 78.494L172.25 78.858C172.25 78.858 172.198 79.222 172.588 79.17C172.588 79.17 172.484 79.482 172.874 79.404C172.874 79.404 172.9 79.638 173.082 79.638C173.264 79.638 173.862 79.3 173.862 79.3C173.862 79.3 173.966 79.17 173.784 78.962C173.784 78.962 173.888 78.728 173.706 78.572C173.706 78.572 173.758 78.39 173.576 78.182C173.576 78.182 173.68 77.74 173.316 77.61C173.342 77.662 173.29 77.688 173.238 77.688Z" fill="#DC9D7C"/>
    <path d="M171.626 78.312C171.626 78.312 172.328 78.312 172.718 78.494C172.796 78.546 172.874 78.598 172.874 78.676C172.874 78.78 172.718 78.884 172.406 78.91C172.094 78.91 171.704 79.066 171.704 79.066C171.704 79.066 171.392 78.988 171.626 78.312Z" fill="#EFA986"/>
    <path d="M162.89 76.206C162.89 76.206 164.606 78.858 165.906 80.106C166.322 80.496 171.054 78.962 171.21 79.118C171.366 79.274 171.418 80.678 171.418 80.678C171.418 80.678 165.49 82.68 165.204 82.472C164.892 82.29 161.148 77.974 160.966 77.376C160.784 76.778 160.862 76.076 161.46 75.79C162.266 75.426 162.89 76.206 162.89 76.206Z" fill="#2A2C47"/>
    <path d="M164.164 74.88C164.164 74.88 164.632 76.882 164.502 78C164.398 79.118 163.254 81.926 163.176 82.524C163.098 83.148 163.67 86.164 163.67 86.164L156.832 87.204C156.832 87.204 156.832 85.436 157.092 83.33C157.352 81.224 158.132 79.56 158.418 78.39C159.354 74.334 162.812 73.788 162.812 73.788L164.164 74.88Z" fill="#D0BEB6"/>
    <path d="M167.466 70.408C167.466 70.408 167.908 71.474 167.622 71.604C167.388 71.708 167.778 72.774 167.804 72.93C167.856 73.112 167.362 73.164 167.258 73.268C167.154 73.372 166.712 74.62 166.322 74.62C165.932 74.62 164.242 73.814 163.826 73.268C163.41 72.722 163.254 70.434 163.67 69.524C164.086 68.64 166.686 68.51 167.466 70.408Z" fill="#EFA986"/>
    <path d="M165.178 74.23C165.178 74.23 165.126 74.334 165.022 74.49C164.996 74.542 164.944 74.62 164.892 74.698C164.866 74.75 164.814 74.828 164.788 74.88C164.554 75.296 164.294 75.816 164.242 76.076C164.138 76.57 163.02 73.814 163.02 73.814C163.02 73.814 163.826 72.41 164.476 70.694C165.152 69.004 165.178 74.23 165.178 74.23Z" fill="#EFA986"/>
    <path d="M167.544 70.642C167.544 70.642 168.22 69.602 167.284 68.666C166.348 67.73 164.32 68.978 164.112 69.004C163.904 69.03 162.682 69.004 163.072 71.162C163.41 73.06 163.488 72.982 163.488 72.982C163.488 72.982 163.982 72.098 164.216 71.968C164.58 71.76 165.334 71.89 165.334 71.89C165.334 71.89 165.074 70.902 165.646 70.824C166.218 70.746 166.998 70.356 167.544 70.642Z" fill="#FDCDA3"/>
    <path d="M164.788 71.292C164.762 71.162 164.658 70.564 164.138 70.85C163.618 71.136 164.294 72.28 164.372 72.306C164.45 72.332 165.074 72.436 164.788 71.292Z" fill="#EFA986"/>
    <path d="M163.176 73.606C163.176 73.606 163.878 75.244 164.476 75.816L164.19 76.804L162.812 73.814L163.176 73.606Z" fill="#EDDAD3"/>
    <path d="M163.67 86.19L163.54 85.54L156.858 86.528L156.832 87.256L163.67 86.19Z" fill="#3E426A"/>
    <path d="M163.982 78.754C163.8 79.118 163.644 79.456 163.488 79.82C163.15 80.626 162.838 81.432 162.578 82.212C162.474 82.498 162.396 82.784 162.292 83.044C161.252 86.346 159.198 88.608 159.198 88.608C159.198 88.608 156.52 88.14 155.922 87.62C155.922 87.62 156.494 83.772 157.768 80.132C157.872 79.846 157.976 79.56 158.08 79.3C159.198 76.388 160.758 73.814 162.838 73.814C162.864 73.84 164.892 76.908 163.982 78.754Z" fill="#323757"/>
    <path d="M157.69 80.392C157.69 80.392 156.806 84.214 154.596 87.204C154.284 87.62 157.508 88.244 157.508 88.244L157.69 80.392Z" fill="#323757"/>
    <path d="M160.732 77.428C159.822 78.234 157.768 80.132 157.768 80.132C157.872 79.846 157.976 79.56 158.08 79.3C158.782 78.702 160.706 77.428 160.732 77.428Z" fill="#1D2133"/>
    <path d="M165.178 74.23C165.178 74.23 165.126 74.334 165.022 74.49C164.996 74.542 164.944 74.62 164.892 74.698C164.034 73.918 163.852 73.372 163.852 73.372C164.294 73.71 165.178 74.23 165.178 74.23Z" fill="#A77961"/>
    <path d="M164.502 76.752C164.502 76.752 163.878 79.144 161.798 79.092C159.926 79.04 157.092 79.69 156.156 80.314L154.96 81.146L155.35 79.924C155.35 79.924 156.338 78.026 161.798 78.832C161.798 78.832 163.436 79.326 164.294 76.466C164.294 76.466 164.554 76.648 164.502 76.752Z" fill="#588AC8"/>
    <path d="M164.476 75.868C164.476 75.868 164.632 76.57 164.554 76.83C164.528 76.934 164.242 76.752 164.242 76.752L164.476 75.868Z" fill="#588AC8"/>
    <path d="M160.68 90.194C160.524 90.376 160.342 90.584 160.16 90.766L158.054 88.53C158.08 88.53 158.34 88.764 158.704 89.024C159.094 89.284 160.68 90.194 160.68 90.194Z" fill="#161825"/>
    <path d="M148.772 84.084C148.772 84.084 148.824 83.876 148.876 83.772C148.876 83.772 149.006 83.616 149.084 83.512C149.11 83.486 149.136 83.434 149.136 83.434C149.188 83.356 149.266 83.122 149.474 82.94C149.656 82.758 150.384 82.186 150.384 82.186L150.982 82.706L151.606 82.992C151.606 82.992 151.216 84.526 151.06 84.708C151.034 84.734 151.034 84.734 151.008 84.76C150.852 84.916 150.696 84.968 150.618 85.02C150.592 85.046 150.254 85.28 150.15 85.254C149.994 85.202 149.89 85.124 149.864 84.994C149.864 84.994 149.552 84.89 149.422 84.708C149.422 84.708 149.136 84.63 149.058 84.344C149.058 84.37 148.772 84.266 148.772 84.084Z" fill="#EFAA88"/>
    <path d="M162.266 76.414C162.266 76.414 158.08 77.948 156.416 78.988C155.896 79.326 152.152 83.044 151.944 83.174C151.736 83.304 150.202 82.212 150.202 82.212C150.202 82.212 154.726 77.48 155.012 77.22C155.298 76.96 161.59 73.996 162.292 73.944C162.968 73.892 162.942 74.23 163.098 74.958C163.28 75.972 162.266 76.414 162.266 76.414Z" fill="#323757"/>
    <path d="M134.29 155.324C133.874 157.404 134.836 159.354 136.448 159.692C138.06 160.03 139.724 158.6 140.166 156.52C140.582 154.44 139.62 152.49 138.008 152.152C136.396 151.84 134.732 153.244 134.29 155.324Z" fill="#4C6FB5"/>
    <path d="M198.484 151.528C198.484 151.528 203.84 135.85 193.622 130.988C183.404 126.126 174.746 133.146 173.108 136.968C171.47 140.764 171.912 147.68 173.29 152.516C174.694 157.326 174.486 164.684 171.444 167.128C168.402 169.572 164.658 173.654 164.84 181.974C164.944 187.122 185.094 168.792 185.094 168.792L198.484 151.528Z" fill="#262E3B"/>
    <path d="M184.158 170.196C184.158 170.196 175.76 172.068 172.432 173.992C169.104 175.942 161.72 184.886 161.72 188.734C161.72 192.582 194.064 196.17 194.064 196.17L200.2 218.556C200.2 218.556 216.554 214.578 218.478 211.25C220.428 207.948 212.264 184.236 210.886 179.426C209.456 174.538 203.606 171.106 196.794 170.17C189.956 169.234 184.158 170.196 184.158 170.196Z" fill="#FFCB57"/>
    <path d="M196.17 170.118C196.17 170.118 195.988 180.31 187.902 180.622C179.816 180.934 181.506 170.846 181.506 170.846C181.506 170.846 187.408 168.428 196.17 170.118Z" fill="#EFA986"/>
    <path d="M199.602 139.334C199.602 139.334 202.462 155.74 194.324 167.57C185.874 179.868 199.602 139.334 199.602 139.334Z" fill="#262E3B"/>
    <path d="M194.454 162.89C194.454 162.89 193.882 167.778 194.818 170.794C195.754 173.836 182.442 173.914 182.468 171.418C182.468 168.584 183.82 166.218 182.546 161.356C181.272 156.52 194.454 162.89 194.454 162.89Z" fill="#EFA986"/>
    <path d="M184.132 163.514C184.132 163.514 188.344 167.882 193.7 163.982C193.7 163.982 193.258 166.79 189.384 167.128C185.536 167.492 184.132 163.514 184.132 163.514Z" fill="#A77961"/>
    <path d="M189.384 133.666C189.384 133.666 199.992 136.812 198.484 151.528C196.976 166.27 190.034 165.49 189.384 165.62C188.734 165.724 180.492 166.27 177.892 148.408C175.318 130.52 189.384 133.666 189.384 133.666Z" fill="#EFA986"/>
    <path d="M186.654 140.218C186.654 140.218 192.426 149.396 198.484 151.528C198.484 151.528 201.786 136.136 188.11 132.912C174.408 129.688 176.566 148.46 177.58 153.478C177.58 153.478 180.44 146.094 186.654 140.218Z" fill="#262E3B"/>
    <path d="M178.906 138.84C178.906 138.84 181.948 132.964 187.07 132.704C192.192 132.444 195.234 136.89 195.234 136.89C195.234 136.89 193.232 131.872 187.07 131.872C180.908 131.872 178.906 138.84 178.906 138.84Z" fill="#91BCE5"/>
    <path d="M199.784 185.094L203.372 218.556H156L152.412 185.094H199.784Z" fill="#254480"/>
    <path d="M207.142 215.54H199.238V218.556H207.142V215.54Z" fill="#254480"/>
    <path d="M180.83 201.292C181.246 203.372 180.284 205.322 178.672 205.66C177.06 205.998 175.396 204.568 174.954 202.488C174.538 200.408 175.5 198.458 177.112 198.12C178.75 197.782 180.414 199.212 180.83 201.292Z" fill="#4C6FB5"/>
    <defs>
        <linearGradient id="paint0_linear" x1="63.6155" y1="120.887" x2="144.571" y2="120.887" gradientUnits="userSpaceOnUse">
            <stop stop-color="#9DC8EB"/>
            <stop offset="1" stop-color="#6891CB"/>
        </linearGradient>
        <linearGradient id="paint1_linear" x1="121.667" y1="139.553" x2="194.986" y2="139.553" gradientUnits="userSpaceOnUse">
            <stop stop-color="#9DC8EB"/>
            <stop offset="1" stop-color="#6891CB"/>
        </linearGradient>
        <linearGradient id="paint2_linear" x1="41.7607" y1="94.4412" x2="48.8864" y2="143.392" gradientUnits="userSpaceOnUse">
            <stop stop-color="#6891CB"/>
        </linearGradient>
    </defs>
</svg>
