<svg width="24" height="24" viewBox="0 0 24 24" fill="none" xmlns="http://www.w3.org/2000/svg">
    <g clip-path="url(#clip0)">
        <path d="M4.39993 15.9119V20.7159L0.399902 19.1999V14.3999H0.451934L4.39993 15.9119Z" fill="#FDD834"/>
        <path d="M15.8997 1.87999L15.8837 1.91998L11.9397 3.42396L7.9917 1.91998L11.8597 0.45199C11.9501 0.419975 12.0493 0.419975 12.1397 0.45199L15.8997 1.87999Z" fill="#C52828"/>
        <path d="M11.94 3.42391L8.26001 4.82791L4.31201 3.31591L7.99203 1.91992L11.94 3.42391Z" fill="#2E7D32"/>
        <path d="M8.2599 4.82791L4.37593 6.30794L0.399902 4.79993L4.30792 3.31592H4.3119L8.2599 4.82791Z" fill="#283593"/>
        <path d="M11.94 6.23591L8.07596 7.71191L4.42796 6.32788L4.37598 6.30791L8.25994 4.82788L11.94 6.23591Z" fill="#D84315"/>
        <path d="M23.5998 4.79988L19.5837 6.32786L19.5678 6.33189H19.5637L15.6157 4.82786L19.5637 3.31586L19.5798 3.27588H19.5837L23.5998 4.79988Z" fill="#FDD834"/>
        <path d="M19.58 3.27611L19.5639 3.3161L15.6159 4.8281L11.9399 3.4241L15.884 1.92011L15.8999 1.88013L19.58 3.27611Z" fill="#9E9E9E"/>
        <path d="M11.9999 18.8201V23.6001L8.3999 22.2361V17.4441L11.9999 18.8201Z" fill="white"/>
        <path d="M8.39988 17.4439V22.2359L4.3999 20.7159V15.9119L8.39988 17.4439Z" fill="#2E7D32"/>
        <path d="M4.39993 11.1118V15.9118L0.451934 14.3998H0.399902V9.59985H0.451934L4.39993 11.1118Z" fill="#283593"/>
        <path d="M4.42792 6.32803L4.39993 6.40003V11.112L0.451934 9.60005H0.399902V4.80005L4.37593 6.30806L4.42792 6.32803Z" fill="#C52828"/>
        <path d="M23.5999 4.80005V9.60005H23.5478L19.5998 11.112V6.37205L19.5679 6.33206L19.5839 6.32803L23.5999 4.80005Z" fill="#C52828"/>
        <path d="M23.6001 9.59985V14.3998H23.5481L19.6001 15.9118V11.1118L23.5481 9.59985H23.6001Z" fill="#9E9E9E"/>
        <path d="M23.6001 14.3999V19.1999L19.6001 20.7159V15.9119L23.5481 14.3999H23.6001Z" fill="#2E7D32"/>
        <path d="M22.4002 5.19995V9.99995H22.3481L18.4001 11.512V6.77195L18.3682 6.73197L18.3841 6.72798L22.4002 5.19995Z" fill="#F44335"/>
        <path d="M22.3999 10V14.8H22.3479L18.3999 16.312V11.512L22.3479 10H22.3999Z" fill="white"/>
        <path d="M22.3999 14.8V19.6L18.3999 21.1161V16.312L22.3479 14.8H22.3999Z" fill="#4CAF50"/>
        <path d="M19.6001 15.9119V20.7159L15.6001 22.2359V17.4439L19.6001 15.9119Z" fill="#9E9E9E"/>
        <path d="M15.6 17.4441V22.2361L12 23.6001V18.8201L15.6 17.4441Z" fill="#3F51B5"/>
        <path d="M15.8597 7.73608L15.5437 7.85608L12.1237 9.15208C12.0433 9.18006 11.9561 9.18006 11.8757 9.15208L8.39968 7.83607L8.07568 7.71208L11.9397 6.23608L15.8597 7.73608Z" fill="#FDD834"/>
        <path d="M19.5639 6.33191L15.86 7.73591L11.9399 6.23591L15.6159 4.82788L19.5639 6.33191Z" fill="white"/>
        <path d="M15.6163 4.82808L11.9403 6.23611L8.26025 4.82808L11.9403 3.42407L15.6163 4.82808Z" fill="#3F51B5"/>
        <path d="M11.9999 14.02V18.82L8.3999 17.444V12.644L11.9999 14.02Z" fill="#FDD834"/>
        <path d="M11.9999 9.19996V14.0199L8.3999 12.644V7.83594L11.8759 9.15196L11.9999 9.19996Z" fill="#FF5722"/>
        <path d="M8.39988 7.8359V12.6439L4.3999 11.1119V6.39988L4.42789 6.32788L8.07588 7.71191L8.39988 7.8359Z" fill="#FDD834"/>
        <path d="M8.39988 12.6441V17.4441L4.3999 15.9121V11.1121L8.39988 12.6441Z" fill="#F44335"/>
        <path d="M19.6001 11.1121V15.9121L15.6001 17.4441V12.6441L19.6001 11.1121Z" fill="#FDD834"/>
        <path d="M19.5999 6.37202V11.112L15.6 12.644V8.00003L15.5439 7.85603L15.86 7.73603L19.5639 6.33203H19.568L19.5999 6.37202Z" fill="#3F51B5"/>
        <path d="M15.6 7.99996V12.644L12 14.0199V9.19996L12.124 9.15196L15.544 7.85596L15.6 7.99996Z" fill="white"/>
        <path d="M15.6 12.644V17.444L12 18.82V14.02L15.6 12.644Z" fill="#4CAF50"/>
        <path d="M12 9.55844C11.904 9.55844 11.8076 9.54124 11.716 9.50604L0.258422 5.16007C0.102797 5.10129 0 4.95246 0 4.78605C0 4.62007 0.102797 4.47087 0.258 4.41204L4.16602 2.92802C4.17642 2.92404 4.18683 2.92043 4.19761 2.91762L11.7164 0.0660688C11.8992 -0.00354058 12.1004 -0.00274371 12.2832 0.0660688L19.6956 2.87848C19.706 2.88129 19.716 2.8849 19.7256 2.88846L23.7416 4.41246C23.8972 4.47124 24 4.62007 24 4.78605C24 4.95204 23.8972 5.10087 23.742 5.16007L19.71 6.69208C19.6996 6.69607 19.6888 6.69968 19.678 6.70287L12.2836 9.50646C12.192 9.54129 12.096 9.55844 12 9.55844ZM1.52719 4.78605L12 8.75847L19.4224 5.94405C19.4324 5.94007 19.4432 5.93646 19.4536 5.93365L22.4732 4.78643L19.4684 3.64605C19.458 3.64324 19.448 3.64005 19.4384 3.63607L12 0.814053L4.45359 3.67605C4.44319 3.68004 4.43278 3.68365 4.422 3.68646L1.52719 4.78605Z" fill="black"/>
        <path d="M12 23.9861C11.952 23.9861 11.904 23.9777 11.8584 23.9601L0.258422 19.5601C0.102797 19.5013 0 19.3521 0 19.1861V4.78611C0 4.65453 0.0647813 4.53172 0.172781 4.4569C0.280781 4.38209 0.418781 4.36531 0.541594 4.41209L12.1416 8.81211C12.2972 8.87089 12.4 9.01972 12.4 9.18612V23.5861C12.4 23.7177 12.3356 23.8409 12.2272 23.9153C12.1592 23.9621 12.08 23.9861 12 23.9861ZM0.800016 18.9101L11.6 23.0065V9.46212L0.800016 5.36572V18.9101Z" fill="black"/>
        <path d="M12.0001 23.9859C11.9201 23.9859 11.8405 23.9615 11.7729 23.9151C11.6649 23.8407 11.6001 23.7175 11.6001 23.5859V9.1859C11.6001 9.01949 11.7029 8.87071 11.8585 8.81189L19.4225 5.94389C19.4325 5.9399 19.4433 5.93629 19.4537 5.93348L23.4581 4.41187C23.5813 4.36509 23.7189 4.38187 23.8273 4.45626C23.9357 4.53107 24.0001 4.65426 24.0001 4.78584V19.1858C24.0001 19.3518 23.8973 19.501 23.7417 19.5599L12.1416 23.9599C12.0961 23.9775 12.0477 23.9859 12.0001 23.9859ZM12.4001 9.4619V23.0063L23.2001 18.9099V5.36592L19.7101 6.69192C19.6997 6.6959 19.6889 6.69951 19.6781 6.7027L12.4001 9.4619Z" fill="black"/>
        <path d="M15.8597 8.1218C15.8121 8.1218 15.7637 8.11341 15.7169 8.09541L4.18009 3.67982C4.02329 3.6254 3.90967 3.47662 3.90967 3.30182C3.90967 3.03224 4.20245 2.83223 4.45445 2.92823L16.0029 7.34822C16.2092 7.42744 16.3125 7.65862 16.2332 7.86502C16.1725 8.0242 16.0209 8.1218 15.8597 8.1218Z" fill="black"/>
        <path d="M19.564 6.71803C19.5168 6.71803 19.4684 6.70964 19.4216 6.69164L7.84958 2.27962C7.64318 2.20083 7.53959 1.97001 7.61797 1.7632C7.69639 1.55639 7.92795 1.45322 8.13439 1.53159L19.7068 5.94361C19.9132 6.0224 20.0164 6.25322 19.938 6.46003C19.8768 6.62006 19.7252 6.71803 19.564 6.71803Z" fill="black"/>
        <path d="M8.07578 8.09835C7.91499 8.09835 7.76298 8.00034 7.70218 7.84078C7.62339 7.63439 7.72698 7.4032 7.933 7.32436L19.421 2.92838C19.673 2.83196 19.9658 3.03239 19.9658 3.30197C19.9658 3.48436 19.845 3.63839 19.6782 3.68639L8.2186 8.07159C8.17135 8.08954 8.12335 8.09835 8.07578 8.09835Z" fill="black"/>
        <path d="M4.37594 6.69406C4.21474 6.69406 4.06315 6.59567 4.00193 6.43606C3.92313 6.22967 4.02715 5.99848 4.23354 5.91964L15.7415 1.53162C15.9479 1.45319 16.1791 1.55641 16.258 1.7628C16.3364 1.96919 16.2327 2.20038 16.0268 2.27923L4.51835 6.66729C4.47152 6.68567 4.42352 6.69406 4.37594 6.69406Z" fill="black"/>
        <path d="M8.39998 22.622C8.1792 22.622 8 22.4433 8 22.222V7.618C8 7.39722 8.1792 7.21802 8.39998 7.21802C8.62077 7.21802 8.79997 7.39722 8.79997 7.618V22.222C8.79997 22.4432 8.62077 22.622 8.39998 22.622Z" fill="black"/>
        <path d="M4.39998 21.1021C4.1792 21.1021 4 20.9233 4 20.7021V6.38607C4 6.16529 4.1792 5.98608 4.39998 5.98608C4.62077 5.98608 4.79997 6.16529 4.79997 6.38607V20.7024C4.79997 20.9233 4.62077 21.1021 4.39998 21.1021Z" fill="black"/>
        <path d="M15.5997 22.6219C15.3785 22.6219 15.1997 22.4432 15.1997 22.222V7.98592C15.1997 7.76514 15.3785 7.58594 15.5997 7.58594C15.8209 7.58594 15.9997 7.76514 15.9997 7.98592V22.2219C15.9997 22.4431 15.8209 22.6219 15.5997 22.6219Z" fill="black"/>
        <path d="M19.5997 21.102C19.3785 21.102 19.1997 20.9232 19.1997 20.702V6.35799C19.1997 6.13721 19.3785 5.95801 19.5997 5.95801C19.8209 5.95801 19.9997 6.13721 19.9997 6.35799V20.702C19.9997 20.9232 19.8209 21.102 19.5997 21.102Z" fill="black"/>
        <path d="M11.9998 14.4059C11.9523 14.4059 11.9038 14.3975 11.8571 14.3795L0.320227 9.96391C0.16343 9.90948 0.0498047 9.7607 0.0498047 9.58591C0.0498047 9.31633 0.342211 9.11589 0.594586 9.21231L12.1426 13.6327C12.349 13.7115 12.4522 13.9427 12.373 14.1491C12.3123 14.3083 12.1606 14.4059 11.9998 14.4059Z" fill="black"/>
        <path d="M11.9998 19.2059C11.9523 19.2059 11.9038 19.1976 11.8571 19.1796L0.320227 14.7639C0.16343 14.7095 0.0498047 14.5612 0.0498047 14.3864C0.0498047 14.1164 0.342211 13.916 0.594586 14.0128L12.1426 18.4327C12.349 18.5115 12.4522 18.7427 12.373 18.9492C12.3123 19.1084 12.1606 19.2059 11.9998 19.2059Z" fill="black"/>
        <path d="M12.0001 14.4058C11.8394 14.4058 11.6873 14.3082 11.6265 14.1486C11.5477 13.9422 11.651 13.711 11.8574 13.6321L23.4053 9.21175C23.6573 9.11495 23.9501 9.31534 23.9501 9.58534C23.9501 9.76773 23.8293 9.92176 23.6625 9.96976L12.143 14.3793C12.0961 14.3974 12.0477 14.4058 12.0001 14.4058Z" fill="black"/>
        <path d="M12.0001 19.206C11.8394 19.206 11.6873 19.1084 11.6265 18.9488C11.5477 18.7424 11.651 18.5112 11.8574 18.4323L23.4053 14.0124C23.6573 13.9148 23.9501 14.1156 23.9501 14.3859C23.9501 14.5683 23.8293 14.7224 23.6625 14.7704L12.143 19.1796C12.0961 19.1976 12.0477 19.206 12.0001 19.206Z" fill="black"/>
    </g>
    <defs>
        <clipPath id="clip0">
            <rect width="24" height="24" fill="white"/>
        </clipPath>
    </defs>
</svg>
