<svg width="60" height="60" viewBox="0 0 60 60" fill="none" xmlns="http://www.w3.org/2000/svg">
    <path d="M32.303 20.321H27.9826L15.6514 53.3752H44.6328L32.303 20.321ZM30.1428 28.1511L37.7765 48.6145H22.5091L30.1428 28.1511Z" fill="#FFCF70"/>
    <path d="M35.8555 15.0305C35.8555 17.562 34.208 19.7094 31.9279 20.4592C31.3662 20.6436 30.7661 20.7434 30.1426 20.7434C26.9877 20.7434 24.4297 18.1859 24.4297 15.0305C24.4297 11.8756 26.9877 9.31812 30.1426 9.31812C30.7661 9.31812 31.3662 9.41791 31.9279 9.60239C34.208 10.3522 35.8555 12.4991 35.8555 15.0305Z" fill="#E53045"/>
    <path d="M35.8552 15.0305C35.8552 17.5619 34.2077 19.7093 31.9276 20.4591C29.6461 19.7093 27.999 17.5619 27.999 15.0305C27.999 12.499 29.6461 10.3521 31.9276 9.60229C34.2077 10.3521 35.8552 12.499 35.8552 15.0305Z" fill="#FF7265"/>
    <path d="M53.3331 56.2418C53.3331 57.0332 53.0117 57.7501 52.4936 58.2687C51.9749 58.7874 51.2581 59.1074 50.4666 59.1074H9.50085C7.91791 59.1074 6.63525 57.8247 6.63525 56.2418C6.63525 55.4503 6.9566 54.7334 7.47525 54.2148C7.99344 53.6966 8.70938 53.3752 9.50085 53.3752H50.4666C52.0495 53.3752 53.3331 54.6588 53.3331 56.2418Z" fill="#D6D3C4"/>
    <path d="M53.3333 56.2418C53.3333 57.0332 53.012 57.7501 52.4938 58.2687C51.9751 58.7874 51.2583 59.1074 50.4668 59.1074H19.1356C17.5536 59.1074 16.27 57.8247 16.27 56.2418C16.27 55.4503 16.5914 54.7334 17.11 54.2148C17.6282 53.6966 18.3451 53.3752 19.1356 53.3752H50.4668C52.0497 53.3752 53.3333 54.6588 53.3333 56.2418Z" fill="#FBF2DC"/>
    <path d="M16.0035 30.0623C16.2314 30.0623 16.4603 29.9748 16.6343 29.8004C16.9831 29.4521 16.9831 28.8867 16.6343 28.5384C9.18645 21.0906 9.18645 8.97173 16.6343 1.52391C16.9831 1.17555 16.9831 0.610214 16.6343 0.261856C16.2859 -0.0869598 15.7206 -0.0869598 15.3722 0.261856C7.22814 8.40547 7.22814 21.6568 15.3722 29.8009C15.5462 29.9748 15.775 30.0623 16.0035 30.0623Z" fill="black"/>
    <path d="M43.649 28.5382C43.3006 28.8866 43.3006 29.4519 43.649 29.8003C43.8234 29.9747 44.0518 30.0617 44.2802 30.0617C44.5086 30.0617 44.7371 29.9747 44.9115 29.8003C53.0551 21.6562 53.0551 8.40534 44.9115 0.261269C44.5627 -0.0870896 43.9973 -0.0870896 43.649 0.261269C43.3006 0.610085 43.3006 1.17496 43.649 1.52378C51.0968 8.9716 51.0968 21.09 43.649 28.5382Z" fill="black"/>
    <path d="M18.739 26.4344C18.9134 26.6088 19.1418 26.6958 19.3702 26.6958C19.5987 26.6958 19.8271 26.6088 20.0015 26.4344C20.3498 26.0856 20.3498 25.5203 20.0015 25.1719C14.4099 19.5803 14.4099 10.4818 20.0015 4.89024C20.3498 4.54142 20.3498 3.97654 20.0015 3.62772C19.6527 3.27937 19.0878 3.27937 18.739 3.62772C12.4516 9.91557 12.4516 20.1466 18.739 26.4344Z" fill="black"/>
    <path d="M44.4763 15.0311C44.4763 18.8662 42.9872 22.4679 40.2828 25.1719C39.9344 25.5207 39.9344 26.0856 40.2828 26.4344C40.4572 26.6084 40.6856 26.6958 40.914 26.6958C41.1424 26.6958 41.3709 26.6088 41.5453 26.4344C44.5866 23.393 46.2616 19.3432 46.2616 15.0311C46.2616 10.7189 44.5866 6.66911 41.5453 3.62772C41.1964 3.27937 40.6316 3.27937 40.2828 3.62772C39.9344 3.97654 39.9344 4.54142 40.2828 4.89024C42.9872 7.59425 44.4763 11.1955 44.4763 15.0311Z" fill="black"/>
    <path d="M22.105 23.0679C22.2794 23.2419 22.5078 23.3293 22.7362 23.3293C22.9646 23.3293 23.1931 23.2424 23.3675 23.0679C23.7158 22.7191 23.7158 22.1538 23.3675 21.8054C19.6317 18.0701 19.6317 11.9919 23.3675 8.25609C23.7158 7.90773 23.7158 7.34239 23.3675 6.99403C23.0187 6.64522 22.4533 6.64522 22.105 6.99403C17.6733 11.4256 17.6733 18.6363 22.105 23.0679Z" fill="black"/>
    <path d="M39.7179 15.031C39.7179 17.5931 38.7232 19.9991 36.9169 21.8054C36.5681 22.1543 36.5681 22.7191 36.9169 23.0679C37.0908 23.2424 37.3193 23.3293 37.5477 23.3293C37.7761 23.3293 38.0045 23.2424 38.1789 23.0679C40.3226 20.9242 41.5032 18.0701 41.5032 15.031C41.5032 11.9919 40.3226 9.13728 38.1789 6.99403C37.8306 6.64522 37.2652 6.64522 36.9169 6.99403C36.5681 7.34239 36.5681 7.90773 36.9169 8.25609C38.7232 10.0629 39.7179 12.4684 39.7179 15.031Z" fill="black"/>
    <path d="M50.4671 52.483H45.2527L37.0573 30.514C36.8852 30.0521 36.3712 29.8173 35.9093 29.9899C35.4474 30.162 35.2126 30.6761 35.3847 31.1379L43.347 52.4825H16.9368L28.5196 21.4343C29.0392 21.5656 29.5825 21.6361 30.1419 21.6361C30.7018 21.6361 31.2456 21.5656 31.7651 21.4338L34.0947 27.6795C34.2288 28.0389 34.5694 28.2609 34.9315 28.2609C35.0349 28.2609 35.1402 28.2426 35.2432 28.2041C35.7051 28.032 35.9399 27.5179 35.7674 27.0561L33.4195 20.7618C35.4057 19.6215 36.7474 17.4806 36.7474 15.0311C36.7474 11.3886 33.7843 8.42554 30.1419 8.42554C26.4999 8.42554 23.5368 11.3886 23.5368 15.0311C23.5368 17.481 24.8785 19.622 26.8648 20.7623L15.0311 52.483H9.50089C7.42813 52.483 5.74219 54.1689 5.74219 56.2417C5.74219 58.314 7.42813 59.9999 9.50089 59.9999H11.5759C12.0689 59.9999 12.4686 59.6003 12.4686 59.1073C12.4686 58.6143 12.0689 58.2147 11.5759 58.2147H9.50089C8.41278 58.2147 7.52747 57.3293 7.52747 56.2417C7.52747 55.1536 8.41278 54.2683 9.50089 54.2683H50.4671C51.5552 54.2683 52.44 55.1536 52.44 56.2417C52.44 57.3293 51.5552 58.2147 50.4671 58.2147H15.1465C14.6535 58.2147 14.2538 58.6143 14.2538 59.1073C14.2538 59.6003 14.6535 59.9999 15.1465 59.9999H50.4671C52.5394 59.9999 54.2253 58.314 54.2253 56.2417C54.2253 54.1689 52.5394 52.483 50.4671 52.483ZM25.3217 15.0311C25.3217 12.3733 27.4841 10.2108 30.1419 10.2108C32.7997 10.2108 34.9622 12.3733 34.9622 15.0311C34.9622 17.6888 32.7997 19.8513 30.1419 19.8513C27.4841 19.8513 25.3217 17.6888 25.3217 15.0311Z" fill="black"/>
    <path d="M30.1419 27.2578C29.7693 27.2578 29.4361 27.4894 29.3056 27.8387L21.6719 48.303C21.5699 48.5772 21.6083 48.8839 21.7749 49.1238C21.9416 49.3641 22.2158 49.5074 22.5083 49.5074H37.7756C38.0686 49.5074 38.3423 49.3641 38.5089 49.1238C38.676 48.8839 38.7145 48.5772 38.6119 48.303L30.9783 27.8387C30.8483 27.4894 30.5146 27.2578 30.1419 27.2578ZM30.1419 30.7043L31.6896 34.8539L29.1124 33.4642L30.1419 30.7043ZM35.3957 44.7888L26.7229 42.5329L32.9242 38.1622L35.3957 44.7888ZM26.4807 40.5197L28.4825 35.1529L31.6626 36.8672L26.4807 40.5197ZM23.7941 47.7221L25.1903 43.979L36.1579 46.8313L36.4902 47.7221H23.7941Z" fill="black"/>
</svg>
