<svg width="32" height="32" viewBox="0 0 32 32" fill="none" xmlns="http://www.w3.org/2000/svg">
<g clip-path="url(#clip0)">
<path d="M29.97 4.78369C29.97 4.6167 29.9036 4.45679 29.7856 4.33887L25.6311 0.184326C25.5132 0.0664062 25.353 0 25.1863 0H9.45483C9.10742 0 8.82593 0.281494 8.82593 0.628906V3.29053H2.69141C2.34424 3.29053 2.0625 3.57227 2.0625 3.91943V31.3711C2.0625 31.7183 2.34424 32 2.69141 32H22.5776C22.925 32 23.2065 31.7183 23.2065 31.3711V28.7095H29.3411C29.6882 28.7095 29.97 28.4277 29.97 28.0806V24.6555C29.97 23.8479 28.7119 23.8467 28.7119 24.6555V27.4514H23.2065V19.1831H25.6941C26.5017 19.1831 26.5027 17.925 25.6941 17.925H23.2065V14.8748H25.6941C26.5017 14.8748 26.5029 13.6169 25.6941 13.6169H23.2065V10.5667H25.6941C26.5017 10.5667 26.5029 9.30859 25.6941 9.30859H23.2065V8.07422C23.2065 7.90747 23.1404 7.74731 23.0225 7.62939L18.8677 3.47485C18.7498 3.35693 18.5898 3.29053 18.4231 3.29053H10.0837V1.25781H24.9258L28.7119 5.04419V19.5608C28.7119 20.3684 29.97 20.3696 29.97 19.5608V4.78369ZM21.9487 8.33472V30.7422H3.32031V4.54858H18.1624L21.9487 8.33472Z" fill="#2BBCEE"/>
<path d="M6.92701 13.9744H8.0315V15.1165C8.0315 15.6878 9.13599 15.6975 9.13599 15.1165V13.9744H10.23C10.8096 13.9744 10.7957 12.9216 10.23 12.9216H9.13599V11.7903C9.13599 11.2046 8.0315 11.2149 8.0315 11.7903V12.9216H6.92701C6.3755 12.9216 6.36622 13.9744 6.92701 13.9744Z" fill="#2BBCEE"/>
<path d="M12.1526 15.7335C12.4326 15.8898 13.1729 16.0817 13.3081 15.6369L13.6929 14.2633H15.9041L16.2964 15.6361C16.4507 16.2113 17.7202 15.8241 17.5762 15.2438L15.5842 8.75162C15.4133 8.15299 14.052 8.1027 13.8606 8.7067L11.8665 15.1984C11.8098 15.4416 11.9431 15.6166 12.1526 15.7335C12.4326 15.8898 11.9431 15.6166 12.1526 15.7335ZM14.8745 10.0419L15.7725 13.2104H13.9876L14.8745 10.0419Z" fill="#2BBCEE"/>
<path d="M6.76266 23.2939H17.9316C18.7392 23.2939 18.7404 22.0361 17.9316 22.0361H6.76266C5.95505 22.0361 5.95383 23.2939 6.76266 23.2939Z" fill="#2BBCEE"/>
<path d="M6.76266 20.4414H10.041C10.8486 20.4414 10.8496 19.1836 10.041 19.1836H6.76266C5.95505 19.1836 5.95383 20.4414 6.76266 20.4414Z" fill="#2BBCEE"/>
<path d="M6.76266 25.968H17.9316C18.7392 25.968 18.7404 24.7102 17.9316 24.7102H6.76266C5.95505 24.7102 5.95383 25.968 6.76266 25.968Z" fill="#2BBCEE"/>
<path d="M6.76266 28.6423H17.9316C18.7392 28.6423 18.7404 27.3843 17.9316 27.3843H6.76266C5.95505 27.3843 5.95383 28.6423 6.76266 28.6423Z" fill="#2BBCEE"/>
<path d="M29.3408 21.4685C28.999 21.4685 28.7119 21.7559 28.7119 22.0974C28.7119 22.4395 28.9993 22.7266 29.3408 22.7266C29.6729 22.7266 29.9539 22.4563 29.9685 22.125C29.9841 21.7732 29.6938 21.4685 29.3408 21.4685Z" fill="#2BBCEE"/>
<path d="M12.1267 19.3676C11.885 19.6093 11.8847 20.0153 12.1267 20.257C12.3686 20.499 12.7746 20.4987 13.0166 20.257C13.2509 20.0229 13.2583 19.6318 13.0351 19.3881C12.7973 19.1281 12.3762 19.1181 12.1267 19.3676C12.2436 19.2507 12.0097 19.4848 12.1267 19.3676Z" fill="#2BBCEE"/>
</g>
<defs>
<clipPath id="clip0">
<rect width="32" height="32" fill="white"/>
</clipPath>
</defs>
</svg>
