<svg width="52.5" height="53" viewBox="0 0 52.5 53" fill="none" xmlns="http://www.w3.org/2000/svg">
<path d="M45.4685 51.2811L45.46 51.2808H45.4516H7.15581H7.14736L7.13892 51.2811C5.68236 51.3303 4.26566 50.8033 3.19786 49.8156C2.13256 48.8302 1.50078 47.4661 1.43896 46.0198V6.97661C1.50078 5.5303 2.13256 4.16617 3.19786 3.18078C4.26566 2.19306 5.68236 1.66609 7.13892 1.71532L7.14736 1.71561H7.15581H45.4516H45.46L45.4685 1.71532C46.925 1.66609 48.3417 2.19306 49.4095 3.18078C50.4748 4.16616 51.1066 5.53028 51.1684 6.97657V46.0198C51.1066 47.4661 50.4748 48.8302 49.4095 49.8156C48.3417 50.8033 46.925 51.3303 45.4685 51.2811Z" stroke="white"/>
<path d="M43.7108 11.0411V10.3966H14.7851V24.4855C14.7851 28.9669 14.7851 33.4087 14.7851 37.91C14.8121 38.4544 14.7282 38.9987 14.5385 39.5099C14.3487 40.0211 14.057 40.4887 13.681 40.8844C13.5242 41.0617 13.3313 41.2036 13.1152 41.3009C12.8991 41.3981 12.6647 41.4484 12.4277 41.4484C12.1906 41.4484 11.9562 41.3981 11.7401 41.3009C11.524 41.2036 11.3312 41.0617 11.1743 40.8844C10.7797 40.4685 10.4768 39.9749 10.2849 39.4353C10.093 38.8958 10.0165 38.3222 10.0603 37.7514C10.0603 30.6656 10.0603 23.57 10.0603 16.4644C10.0603 16.2661 10.12 16.0183 10.0603 15.8596C10.0006 15.701 9.68229 15.4432 9.50325 15.4531C9.3242 15.463 9.09542 15.7109 8.98601 15.9092C8.87659 16.1075 8.98601 16.276 8.98601 16.4644V37.9695C8.96495 38.4207 9.01531 38.8724 9.13521 39.308C9.31095 39.9764 9.56467 40.6219 9.89118 41.2315C10.2521 41.7206 10.7372 42.1052 11.2966 42.3456C11.856 42.5861 12.4696 42.6738 13.0742 42.5997C22.0994 42.5468 31.1147 42.5468 40.12 42.5997C40.5937 42.6204 41.0666 42.5434 41.509 42.3734C41.9515 42.2034 42.3539 41.944 42.691 41.6117C43.0282 41.2794 43.2928 40.8812 43.4683 40.4421C43.6438 40.003 43.7264 39.5325 43.7108 39.0601C43.7108 29.7204 43.7108 20.3808 43.7108 11.0411ZM42.547 12.1218V39.0106C42.5943 39.3383 42.5639 39.6726 42.4583 39.9866C42.3527 40.3006 42.1749 40.5856 41.939 40.8188C41.7031 41.0519 41.4157 41.2269 41.0999 41.3295C40.784 41.4322 40.4484 41.4597 40.12 41.4099H14.8647C14.8936 41.3099 14.9336 41.2135 14.984 41.1224C15.6108 40.2021 15.9373 39.1114 15.919 37.9992C15.919 34.2713 15.919 30.5533 15.919 26.8253V11.5368H42.547V12.1218Z" fill="#F6F6F6" stroke="#F6F6F6" stroke-width="0.5" stroke-miterlimit="10"/>
<path d="M11.8806 26.2106V38.8915C11.8806 39.0601 11.8806 39.2683 11.8806 39.3873C11.8806 39.5063 12.2188 39.8731 12.3779 39.8632C12.5371 39.8533 12.8355 39.6351 12.9847 39.4468C13.1339 39.2584 12.9847 39.0799 12.9847 38.8915V27.5094C12.9847 22.8098 12.9847 18.1202 12.9847 13.4206C12.9847 13.2421 12.9847 13.0042 12.925 12.8852C12.8653 12.7662 12.547 12.4886 12.3879 12.5183C12.2287 12.5481 11.98 12.786 11.8607 12.9843C11.7413 13.1826 11.8607 13.3413 11.8607 13.5296L11.8806 26.2106Z" fill="#F6F6F6" stroke="#F6F6F6" stroke-width="0.5" stroke-miterlimit="10"/>
<path d="M26.9403 20.5493H17.6101V30.4641H26.9403V20.5493ZM25.7467 29.3437H18.7838V21.749H25.7467V29.3437Z" fill="#FFA202"/>
<path d="M18.1173 15.7704C18.2168 15.8497 18.4158 15.7704 18.565 15.7704H39.5033C39.6326 15.7704 39.8017 15.82 39.8912 15.7704C39.9808 15.7208 40.4284 15.3937 40.4284 15.1954C40.4284 14.9971 40.13 14.769 39.9111 14.6203C39.6923 14.4716 39.5829 14.6203 39.4138 14.6203H18.6445C18.4754 14.6203 18.2566 14.5608 18.1472 14.6203C18.0378 14.6798 17.6498 14.9971 17.6299 15.2152C17.6101 15.4333 17.9184 15.6217 18.1173 15.7704Z" fill="#F6F6F6" stroke="#F6F6F6" stroke-width="0.5" stroke-miterlimit="10"/>
<path d="M17.7493 32.8833C17.8587 32.9725 18.0776 32.8833 18.2467 32.8833H39.1352C39.3043 32.8833 39.5132 32.9329 39.6226 32.8833C39.7321 32.8337 40.0603 32.5264 40.0603 32.338C40.0603 32.1496 39.8216 31.9216 39.6326 31.7828C39.4436 31.644 39.3043 31.7828 39.1352 31.7828H18.1969C18.0477 31.7828 17.8488 31.7233 17.7493 31.7828C17.6498 31.8422 17.2719 32.1496 17.2719 32.338C17.2719 32.5264 17.5404 32.7445 17.7493 32.8833Z" fill="#F6F6F6" stroke="#F6F6F6" stroke-width="0.5" stroke-miterlimit="10"/>
<path d="M18.0477 18.616C18.177 18.7053 18.4057 18.616 18.5947 18.616H39.4833C39.6524 18.616 39.8712 18.6755 39.9807 18.616C40.2014 18.4805 40.3642 18.2687 40.4382 18.0211C40.4382 17.8526 40.1697 17.6345 39.9807 17.4957C39.7917 17.3568 39.6922 17.4957 39.543 17.4957C32.5403 17.4957 25.541 17.4957 18.545 17.4957C18.3759 17.4957 18.1571 17.4362 18.0477 17.4957C17.9382 17.5551 17.6299 17.8526 17.6299 18.041C17.6299 18.2293 17.8487 18.4871 18.0477 18.616Z" fill="#F6F6F6" stroke="#F6F6F6" stroke-width="0.5" stroke-miterlimit="10"/>
<path d="M39.553 28.8976H29.8746C29.4569 28.8976 29.0789 28.967 29.059 29.4627C29.0391 29.9585 29.4071 30.0973 29.8548 30.0973H39.5431C39.9509 30.0973 40.2592 29.9386 40.2692 29.4925C40.2791 29.0463 39.9708 28.8976 39.553 28.8976Z" fill="#F6F6F6" stroke="#F6F6F6" stroke-width="0.5" stroke-miterlimit="10"/>
<path d="M29.5763 35.7486C29.6757 35.818 29.8647 35.7486 30.0139 35.7486H39.3044C39.4536 35.7486 39.6426 35.7486 39.752 35.7486C39.8614 35.7486 40.2394 35.3917 40.2394 35.2033C40.2394 35.0149 39.9609 34.7968 39.762 34.658C39.563 34.5192 39.4337 34.658 39.2646 34.658H30.193C29.994 34.658 29.7454 34.5985 29.5862 34.658C29.4271 34.7175 29.0889 35.0149 29.0889 35.1934C29.0889 35.3719 29.3773 35.5999 29.5763 35.7486Z" fill="#F6F6F6" stroke="#F6F6F6" stroke-width="0.5" stroke-miterlimit="10"/>
<path d="M39.6425 26.062H39.2446H29.7851C29.3474 26.062 29.0391 26.2207 29.0291 26.6966C29.0192 27.1725 29.4071 27.2716 29.805 27.2716H37.3846H39.5729C39.931 27.2716 40.2194 27.1526 40.2393 26.7561C40.2592 26.3595 40.0305 26.0918 39.6425 26.062Z" fill="#F6F6F6" stroke="#F6F6F6" stroke-width="0.5" stroke-miterlimit="10"/>
<path d="M39.7321 20.3609C39.6127 20.2816 39.4038 20.3609 39.2347 20.3609H30.8693C30.4615 20.3609 30.0438 20.3609 29.6359 20.3609C29.5559 20.3503 29.4744 20.3568 29.3971 20.3801C29.3197 20.4034 29.2483 20.4429 29.1875 20.4959C29.1267 20.549 29.078 20.6143 29.0447 20.6877C29.0113 20.761 28.994 20.8406 28.994 20.9211C28.994 21.0016 29.0113 21.0812 29.0447 21.1546C29.078 21.2279 29.1267 21.2933 29.1875 21.3463C29.2483 21.3994 29.3197 21.4388 29.3971 21.4621C29.4744 21.4854 29.5559 21.4919 29.6359 21.4813H38.7374C39.0675 21.5256 39.402 21.5256 39.7321 21.4813C39.9509 21.4218 40.2394 21.1442 40.2294 20.9558C40.2195 20.7674 39.9609 20.5097 39.7321 20.3609Z" fill="#F6F6F6" stroke="#F6F6F6" stroke-width="0.5" stroke-miterlimit="10"/>
<path d="M34.679 23.2065C33.0676 23.2065 31.4562 23.2065 29.8348 23.2065C29.417 23.2065 29.059 23.2958 29.059 23.7816C29.059 24.2674 29.4369 24.3666 29.8547 24.3666C33.0676 24.3666 36.2705 24.3666 39.4834 24.3666C39.9111 24.3666 40.2692 24.2476 40.2692 23.7717C40.2692 23.2958 39.8812 23.2065 39.4734 23.2065C37.872 23.2165 36.2804 23.2065 34.679 23.2065Z" fill="#F6F6F6" stroke="#F6F6F6" stroke-width="0.5" stroke-miterlimit="10"/>
<path d="M39.4834 37.4836C36.2805 37.4836 33.071 37.4836 29.8548 37.4836C29.437 37.4836 29.069 37.563 29.059 38.0587C29.0491 38.5544 29.4171 38.6437 29.8448 38.6437H39.4735C39.8913 38.6437 40.2693 38.5643 40.2693 38.0686C40.2693 37.5729 39.9112 37.4836 39.4834 37.4836Z" fill="#F6F6F6" stroke="#F6F6F6" stroke-width="0.5" stroke-miterlimit="10"/>
</svg>
