<svg width="18" height="18" viewBox="0 0 18 18" fill="none" xmlns="http://www.w3.org/2000/svg">
    <g clip-path="url(#clip0)">
        <path d="M15.697 12.2651H15.6959C15.1783 12.2648 14.886 11.9962 14.7188 11.3675C14.5478 10.7246 14.542 9.79209 14.536 8.80484C14.5287 7.6087 14.5205 6.25299 14.2232 5.04052C14.188 4.89715 14.0431 4.80939 13.8997 4.84455C13.7565 4.8797 13.6688 5.02445 13.7038 5.16782C13.9863 6.31919 13.9942 7.64153 14.0014 8.80813C14.0077 9.83041 14.0134 10.796 14.202 11.5049C14.284 11.8132 14.4015 12.0665 14.5534 12.2651H3.414C3.56588 12.0665 3.68344 11.8132 3.76542 11.5049C3.95397 10.796 3.95988 9.83041 3.96606 8.80813C3.97553 7.24739 3.98638 5.47846 4.62496 4.12467C5.34374 2.60073 6.76949 1.85984 8.98378 1.85984C10.1998 1.85984 11.1949 2.08836 11.9413 2.53921C12.5885 2.93005 13.0637 3.48554 13.394 4.23742C13.4533 4.37255 13.6111 4.43407 13.7462 4.37461C13.8813 4.31528 13.9429 4.15763 13.8835 4.02236C13.5126 3.17806 12.9522 2.52507 12.2177 2.08149C11.7489 1.79832 11.1983 1.59411 10.5713 1.46969C10.5081 0.648879 9.82053 0 8.98378 0C8.14704 0 7.45929 0.649016 7.39653 1.46997C6.79833 1.58848 6.26948 1.77951 5.8156 2.04249C5.08529 2.46574 4.52197 3.08962 4.14129 3.89657C3.45245 5.35706 3.44119 7.18875 3.43144 8.80484C3.42539 9.79209 3.41976 10.7246 3.24865 11.3675C3.08139 11.9962 2.78915 12.2648 2.27156 12.2651H2.27046C1.40625 12.2651 0.703125 12.9682 0.703125 13.8326C0.703125 14.6968 1.40625 15.3999 2.27046 15.3999H3.96249C4.11012 15.3999 4.22987 15.2802 4.22987 15.1325C4.22987 14.9849 4.11012 14.8653 3.96249 14.8653H2.27046C1.70109 14.8653 1.23775 14.4019 1.23775 13.8326C1.23775 13.2632 1.70096 12.8 2.27032 12.7999H2.27046H2.27142H15.6959H15.6968H15.6971C16.2663 12.8 16.7295 13.2632 16.7295 13.8326C16.7295 14.4019 16.2662 14.8653 15.6968 14.8653H5.03187C4.88424 14.8653 4.76463 14.9849 4.76463 15.1325C4.76463 15.2802 4.88424 15.3999 5.03187 15.3999H6.12926C6.26453 16.8562 7.4928 18 8.98378 18C10.4746 18 11.7029 16.8562 11.8382 15.3999H15.697C16.5612 15.3999 17.2643 14.6968 17.2643 13.8326C17.2643 12.9682 16.5612 12.2651 15.697 12.2651ZM8.98378 0.534621C9.49574 0.534621 9.92393 0.900328 10.021 1.38414C9.69281 1.34541 9.34729 1.32522 8.98378 1.32522C8.62027 1.32522 8.27475 1.34527 7.94667 1.384C8.04376 0.90019 8.47182 0.534621 8.98378 0.534621ZM8.98378 17.4653C7.78792 17.4653 6.79984 16.5606 6.66677 15.3999H11.3007C11.1676 16.5606 10.1795 17.4653 8.98378 17.4653Z" fill="#333333"/>
        <path d="M13.2759 1.67764C13.2807 1.68025 13.7567 1.95189 14.225 2.58291C14.8523 3.42804 15.1702 4.48382 15.1702 5.72102C15.1702 5.86865 15.29 5.9884 15.4376 5.9884C15.5852 5.9884 15.705 5.86865 15.705 5.72102C15.705 4.01786 15.1234 2.88737 14.6355 2.23904C14.0993 1.52658 13.5581 1.22267 13.5353 1.21003C13.4064 1.1389 13.2446 1.18559 13.1729 1.31413C13.1012 1.44281 13.1475 1.6054 13.2759 1.67764Z" fill="#333333"/>
        <path d="M15.2932 1.77569C15.3362 1.80385 16.3468 2.48211 16.3468 4.18856C16.3468 4.33619 16.4665 4.45581 16.6142 4.45581C16.7618 4.45581 16.8814 4.33619 16.8814 4.18856C16.8814 2.17587 15.6346 1.35917 15.5814 1.32539C15.4574 1.24643 15.2935 1.28296 15.2138 1.40669C15.1342 1.53029 15.17 1.69536 15.2932 1.77569Z" fill="#333333"/>
        <path d="M2.52945 5.98844C2.67708 5.98844 2.79683 5.86869 2.79683 5.72106C2.79683 4.48386 3.11488 3.42808 3.74207 2.58295C4.20748 1.95591 4.68058 1.68372 4.69101 1.67768C4.81969 1.60613 4.86638 1.44381 4.79511 1.31485C4.72356 1.18563 4.56096 1.1388 4.43174 1.21007C4.40894 1.22271 3.86772 1.52662 3.33159 2.23908C2.8438 2.88741 2.26221 4.0179 2.26221 5.72106C2.26221 5.86869 2.38182 5.98844 2.52945 5.98844Z" fill="#333333"/>
        <path d="M1.35332 4.45579C1.50095 4.45579 1.62056 4.33618 1.62056 4.18855C1.62056 2.48347 2.62965 1.80479 2.67415 1.77582C2.79774 1.6963 2.834 1.53165 2.75504 1.4075C2.6758 1.28294 2.51059 1.24628 2.38589 1.32551C2.33289 1.3593 1.08594 2.17586 1.08594 4.18855C1.08594 4.33618 1.20569 4.45579 1.35332 4.45579Z" fill="#333333"/>
    </g>
    <defs>
        <clipPath id="clip0">
            <rect width="18" height="18" fill="white"/>
        </clipPath>
    </defs>
</svg>
