<svg width="24" height="24" viewBox="0 0 24 24" fill="none" xmlns="http://www.w3.org/2000/svg">
<g clip-path="url(#clip0)">
<path d="M15.4318 16.4447V16.0268C15.5499 15.9314 15.6634 15.827 15.7724 15.718C16.6453 14.7569 17.1949 13.5464 17.3441 12.2567C18.1285 12.1372 18.8356 11.7168 19.3154 11.0848C19.9741 10.1536 20.0331 8.81363 19.4835 7.13298C19.4512 7.03606 19.3872 6.95282 19.3018 6.89678L19.052 6.72871C19.0888 5.21226 18.5648 3.73555 17.5803 2.58158C16.3584 1.20526 14.4824 0.510282 11.9978 0.501198C9.51765 0.501198 7.63713 1.20526 6.41524 2.56341C5.43075 3.71738 4.90668 5.19409 4.94353 6.71054L4.69371 6.87861C4.60831 6.93465 4.54432 7.01789 4.51201 7.11481C3.96239 8.80455 4.02144 10.1354 4.68008 11.0666C5.1581 11.7031 5.86517 12.1283 6.65145 12.2522C6.80123 13.5439 7.35255 14.7561 8.22763 15.718C8.33579 15.8267 8.44947 15.9299 8.5683 16.0268V16.4447C6.8286 16.7809 -0.116612 18.4115 0.00148825 23.0447C0.00148825 23.2956 0.204871 23.4989 0.45572 23.4989H23.5443C23.7952 23.4989 23.9986 23.2956 23.9986 23.0447C24.1167 18.4115 17.1715 16.7809 15.4318 16.4447ZM6.37891 11.2392C5.99292 11.1096 5.65651 10.8637 5.41593 10.5352L5.43865 10.5397C4.98441 9.87654 4.94353 8.87268 5.3478 7.54633L5.67939 7.32375C5.81889 7.23064 5.89572 7.06825 5.87925 6.90132C5.80283 5.54374 6.2444 4.20767 7.11476 3.16299C8.14133 2.00016 9.79019 1.41875 11.9978 1.40966C14.2053 1.40058 15.8542 2.00016 16.8989 3.16299C17.7693 4.20767 18.2109 5.54374 18.1344 6.90132C18.118 7.06825 18.1948 7.23064 18.3343 7.32375L18.6659 7.54633C19.0701 8.86814 19.0429 9.87654 18.575 10.5397C18.3328 10.8685 17.9949 11.1144 17.6075 11.2438C18.1554 10.6203 18.4232 9.7992 18.3479 8.97261C18.2628 8.47529 18.0036 8.02452 17.6166 7.70077C17.4213 3.15845 14.2371 2.64971 12.8653 2.64971C12.575 2.64886 12.2849 2.67015 11.9978 2.7133C11.7106 2.6701 11.4205 2.64886 11.1302 2.64971C9.76748 2.64971 6.58785 3.14937 6.37891 7.70077C5.98946 8.02191 5.72703 8.47114 5.63851 8.96807C5.56276 9.79472 5.83053 10.6161 6.37891 11.2392ZM16.7127 7.51453C14.8067 7.62468 12.9126 7.14916 11.2846 6.15184C11.1004 6.02244 10.8491 6.04759 10.6941 6.21089C9.78565 7.18748 8.1277 7.4146 7.32825 7.46457C7.57354 4.25315 9.51765 3.55363 11.1529 3.55363C11.4132 3.55176 11.6731 3.57305 11.9296 3.61723C11.9896 3.62949 12.0514 3.62949 12.1113 3.61723C12.3678 3.57317 12.6278 3.55187 12.8881 3.55363C14.5097 3.55363 16.4629 4.27132 16.69 7.50999L16.7127 7.51453ZM7.48723 11.3255L7.5054 11.3301C7.50637 11.2181 7.46594 11.1097 7.39184 11.0257C6.76955 10.3126 6.48338 9.66305 6.5606 9.12705C6.59762 8.82851 6.74507 8.55466 6.97395 8.3594C7.57354 8.3594 9.69934 8.24584 11.062 7.06938C12.5967 7.95167 14.3338 8.42118 16.104 8.43208C16.4083 8.43208 16.7172 8.43208 17.0397 8.38211C17.2624 8.57221 17.4078 8.83714 17.4485 9.12705C17.5258 9.65396 17.2396 10.3126 16.6173 11.0257C16.5432 11.1097 16.5028 11.2181 16.5037 11.3301C16.5037 11.3301 16.5037 11.4209 16.5037 11.5663L13.8601 12.9835C13.3355 12.4868 12.5075 12.5094 12.0108 13.0341C11.5141 13.5587 11.5367 14.3867 12.0613 14.8834C12.586 15.3801 13.414 15.3575 13.9107 14.8328C14.1409 14.5897 14.2691 14.2676 14.2689 13.9328C14.271 13.8919 14.271 13.8511 14.2689 13.8102L16.3538 12.6928C16.1749 13.5885 15.7539 14.4179 15.1365 15.0911C14.3313 15.8664 13.2413 16.2741 12.1249 16.2176H11.8978C10.7839 16.2729 9.69628 15.8672 8.89081 15.0957C7.45544 13.6648 7.48723 11.3482 7.48723 11.3255ZM13.3605 13.9328C13.3605 14.1561 13.1794 14.3371 12.9562 14.3371C12.7329 14.3371 12.5519 14.1561 12.5519 13.9328C12.5519 13.7096 12.7329 13.5286 12.9562 13.5286C13.1794 13.5286 13.3605 13.7096 13.3605 13.9328ZM11.5435 22.5632H0.923579C1.28242 19.1519 6.8286 17.7257 8.56376 17.3577V18.1708C8.56376 19.2019 9.81744 19.9877 11.5435 20.1195V22.5632ZM9.47223 18.1708V18.1572V16.6037C10.2273 16.9539 11.052 17.1278 11.8842 17.1124H12.1113C12.9435 17.1278 13.7682 16.9539 14.5233 16.6037V18.1708C14.5233 18.6023 13.5376 19.2246 11.9978 19.2246C10.4579 19.2246 9.47223 18.6023 9.47223 18.1708ZM12.452 22.5768V20.1149C14.1781 19.9968 15.4318 19.2065 15.4318 18.1663V17.3714C17.1805 17.7347 22.6995 19.161 23.0719 22.5768H12.452Z" fill="#2BBCEE"/>
</g>
<defs>
<clipPath id="clip0">
<rect width="24" height="24" fill="white"/>
</clipPath>
</defs>
</svg>
