<svg width="48" height="54" viewBox="0 0 48 54" fill="none" xmlns="http://www.w3.org/2000/svg">
<path d="M45.8714 5.27916V5.28053V39.1196V39.1209C45.8725 39.531 45.7925 39.9373 45.6358 40.3166C45.4791 40.6958 45.2488 41.0407 44.9581 41.3313C44.6673 41.6219 44.3218 41.8525 43.9413 42.0099C43.5608 42.1673 43.1529 42.2484 42.7408 42.2484H35.6287H35.4609L35.327 42.3496L23.6924 51.1537L12.0577 42.3496L11.9239 42.2484H11.756H5.44967C5.03701 42.2484 4.62844 42.1673 4.24728 42.01C3.86614 41.8526 3.51992 41.622 3.22836 41.3314C2.93681 41.0408 2.70562 40.6959 2.54792 40.3164C2.39023 39.9369 2.30908 39.5302 2.30908 39.1196V5.28053C2.30908 4.45125 2.63957 3.6556 3.22836 3.06871C3.81721 2.48177 4.61621 2.15173 5.44967 2.15173H42.7408C43.1529 2.15173 43.5608 2.23277 43.9413 2.39018C44.3218 2.54758 44.6673 2.77823 44.9581 3.06883C45.2488 3.35942 45.4791 3.70425 45.6358 4.08352C45.7925 4.46279 45.8725 4.86908 45.8714 5.27916Z" stroke="white"/>
<path d="M24.2891 14.1048C23.6671 14.1196 23.0602 13.9121 22.5783 13.5198C22.3389 13.3153 22.1499 13.0588 22.0257 12.77C21.9016 12.4812 21.8456 12.1679 21.8621 11.8541C21.8523 11.5504 21.9127 11.2485 22.0386 10.9717C22.1645 10.6949 22.3525 10.4507 22.5882 10.2578C23.0552 9.84099 23.6623 9.61448 24.2891 9.6233C24.8934 9.61486 25.4814 9.81841 25.9503 10.1984C26.2 10.4012 26.3965 10.6615 26.523 10.9568C26.6495 11.2522 26.7021 11.5737 26.6764 11.8938C26.6941 12.2053 26.6396 12.5167 26.5171 12.8038C26.3946 13.0909 26.2075 13.3461 25.9702 13.5495C25.4967 13.9331 24.8987 14.1306 24.2891 14.1048ZM26.6764 18.8738V32.1198C26.7302 32.8767 26.4837 33.6244 25.9901 34.2019C25.7649 34.4334 25.4938 34.6155 25.1941 34.7367C24.8944 34.8579 24.5726 34.9155 24.2493 34.9059C23.927 34.9172 23.606 34.8583 23.3088 34.7333C23.0116 34.6083 22.7453 34.4202 22.5285 34.1821C22.0577 33.6012 21.8234 32.865 21.872 32.1198V19.0621C21.8179 18.3193 22.053 17.5843 22.5285 17.0098C22.7516 16.7825 23.02 16.6041 23.3164 16.4863C23.6127 16.3685 23.9305 16.3138 24.2493 16.3257C24.571 16.3152 24.8913 16.3706 25.1907 16.4882C25.4901 16.6059 25.7621 16.7834 25.9901 17.0098C26.4556 17.5171 26.7021 18.1867 26.6764 18.8738Z" fill="white"/>
<path d="M24.2692 39.3874C33.839 39.3874 41.5968 31.7301 41.5968 22.2845C41.5968 12.8388 33.839 5.18152 24.2692 5.18152C14.6995 5.18152 6.94165 12.8388 6.94165 22.2845C6.94165 31.7301 14.6995 39.3874 24.2692 39.3874Z" stroke="#FFA202" stroke-miterlimit="10"/>
</svg>
