<svg width="16" height="16" viewBox="0 0 16 16" fill="none" xmlns="http://www.w3.org/2000/svg">
    <path d="M3.23197 10.1208H0.3125V15.687H3.23197V10.1208Z" fill="#FF9155"/>
    <path d="M7.9993 6.65649C7.65414 6.65649 7.37436 6.37671 7.37436 6.03156V4.6879C7.37436 4.34274 7.65414 4.06296 7.9993 4.06296C8.68849 4.06296 9.24921 3.50224 9.24921 2.81305C9.24921 2.12386 8.68849 1.56314 7.9993 1.56314C7.31011 1.56314 6.74939 2.12386 6.74939 2.81305C6.74939 3.15821 6.46961 3.43799 6.12445 3.43799C5.77929 3.43799 5.49951 3.15821 5.49951 2.81305C5.49951 1.43464 6.62092 0.313232 7.99933 0.313232C9.37774 0.313232 10.4991 1.43464 10.4991 2.81305C10.4991 3.97574 9.70127 4.95559 8.6243 5.23377V6.03156C8.62424 6.37671 8.34445 6.65649 7.9993 6.65649Z" fill="#4BB9F5"/>
    <path d="M7.99949 9.25409C7.83511 9.25409 7.67389 9.18721 7.55761 9.07096C7.44107 8.95471 7.37451 8.7935 7.37451 8.62912C7.37451 8.46443 7.44107 8.30353 7.55761 8.18728C7.67389 8.07071 7.83511 8.00415 7.99949 8.00415C8.16387 8.00415 8.32509 8.07071 8.44134 8.18728C8.55759 8.30353 8.62447 8.46474 8.62447 8.62912C8.62447 8.7935 8.55756 8.95471 8.44134 9.07096C8.32509 9.18721 8.16387 9.25409 7.99949 9.25409Z" fill="#4BB9F5"/>
    <path d="M7.32288 10.2895L10.47 11.0883C10.8627 11.188 11.1234 11.5599 11.0831 11.963C11.0413 12.3815 10.6892 12.7002 10.2686 12.7002H8.07229L8.78123 12.7024H10.3309C10.767 12.7024 11.1869 12.5372 11.506 12.2399L14.1919 9.73855C14.5058 9.44624 14.9836 9.41958 15.328 9.67511C15.7746 10.0064 15.8111 10.6616 15.4041 11.0404L11.7042 14.4849C11.392 14.7754 10.9814 14.937 10.5548 14.937H3.23193V11.1873L5.81606 10.3408C6.30328 10.1811 6.82591 10.1634 7.32288 10.2895Z" fill="#FFCDAC"/>
    <path d="M15.9981 10.3226C15.9782 9.96499 15.8018 9.63752 15.5142 9.42415C15.0488 9.07883 14.4031 9.11483 13.9789 9.50984L11.399 11.9126C11.4147 11.3839 11.0672 10.9174 10.5468 10.7853L7.39594 9.98562C6.84338 9.84534 6.26481 9.86428 5.72256 10.0403L3.54434 10.7475V10.1207C3.54434 9.94818 3.40441 9.80828 3.23188 9.80828H0.312469C0.139906 9.80828 0 9.94821 0 10.1207V15.6869C0 15.8595 0.139938 15.9994 0.312469 15.9994H3.23191C3.40447 15.9994 3.54438 15.8595 3.54438 15.6869V11.4046L5.91556 10.6348C6.34547 10.4952 6.80422 10.4802 7.24222 10.5913L10.3931 11.3911C10.6378 11.4532 10.7973 11.6806 10.7722 11.9319C10.7463 12.1918 10.5298 12.3877 10.2686 12.3877H8.07228C7.89972 12.3877 7.75981 12.5277 7.75981 12.7002C7.75981 12.8727 7.89975 13.0127 8.07228 13.0127H8.74547C8.75722 13.014 8.76913 13.0149 8.78125 13.0149H10.3309C10.8478 13.0149 11.3407 12.8208 11.7191 12.4686L14.4049 9.96718C14.6085 9.77756 14.9185 9.76034 15.1419 9.92606C15.28 10.0285 15.3646 10.1857 15.3742 10.3573C15.3838 10.529 15.317 10.6946 15.1912 10.8117L11.4913 14.2561C11.236 14.4937 10.9034 14.6245 10.5548 14.6245H5.71238C5.53981 14.6245 5.39991 14.7645 5.39991 14.937C5.39991 15.1095 5.53984 15.2495 5.71238 15.2495H10.5548C11.062 15.2495 11.5458 15.0591 11.9171 14.7135L15.617 11.2691C15.8791 11.0251 16.018 10.6801 15.9981 10.3226ZM2.91944 15.3745H0.624938V10.4332H2.91941V15.3745H2.91944Z" fill="black"/>
    <path d="M4.45145 14.6245C4.36892 14.6245 4.28864 14.6579 4.23023 14.7161C4.17211 14.7742 4.13867 14.8548 4.13867 14.937C4.13867 15.0191 4.17208 15.0998 4.23023 15.1579C4.28867 15.216 4.36895 15.2494 4.45145 15.2494C4.53364 15.2494 4.61395 15.216 4.67236 15.1579C4.73045 15.0998 4.76392 15.0191 4.76392 14.937C4.76392 14.8548 4.73049 14.7742 4.67236 14.7161C4.61392 14.6579 4.53364 14.6245 4.45145 14.6245Z" fill="black"/>
    <path d="M1.77243 14.3018C1.68993 14.3018 1.6093 14.3349 1.55121 14.3933C1.49312 14.4514 1.45996 14.5318 1.45996 14.6142C1.45996 14.6964 1.49312 14.777 1.55121 14.8351C1.60965 14.8932 1.68996 14.9267 1.77243 14.9267C1.85462 14.9267 1.93493 14.8933 1.99305 14.8351C2.05146 14.777 2.0849 14.6964 2.0849 14.6142C2.0849 14.5317 2.05146 14.4514 1.99305 14.3933C1.93521 14.3352 1.85458 14.3018 1.77243 14.3018Z" fill="black"/>
    <path d="M6.12442 3.75018C6.64133 3.75018 7.06186 3.32965 7.06186 2.81274C7.06186 2.29584 7.48239 1.8753 7.9993 1.8753C8.51621 1.8753 8.93674 2.29584 8.93674 2.81274C8.93674 3.32965 8.51621 3.75018 7.9993 3.75018C7.48239 3.75018 7.06186 4.17072 7.06186 4.68762V6.03128C7.06186 6.54819 7.48239 6.96872 7.9993 6.96872C8.51621 6.96872 8.93674 6.54819 8.93674 6.03128V5.46456C10.0521 5.07087 10.8116 4.01312 10.8116 2.81278C10.8116 1.26208 9.54999 0.000488281 7.9993 0.000488281C6.44861 0.000488281 5.18701 1.26208 5.18701 2.81278C5.18698 3.32965 5.60751 3.75018 6.12442 3.75018ZM7.99927 0.625427C9.20539 0.625427 10.1866 1.60668 10.1866 2.81278C10.1866 3.81043 9.51202 4.68144 8.54608 4.93097C8.40811 4.96659 8.31177 5.09106 8.31177 5.2335V6.03128C8.31177 6.20359 8.17158 6.34375 7.9993 6.34375C7.82702 6.34375 7.68683 6.20356 7.68683 6.03128V4.68762C7.68683 4.51531 7.82702 4.37515 7.9993 4.37515C8.8608 4.37515 9.56168 3.67428 9.56168 2.81278C9.56168 1.95127 8.8608 1.2504 7.9993 1.2504C7.1378 1.2504 6.43692 1.95127 6.43692 2.81278C6.43692 2.98509 6.29673 3.12524 6.12445 3.12524C5.95217 3.12524 5.81198 2.98506 5.81198 2.81278C5.81192 1.60668 6.79314 0.625427 7.99927 0.625427Z" fill="black"/>
    <path d="M7.33692 7.96575C7.1622 8.14 7.06201 8.38169 7.06201 8.62882C7.06201 8.87595 7.16223 9.11767 7.33661 9.29161C7.51117 9.46617 7.75273 9.56624 7.99942 9.56624C8.24614 9.56624 8.48773 9.46611 8.6622 9.29161C8.83676 9.11705 8.93683 8.87548 8.93683 8.62882C8.93683 8.38216 8.83673 8.14057 8.66251 7.96635C8.48826 7.79159 8.24658 7.69141 7.99942 7.69141C7.75229 7.69138 7.51057 7.79159 7.33692 7.96575ZM8.31189 8.62882C8.31189 8.70979 8.27764 8.79235 8.22023 8.8497C8.16292 8.90704 8.08033 8.94129 7.99942 8.94129C7.91848 8.94129 7.83586 8.90704 7.77823 8.84942C7.72108 8.79242 7.68695 8.70992 7.68695 8.62882C7.68695 8.54648 7.7202 8.46607 7.77879 8.40766C7.83583 8.35051 7.91833 8.31635 7.99942 8.31635C8.08051 8.31635 8.16298 8.35048 8.22026 8.40798C8.27764 8.46529 8.31189 8.54785 8.31189 8.62882Z" fill="black"/>
    <path d="M1.77243 13.6871C1.94499 13.6871 2.0849 13.5472 2.0849 13.3746V11.3904C2.0849 11.2178 1.94496 11.0779 1.77243 11.0779C1.5999 11.0779 1.45996 11.2178 1.45996 11.3904V13.3746C1.45993 13.5472 1.59984 13.6871 1.77243 13.6871Z" fill="black"/>
</svg>
