<svg width="24" height="24" viewBox="0 0 24 24" fill="none" xmlns="http://www.w3.org/2000/svg">
    <g clip-path="url(#clip0)">
        <path d="M5.41172 12C3.58851 10.3123 2.03237 8.34182 0.805302 6.15873C0.530478 5.67486 0.387207 5.12521 0.387207 4.56763C0.387207 3.63485 0.789803 2.74442 1.49425 2.12899L2.84909 0.940674L6.96785 5.80641L6.73953 6.03474C6.39099 6.38328 6.19366 6.8594 6.19366 7.3548C6.19366 7.8502 6.39099 8.32632 6.73953 8.67486L7.58328 9.51861C7.93181 9.86715 8.40794 10.0645 8.90334 10.0645C9.39874 10.0645 9.87486 9.86715 10.2234 9.51861L10.4517 9.29028L15.3175 13.409L14.1059 14.7909C13.9394 14.9845 13.7498 15.151 13.5485 15.2941C13.0801 14.969 12.5575 14.7134 12.0001 14.5509V14.5471L6.96785 14.3225L5.41172 12Z" fill="#FCD770"/>
        <path d="M15.871 12.0734C15.871 12.5263 15.7085 12.9598 15.4104 13.3004L15.3174 13.4089L10.4517 9.29017L11.1058 8.636C11.4156 8.32621 11.8762 8.21791 12.2942 8.35721L12.4877 8.41921C12.6775 8.48498 12.8517 8.58176 12.9988 8.71331L15.2323 10.6683C15.6387 11.0206 15.871 11.5353 15.871 12.0734Z" fill="#FFEAA7"/>
        <path d="M7.90085 3.96407C8.04016 4.38198 7.93185 4.8426 7.62206 5.15239L6.96789 5.80656L2.84912 0.940823L2.95761 0.84783C3.29821 0.549757 3.73181 0.387207 4.18468 0.387207C4.7228 0.387207 5.23748 0.619503 5.5898 1.02588L7.54476 3.25943C7.67631 3.40649 7.77308 3.58076 7.83886 3.77052L7.90085 3.96407Z" fill="#FFEAA7"/>
        <path d="M12 12V14.5471C11.5083 14.4001 10.9897 14.3226 10.4516 14.3226H6.58061C6.0425 14.3226 5.52385 14.4001 5.03223 14.5471V12H6.96771C6.96771 12.4258 7.31606 12.7742 7.7419 12.7742H9.29029C9.50312 12.7742 9.69667 12.6889 9.83616 12.5459C9.97924 12.4064 10.0645 12.2128 10.0645 12H12Z" fill="#838F9B"/>
        <path d="M13.5482 15.294C13.0799 14.9689 12.5572 14.7134 11.9998 14.5508V14.5471C11.5082 14.4 10.9896 14.3225 10.4515 14.3225H6.58049C6.04237 14.3225 5.52372 14.4 5.0321 14.5471V14.5508C2.79476 15.2128 1.16113 17.2877 1.16113 19.7419V22.0644H15.8708V19.7419C15.8708 17.9032 14.9533 16.2735 13.5482 15.294Z" fill="#CCD1D9"/>
        <path d="M16.6453 22.8386V23.6128H0.387207V22.8386C0.387207 22.4128 0.735556 22.0645 1.1614 22.0645H15.8711C16.2969 22.0645 16.6453 22.4128 16.6453 22.8386Z" fill="#969FAA"/>
        <path d="M12.387 18.1935C12.387 20.3303 10.6528 22.0644 8.51599 22.0644C6.37921 22.0644 4.64502 20.3303 4.64502 18.1935C4.64502 16.0567 6.37921 14.3225 8.51599 14.3225C10.6528 14.3225 12.387 16.0567 12.387 18.1935Z" fill="#E6E9ED"/>
        <path d="M10.0645 18.1937C10.0645 19.0487 9.37125 19.742 8.51616 19.742C7.66107 19.742 6.96777 19.0487 6.96777 18.1937C6.96777 17.3386 7.66107 16.6453 8.51616 16.6453C9.37125 16.6453 10.0645 17.3386 10.0645 18.1937Z" fill="#FF826E"/>
        <path d="M23.6128 13.9355V17.0323C23.6128 17.4581 23.2644 17.8065 22.8386 17.8065H17.4192C16.9934 17.8065 16.645 17.4581 16.645 17.0323V13.9355C16.645 13.5096 16.9934 13.1613 17.4192 13.1613H18.5805V12L20.9031 13.1613H22.8386C23.2644 13.1613 23.6128 13.5096 23.6128 13.9355Z" fill="#FFEAA7"/>
        <path d="M23.6129 5.41946C23.6129 8.1987 21.3598 10.4517 18.5806 10.4517C15.8014 10.4517 13.5483 8.1987 13.5483 5.41946C13.5483 2.64023 15.8014 0.387207 18.5806 0.387207C21.3598 0.387207 23.6129 2.64023 23.6129 5.41946Z" fill="#E6E9ED"/>
        <path d="M22.0644 8.12883V8.90303H15.0967V8.12883C15.0967 7.43988 15.5535 6.83599 16.2115 6.65019L17.8064 6.19335V5.59342C17.3457 5.32238 17.0322 4.83076 17.0322 4.25787V3.48367C17.0322 2.58171 17.8026 1.86176 18.7199 1.94303C19.5328 2.01278 20.1289 2.74823 20.1289 3.56495V4.25787C20.1289 4.83076 19.8154 5.32238 19.3547 5.59342V6.19335L20.9496 6.65019C21.6076 6.83599 22.0644 7.43988 22.0644 8.12883Z" fill="#FF826E"/>
        <path d="M16.2581 21.7487V19.7419C16.2581 17.9512 15.4425 16.3482 14.1642 15.2826C14.2443 15.2068 14.3237 15.13 14.3965 15.0469L15.7003 13.5565C16.0598 13.1458 16.2581 12.619 16.2581 12.0728C16.2581 11.4224 15.9774 10.8043 15.4886 10.3766L13.2554 8.42276C13.0668 8.25718 12.85 8.13338 12.6116 8.05399L12.4162 7.9886C11.8556 7.80034 11.2494 7.94475 10.8317 8.36284L9.95111 9.24307C9.39144 9.80255 8.41501 9.80255 7.85534 9.24307L7.01462 8.40234C6.73904 8.12676 6.58065 7.74496 6.58065 7.35484C6.58065 6.96472 6.73904 6.58291 7.01462 6.30696L7.89522 5.42673C8.31256 5.00939 8.45621 4.40247 8.26909 3.84224L8.20407 3.64642C8.12468 3.40883 8.00088 3.19204 7.83531 3.00302L5.88111 0.769468C5.453 0.280683 4.83531 0 4.18529 0C3.63905 0 3.11227 0.198274 2.70117 0.557397L1.2403 1.83569C0.452117 2.52539 0 3.52186 0 4.56937C0 5.19178 0.161416 5.80759 0.466482 6.35024C1.59677 8.35944 3.00227 10.1883 4.64516 11.7995V14.2742C2.39384 15.0739 0.774194 17.2196 0.774194 19.7419V21.7487C0.324723 21.909 0 22.3348 0 22.8387V24H17.0323V22.8387C17.0323 22.3348 16.7075 21.909 16.2581 21.7487ZM15.4839 19.7419V21.6774H10.9568C12.0539 20.9062 12.7742 19.6336 12.7742 18.1935C12.7742 16.7722 12.0716 15.5145 10.9982 14.7407C13.5166 15.0144 15.4839 17.1519 15.4839 19.7419ZM8.51613 14.7097C10.4369 14.7097 12 16.2724 12 18.1935C12 20.1147 10.4369 21.6774 8.51613 21.6774C6.59539 21.6774 5.03226 20.1147 5.03226 18.1935C5.03226 16.2724 6.59539 14.7097 8.51613 14.7097ZM12.1707 8.72291L12.3661 8.78831C12.5067 8.83518 12.6341 8.90833 12.7451 9.00586L14.9783 10.9599C15.2996 11.2402 15.4839 11.6462 15.4839 12.0728C15.4839 12.3499 15.4041 12.6186 15.2597 12.8517L11.023 9.26632L11.3791 8.91022C11.5878 8.70117 11.8913 8.62991 12.1707 8.72291ZM5.29858 1.27942L7.2522 3.51298C7.34974 3.62431 7.4225 3.7517 7.46938 3.89157L7.5344 4.08739C7.62777 4.36769 7.55614 4.67106 7.34747 4.87972L6.99099 5.23582L3.40638 0.998362C3.63905 0.853957 3.9082 0.774194 4.18529 0.774194C4.6119 0.774194 5.01752 0.95848 5.29858 1.27942ZM1.14126 5.97051C0.90121 5.54354 0.774194 5.05891 0.774194 4.56937C0.774194 3.74509 1.12991 2.96125 1.75006 2.4186L2.80948 1.49149L6.44323 5.78585C6.03875 6.20357 5.80645 6.77268 5.80645 7.35484C5.80645 7.94871 6.04725 8.53012 6.46724 8.9501L7.30796 9.79083C7.73381 10.217 8.30047 10.4516 8.90323 10.4516C9.49389 10.4516 10.049 10.2248 10.4722 9.81483L14.7666 13.449L13.8143 14.5375C13.7245 14.6403 13.6246 14.7337 13.5206 14.8219C13.1664 14.6 12.787 14.4163 12.3871 14.2746V11.6129H9.67742V12C9.67742 12.2136 9.50353 12.3871 9.29032 12.3871H7.74194C7.52873 12.3871 7.35484 12.2136 7.35484 12V11.6129H5.56678C3.81143 9.96623 2.32182 8.06949 1.14126 5.97051ZM5.41935 12.3871H6.6468C6.8067 12.8377 7.23708 13.1613 7.74194 13.1613H9.29032C9.79517 13.1613 10.2256 12.8377 10.3855 12.3871H11.6129V14.0523C11.2373 13.9761 10.8491 13.9355 10.4516 13.9355H6.58065C6.18315 13.9355 5.79492 13.9761 5.41935 14.0523V12.3871ZM6.03402 14.7407C4.96062 15.5145 4.25806 16.7722 4.25806 18.1935C4.25806 19.6336 4.97839 20.9062 6.07542 21.6774H1.54839V19.7419C1.54839 17.1519 3.51562 15.0144 6.03402 14.7407ZM16.2581 23.2258H0.774194V22.8387C0.774194 22.6251 0.948085 22.4516 1.16129 22.4516H15.871C16.0842 22.4516 16.2581 22.6251 16.2581 22.8387V23.2258Z" fill="black"/>
        <path d="M8.51605 20.129C9.58321 20.129 10.4515 19.2607 10.4515 18.1935C10.4515 17.1264 9.58321 16.2581 8.51605 16.2581C7.44889 16.2581 6.58057 17.1264 6.58057 18.1935C6.58057 19.2607 7.44889 20.129 8.51605 20.129ZM8.51605 17.0323C9.15623 17.0323 9.67734 17.5534 9.67734 18.1935C9.67734 18.8337 9.15623 19.3548 8.51605 19.3548C7.87587 19.3548 7.35476 18.8337 7.35476 18.1935C7.35476 17.5534 7.87587 17.0323 8.51605 17.0323Z" fill="black"/>
        <path d="M8.12891 15.0967H8.9031V15.8709H8.12891V15.0967Z" fill="black"/>
        <path d="M6.05371 16.2778L6.60109 15.7302L7.14866 16.2774L6.60147 16.8252L6.05371 16.2778Z" fill="black"/>
        <path d="M5.41943 17.8064H6.19363V18.5806H5.41943V17.8064Z" fill="black"/>
        <path d="M6.05371 20.1099L6.60128 19.5627L7.14866 20.1103L6.6009 20.6577L6.05371 20.1099Z" fill="black"/>
        <path d="M8.12891 20.5161H8.9031V21.2903H8.12891V20.5161Z" fill="black"/>
        <path d="M9.88574 20.1098L10.4329 19.5623L10.9807 20.1094L10.4333 20.6572L9.88574 20.1098Z" fill="black"/>
        <path d="M10.8389 17.8064H11.6131V18.5806H10.8389V17.8064Z" fill="black"/>
        <path d="M9.88574 16.2778L10.4335 15.7305L10.9807 16.2782L10.4331 16.8254L9.88574 16.2778Z" fill="black"/>
        <path d="M18.5805 10.8387C21.569 10.8387 23.9998 8.40782 23.9998 5.41935C23.9998 2.43088 21.569 0 18.5805 0C15.592 0 13.1611 2.43088 13.1611 5.41935C13.1611 8.40782 15.592 10.8387 18.5805 10.8387ZM18.001 5.25718C17.6368 5.04511 17.4192 4.67143 17.4192 4.25806V3.48387C17.4192 3.15915 17.5566 2.84709 17.7963 2.62765C18.0386 2.40499 18.3525 2.2982 18.6858 2.32731C19.2776 2.37872 19.7418 2.92213 19.7418 3.56439V4.25806C19.7418 4.67143 19.5242 5.04511 19.16 5.25718L18.9676 5.36908V6.48538L20.8411 7.02123C21.3335 7.16167 21.6773 7.61738 21.6773 8.12903V8.51613H15.4837V8.12903C15.4837 7.61738 15.8275 7.16167 16.3199 7.02123L18.1934 6.48538V5.36908L18.001 5.25718ZM16.0182 9.29032H21.1427C20.4077 9.77854 19.5272 10.0645 18.5805 10.0645C17.6337 10.0645 16.7533 9.77854 16.0182 9.29032ZM18.5805 0.774193C21.142 0.774193 23.2256 2.85786 23.2256 5.41935C23.2256 6.37349 22.9357 7.26071 22.4407 7.99937C22.3853 7.19815 21.8343 6.49975 21.0541 6.27634L19.7418 5.90171V5.79832C20.2241 5.43485 20.516 4.86309 20.516 4.25806V3.56439C20.516 2.52388 19.7414 1.64176 18.7523 1.55614C18.2112 1.50926 17.6715 1.69166 17.2729 2.05702C16.8737 2.42276 16.645 2.94311 16.645 3.48387V4.25806C16.645 4.86309 16.9368 5.43485 17.4192 5.79832V5.90171L16.1069 6.27634C15.3266 6.49975 14.7757 7.19815 14.7203 7.99937C14.2253 7.26071 13.9353 6.37349 13.9353 5.41935C13.9353 2.85786 16.019 0.774193 18.5805 0.774193Z" fill="black"/>
        <path d="M21.6772 15.8708H22.4514V16.645H21.6772V15.8708Z" fill="black"/>
        <path d="M17.8066 15.8708H20.9034V16.645H17.8066V15.8708Z" fill="black"/>
        <path d="M17.8066 14.3225H22.4518V15.0967H17.8066V14.3225Z" fill="black"/>
        <path d="M22.8389 12.7741H20.9948L18.1938 11.3735V12.7741H17.4196C16.7794 12.7741 16.2583 13.2952 16.2583 13.9354V17.0322C16.2583 17.6724 16.7794 18.1935 17.4196 18.1935H22.8389C23.4791 18.1935 24.0002 17.6724 24.0002 17.0322V13.9354C24.0002 13.2952 23.4791 12.7741 22.8389 12.7741ZM23.226 17.0322C23.226 17.2458 23.0522 17.4193 22.8389 17.4193H17.4196C17.2064 17.4193 17.0325 17.2458 17.0325 17.0322V13.9354C17.0325 13.7218 17.2064 13.5483 17.4196 13.5483H18.968V12.6263L20.8122 13.5483H22.8389C23.0522 13.5483 23.226 13.7218 23.226 13.9354V17.0322Z" fill="black"/>
    </g>
    <defs>
        <clipPath id="clip0">
            <rect width="24" height="24" fill="white"/>
        </clipPath>
    </defs>
</svg>
