<svg width="14" height="16" viewBox="0 0 14 16" fill="none" xmlns="http://www.w3.org/2000/svg">
    <path d="M10.95 5.99999C12.6 5.99999 13.95 4.64999 13.95 2.99999C13.95 1.35 12.6 0 10.95 0C9.3 0 7.95 1.35 7.95 2.99999C7.95 3.19999 8 3.44999 8.05 3.64999L4.85 5.64998C4.35 5.24998 3.7 4.99999 3 4.99999C1.35 4.99999 0 6.34999 0 7.99998C0 9.64998 1.35 11 3 11C3.7 11 4.35 10.75 4.85 10.35L8.05 12.35C8 12.55 7.95 12.8 7.95 13C7.95 14.65 9.3 16 10.95 16C12.6 16 13.95 14.65 13.95 13C13.95 11.35 12.6 9.99998 10.95 9.99998C10.25 9.99998 9.6 10.25 9.1 10.65L5.9 8.64998C5.95 8.44998 6 8.19998 6 7.99998C6 7.79998 5.95 7.54999 5.9 7.34999L9.1 5.35C9.6 5.75 10.25 5.99999 10.95 5.99999Z" fill="#666666"/>
</svg>
