<svg width="16" height="16" viewBox="0 0 16 16" fill="none" xmlns="http://www.w3.org/2000/svg">
    <path d="M15.6285 11.6451C15.4454 11.8281 15.1487 11.8281 14.9656 11.6451L11.894 8.57361L12.557 7.91064L15.6285 10.9822C15.8115 11.1653 15.8115 11.462 15.6285 11.6451Z" fill="#484B63"/>
    <path d="M0.234375 1.95312H10.0781V15.7656H0.234375V1.95312Z" fill="#D8D5ED"/>
    <path d="M1.25 9.61646H3.125V14.679H1.25V9.61646Z" fill="#FF2C5C"/>
    <path d="M4.1875 7.74146H6.0625V14.679H4.1875V7.74146Z" fill="#FFD659"/>
    <path d="M7.1875 8.42896H9.0625V14.679H7.1875V8.42896Z" fill="#4FC6F5"/>
    <path d="M2.1875 9.61646H3.125V14.679H2.1875V9.61646Z" fill="#E62753"/>
    <path d="M5.125 7.74146H6.0625V14.679H5.125V7.74146Z" fill="#FFBD54"/>
    <path d="M8.125 8.42896H9.0625V14.679H8.125V8.42896Z" fill="#3BB3E3"/>
    <path d="M12.7604 1.6897C10.82 -0.250732 7.67398 -0.250732 5.73355 1.6897C3.79324 3.63 3.79324 6.776 5.73355 8.71643C7.67398 10.6569 10.82 10.6569 12.7604 8.71643C14.7008 6.776 14.7008 3.63 12.7604 1.6897Z" fill="#50536E"/>
    <path d="M12.0977 8.05376C10.5259 9.62553 7.96851 9.62553 6.39661 8.05376C4.82483 6.48198 4.82483 3.92448 6.39661 2.35271C7.96838 0.780807 10.5259 0.78093 12.0977 2.35271C13.6696 3.92448 13.6696 6.48198 12.0977 8.05376Z" fill="#B5FCFF"/>
    <path d="M12.0975 2.35258C11.1925 1.44743 9.96069 1.06364 8.77832 1.20097C9.64929 1.30204 10.4934 1.68583 11.16 2.35258C12.7318 3.92436 12.7318 6.48185 11.16 8.05363C10.4934 8.72038 9.64929 9.10405 8.77832 9.20524C9.96069 9.34245 11.1925 8.95866 12.0975 8.05363C13.6693 6.48185 13.6693 3.92436 12.0975 2.35258Z" fill="#71F6FC"/>
    <path d="M15.7945 10.7557L13.39 8.35078C13.9709 7.58528 14.3336 6.66768 14.4266 5.70565C14.5405 4.52498 14.2464 3.33212 13.5985 2.34664C13.5273 2.23849 13.3819 2.20846 13.2739 2.27963C13.1657 2.3508 13.1357 2.49618 13.2069 2.60433C14.4331 4.46908 14.1759 6.96993 12.5953 8.55061C10.7492 10.3968 7.74571 10.3968 5.89977 8.55061C4.0537 6.70442 4.0537 3.7004 5.89977 1.85421C7.74571 0.00802611 10.7494 0.00802611 12.5947 1.8536L12.6075 1.86654C12.6988 1.95834 12.8471 1.95895 12.9389 1.86764C13.0309 1.77646 13.0313 1.62802 12.9402 1.53622L12.9267 1.52267C10.8979 -0.506255 7.59703 -0.506255 5.56823 1.52267C5.50451 1.58639 5.44286 1.65133 5.38317 1.7175H0.234375C0.10498 1.7175 0 1.82248 0 1.95187V2.98849C0 3.11801 0.10498 3.22299 0.234375 3.22299C0.363891 3.22299 0.468749 3.11801 0.468749 2.98849V2.18637H5.00719C4.82812 2.43795 4.67406 2.70187 4.54503 2.97494H1.625C1.4956 2.97494 1.39062 3.0798 1.39062 3.20931C1.39062 3.33883 1.4956 3.44369 1.625 3.44369H4.35107C4.2838 3.63192 4.22778 3.8232 4.18285 4.01669H1.625C1.4956 4.01669 1.39062 4.12154 1.39062 4.25106C1.39062 4.38045 1.4956 4.48543 1.625 4.48543H4.09618C4.06994 4.6755 4.05419 4.86678 4.04894 5.05831H1.625C1.4956 5.05831 1.39062 5.16329 1.39062 5.29281C1.39062 5.4222 1.4956 5.52718 1.625 5.52718H4.05712C4.09936 6.20809 4.27404 6.88216 4.58178 7.50679H4.18761C4.0581 7.50679 3.95324 7.61177 3.95324 7.74129V14.6798C3.95324 14.8093 4.0581 14.9142 4.18761 14.9142H6.06261C6.19213 14.9142 6.29698 14.8093 6.29698 14.6798V9.48921C6.50804 9.63459 6.7274 9.76277 6.95323 9.87349V14.6798C6.95323 14.8093 7.05821 14.9142 7.18761 14.9142H9.0626C9.19212 14.9142 9.29698 14.8093 9.29698 14.6798V10.4034C9.47972 10.4016 9.66221 10.3905 9.84398 10.3697V13.9902C9.84398 14.1197 9.94883 14.2247 10.0783 14.2247C10.2077 14.2247 10.3127 14.1197 10.3127 13.9902V10.2943C11.0536 10.1405 11.7671 9.82429 12.3957 9.34565L14.7998 11.7501C14.9327 11.8829 15.1093 11.9561 15.2971 11.9561C15.485 11.9561 15.6616 11.8829 15.7944 11.7501C16.0684 11.4761 16.0686 11.0301 15.7945 10.7557ZM5.82824 14.4454H4.42199V7.97566H4.84423C5.04699 8.29756 5.2882 8.602 5.56823 8.88215C5.6527 8.96663 5.73961 9.04731 5.82824 9.12471V14.4454ZM7.4221 14.4454V10.0751C7.87669 10.2447 8.35033 10.3485 8.82835 10.3868V14.4454H7.4221ZM15.4631 11.4185C15.4188 11.4628 15.3598 11.4873 15.2972 11.4873C15.2346 11.4873 15.1756 11.4628 15.1314 11.4185L12.7571 9.04402C12.8146 8.99141 12.8712 8.9377 12.9267 8.88215C12.9822 8.82673 13.0361 8.77022 13.0887 8.71248L15.4629 11.0871C15.5543 11.1785 15.5544 11.3273 15.4631 11.4185Z" fill="black"/>
    <path d="M10.0784 14.7655C9.94897 14.7655 9.84399 14.8704 9.84399 14.9999V15.5312H0.46875V4.00342C0.46875 3.8739 0.363892 3.76904 0.234375 3.76904C0.10498 3.76904 0 3.8739 0 4.00342V15.7656C0 15.8951 0.10498 16 0.234375 16H10.0784C10.2079 16 10.3127 15.8951 10.3127 15.7656V14.9999C10.3127 14.8704 10.2079 14.7655 10.0784 14.7655Z" fill="black"/>
    <path d="M1.01562 9.61548V14.6788C1.01562 14.8082 1.12061 14.9132 1.25 14.9132H3.12512C3.25452 14.9132 3.3595 14.8082 3.3595 14.6788V9.61548C3.3595 9.48608 3.25452 9.3811 3.12512 9.3811H1.25C1.12061 9.3811 1.01562 9.48608 1.01562 9.61548ZM1.48438 9.84998H2.89075V14.4443H1.48438V9.84998Z" fill="black"/>
    <path d="M3.37756 6.56824C3.50708 6.56824 3.61194 6.46326 3.61194 6.33374C3.61194 6.20435 3.50708 6.09937 3.37756 6.09937H1.625C1.49561 6.09937 1.39062 6.20435 1.39062 6.33374C1.39062 6.46326 1.49561 6.56824 1.625 6.56824H3.37756Z" fill="black"/>
    <path d="M9.24731 0.937012C8.10669 0.937012 7.0354 1.38013 6.23096 2.18469C5.42651 2.98926 4.9834 4.06067 4.9834 5.20142C4.9834 6.34216 5.42651 7.41357 6.23096 8.21814C7.03552 9.02271 8.10669 9.46582 9.24731 9.46582C10.3879 9.46582 11.4591 9.02271 12.2637 8.21814C13.0681 7.41357 13.5111 6.34216 13.5111 5.20142C13.5111 4.06067 13.0681 2.98926 12.2637 2.18469C11.4591 1.38013 10.3879 0.937012 9.24731 0.937012ZM11.9321 7.8866C11.2162 8.60266 10.2627 8.99695 9.24731 8.99695C8.23181 8.99695 7.27844 8.60266 6.5625 7.8866C5.84644 7.17053 5.45215 6.21692 5.45215 5.20142C5.45215 4.18579 5.84644 3.23218 6.5625 2.51611C7.30261 1.77588 8.27502 1.40564 9.24731 1.40564C10.2196 1.40564 11.192 1.77588 11.9321 2.51611C12.6481 3.23218 13.0424 4.18579 13.0424 5.20142C13.0424 6.21692 12.6481 7.17053 11.9321 7.8866Z" fill="black"/>
</svg>
