<svg width="30" height="30" viewBox="0 0 30 30" fill="none" xmlns="http://www.w3.org/2000/svg">
    <g clip-path="url(#clip0)">
        <path d="M18.9999 14.7498C19.5521 14.7498 19.9999 15.1975 19.9999 15.7498V29.7499H17.9999V15.7498C17.9999 15.1975 18.4476 14.7498 18.9999 14.7498Z" fill="#60A2D7"/>
        <path d="M23 12.7498C23.5522 12.7498 24 13.1975 24 13.7498V29.7499H21.9999V13.7498C21.9999 13.1975 22.4477 12.7498 23 12.7498Z" fill="#EE638C"/>
        <path d="M14.9999 11.7498C15.5521 11.7498 15.9999 12.1975 15.9999 12.7498V29.7499H13.9999V12.7498C13.9999 12.1975 14.4476 11.7498 14.9999 11.7498Z" fill="#EE638C"/>
        <path d="M2.99977 16.7498C3.55202 16.7498 3.99978 17.1975 3.99978 17.7498V29.7498H1.99976V17.7498C1.99976 17.1975 2.44751 16.7498 2.99977 16.7498Z" fill="#60A2D7"/>
        <path d="M6.99982 13.7498C7.55207 13.7498 7.99983 14.1975 7.99983 14.7498V29.7499H5.99982V14.7498C5.99982 14.1975 6.44757 13.7498 6.99982 13.7498Z" fill="#EE638C"/>
        <path d="M27 6.74976C27.5523 6.74976 28 7.19751 28 7.74976V29.75H26V7.74976C26 7.19751 26.4478 6.74976 27 6.74976Z" fill="#60A2D7"/>
        <path d="M0.49976 13.2498C0.292971 13.2498 0.107666 13.1226 0.033447 12.9297C-0.0407724 12.7369 0.0109859 12.5181 0.164308 12.3794L10.6644 2.87935C10.8524 2.70919 11.1378 2.7065 11.329 2.87325L18.9999 9.58449L27.1694 2.37471C27.3774 2.20039 27.6865 2.22359 27.866 2.4272C28.0457 2.63082 28.0298 2.94039 27.8306 3.12472L19.3305 10.6248C19.1418 10.7903 18.8595 10.7903 18.6708 10.6248L11.0052 3.9194L0.835212 13.1194C0.743414 13.2032 0.624029 13.2496 0.49976 13.2498Z" fill="#F7CC38"/>
        <path d="M29.5 4.24955C29.2239 4.24955 29 4.02591 29 3.74954V1.24952H26.5C26.2239 1.24952 26 1.02589 26 0.749516C26 0.473391 26.2239 0.249512 26.5 0.249512H29.5C29.7762 0.249512 30 0.473391 30 0.749516V3.74954C30 4.02591 29.7762 4.24955 29.5 4.24955Z" fill="#F7CC38"/>
        <path d="M10.9998 7.74976C11.5521 7.74976 11.9998 8.19751 11.9998 8.74976V29.7499H9.99982V8.74976C9.99982 8.19751 10.4476 7.74976 10.9998 7.74976Z" fill="#60A2D7"/>
    </g>
    <defs>
        <clipPath id="clip0">
            <rect width="30" height="30" fill="white"/>
        </clipPath>
    </defs>
</svg>
