<svg width="53" height="50" viewBox="0 0 53 50" fill="none" xmlns="http://www.w3.org/2000/svg">
<path d="M34.1323 34.3662V33.4654C34.3877 33.2598 34.6333 33.0346 34.869 32.7996C36.7566 30.728 37.9451 28.1188 38.2677 25.339C39.9641 25.0813 41.4931 24.1752 42.5308 22.8129C43.9551 20.8057 44.0828 17.9174 42.8942 14.2948C42.8243 14.0859 42.686 13.9064 42.5013 13.7856L41.961 13.4234C42.0407 10.1547 40.9074 6.97164 38.7785 4.48425C36.1362 1.5176 32.0794 0.0195819 26.7063 0C21.3431 0 17.2765 1.5176 14.6342 4.44509C12.5052 6.93248 11.3719 10.1155 11.4516 13.3842L10.9113 13.7465C10.7267 13.8673 10.5883 14.0467 10.5184 14.2556C9.32988 17.8978 9.45758 20.7666 10.8819 22.7737C11.9156 24.1456 13.4446 25.0621 15.1449 25.3292C15.4689 28.1135 16.6611 30.7263 18.5534 32.7996C18.7873 33.0341 19.0332 33.2564 19.2901 33.4654V34.3662C15.528 35.0907 0.509057 38.6057 0.764449 48.5924C0.764449 49.1331 1.20426 49.5715 1.74672 49.5715H51.6757C52.2182 49.5715 52.658 49.1331 52.658 48.5924C52.9134 38.6057 37.8944 35.0907 34.1323 34.3662ZM14.5556 23.1458C13.7209 22.8664 12.9934 22.3363 12.4732 21.6282L12.5223 21.638C11.54 20.2085 11.4516 18.0447 12.3258 15.1857L13.0429 14.706C13.3446 14.5053 13.5107 14.1553 13.4751 13.7954C13.3098 10.8692 14.2647 7.98928 16.1469 5.73749C18.3668 3.23101 21.9325 1.97777 26.7063 1.95819C31.4802 1.93861 35.0458 3.23101 37.3051 5.73749C39.1872 7.98928 40.1421 10.8692 39.9768 13.7954C39.9412 14.1553 40.1074 14.5053 40.409 14.706L41.1261 15.1857C42.0003 18.0349 41.9414 20.2085 40.9297 21.638C40.4059 22.3467 39.6752 22.8768 38.8374 23.1556C40.0223 21.8118 40.6012 20.0418 40.4385 18.2601C40.2545 17.1881 39.6938 16.2165 38.8571 15.5186C38.4347 5.7277 31.5489 4.63111 28.5825 4.63111C27.9545 4.62928 27.3274 4.67517 26.7063 4.76819C26.0854 4.67505 25.4581 4.62928 24.8302 4.63111C21.8834 4.63111 15.0074 5.70812 14.5556 15.5186C13.7134 16.2109 13.1459 17.1792 12.9545 18.2503C12.7907 20.0321 13.3697 21.8026 14.5556 23.1458ZM36.9023 15.1172C32.7806 15.3546 28.6846 14.3297 25.1641 12.1799C24.7657 11.901 24.2224 11.9552 23.8872 12.3072C21.9226 14.4123 18.3373 14.9018 16.6085 15.0095C17.139 8.08732 21.3431 6.57951 24.8793 6.57951C25.4421 6.57547 26.0042 6.62137 26.559 6.71659C26.6886 6.74302 26.8222 6.74302 26.9519 6.71659C27.5066 6.62161 28.0687 6.57572 28.6316 6.57951C32.1383 6.57951 36.3621 8.12648 36.8532 15.1074L36.9023 15.1172ZM16.9523 23.3318L16.9916 23.3416C16.9937 23.1003 16.9063 22.8666 16.7461 22.6856C15.4003 21.1484 14.7815 19.7483 14.9485 18.593C15.0285 17.9495 15.3474 17.3592 15.8424 16.9383C17.139 16.9383 21.736 16.6936 24.6828 14.1577C28.0016 16.0595 31.758 17.0715 35.5861 17.095C36.2442 17.095 36.9122 17.095 37.6096 16.9873C38.091 17.397 38.4055 17.9681 38.4936 18.593C38.6606 19.7287 38.0418 21.1484 36.696 22.6856C36.5358 22.8666 36.4484 23.1003 36.4505 23.3416C36.4505 23.3416 36.4505 23.5374 36.4505 23.8507L30.7336 26.9055C29.5991 25.8349 27.8086 25.8837 26.7344 27.0146C25.6603 28.1454 25.7093 29.9302 26.8438 31.0008C27.9784 32.0714 29.7689 32.0226 30.843 30.8918C31.3408 30.3677 31.6181 29.6734 31.6177 28.9518C31.6221 28.8637 31.6221 28.7756 31.6177 28.6875L36.1263 26.2789C35.7393 28.2095 34.8289 29.9975 33.4938 31.4485C31.7525 33.1196 29.3954 33.9984 26.9814 33.8767H26.4902C24.0813 33.9959 21.7294 33.1213 19.9876 31.4583C16.8836 28.3741 16.9523 23.3808 16.9523 23.3318ZM29.6531 28.9518C29.6531 29.433 29.2617 29.8232 28.7789 29.8232C28.2961 29.8232 27.9047 29.433 27.9047 28.9518C27.9047 28.4706 28.2961 28.0804 28.7789 28.0804C29.2617 28.0804 29.6531 28.4706 29.6531 28.9518ZM25.724 47.5546H2.75847C3.53446 40.2016 15.528 37.1272 19.2803 36.3342V38.0868C19.2803 40.3093 21.9914 42.0031 25.724 42.2871V47.5546ZM21.2449 38.0868V38.0574V34.7089C22.8777 35.4636 24.6612 35.8386 26.4608 35.8055H26.9519C28.7514 35.8386 30.535 35.4636 32.1678 34.7089V38.0868C32.1678 39.0169 30.0362 40.3583 26.7063 40.3583C23.3764 40.3583 21.2449 39.0169 21.2449 38.0868ZM27.6886 47.584V42.2773C31.4212 42.0227 34.1323 40.3191 34.1323 38.077V36.3636C37.9141 37.1468 49.8487 40.2212 50.6542 47.584H27.6886Z" fill="#2BBCEE"/>
</svg>
