<svg width="50" height="50" viewBox="-0.5 -0.5 50 50" fill="none" xmlns="http://www.w3.org/2000/svg">
    <circle cx="24.5" cy="24.5" r="24.5" fill="#BBB7D5"/>
    <path d="M35.4388 31.5164C35.2369 31.7065 35.0408 31.9025 34.8507 32.1045C34.2566 32.7104 33.6626 33.3164 33.0329 33.958C32.5754 33.4887 32.1596 33.0491 31.7318 32.6273C31.2566 32.158 30.6328 32.1401 30.1991 32.5738C29.7655 33.0075 29.7833 33.6253 30.2526 34.1065C30.918 34.7838 31.5952 35.4551 32.2665 36.1204C32.7121 36.56 33.3299 36.566 33.7754 36.1323C34.1616 35.758 34.5359 35.3778 34.9101 35.0036C35.5755 34.3382 36.2468 33.6788 36.9003 33.0075C37.3102 32.5857 37.2983 31.9322 36.9003 31.5342C36.5022 31.1183 35.8666 31.1124 35.4388 31.5164Z" fill="white"/>
    <path d="M24.5152 37.176C24.034 36.8552 23.4043 36.9918 23.0538 37.4968C22.5667 38.2037 21.7172 38.2037 21.23 37.5086C20.8736 36.9977 20.2557 36.8552 19.7745 37.176C19.2636 37.5146 19.1448 38.1205 19.4834 38.6611C19.8815 39.2968 20.4399 39.7364 21.1825 40.0037C22.0201 40.2711 22.8459 40.075 22.8459 40.075C23.0122 40.0216 23.1667 39.974 23.3152 39.9146C23.9509 39.6532 24.4439 39.2314 24.8063 38.6493C25.1331 38.1146 25.0083 37.5027 24.5152 37.176Z" fill="white"/>
    <path d="M40.2713 32.2764V32.2823C40.0634 30.8209 39.5109 29.508 38.5425 28.3793C37.2534 26.8763 35.6138 26.0268 33.6414 25.8307C33.4038 25.807 33.2791 25.7297 33.2553 25.4921C33.1662 24.6188 33.0058 23.7455 32.982 22.8722C32.9226 20.3177 32.079 18.09 30.3443 16.2127C29.4235 15.2147 28.3245 14.4721 27.0769 13.9493C26.9938 13.9136 26.9165 13.878 26.8037 13.8245C27.7542 12.5473 28.0334 11.1571 27.4631 9.6779C26.9165 8.26401 25.871 7.42043 24.4393 7.04616C23.8392 6.97487 23.2095 6.99864 22.7699 7.03428C19.5619 7.78281 18.3738 11.4067 20.3045 13.8245C20.1204 13.9077 19.9421 13.9849 19.7699 14.0681C16.4965 15.6305 14.6549 18.2385 14.1737 21.8148C14.0727 22.5871 14.1084 23.3772 14.0371 24.1554C13.841 26.2406 13.0747 28.1238 11.8984 29.8466C11.7618 30.0427 11.6311 30.2387 11.5004 30.4348C10.3835 32.1754 11.2152 34.3854 13.2113 34.9438C16.0866 35.7517 19.0213 36.1438 22.0036 36.221C23.3699 36.2567 24.7363 36.1973 26.1027 36.1913C26.2037 36.1913 26.3581 36.2626 26.4056 36.3398C27.576 38.5973 29.4176 39.8983 31.9008 40.3617C32.7087 40.4389 33.487 40.4271 34.2236 40.3439C37.4791 39.7261 39.8435 37.1656 40.2772 33.9517C40.2772 34.0289 40.2772 34.1061 40.2772 34.1893C40.2832 34.0527 40.2891 33.9101 40.295 33.7735V32.7517C40.2832 32.5913 40.2772 32.4309 40.2713 32.2764ZM23.6076 9.07195C24.7244 9.08977 25.663 10.0462 25.6512 11.1631C25.6393 12.3215 24.6888 13.2661 23.5422 13.2483C22.366 13.2305 21.4451 12.2799 21.4689 11.1037C21.4927 9.98088 22.461 9.05413 23.6076 9.07195ZM25.764 31.914C25.6333 32.6031 25.6749 33.3279 25.6333 34.1358C25.3541 34.1358 25.0215 34.1299 24.6888 34.1358C21.0709 34.2131 17.4946 33.9279 13.9895 32.9774C13.9064 32.9536 13.8173 32.9299 13.7341 32.9002C13.146 32.7101 12.9202 32.116 13.2469 31.5932C13.5083 31.1714 13.7994 30.7734 14.0608 30.3516C15.3975 28.207 16.1341 25.8723 16.1935 23.3416C16.2232 22.1831 16.348 21.0603 16.7698 19.9672C17.9401 16.9493 21.16 15.0008 24.368 15.3929C27.8076 15.8087 30.5107 18.583 30.8315 22.0465C30.9146 22.9495 30.9443 23.8643 31.0156 24.7673C31.0453 25.1 31.1166 25.4327 31.182 25.7594C31.2176 25.9198 31.1998 25.9971 31.0156 26.0565C28.1106 26.9773 26.3344 28.9258 25.764 31.914ZM32.9167 38.3359C30.1602 38.3538 27.7661 35.9834 27.7482 33.221C27.7304 30.2387 30.0235 27.91 32.9939 27.8862C35.7682 27.8684 38.1801 30.2209 38.198 32.9655C38.2098 35.9893 35.9227 38.3122 32.9167 38.3359Z" fill="white"/>
</svg>
