<svg width="52" height="51" viewBox="0 0 52 51" fill="none" xmlns="http://www.w3.org/2000/svg">
<path d="M44.9035 50.2845L44.8951 50.2842H44.8866H6.59087H6.58242L6.57398 50.2845C5.11742 50.3337 3.70072 49.8068 2.63292 48.8191C1.56762 47.8337 0.935839 46.4695 0.874023 45.0232V5.98002C0.935839 4.53372 1.56762 3.16959 2.63291 2.1842C3.70072 1.19648 5.11742 0.669511 6.57398 0.71874L6.58242 0.719025H6.59087H44.8866H44.8951L44.9035 0.71874C46.3601 0.669511 47.7768 1.19648 48.8446 2.1842C49.9099 3.16958 50.5417 4.5337 50.6035 5.97999V45.0233C50.5417 46.4696 49.9099 47.8337 48.8446 48.8191C47.7768 49.8068 46.3601 50.3337 44.9035 50.2845Z" stroke="white"/>
<path d="M6.06542 13.5332C6.39957 13.868 6.73048 14.1976 7.05824 14.524C8.09157 15.5532 9.0937 16.5512 10.0683 17.5855L10.0682 17.5855L10.0722 17.5896C10.4028 17.9325 10.765 18.179 11.1899 18.2663C11.6175 18.3541 12.0343 18.2656 12.443 18.0831L12.443 18.0831L12.4492 18.0803C14.2633 17.2405 15.6094 15.93 16.4085 14.0815L16.4089 14.0808C16.5769 13.6901 16.6647 13.2846 16.5851 12.8709C16.5053 12.4555 16.2706 12.1028 15.9306 11.791C15.006 10.8988 14.0941 9.99339 13.1568 9.06273C12.7217 8.63075 12.2812 8.19334 11.8314 7.74931C13.1617 7.40256 14.4136 7.47117 15.6988 7.81489C19.101 8.74155 21.4888 11.8311 21.3769 15.3053C21.2991 17.3568 22.0163 18.9047 23.4302 20.2875C29.2347 25.9966 34.9913 31.7539 40.7256 37.4889L40.7263 37.4897C41.6831 38.4426 42.0363 39.6023 41.8911 40.6352C41.7463 41.6651 41.1018 42.6083 39.9755 43.1376C38.5985 43.7817 37.1335 43.5143 35.8664 42.2523L35.8653 42.2512C33.2647 39.6771 30.6754 37.093 28.0817 34.5044C26.7833 33.2085 25.4837 31.9115 24.181 30.6141C23.6862 30.1214 23.1904 29.6291 22.6945 29.1367C21.2074 27.66 19.7197 26.1829 18.2583 24.6914L18.2578 24.6909C17.0434 23.4551 15.6496 22.9521 13.9272 23.0301L13.9268 23.0301C8.81104 23.2656 4.86426 18.4139 6.06542 13.5332ZM38.3704 37.7634L38.3704 37.7632H38.3566C37.1983 37.7632 36.274 38.6468 36.2425 39.8094L36.2423 39.8094V39.823C36.2423 40.9693 37.1447 41.923 38.2943 41.9307C39.4317 41.9868 40.4153 41.0065 40.4465 39.8849C40.4791 38.7173 39.4853 37.7943 38.3704 37.7634Z" stroke="white"/>
<path d="M42.0119 15.1963L42.0086 15.2074C41.9332 15.4597 41.7608 15.6457 41.642 15.7615C41.5821 15.82 41.5193 15.8757 41.4672 15.922L41.4571 15.931C41.3991 15.9825 41.3551 16.022 41.3184 16.0588L33.378 24.031C33.291 24.1184 33.2077 24.206 33.1299 24.2906C33.2683 24.444 33.4005 24.5916 33.5278 24.7337C33.6834 24.9075 33.8318 25.0731 33.9754 25.2312C34.7872 24.435 35.5982 23.6434 36.4075 22.8533C38.8623 20.4569 41.3021 18.0753 43.7048 15.6272L43.7074 15.6246C44.6038 14.7246 44.8051 13.4414 44.5072 12.0604L42.0119 15.1963ZM42.0119 15.1963L42.0147 15.185M42.0119 15.1963L42.0147 15.185M42.0147 15.185C42.0693 14.9657 42.0755 14.7203 42.0426 14.4976C42.0114 14.2861 41.9348 14.0264 41.7623 13.8263C41.638 13.6796 41.4757 13.6171 41.3677 13.588C41.2494 13.5561 41.1275 13.5461 41.0194 13.5461C40.8054 13.5461 40.5687 13.5858 40.3747 13.6566L40.3673 13.6593M42.0147 15.185L40.3673 13.6593M40.3673 13.6593L40.3599 13.6623M40.3673 13.6593L40.3599 13.6623M40.3599 13.6623C40.1337 13.7531 39.9682 13.9116 39.8579 14.0256C39.8042 14.0812 39.7634 14.1257 39.7281 14.1643C39.6733 14.224 39.6315 14.2697 39.5741 14.3209L39.5632 14.3307M40.3599 13.6623L39.5632 14.3307M39.5632 14.3307L39.5528 14.3411M39.5632 14.3307L39.5528 14.3411M39.5528 14.3411L31.6861 22.2393M39.5528 14.3411L31.6861 22.2393M31.6861 22.2393C31.5913 22.3345 31.4911 22.4304 31.3918 22.5225M31.6861 22.2393L31.3918 22.5225M31.3918 22.5225C31.2606 22.3953 31.1293 22.27 30.998 22.1445L30.9783 22.1257C30.8411 21.9947 30.7034 21.8631 30.5636 21.7274C32.3642 19.9427 34.1847 18.1366 35.9838 16.3303L39.0076 13.2944C39.0197 13.2822 39.0327 13.2693 39.0463 13.2557C39.2073 13.0955 39.4607 12.8434 39.583 12.5451C39.6583 12.3616 39.6937 12.1444 39.6374 11.909C39.5826 11.6797 39.4519 11.4799 39.278 11.3053C39.1056 11.1322 38.9093 11.0009 38.6843 10.9422C38.4526 10.8817 38.2361 10.9101 38.05 10.9815C37.7384 11.1011 37.4808 11.3609 37.318 11.525C37.3087 11.5343 37.2998 11.5434 37.2911 11.5521L28.8836 19.9933C28.8617 20.0153 28.8357 20.039 28.8042 20.0661L27.7187 18.9763C28.4747 18.2172 29.2305 17.457 29.9863 16.6965C32.2737 14.3954 34.5625 12.0927 36.8658 9.81725C38.1477 8.55285 39.6334 8.12092 41.3622 8.63246C43.0757 9.14663 44.1267 10.3084 44.5071 12.0598L31.3918 22.5225Z" stroke="#FFA202"/>
<path d="M10.2992 43.4493C10.2578 43.4276 10.204 43.3955 10.1382 43.351C9.94214 43.2187 9.72232 43.0347 9.54409 42.8824C9.54169 42.8792 9.53508 42.8701 9.52587 42.8529C9.50971 42.8226 9.49352 42.7819 9.4816 42.7366C9.4696 42.6909 9.46488 42.6516 9.46461 42.6251C9.46458 42.6216 9.46462 42.6186 9.4647 42.6161C9.83297 41.7318 10.2715 40.8651 10.7396 39.987C10.7899 39.9035 10.8957 39.7928 11.0187 39.7061L11.0308 39.6975L11.0424 39.6883C11.3784 39.4201 11.7262 39.1531 12.0778 38.8831C12.8597 38.2827 13.6602 37.6679 14.3917 36.9952L14.3918 36.9952L14.3949 36.9923C15.6784 35.7914 16.9187 34.5526 18.1626 33.3102C18.5763 32.897 18.9905 32.4833 19.4068 32.0705C19.5435 32.2133 19.6802 32.3555 19.8175 32.4985C20.1789 32.8747 20.5445 33.2554 20.9267 33.6617C20.3492 34.2309 19.7663 34.8041 19.1801 35.3804C17.7583 36.7784 16.3172 38.1954 14.8878 39.6218C14.8374 39.6715 14.7719 39.7331 14.7002 39.8006C14.5725 39.9208 14.4252 40.0595 14.3082 40.1824C14.1105 40.3901 13.8954 40.6526 13.7763 40.9687C13.4874 41.7038 12.9846 42.1477 12.3514 42.504C12.0286 42.6857 11.6791 42.8405 11.3058 43.0007C11.2623 43.0194 11.2184 43.0382 11.1741 43.0571C10.8886 43.1792 10.5896 43.3071 10.2992 43.4493ZM9.46542 42.6067C9.46544 42.6067 9.46538 42.6072 9.4652 42.6082L9.46542 42.6067Z" stroke="#FFA202"/>
</svg>
