<svg width="52" height="35" viewBox="0 0 52 35" fill="none" xmlns="http://www.w3.org/2000/svg">
    <g clip-path="url(#clip0)">
        <path d="M43.9 19.2335C41.6851 19.2335 39.4703 18.3904 37.7841 16.7042C36.5329 15.453 34.8694 14.764 33.1 14.764C31.3306 14.764 29.6671 15.453 28.416 16.7042L26.6875 18.4327V3.1674L26.9841 2.87082C30.3564 -0.501538 35.8437 -0.501538 39.216 2.87082C40.4671 4.122 42.1306 4.81103 43.9001 4.81103C45.6695 4.81103 47.3329 4.122 48.5841 2.87082L50.3125 1.1423V16.4076L50.0159 16.7042C48.3297 18.3904 46.1149 19.2335 43.9 19.2335Z" fill="#FEDA44"/>
        <path d="M48.5841 2.87081C47.3328 4.12198 45.6694 4.81101 43.9 4.81101C42.1306 4.81101 40.4671 4.12198 39.2159 2.87081C38.9867 2.64157 38.7474 2.42847 38.5 2.23046V17.3446C40.0727 18.6035 41.9862 19.2335 43.9 19.2335C46.1149 19.2335 48.3297 18.3905 50.0159 16.7042L50.3125 16.4077V1.14233L48.5841 2.87081Z" fill="#FECE00"/>
        <path d="M30.5391 6.67578H28.2891V9H27.1172V3.3125H30.8203V4.26172H28.2891V5.73047H30.5391V6.67578ZM33.6992 5.83203C33.5456 5.8112 33.4102 5.80078 33.293 5.80078C32.8659 5.80078 32.5859 5.94531 32.4531 6.23438V9H31.3242V4.77344H32.3906L32.4219 5.27734C32.6484 4.88932 32.9622 4.69531 33.3633 4.69531C33.4883 4.69531 33.6055 4.71224 33.7148 4.74609L33.6992 5.83203ZM36.1133 9.07812C35.4935 9.07812 34.9883 8.88802 34.5977 8.50781C34.2096 8.1276 34.0156 7.62109 34.0156 6.98828V6.87891C34.0156 6.45443 34.0977 6.07552 34.2617 5.74219C34.4258 5.40625 34.6576 5.14844 34.957 4.96875C35.2591 4.78646 35.6029 4.69531 35.9883 4.69531C36.5664 4.69531 37.0208 4.8776 37.3516 5.24219C37.6849 5.60677 37.8516 6.1237 37.8516 6.79297V7.25391H35.1602C35.1966 7.52995 35.306 7.7513 35.4883 7.91797C35.6732 8.08464 35.9062 8.16797 36.1875 8.16797C36.6224 8.16797 36.9622 8.01042 37.207 7.69531L37.7617 8.31641C37.5924 8.55599 37.3633 8.74349 37.0742 8.87891C36.7852 9.01172 36.4648 9.07812 36.1133 9.07812ZM35.9844 5.60938C35.7604 5.60938 35.5781 5.6849 35.4375 5.83594C35.2995 5.98698 35.2109 6.20312 35.1719 6.48438H36.7422V6.39453C36.737 6.14453 36.6693 5.95182 36.5391 5.81641C36.4089 5.67839 36.224 5.60938 35.9844 5.60938ZM40.4414 9.07812C39.8216 9.07812 39.3164 8.88802 38.9258 8.50781C38.5378 8.1276 38.3438 7.62109 38.3438 6.98828V6.87891C38.3438 6.45443 38.4258 6.07552 38.5898 5.74219C38.7539 5.40625 38.9857 5.14844 39.2852 4.96875C39.5872 4.78646 39.931 4.69531 40.3164 4.69531C40.8945 4.69531 41.349 4.8776 41.6797 5.24219C42.013 5.60677 42.1797 6.1237 42.1797 6.79297V7.25391H39.4883C39.5247 7.52995 39.6341 7.7513 39.8164 7.91797C40.0013 8.08464 40.2344 8.16797 40.5156 8.16797C40.9505 8.16797 41.2904 8.01042 41.5352 7.69531L42.0898 8.31641C41.9206 8.55599 41.6914 8.74349 41.4023 8.87891C41.1133 9.01172 40.793 9.07812 40.4414 9.07812ZM40.3125 5.60938C40.0885 5.60938 39.9062 5.6849 39.7656 5.83594C39.6276 5.98698 39.5391 6.20312 39.5 6.48438H41.0703V6.39453C41.0651 6.14453 40.9974 5.95182 40.8672 5.81641C40.737 5.67839 40.5521 5.60938 40.3125 5.60938Z" fill="#FE0B37"/>
        <path d="M36.9141 10.9658L35.5396 14.125H34.7949L36.1719 11.1416H34.4043V10.5703H36.9141V10.9658ZM39.292 11.4834L39.314 11.7886C39.5028 11.5526 39.7559 11.4346 40.0732 11.4346C40.3532 11.4346 40.5615 11.5168 40.6982 11.6812C40.835 11.8455 40.9049 12.0913 40.9082 12.4185V14.125H40.2026V12.4355C40.2026 12.2858 40.1701 12.1776 40.105 12.1108C40.0399 12.0425 39.9316 12.0083 39.7803 12.0083C39.5817 12.0083 39.4328 12.0929 39.3335 12.2622V14.125H38.6279V11.4834H39.292ZM41.3428 12.7847C41.3428 12.3794 41.4388 12.0531 41.6309 11.8057C41.8245 11.5583 42.085 11.4346 42.4121 11.4346C42.7018 11.4346 42.9272 11.5339 43.0884 11.7324L43.1177 11.4834H43.7573V14.0371C43.7573 14.2682 43.7044 14.4692 43.5986 14.6401C43.4945 14.811 43.3472 14.9412 43.1567 15.0308C42.9663 15.1203 42.7433 15.165 42.4878 15.165C42.2941 15.165 42.1053 15.126 41.9214 15.0479C41.7375 14.9714 41.5983 14.8721 41.5039 14.75L41.8164 14.3203C41.9922 14.5173 42.2054 14.6157 42.4561 14.6157C42.6432 14.6157 42.7889 14.5653 42.8931 14.4644C42.9972 14.3651 43.0493 14.2235 43.0493 14.0396V13.8979C42.8866 14.0819 42.6725 14.1738 42.4072 14.1738C42.0898 14.1738 41.8327 14.0501 41.6357 13.8027C41.4404 13.5537 41.3428 13.2241 41.3428 12.814V12.7847ZM42.0483 12.8359C42.0483 13.0752 42.0964 13.2632 42.1924 13.3999C42.2884 13.535 42.4202 13.6025 42.5879 13.6025C42.8027 13.6025 42.9565 13.522 43.0493 13.3608V12.25C42.9549 12.0889 42.8027 12.0083 42.5928 12.0083C42.4235 12.0083 42.29 12.0775 42.1924 12.2158C42.0964 12.3542 42.0483 12.5609 42.0483 12.8359ZM45.8325 14.125C45.8 14.0615 45.7764 13.9826 45.7617 13.8882C45.5908 14.0786 45.3687 14.1738 45.0952 14.1738C44.8364 14.1738 44.6216 14.099 44.4507 13.9492C44.2814 13.7995 44.1968 13.6107 44.1968 13.3828C44.1968 13.1029 44.3001 12.888 44.5068 12.7383C44.7152 12.5885 45.0155 12.5129 45.4077 12.5112H45.7324V12.3599C45.7324 12.2378 45.7007 12.1401 45.6372 12.0669C45.5754 11.9937 45.4769 11.957 45.3418 11.957C45.223 11.957 45.1294 11.9855 45.061 12.0425C44.9943 12.0994 44.9609 12.1776 44.9609 12.2769H44.2554C44.2554 12.1239 44.3026 11.9823 44.397 11.8521C44.4914 11.7218 44.6248 11.6201 44.7974 11.5469C44.9699 11.472 45.1636 11.4346 45.3784 11.4346C45.7039 11.4346 45.9619 11.5168 46.1523 11.6812C46.3444 11.8439 46.4404 12.0734 46.4404 12.3696V13.5146C46.4421 13.7653 46.4771 13.9549 46.5454 14.0835V14.125H45.8325ZM45.249 13.6343C45.3532 13.6343 45.4492 13.6115 45.5371 13.5659C45.625 13.5187 45.6901 13.4561 45.7324 13.3779V12.9238H45.4688C45.1156 12.9238 44.9276 13.0459 44.9048 13.29L44.9023 13.3315C44.9023 13.4194 44.9333 13.4919 44.9951 13.5488C45.057 13.6058 45.1416 13.6343 45.249 13.6343ZM45.7275 11.1318H45.1489L44.4751 10.375H45.2441L45.7275 11.1318ZM47.9297 13.1265L48.418 11.4834H49.1748L48.1128 14.5352L48.0542 14.6743C47.8963 15.0194 47.6359 15.1919 47.2729 15.1919C47.1704 15.1919 47.0662 15.1764 46.9604 15.1455V14.6108L47.0679 14.6133C47.2013 14.6133 47.3006 14.5929 47.3657 14.5522C47.4325 14.5116 47.4845 14.444 47.522 14.3496L47.605 14.1323L46.6797 11.4834H47.439L47.9297 13.1265Z" fill="#C60024"/>
    </g>
    <!--<path d="M6.23145 44.6621H3.94629V51H3.01367V44.6621H0.733398V43.8906H6.23145V44.6621ZM8.04785 46.3564C8.44824 45.8649 8.96908 45.6191 9.61035 45.6191C10.7269 45.6191 11.29 46.249 11.2998 47.5088V51H10.3965V47.5039C10.3932 47.123 10.3053 46.8415 10.1328 46.6592C9.96354 46.4769 9.69824 46.3857 9.33691 46.3857C9.04395 46.3857 8.78678 46.4639 8.56543 46.6201C8.34408 46.7764 8.17155 46.9814 8.04785 47.2354V51H7.14453V43.5H8.04785V46.3564ZM12.4131 48.3096C12.4131 47.792 12.514 47.3265 12.7158 46.9131C12.9209 46.4997 13.2041 46.1807 13.5654 45.9561C13.93 45.7314 14.3451 45.6191 14.8105 45.6191C15.5299 45.6191 16.111 45.8682 16.5537 46.3662C16.9997 46.8643 17.2227 47.5267 17.2227 48.3535V48.417C17.2227 48.9313 17.1234 49.3936 16.9248 49.8037C16.7295 50.2106 16.4479 50.528 16.0801 50.7559C15.7155 50.9837 15.2956 51.0977 14.8203 51.0977C14.1042 51.0977 13.5231 50.8486 13.0771 50.3506C12.6344 49.8525 12.4131 49.1934 12.4131 48.373V48.3096ZM13.3213 48.417C13.3213 49.0029 13.4564 49.4733 13.7266 49.8281C14 50.1829 14.3646 50.3604 14.8203 50.3604C15.2793 50.3604 15.6439 50.1813 15.9141 49.8232C16.1842 49.4619 16.3193 48.9574 16.3193 48.3096C16.3193 47.7301 16.181 47.2614 15.9043 46.9033C15.6309 46.542 15.2663 46.3613 14.8105 46.3613C14.3646 46.3613 14.0049 46.5387 13.7314 46.8936C13.458 47.2484 13.3213 47.7562 13.3213 48.417ZM16.2559 44.8379V44.8867H15.5088L14.7764 44.0566L14.0488 44.8867H13.3018V44.8281L14.5029 43.5H15.0498L16.2559 44.8379ZM19.21 45.7168L19.2393 46.3809C19.6429 45.873 20.1702 45.6191 20.8213 45.6191C21.9378 45.6191 22.501 46.249 22.5107 47.5088V51H21.6074V47.5039C21.6042 47.123 21.5163 46.8415 21.3438 46.6592C21.1745 46.4769 20.9092 46.3857 20.5479 46.3857C20.2549 46.3857 19.9977 46.4639 19.7764 46.6201C19.555 46.7764 19.3825 46.9814 19.2588 47.2354V51H18.3555V45.7168H19.21ZM23.6582 48.3145C23.6582 47.4909 23.8486 46.8366 24.2295 46.3516C24.6104 45.8633 25.1149 45.6191 25.7432 45.6191C26.3877 45.6191 26.8906 45.847 27.252 46.3027L27.2959 45.7168H28.1211V50.873C28.1211 51.5566 27.9176 52.0954 27.5107 52.4893C27.1071 52.8831 26.5635 53.0801 25.8799 53.0801C25.499 53.0801 25.1263 52.9987 24.7617 52.8359C24.3971 52.6732 24.1188 52.4502 23.9268 52.167L24.3955 51.625C24.7829 52.1035 25.2565 52.3428 25.8164 52.3428C26.2559 52.3428 26.5977 52.2191 26.8418 51.9717C27.0892 51.7243 27.2129 51.376 27.2129 50.9268V50.4727C26.8516 50.8893 26.3584 51.0977 25.7334 51.0977C25.1149 51.0977 24.6136 50.8486 24.2295 50.3506C23.8486 49.8525 23.6582 49.1738 23.6582 48.3145ZM24.5664 48.417C24.5664 49.0127 24.6885 49.4814 24.9326 49.8232C25.1768 50.1618 25.5186 50.3311 25.958 50.3311C26.5277 50.3311 26.946 50.0723 27.2129 49.5547V47.1426C26.9362 46.638 26.5212 46.3857 25.9678 46.3857C25.5283 46.3857 25.1849 46.5566 24.9375 46.8984C24.6901 47.2402 24.5664 47.7464 24.5664 48.417ZM33.1943 44.4375V45.7168H34.1807V46.415H33.1943V49.6914C33.1943 49.903 33.2383 50.0625 33.3262 50.1699C33.4141 50.2741 33.5638 50.3262 33.7754 50.3262C33.8796 50.3262 34.0228 50.3066 34.2051 50.2676V51C33.9674 51.0651 33.7363 51.0977 33.5117 51.0977C33.1081 51.0977 32.8037 50.9756 32.5986 50.7314C32.3936 50.4873 32.291 50.1406 32.291 49.6914V46.415H31.3291V45.7168H32.291V44.4375H33.1943ZM36.2217 51H35.3184V45.7168H36.2217V51ZM35.2451 44.3154C35.2451 44.1689 35.2891 44.0452 35.377 43.9443C35.4681 43.8434 35.6016 43.793 35.7773 43.793C35.9531 43.793 36.0866 43.8434 36.1777 43.9443C36.2689 44.0452 36.3145 44.1689 36.3145 44.3154C36.3145 44.4619 36.2689 44.584 36.1777 44.6816C36.0866 44.7793 35.9531 44.8281 35.7773 44.8281C35.6016 44.8281 35.4681 44.7793 35.377 44.6816C35.2891 44.584 35.2451 44.4619 35.2451 44.3154ZM38.5264 45.7168L38.5557 46.3809C38.9593 45.873 39.4867 45.6191 40.1377 45.6191C41.2542 45.6191 41.8174 46.249 41.8271 47.5088V51H40.9238V47.5039C40.9206 47.123 40.8327 46.8415 40.6602 46.6592C40.4909 46.4769 40.2256 46.3857 39.8643 46.3857C39.5713 46.3857 39.3141 46.4639 39.0928 46.6201C38.8714 46.7764 38.6989 46.9814 38.5752 47.2354V51H37.6719V45.7168H38.5264ZM5.39648 63.3604C5.71875 63.3604 6.00033 63.2627 6.24121 63.0674C6.4821 62.8721 6.61556 62.6279 6.6416 62.335H7.49609C7.47982 62.6377 7.37565 62.9258 7.18359 63.1992C6.99154 63.4727 6.73438 63.6908 6.41211 63.8535C6.0931 64.0163 5.75456 64.0977 5.39648 64.0977C4.67708 64.0977 4.10417 63.8584 3.67773 63.3799C3.25456 62.8981 3.04297 62.2406 3.04297 61.4072V61.2559C3.04297 60.7415 3.13737 60.2842 3.32617 59.8838C3.51497 59.4834 3.78516 59.1725 4.13672 58.9512C4.49154 58.7298 4.90983 58.6191 5.3916 58.6191C5.98405 58.6191 6.47559 58.7965 6.86621 59.1514C7.26009 59.5062 7.47005 59.9668 7.49609 60.5332H6.6416C6.61556 60.1914 6.48535 59.9115 6.25098 59.6934C6.01986 59.472 5.7334 59.3613 5.3916 59.3613C4.93262 59.3613 4.57617 59.5273 4.32227 59.8594C4.07161 60.1882 3.94629 60.665 3.94629 61.29V61.4609C3.94629 62.0697 4.07161 62.5384 4.32227 62.8672C4.57292 63.196 4.93099 63.3604 5.39648 63.3604ZM9.41504 59.3564C9.81543 58.8649 10.3363 58.6191 10.9775 58.6191C12.0941 58.6191 12.6572 59.249 12.667 60.5088V64H11.7637V60.5039C11.7604 60.123 11.6725 59.8415 11.5 59.6592C11.3307 59.4769 11.0654 59.3857 10.7041 59.3857C10.4111 59.3857 10.154 59.4639 9.93262 59.6201C9.71126 59.7764 9.53874 59.9814 9.41504 60.2354V64H8.51172V56.5H9.41504V59.3564ZM13.7803 61.3096C13.7803 60.792 13.8812 60.3265 14.083 59.9131C14.2881 59.4997 14.5713 59.1807 14.9326 58.9561C15.2972 58.7314 15.7122 58.6191 16.1777 58.6191C16.8971 58.6191 17.4782 58.8682 17.9209 59.3662C18.3669 59.8643 18.5898 60.5267 18.5898 61.3535V61.417C18.5898 61.9313 18.4906 62.3936 18.292 62.8037C18.0967 63.2106 17.8151 63.528 17.4473 63.7559C17.0827 63.9837 16.6628 64.0977 16.1875 64.0977C15.4714 64.0977 14.8903 63.8486 14.4443 63.3506C14.0016 62.8525 13.7803 62.1934 13.7803 61.373V61.3096ZM14.6885 61.417C14.6885 62.0029 14.8236 62.4733 15.0938 62.8281C15.3672 63.1829 15.7318 63.3604 16.1875 63.3604C16.6465 63.3604 17.0111 63.1813 17.2812 62.8232C17.5514 62.4619 17.6865 61.9574 17.6865 61.3096C17.6865 60.7301 17.5482 60.2614 17.2715 59.9033C16.998 59.542 16.6335 59.3613 16.1777 59.3613C15.7318 59.3613 15.3721 59.5387 15.0986 59.8936C14.8252 60.2484 14.6885 60.7562 14.6885 61.417ZM15.626 65.1963C15.626 65.0498 15.6699 64.9261 15.7578 64.8252C15.849 64.7243 15.9824 64.6738 16.1582 64.6738C16.334 64.6738 16.4674 64.7243 16.5586 64.8252C16.6497 64.9261 16.6953 65.0498 16.6953 65.1963C16.6953 65.3428 16.6497 65.4648 16.5586 65.5625C16.4674 65.6602 16.334 65.709 16.1582 65.709C15.9824 65.709 15.849 65.6602 15.7578 65.5625C15.6699 65.4648 15.626 65.3428 15.626 65.1963ZM20.5771 58.7168L20.6064 59.3809C21.0101 58.873 21.5374 58.6191 22.1885 58.6191C23.305 58.6191 23.8682 59.249 23.8779 60.5088V64H22.9746V60.5039C22.9714 60.123 22.8835 59.8415 22.7109 59.6592C22.5417 59.4769 22.2764 59.3857 21.915 59.3857C21.6221 59.3857 21.3649 59.4639 21.1436 59.6201C20.9222 59.7764 20.7497 59.9814 20.626 60.2354V64H19.7227V58.7168H20.5771ZM28.7021 64H27.7988V56.5H28.7021V64ZM29.9131 61.3096C29.9131 60.792 30.014 60.3265 30.2158 59.9131C30.4209 59.4997 30.7041 59.1807 31.0654 58.9561C31.43 58.7314 31.8451 58.6191 32.3105 58.6191C33.0299 58.6191 33.611 58.8682 34.0537 59.3662C34.4997 59.8643 34.7227 60.5267 34.7227 61.3535V61.417C34.7227 61.9313 34.6234 62.3936 34.4248 62.8037C34.2295 63.2106 33.9479 63.528 33.5801 63.7559C33.2155 63.9837 32.7956 64.0977 32.3203 64.0977C31.6042 64.0977 31.0231 63.8486 30.5771 63.3506C30.1344 62.8525 29.9131 62.1934 29.9131 61.373V61.3096ZM30.8213 61.417C30.8213 62.0029 30.9564 62.4733 31.2266 62.8281C31.5 63.1829 31.8646 63.3604 32.3203 63.3604C32.7793 63.3604 33.1439 63.1813 33.4141 62.8232C33.6842 62.4619 33.8193 61.9574 33.8193 61.3096C33.8193 60.7301 33.681 60.2614 33.4043 59.9033C33.1309 59.542 32.7663 59.3613 32.3105 59.3613C31.8646 59.3613 31.5049 59.5387 31.2314 59.8936C30.958 60.2484 30.8213 60.7562 30.8213 61.417ZM31.7588 65.1963C31.7588 65.0498 31.8027 64.9261 31.8906 64.8252C31.9818 64.7243 32.1152 64.6738 32.291 64.6738C32.4668 64.6738 32.6003 64.7243 32.6914 64.8252C32.7826 64.9261 32.8281 65.0498 32.8281 65.1963C32.8281 65.3428 32.7826 65.4648 32.6914 65.5625C32.6003 65.6602 32.4668 65.709 32.291 65.709C32.1152 65.709 31.9818 65.6602 31.8906 65.5625C31.8027 65.4648 31.7588 65.3428 31.7588 65.1963ZM37.9746 63.3604C38.2969 63.3604 38.5785 63.2627 38.8193 63.0674C39.0602 62.8721 39.1937 62.6279 39.2197 62.335H40.0742C40.0579 62.6377 39.9538 62.9258 39.7617 63.1992C39.5697 63.4727 39.3125 63.6908 38.9902 63.8535C38.6712 64.0163 38.3327 64.0977 37.9746 64.0977C37.2552 64.0977 36.6823 63.8584 36.2559 63.3799C35.8327 62.8981 35.6211 62.2406 35.6211 61.4072V61.2559C35.6211 60.7415 35.7155 60.2842 35.9043 59.8838C36.0931 59.4834 36.3633 59.1725 36.7148 58.9512C37.0697 58.7298 37.488 58.6191 37.9697 58.6191C38.5622 58.6191 39.0537 58.7965 39.4443 59.1514C39.8382 59.5062 40.0482 59.9668 40.0742 60.5332H39.2197C39.1937 60.1914 39.0635 59.9115 38.8291 59.6934C38.598 59.472 38.3115 59.3613 37.9697 59.3613C37.5107 59.3613 37.1543 59.5273 36.9004 59.8594C36.6497 60.1882 36.5244 60.665 36.5244 61.29V61.4609C36.5244 62.0697 36.6497 62.5384 36.9004 62.8672C37.151 63.196 37.5091 63.3604 37.9746 63.3604Z" fill="#333333"/>-->
    <g clip-path="url(#clip1)">
        <path d="M10.7994 24.5394C10.6962 24.5394 10.5921 24.5211 10.4916 24.4833C10.1494 24.3551 9.92282 24.0278 9.92282 23.6626V19.9304H7.87685C7.39253 19.9304 7 19.5379 7 19.0536V4.93544C7 4.45113 7.39253 4.05859 7.87685 4.05859H25.9983C26.4824 4.05859 26.8752 4.45113 26.8752 4.93544V19.0536C26.8752 19.5379 26.4824 19.9304 25.9983 19.9304H15.2226L11.4602 24.2393C11.2904 24.4337 11.0478 24.5394 10.7994 24.5394Z" fill="#C9DFF7"/>
        <path d="M25.9984 4.05859H16.9376V19.9304H25.9984C26.4825 19.9304 26.875 19.5379 26.875 19.0536V4.93544C26.8752 4.45113 26.4825 4.05859 25.9984 4.05859V4.05859Z" fill="#AECEF2"/>
        <path d="M22.3292 9.32108H11.4552C10.9709 9.32108 10.5784 8.92854 10.5784 8.44423C10.5784 7.95992 10.9709 7.56738 11.4552 7.56738H22.3292C22.8132 7.56738 23.2058 7.95992 23.2058 8.44423C23.2058 8.92854 22.8132 9.32108 22.3292 9.32108Z" fill="#9EBBDB"/>
        <path d="M22.3292 12.8284H11.4552C10.9709 12.8284 10.5784 12.4356 10.5784 11.9516C10.5784 11.4672 10.9709 11.0747 11.4552 11.0747H22.3292C22.8132 11.0747 23.2058 11.4672 23.2058 11.9516C23.2058 12.4356 22.8132 12.8284 22.3292 12.8284Z" fill="#9EBBDB"/>
        <path d="M17.3009 16.3355H11.4552C10.9709 16.3355 10.5784 15.943 10.5784 15.4589C10.5784 14.9746 10.9709 14.582 11.4552 14.582H17.3009C17.7849 14.582 18.1775 14.9746 18.1775 15.4589C18.1775 15.943 17.7849 16.3355 17.3009 16.3355Z" fill="#9EBBDB"/>
        <path d="M17.3009 14.582H16.9376V16.3355H17.3009C17.7849 16.3355 18.1775 15.943 18.1775 15.4589C18.1775 14.9746 17.7849 14.582 17.3009 14.582Z" fill="#82A0D2"/>
        <path d="M22.3292 11.0747H16.9376V12.8284H22.3292C22.8132 12.8284 23.2058 12.4356 23.2058 11.9516C23.2058 11.4672 22.8132 11.0747 22.3292 11.0747Z" fill="#82A0D2"/>
        <path d="M22.3292 7.56738H16.9376V9.32108H22.3292C22.8132 9.32108 23.2058 8.92854 23.2058 8.44423C23.2058 7.95992 22.8132 7.56738 22.3292 7.56738Z" fill="#82A0D2"/>
        <path d="M33.2006 33.9882C32.9346 33.9882 32.6767 33.8669 32.5073 33.6483L28.7461 28.7944H20.808C20.3239 28.7944 19.9312 28.4019 19.9312 27.9176V15.4589C19.9312 14.9746 20.3239 14.582 20.808 14.582H36.1232C36.6075 14.582 37 14.9746 37 15.4589V27.9176C37 28.4019 36.6075 28.7944 36.1232 28.7944H34.0772V33.1112C34.0772 33.4861 33.8389 33.8195 33.4842 33.9409C33.391 33.9727 33.2953 33.9882 33.2006 33.9882Z" fill="#B9E969"/>
        <path d="M36.1232 14.582H28.4657V28.7944H28.7461L32.5073 33.6483C32.6767 33.8667 32.9346 33.988 33.2006 33.988C33.2951 33.988 33.391 33.9727 33.4842 33.9409C33.8389 33.8193 34.0772 33.4861 34.0772 33.1112V28.7944H36.1232C36.6075 28.7944 37 28.4017 37 27.9176V15.4589C37 14.9746 36.6075 14.582 36.1232 14.582Z" fill="#73C570"/>
        <path d="M27.2089 24.91C27.1965 24.91 27.1842 24.9097 27.1718 24.909C26.9072 24.8978 26.6616 24.7676 26.5042 24.5547L24.8381 22.3044C24.55 21.915 24.6319 21.3659 25.0212 21.0778C25.4103 20.7894 25.9594 20.8718 26.2476 21.2609L27.2679 22.6392L30.8591 18.5608C31.1793 18.1973 31.7332 18.1623 32.0966 18.482C32.4601 18.8022 32.4954 19.3561 32.1754 19.7196L27.8669 24.6126C27.7001 24.8019 27.4602 24.91 27.2089 24.91Z" fill="#5877A6"/>
        <path d="M32.0967 18.4821C31.7332 18.1622 31.1793 18.1974 30.8591 18.5609L28.4657 21.2791V23.9327L32.1754 19.7197C32.4954 19.3562 32.4601 18.8021 32.0967 18.4821Z" fill="#2D5078"/>
    </g>
    <defs>
        <clipPath id="clip0">
            <rect width="27" height="27" fill="white" transform="translate(25)"/>
        </clipPath>
        <clipPath id="clip1">
            <rect width="30" height="30" fill="white" transform="translate(7 4)"/>
        </clipPath>
    </defs>
</svg>
