<svg width="21" height="21" viewBox="0 0 21 21" fill="none" xmlns="http://www.w3.org/2000/svg">
    <path d="M14.0557 13.8505L15.1734 14.9811L16.0086 14.1717L14.8779 13.0154L14.0557 13.8505Z" fill="#4D4F4F"/>
    <path d="M16.0085 14.172C16.3554 13.7094 16.6895 13.7094 17.1006 14.1463C18.2826 15.354 19.4775 16.5488 20.6852 17.7308C21.1092 18.142 21.1092 18.4632 20.6595 18.8358C20.3383 19.1184 20.0299 19.4139 19.7473 19.748C19.3747 20.1848 19.0663 20.1206 18.6938 19.7351C17.5631 18.566 16.4197 17.4096 15.2505 16.279C14.8008 15.8422 14.5439 15.4696 15.1606 14.9942C15.1991 14.9685 15.1863 14.8786 15.1991 14.8144C15.5717 14.7116 15.7644 14.4161 16.0085 14.172ZM19.9786 18.3604C19.8244 18.1805 19.7601 18.0777 19.6702 17.9878C18.7195 17.037 17.7559 16.0991 16.818 15.1227C16.4968 14.7887 16.3683 15.0456 16.1627 15.2255C15.9443 15.4311 15.7773 15.5724 16.0985 15.8807C17.0621 16.7929 17.9743 17.7437 18.925 18.6816C19.0278 18.7844 19.1177 19.0285 19.3233 18.9C19.5546 18.7587 19.7601 18.5531 19.9786 18.3604Z" fill="#080706"/>
    <path d="M16.0084 14.1721C15.8542 14.4676 15.4945 14.6346 15.2375 15.0201C14.775 14.7888 14.5694 14.0051 14.0684 13.838C14.3125 13.5939 14.5694 13.3498 14.8135 13.1057C15.1604 13.5297 15.4174 14.0308 16.0084 14.1721Z" fill="#4D4F4F"/>
    <path d="M4.81816 8.50589C4.76677 9.48233 4.76677 10.4588 5.07512 11.4224C5.03658 11.4224 4.99803 11.4352 4.95949 11.4481C4.47127 11.4352 3.98304 11.4352 3.49482 11.4224C3.19932 11.4224 2.90382 11.4481 2.90382 11.8335C2.90382 12.2446 3.19932 12.3089 3.52052 12.3089C4.17576 12.3089 4.84386 12.296 5.4991 12.2832C5.88454 12.7586 6.26998 13.2339 6.64257 13.7222C6.64257 14.2104 6.62972 14.6986 6.62972 15.1868C4.79247 15.1868 2.94236 15.1868 1.1051 15.1868C1.07941 15.1226 1.04086 15.0969 0.976624 15.1611C0.771057 15.0198 0.87384 14.8014 0.87384 14.6344C0.860992 10.2532 0.87384 5.85921 0.848145 1.47806C0.848145 0.964142 0.989472 0.835663 1.49054 0.848511C3.21217 0.887054 4.92094 0.887054 6.62972 0.899902C6.62972 1.85065 6.61687 2.8014 6.61687 3.75215C5.55049 3.765 4.48411 3.765 3.41773 3.77784C3.12223 3.77784 2.85242 3.89347 2.87812 4.26607C2.90382 4.60011 3.13508 4.6772 3.41773 4.66435C3.82887 4.66435 4.22716 4.6515 4.63829 4.66435C5.5248 4.7029 6.42415 4.56157 7.31066 4.72859C6.35991 5.24251 5.8203 6.11617 5.33208 7.02837C5.2293 7.20825 5.15221 7.41381 5.06227 7.59368C4.52266 7.59368 3.99589 7.59368 3.45628 7.59368C3.14793 7.59368 2.87812 7.68362 2.89097 8.04336C2.89097 8.4031 3.17362 8.48019 3.46913 8.49304C3.9188 8.50589 4.36848 8.50589 4.81816 8.50589Z" fill="#C8CECF"/>
    <path d="M15.2249 9.4439C15.2506 12.0649 13.1049 14.2619 10.5097 14.2747C7.83729 14.3004 5.62744 12.1163 5.62744 9.45674C5.62744 6.84861 7.81159 4.65161 10.394 4.65161C13.0664 4.66446 15.212 6.78437 15.2249 9.4439ZM14.2099 9.54668C14.2227 7.40107 12.5396 5.6923 10.4197 5.6923C8.3769 5.6923 6.65528 7.42677 6.66813 9.45674C6.68097 11.5253 8.33836 13.2212 10.394 13.2469C12.4369 13.2854 14.197 11.5638 14.2099 9.54668Z" fill="#48C8D2"/>
    <path d="M6.6167 3.75223C6.6167 2.80148 6.62955 1.85073 6.62955 0.899986C8.5182 0.835747 10.394 0.835747 12.2826 0.899986C12.3212 0.951378 12.3469 1.00277 12.3854 1.05416C12.3854 2.04345 12.4368 3.23831 12.4368 4.21476C12.3469 4.21476 12.2184 4.00919 12.1285 4.02204C11.409 3.86786 10.6767 3.75223 9.94432 3.82932C8.82655 3.80362 7.72162 3.77793 6.6167 3.75223Z" fill="#E5E9E9"/>
    <path d="M6.61699 3.7522C7.72192 3.77789 8.82684 3.80359 9.93176 3.81644C8.99386 3.93207 8.10735 4.20188 7.31078 4.74149C6.42427 4.57447 5.53776 4.71579 4.63841 4.67725C4.24012 4.6644 3.82899 4.67725 3.41785 4.67725C3.1352 4.67725 2.90394 4.61301 2.87824 4.27896C2.85254 3.90637 3.1095 3.80359 3.41785 3.79074C4.48423 3.76505 5.55061 3.76505 6.61699 3.7522Z" fill="#E93F46"/>
    <path d="M5.48591 12.2961C4.83067 12.309 4.16257 12.3218 3.50733 12.3218C3.18613 12.3218 2.89062 12.2576 2.89062 11.8464C2.89062 11.461 3.18613 11.4353 3.48163 11.4353C3.96985 11.4353 4.45808 11.4482 4.9463 11.461C4.98484 11.5638 5.06193 11.5895 5.16471 11.6023C5.2675 11.8207 5.37028 12.0649 5.48591 12.2961Z" fill="#E93F46"/>
    <path d="M6.6167 15.1868C6.6167 14.6986 6.62955 14.2104 6.62955 13.7222C7.50321 14.3903 8.44111 14.917 9.54603 15.0712C9.55888 15.1097 9.55888 15.1611 9.57173 15.1997C8.59528 15.1997 7.60599 15.1997 6.6167 15.1868Z" fill="#E5E9E9"/>
    <path d="M4.81782 8.50595C4.36814 8.50595 3.91846 8.50595 3.46878 8.49311C3.16043 8.49311 2.89062 8.41602 2.89062 8.04343C2.89062 7.68369 3.14758 7.59375 3.45593 7.59375C3.99555 7.59375 4.52231 7.59375 5.06193 7.59375C4.97199 7.91495 4.89491 8.21045 4.81782 8.50595Z" fill="#EF373F"/>
    <path d="M11.2931 15.0969C11.5501 15.0326 11.8199 14.9684 12.0768 14.917C12.1796 14.8913 12.3595 14.6986 12.398 15.0069C12.4237 15.2382 12.2567 15.2382 12.1025 15.2382C11.8327 15.2382 11.5501 15.2382 11.2803 15.2382C11.2803 15.1868 11.2803 15.1354 11.2931 15.0969Z" fill="#CBD2D2"/>
    <path d="M5.1647 11.5894C5.06192 11.5765 4.98483 11.5508 4.94629 11.4481C4.98483 11.4352 5.02338 11.4224 5.06192 11.4224C5.10046 11.4738 5.12616 11.538 5.1647 11.5894Z" fill="#EF373F"/>
    <path d="M12.3723 1.05408C12.3338 1.00269 12.3081 0.951294 12.2695 0.899902C12.398 0.899902 12.398 0.964142 12.3723 1.05408Z" fill="#C8CECF"/>
    <path d="M0.963379 15.1612C1.01477 15.097 1.05331 15.1099 1.09186 15.1869C1.05331 15.1869 1.01477 15.1741 0.963379 15.1612Z" fill="#CBD2D2"/>
    <path d="M19.9784 18.3603C19.7471 18.5531 19.5544 18.7586 19.3232 18.9C19.1176 19.0284 19.0276 18.7843 18.9249 18.6815C17.987 17.7565 17.0619 16.7929 16.0983 15.8807C15.79 15.5852 15.9441 15.431 16.1626 15.2254C16.3681 15.0456 16.4966 14.7886 16.8178 15.1227C17.7429 16.0991 18.7193 17.037 19.67 17.9878C19.76 18.0777 19.8371 18.1805 19.9784 18.3603Z" fill="#F88828"/>
    <path d="M14.2096 9.54652C14.1968 11.5637 12.4366 13.2853 10.4066 13.2467C8.35097 13.221 6.69358 11.5251 6.68074 9.45659C6.66789 7.42661 8.38951 5.69214 10.4323 5.69214C12.5266 5.69214 14.2096 7.40092 14.2096 9.54652ZM13.336 9.49513C13.3103 7.85059 12.0126 6.5658 10.3938 6.57865C8.83919 6.60434 7.51585 7.92768 7.5287 9.46944C7.54155 11.1011 8.85204 12.3859 10.4837 12.3731C12.0512 12.3474 13.3488 11.0369 13.336 9.49513Z" fill="#040404"/>
    <path d="M13.3365 9.49519C13.3494 11.0498 12.0646 12.3474 10.4971 12.3603C8.86542 12.3731 7.55493 11.0883 7.54209 9.45665C7.52924 7.92774 8.83973 6.6044 10.3943 6.57871C12.0132 6.56586 13.3108 7.85066 13.3365 9.49519ZM11.3708 7.85066C11.3451 7.64509 11.2423 7.51661 11.0881 7.42667C10.8826 7.29819 10.7155 7.40098 10.5742 7.54231C10.1631 7.94059 9.76478 8.35173 9.35365 8.75001C9.14808 8.95558 9.07099 9.18684 9.28941 9.41811C9.50782 9.64937 9.75193 9.57228 9.9575 9.37956C10.3686 8.98128 10.7669 8.57014 11.1652 8.15901C11.268 8.06907 11.3194 7.94059 11.3708 7.85066ZM11.8076 9.77785C11.7948 9.54659 11.7305 9.39241 11.5635 9.31532C11.3836 9.23823 11.2294 9.27678 11.101 9.40526C10.7027 9.7907 10.3044 10.1761 9.9318 10.5744C9.75193 10.7671 9.72624 11.0113 9.91896 11.204C10.1117 11.3967 10.3429 11.371 10.5485 11.1911C10.9339 10.8185 11.3065 10.4459 11.6791 10.0734C11.7434 9.98342 11.7819 9.85494 11.8076 9.77785Z" fill="#E1E6E6"/>
    <path d="M11.3706 7.85051C11.3192 7.94045 11.2678 8.06893 11.1779 8.15886C10.7796 8.57 10.3685 8.96829 9.97019 9.37942C9.76462 9.58499 9.52051 9.66208 9.3021 9.41796C9.08368 9.1867 9.16077 8.95544 9.36634 8.74987C9.77747 8.35158 10.1758 7.94045 10.5869 7.54216C10.7282 7.40084 10.8952 7.29805 11.1008 7.42653C11.255 7.50362 11.3449 7.64495 11.3706 7.85051Z" fill="#0B96AB"/>
    <path d="M11.8071 9.77796C11.7686 9.8422 11.7429 9.98353 11.6658 10.0735C11.2932 10.4589 10.9206 10.8315 10.5352 11.1912C10.3425 11.384 10.1112 11.3968 9.90564 11.2041C9.71292 11.0114 9.73862 10.7673 9.91849 10.5745C10.2911 10.1762 10.6894 9.79081 11.0877 9.40537C11.2161 9.27689 11.3832 9.23834 11.5502 9.31543C11.7429 9.39252 11.7943 9.54669 11.8071 9.77796Z" fill="#0B96AB"/>
    <path d="M11.0492 3.84204C11.0492 3.84204 12.6167 3.85489 13.6959 4.83133C14.7751 5.80778 12.2441 4.61292 12.2441 4.61292L10.9336 4.17609L11.0492 3.84204Z" fill="#040404"/>
    <path d="M9.55908 15.0713C9.55908 15.0713 13.3492 15.7908 15.3407 12.3604L14.5826 12.6559C14.5826 12.6559 14.1201 13.1698 14.0687 13.2469C14.0173 13.3239 13.2978 13.7865 13.2721 13.8122C13.2336 13.8507 13.3878 13.8893 12.6169 14.1462C11.846 14.4032 10.9981 14.5188 10.9981 14.5188C10.9981 14.5188 9.79035 14.6344 9.68756 14.6601C9.59763 14.6858 9.55908 15.0713 9.55908 15.0713Z" fill="#040404"/>
    <path d="M15.5846 7.07982C15.5846 7.07982 15.5846 7.06697 15.5717 7.06697C15.5717 7.05412 15.5589 7.04128 15.5589 7.02843C15.0963 6.06483 14.4154 5.26826 13.4647 4.6901C13.2462 4.56162 13.2719 4.38175 13.2719 4.18903C13.2719 3.54663 13.2848 2.90424 13.2976 2.26184C13.2976 1.88925 13.2976 1.52951 13.2976 1.15691C13.2848 1.05413 13.2719 0.951348 13.2719 0.848564C13.2462 0.039143 13.2077 0.000599147 12.3983 0.000599147H5.42183C3.84154 0.0134471 2.26124 0.026295 0.680941 0.000599147C0.167023 -0.0122488 -9.57247e-10 0.18047 0.012848 0.681541C0.0256959 0.951348 0.012848 1.234 0 1.50381V2.45456C0 2.46741 0 2.46741 0 2.48025C0.205567 2.54449 0.56531 2.63443 0.847965 2.42886V3.1355C0.847965 3.1355 0.398286 2.82715 0.012848 3.12265V7.96633C0.012848 8.49309 0.012848 9.01986 0.0256959 9.54663C0.0256959 9.62371 0.0256959 9.7008 0.012848 9.77789V11.1783C0.0256959 11.2426 0.0256959 11.3196 0.0256959 11.4096C1.91449e-09 12.5274 0.012848 13.6451 0.012848 14.7629V14.9685C0.012848 15.1098 0.012848 15.2511 0.012848 15.3924C-9.57247e-10 15.8935 0.12848 16.1119 0.693789 16.1119C3.64882 16.0991 6.60385 16.0991 9.55888 16.0991C10.1242 15.7008 9.57172 15.2126 9.57172 15.2126C8.58243 15.2126 7.59314 15.1997 6.61669 15.1997C4.77944 15.1997 2.92933 15.1997 1.09208 15.1997C1.05353 15.1869 1.00214 15.1869 0.963596 15.174C0.758029 15.0327 0.860813 14.8143 0.860813 14.6473C0.860813 10.2533 0.873661 5.85926 0.847965 1.47811C0.847965 0.964195 0.989292 0.835716 1.49036 0.848564C3.21199 0.887108 4.92077 0.887108 6.62954 0.899956C8.51819 0.835716 10.394 0.835716 12.2826 0.899956C12.3983 0.899956 12.3983 0.964195 12.3854 1.05413C12.3854 2.04342 12.3854 3.01987 12.3854 4.00916C12.3212 4.24042 12.2184 4.0991 12.1285 4.02201C11.409 3.86783 10.6766 3.7522 9.94431 3.82929C9.00641 3.94492 8.11991 4.21473 7.32333 4.75434C6.37258 5.26826 5.84582 6.14192 5.34475 7.05412C5.24196 7.234 5.16488 7.43956 5.07494 7.61943C4.99785 7.91494 4.92077 8.22329 4.83083 8.51879C4.77944 9.49524 4.77944 10.4717 5.08779 11.4353C5.12633 11.4867 5.15203 11.5509 5.19057 11.6023C5.29336 11.8336 5.40899 12.0777 5.51177 12.3089C5.89721 12.7843 6.28265 13.2597 6.65524 13.7479C7.5289 14.416 8.4668 14.9428 9.57172 15.0969C10.0728 15.0969 10.561 15.0969 11.0621 15.0969C11.0749 15.0969 11.0749 15.0841 11.0749 15.0841C11.0749 15.0712 11.0749 15.0712 11.0749 15.0584C11.0749 15.0584 11.0878 15.0712 11.0749 15.0841V15.0969C11.0621 15.174 11.0621 15.2383 11.0492 15.3154C10.8051 15.7265 10.9722 16.022 11.1006 16.1248C11.5889 16.1248 12.0899 16.1248 12.5781 16.1248C13.1178 16.1248 13.3619 15.9064 13.2719 15.4053C13.1563 14.673 13.4004 14.1847 14.0685 13.8764C14.3126 13.6323 14.5696 13.3882 14.8137 13.1441C15.6488 12.0905 16.1242 10.8957 16.1242 9.54663C16.1113 8.58303 15.9058 7.77361 15.5846 7.07982ZM12.1028 15.2254C11.833 15.2254 11.5503 15.2254 11.2805 15.2254C11.2805 15.174 11.2933 15.1355 11.2933 15.0841C11.5503 15.0199 11.8201 14.9556 12.0771 14.9042C12.1799 14.8785 12.3597 14.6858 12.3983 14.9942C12.4111 15.2254 12.2569 15.2254 12.1028 15.2254ZM10.5096 14.2875C7.83725 14.3132 5.6274 12.1291 5.6274 9.46954C5.6274 6.8614 7.81155 4.66441 10.394 4.66441C13.0664 4.66441 15.1991 6.78432 15.2248 9.44384C15.2505 12.0777 13.1178 14.2618 10.5096 14.2875Z" fill="#040404"/>
</svg>
