<svg width="18" height="18" viewBox="0 0 18 18" fill="none" xmlns="http://www.w3.org/2000/svg">
    <path d="M17.5922 0.379687C17.0859 -0.126562 16.2984 -0.126562 15.7922 0.379687L8.98594 7.18592L2.17969 0.379687C1.67344 -0.126562 0.885937 -0.126562 0.379687 0.379687C-0.126563 0.885937 -0.126563 1.67344 0.379687 2.17969L7.18594 8.98593L0.379687 15.7922C-0.126563 16.2984 -0.126563 17.0859 0.379687 17.5922C0.660937 17.8734 0.885937 17.9859 1.27969 17.9859C1.67344 17.9859 1.89844 17.8734 2.17969 17.5922L8.98594 10.7859L15.7922 17.5922C16.0734 17.8734 16.4109 17.9859 16.6922 17.9859C16.9734 17.9859 17.3109 17.8734 17.5922 17.5922C18.0984 17.0859 18.0984 16.2984 17.5922 15.7922L10.7859 8.98593L17.5922 2.17969C18.0984 1.67344 18.0984 0.885937 17.5922 0.379687Z" fill="#666666"/>
</svg>
