<svg width="30" height="30" viewBox="0 0 30 30" fill="none" xmlns="http://www.w3.org/2000/svg">
    <g clip-path="url(#clip0)">
        <path d="M8.40543 30.0001C13.0476 30.0001 16.8109 26.2369 16.8109 21.5947C16.8109 16.9525 13.0476 13.1892 8.40543 13.1892C3.76324 13.1892 0 16.9525 0 21.5947C0 26.2369 3.76324 30.0001 8.40543 30.0001Z" fill="#FF7C8B"/>
        <path d="M12.5568 14.2847C13.2539 15.5093 13.6523 16.9261 13.6523 18.436C13.6523 23.0782 9.88908 26.8415 5.24688 26.8415C3.73692 26.8415 2.32018 26.443 1.09546 25.7459C1.24798 26.0139 1.41562 26.2721 1.59573 26.5206L0.0535473 29.3687C-0.148249 29.7413 0.258508 30.1481 0.631222 29.9463L3.47876 28.4044C4.86315 29.4078 6.56488 30 8.40543 30C13.0476 30 16.8109 26.2367 16.8109 21.5945C16.8108 18.4623 15.0974 15.7306 12.5568 14.2847Z" fill="#FF5368"/>
        <path d="M11.4148 24.6212L11.095 24.3015C11.4655 23.7027 11.68 22.9977 11.68 22.2434C11.68 20.0799 9.91989 18.3198 7.75644 18.3198C5.59298 18.3198 3.83295 20.0799 3.83295 22.2434C3.83295 24.4068 5.59304 26.1669 7.75649 26.1669C8.51083 26.1669 9.21589 25.9525 9.8146 25.5819L10.1343 25.9017C10.3111 26.0784 10.5429 26.1669 10.7745 26.1669C11.0062 26.1669 11.238 26.0786 11.4147 25.9017C11.7685 25.5481 11.7685 24.9748 11.4148 24.6212ZM7.75649 24.356C6.59159 24.356 5.64384 23.4082 5.64384 22.2433C5.64384 21.0784 6.59159 20.1307 7.75649 20.1307C8.92139 20.1307 9.86915 21.0784 9.86915 22.2433C9.86915 22.492 9.82561 22.7308 9.74628 22.9526L9.60395 22.8103C9.2504 22.4567 8.67712 22.4567 8.3235 22.8103C7.96989 23.1639 7.96989 23.7372 8.3235 24.0908L8.46583 24.2331C8.24399 24.3125 8.00528 24.356 7.75649 24.356Z" fill="#FFF9EB"/>
        <path d="M19.4819 21.0362C25.2908 21.0362 29.9999 16.3271 29.9999 10.5181C29.9999 4.70911 25.2908 0 19.4819 0C13.6729 0 8.96378 4.70911 8.96378 10.5181C8.96378 16.3271 13.6729 21.0362 19.4819 21.0362Z" fill="#4FE267"/>
        <path d="M28.0036 16.6836C29.2591 14.9512 29.9999 12.8214 29.9999 10.5182C29.9999 6.8055 28.0761 3.54224 25.1712 1.67041C26.228 3.31056 26.8414 5.26349 26.8414 7.35973C26.8414 13.1688 22.1323 17.8778 16.3233 17.8778C14.2271 17.8778 12.2742 17.2643 10.634 16.2076C12.5058 19.1125 15.7691 21.0363 19.4818 21.0363C21.785 21.0363 23.9147 20.2955 25.6472 19.04L29.21 20.9693C29.6764 21.2218 30.1854 20.7128 29.9329 20.2464L28.0036 16.6836Z" fill="#00B04B"/>
        <path d="M24.2984 14.682L20.6767 5.02404C20.5442 4.6706 20.2064 4.43652 19.8289 4.43652C19.4514 4.43652 19.1136 4.6706 18.9811 5.02404L15.3594 14.682C15.1838 15.1501 15.421 15.6721 15.8892 15.8477C16.3574 16.0233 16.8793 15.786 17.055 15.3178L17.2308 14.849H22.4271L22.6029 15.3178C22.7392 15.6813 23.0842 15.9056 23.4508 15.9056C23.5564 15.9056 23.6639 15.8869 23.7686 15.8477C24.2367 15.6721 24.474 15.1502 24.2984 14.682ZM17.9099 13.0381L19.829 7.92061L21.7481 13.0381H17.9099Z" fill="#FFF9EB"/>
    </g>
    <defs>
        <clipPath id="clip0">
            <rect width="30" height="30" fill="white"/>
        </clipPath>
    </defs>
</svg>
