<svg width="30" height="30" viewBox="0 0 30 30" fill="none" xmlns="http://www.w3.org/2000/svg">
    <path d="M15.995 19.7486H23.9925C24.2924 19.7486 24.4923 19.5487 24.4923 19.2488V14.7502C24.4923 14.4503 24.2924 14.2504 23.9925 14.2504H15.995C15.6951 14.2504 15.4952 14.4503 15.4952 14.7502V19.2488C15.4951 19.5486 15.6951 19.7486 15.995 19.7486ZM16.4948 15.25H23.4927V18.7489H16.4948V15.25Z" fill="white"/>
    <path d="M2.49921 13.2507H6.49798C6.79789 13.2507 6.99781 13.0508 6.99781 12.7509C6.99781 12.451 6.79789 12.2511 6.49798 12.2511H2.49921C2.19931 12.2511 1.99939 12.451 1.99939 12.7509C1.99939 13.0508 2.19931 13.2507 2.49921 13.2507Z" fill="white"/>
    <path d="M8.49738 13.2507H12.4962C12.7961 13.2507 12.996 13.0508 12.996 12.7509C12.996 12.451 12.7961 12.2511 12.4962 12.2511H8.49738C8.19748 12.2511 7.99756 12.451 7.99756 12.7509C7.99756 13.0508 8.19748 13.2507 8.49738 13.2507Z" fill="white"/>
    <path d="M2.49921 15.25H8.99717C9.29707 15.25 9.49699 15.0501 9.49699 14.7502C9.49699 14.4503 9.29707 14.2504 8.99717 14.2504H2.49921C2.19931 14.2504 1.99939 14.4503 1.99939 14.7502C1.99939 15.0501 2.19931 15.25 2.49921 15.25Z" fill="white"/>
    <path d="M12.4961 14.2502H10.9965C10.6966 14.2502 10.4967 14.4502 10.4967 14.7501C10.4967 15.05 10.6966 15.2499 10.9965 15.2499H12.4961C12.796 15.2499 12.9959 15.05 12.9959 14.7501C12.9959 14.4502 12.796 14.2502 12.4961 14.2502Z" fill="white"/>
    <path d="M29.5408 8.05223C29.1909 7.60237 28.741 7.35243 28.1912 7.30247L26.9916 7.15708V5.75291V4.75326C26.9916 3.65363 26.0918 2.75391 24.9922 2.75391H1.99936C0.899719 2.75385 0 3.65357 0 4.75326V5.75297V9.75174V20.7483C0 21.6511 0.606666 22.4187 1.43235 22.6648C1.40716 23.6759 2.17221 24.5537 3.19904 24.6471L26.2918 27.2462C26.3418 27.2462 26.4418 27.2462 26.4917 27.2462C27.4914 27.2462 28.3912 26.4965 28.4911 25.5468L29.9906 9.5018C30.0406 9.00191 29.8906 8.45207 29.5408 8.05223ZM0.999707 6.25279H25.9919V7.55241V9.25186H0.999707V6.25279ZM1.99936 3.75355H24.9922C25.542 3.75355 25.9919 4.20341 25.9919 4.75326V5.25309H0.999707V4.75326C0.999707 4.20341 1.44957 3.75355 1.99936 3.75355ZM0.999707 20.7482V10.2515H25.9919V20.7482C25.9919 21.2981 25.5421 21.7479 24.9922 21.7479H2.04938H1.99941C1.44957 21.7479 0.999707 21.2981 0.999707 20.7482ZM28.9909 9.30182L27.4914 25.3468C27.4414 25.8967 26.9415 26.2965 26.3918 26.2465L3.34893 23.6474C2.84911 23.5974 2.49918 23.1975 2.44922 22.7476H24.9922C26.0918 22.7476 26.9915 21.8479 26.9915 20.7483V9.75168V8.1022L28.1412 8.20218C28.3911 8.20218 28.641 8.35214 28.7909 8.55206C28.941 8.75197 29.0409 9.05188 28.9909 9.30182Z" fill="white"/>
</svg>
