<svg width="32" height="32" viewBox="0 0 32 32" fill="none" xmlns="http://www.w3.org/2000/svg">
<path d="M0.923499 3.44049L0.924575 3.44157C0.942058 3.48258 0.961221 3.5006 0.961221 3.5006L0.973258 3.48803L9.16634 11.3242V31.9999H31.1986V1.2553H9.16634V4.84629L4.15919 0.0578101L4.13458 0.0834961C3.96843 0.0228449 3.03217 -0.323176 1.72857 1.04C0.424977 2.40317 0.855721 3.27709 0.923499 3.44049ZM23.7598 22.6399H28.4658V29.2671H23.7598V22.6399ZM23.7598 10.2054H25.0579H25.7367H27.5814H28.3373H28.4658V22.0933H23.7598V10.2054ZM23.7598 3.98817H24.5113V9.65884H23.7598V3.98817ZM26.2833 3.98817H27.0348V9.65884H26.2833V3.98817ZM28.4658 9.65884H28.3373H27.5814V3.98817H28.4658V9.65884ZM25.7367 9.65884H25.0579V3.98817H25.7367V9.65884ZM23.2132 9.65884H22.53V3.98817H23.2132V9.65884ZM21.2319 3.98817H21.9834V9.65884H21.2319V3.98817ZM11.8992 3.98817H20.6854V9.65884H17.8159V10.2054H20.6854H22.53H23.2133V22.0933V22.6399V29.2671H19.5922V27.9996H18.4991V29.2671H11.8992V19.0872H12.7601V17.9941H11.8992V13.938L12.3928 14.4102C12.5135 13.8057 12.9541 13.0618 13.5116 12.4256C14.1844 11.6566 14.9622 11.1062 15.5541 10.9559L11.8991 7.46001V3.98817H11.8992Z" fill="#2BBCEE"/>
<path d="M13.7478 12.5869C12.9777 13.4822 12.6842 14.2523 12.6694 14.6403C12.665 14.7584 12.9301 14.9082 12.9771 14.9082C12.9781 14.9082 12.9793 14.9082 12.9798 14.9082L13.6056 14.9831L14.0719 15.0388L16.2002 15.2941C16.2002 15.293 16.1992 15.2918 16.1992 15.2902C16.1866 15.1312 16.2593 14.9459 16.3987 14.7819C16.4664 14.7026 16.6441 14.5266 16.8655 14.5108L16.2582 12.4393L16.127 11.9917L15.9636 11.4331C15.9734 11.3101 15.8324 11.1522 15.7931 11.1522C15.3989 11.1527 14.5485 11.6555 13.7478 12.5869ZM15.5044 11.8096L15.6028 12.1458L15.734 12.5934L16.209 14.2134C16.104 14.2938 16.027 14.3757 15.9827 14.4283C15.91 14.5135 15.8488 14.6037 15.7991 14.6955L14.137 14.4966L13.6707 14.4408L13.2728 14.3933C13.3821 14.0577 13.6554 13.533 14.162 12.9438C14.6993 12.318 15.1961 11.9698 15.5044 11.8096Z" fill="#2BBCEE"/>
<path d="M16.5565 15.3028C16.5592 15.3066 16.5592 15.3126 16.5624 15.3159L17.0554 15.7285C17.0871 15.7548 17.2036 15.7925 17.3145 15.7925C17.3888 15.7925 17.4604 15.7755 17.502 15.7275C17.6058 15.6078 17.4845 15.3383 17.4315 15.294L16.9385 14.8814C16.927 14.8716 16.9117 14.8672 16.8936 14.8672C16.8903 14.8672 16.8865 14.8688 16.8832 14.8694C16.8204 14.8749 16.7313 14.9301 16.6548 15.0186C16.5576 15.1306 16.5187 15.2509 16.5565 15.3028Z" fill="#2BBCEE"/>
<path d="M18.499 19.7399H19.5921V17.9941H17.7404V19.0873H18.499V19.7399Z" fill="#2BBCEE"/>
<path d="M16.0394 17.9941H14.4609V19.0873H16.0394V17.9941Z" fill="#2BBCEE"/>
<path d="M19.5922 21.4408H18.499V23.0193H19.5922V21.4408Z" fill="#2BBCEE"/>
<path d="M19.5922 24.7202H18.499V26.2986H19.5922V24.7202Z" fill="#2BBCEE"/>
</svg>
