<svg width="60" height="60" viewBox="0 0 60 60" fill="none" xmlns="http://www.w3.org/2000/svg">
    <g clip-path="url(#clip0)">
        <path d="M50.0655 26.836L26.7655 8.80884L3.51562 26.836V58.8281H50.0655V26.836Z" fill="#FEDA9B"/>
        <path d="M31.9912 30H22.1484V44.2945H31.9912V30Z" fill="white"/>
        <path d="M44.863 26.8361L26.8359 8.80898L8.80874 26.8361H1.17188L26.8359 1.17212L49.1016 23.4378L44.863 26.8361Z" fill="#FF5D5D"/>
        <path d="M17.5781 34.2188H8.20312V43.5937H17.5781V34.2188Z" fill="#FFC66C"/>
        <path d="M58.8281 25.6641V58.8281H25.6641L58.8281 25.6641Z" fill="#C9F3FF"/>
        <path d="M39.8101 52.9689H52.9689V39.8101L39.8101 52.9689Z" fill="white"/>
        <path d="M50.5055 26.3215L53.4357 18.3198L45.4341 21.2501L20.8228 45.8616C19.4224 47.262 19.4224 49.5325 20.8228 50.9329C22.2231 52.3333 24.4936 52.3333 25.894 50.9329L50.5055 26.3215Z" fill="#FFB954"/>
        <path d="M50.5058 26.3216L53.4361 18.3201L45.4346 21.2503L50.5058 26.3216Z" fill="#686C83"/>
        <path d="M22.3271 44.3572L20.8228 45.8615C19.4224 47.2619 19.4224 49.5324 20.8228 50.9328C22.2231 52.3332 24.4936 52.3332 25.894 50.9328L27.3984 49.4284L22.3271 44.3572Z" fill="#FF5D5D"/>
        <path d="M26.8359 25.4297C28.6481 25.4297 30.1172 23.9606 30.1172 22.1484C30.1172 20.3363 28.6481 18.8672 26.8359 18.8672C25.0238 18.8672 23.5547 20.3363 23.5547 22.1484C23.5547 23.9606 25.0238 25.4297 26.8359 25.4297Z" fill="#FF8E4B"/>
        <path d="M43.125 18.6328C43.4332 18.6328 43.7355 18.5074 43.9534 18.2894C44.1714 18.0715 44.2969 17.7691 44.2969 17.4609C44.2969 17.1527 44.1715 16.8504 43.9534 16.6324C43.7355 16.4145 43.4332 16.2891 43.125 16.2891C42.8168 16.2891 42.5145 16.4145 42.2965 16.6324C42.0785 16.8504 41.9531 17.1516 41.9531 17.4609C41.9531 17.7691 42.0784 18.0715 42.2965 18.2894C42.5146 18.5074 42.8168 18.6328 43.125 18.6328Z" fill="black"/>
        <path d="M17.5781 33.0469H8.20312C7.55601 33.0469 7.03125 33.5715 7.03125 34.2187V43.5937C7.03125 44.241 7.55601 44.7656 8.20312 44.7656H17.5781C18.2252 44.7656 18.75 44.241 18.75 43.5937V34.2187C18.75 33.5715 18.2253 33.0469 17.5781 33.0469ZM16.4062 42.4219H9.375V35.3906H16.4062V42.4219Z" fill="black"/>
        <path d="M59.2765 24.5815C58.8386 24.3999 58.3344 24.5005 57.9994 24.8354L46.0583 36.7766C46.0581 36.7768 46.0579 36.7769 46.0577 36.7771C46.0574 36.7774 46.0573 36.7775 46.0572 36.7777L32.1372 50.6977C32.137 50.698 32.1369 50.6981 32.1366 50.6983C32.1364 50.6985 32.1363 50.6987 32.1361 50.6989L24.8354 57.9995C24.5004 58.3347 24.4001 58.8388 24.5813 59.2767C24.7628 59.7146 25.19 60 25.664 60H58.828C59.4751 60 59.9999 59.4754 59.9999 58.8282V25.6642C59.9999 25.1902 59.7144 24.7629 59.2765 24.5815ZM57.6562 57.6563H28.4933L32.9653 53.1843L34.0839 54.303C34.3128 54.5319 34.6127 54.6462 34.9126 54.6462C35.2125 54.6462 35.5123 54.5319 35.7412 54.303C36.1988 53.8454 36.1988 53.1033 35.7412 52.6456L34.6225 51.5269L37.6057 48.5438L38.7242 49.6624C38.9531 49.8912 39.253 50.0056 39.5528 50.0056C39.8527 50.0056 40.1526 49.8911 40.3815 49.6624C40.8391 49.2048 40.8391 48.4627 40.3815 48.0051L39.2628 46.8864L42.2459 43.9033L43.3646 45.022C43.5935 45.2508 43.8933 45.3652 44.1932 45.3652C44.4931 45.3652 44.793 45.2508 45.0219 45.022C45.4795 44.5644 45.4795 43.8223 45.0219 43.3646L43.9032 42.2459L46.8862 39.2629L48.0049 40.3816C48.2337 40.6105 48.5336 40.7248 48.8335 40.7248C49.1334 40.7248 49.4333 40.6105 49.6621 40.3816C50.1197 39.924 50.1197 39.1819 49.6621 38.7242L48.5435 37.6055L51.5266 34.6224L52.6451 35.741C52.874 35.9698 53.1739 36.0842 53.4738 36.0842C53.7736 36.0842 54.0735 35.9697 54.3024 35.741C54.76 35.2834 54.76 34.5413 54.3024 34.0837L53.1837 32.965L57.6562 28.4933V57.6563Z" fill="black"/>
        <path d="M53.4169 38.7272C52.979 38.5457 52.4749 38.6461 52.1398 38.9812L38.981 52.1401C38.6459 52.4753 38.5455 52.9793 38.7269 53.4173C38.9083 53.8552 39.3356 54.1406 39.8096 54.1406H52.9684C53.6156 54.1406 54.1403 53.616 54.1403 52.9688V39.8099C54.1403 39.336 53.8549 38.9086 53.4169 38.7272ZM51.7966 51.7969H42.6389L51.7966 42.6391V51.7969Z" fill="black"/>
        <path d="M23.3586 53.1532C24.5768 53.1532 25.7955 52.6894 26.7229 51.762L36.6055 41.8793C37.0632 41.4217 37.0632 40.6797 36.6055 40.2221C36.1479 39.7644 35.4061 39.7644 34.9482 40.2221L27.4608 47.7094L24.0468 44.2954L45.4577 22.8844L48.8718 26.2984L40.6903 34.48C40.2327 34.9376 40.2327 35.6796 40.6903 36.1373C41.1481 36.5949 41.8899 36.5949 42.3477 36.1373L51.3343 27.1506C51.4547 27.0302 51.5475 26.8849 51.606 26.725L54.5364 18.7233C54.6933 18.2949 54.5873 17.8143 54.2647 17.4917C53.9421 17.1692 53.4619 17.063 53.0331 17.2199L45.0314 20.1502C44.8715 20.2088 44.7263 20.3015 44.6057 20.422L42.3558 22.6719L27.6645 7.98043C27.4447 7.76071 27.1466 7.63719 26.8359 7.63719C26.5251 7.63719 26.227 7.76071 26.0072 7.98043L8.32333 25.6643H4.00111L26.8359 2.82947L39.3666 15.3602C39.8243 15.8178 40.5661 15.8178 41.024 15.3602C41.4816 14.9026 41.4816 14.1605 41.024 13.7028L27.6646 0.343456C27.2069 -0.11416 26.4651 -0.11416 26.0072 0.343456L0.343224 26.0075C0.00818572 26.3426 -0.0921266 26.8466 0.0891621 27.2846C0.270568 27.7226 0.697833 28.0081 1.17186 28.0081H2.34373V58.8284C2.34373 59.4756 2.86849 60.0002 3.5156 60.0002H22.1467C22.7938 60.0002 23.3186 59.4756 23.3186 58.8284C23.3186 58.1811 22.7938 57.6565 22.1467 57.6565H4.68747V28.0081H8.80872C9.1195 28.0081 9.4175 27.8846 9.63735 27.6649L26.8359 10.4663L40.6984 24.329L23.3202 41.7073V31.1722H31.5234C32.1705 31.1722 32.6952 30.6475 32.6952 30.0003C32.6952 29.3531 32.1705 28.8284 31.5234 28.8284H22.1484C21.5013 28.8284 20.9765 29.3531 20.9765 30.0003V43.594C20.9765 43.7308 21.0011 43.8613 21.0441 43.9833L19.9942 45.0332C18.1392 46.8883 18.1392 49.9068 19.9942 51.7618C20.9219 52.6895 22.1401 53.1533 23.3586 53.1532ZM50.049 24.1608L47.5954 21.7072L51.467 20.2893L50.049 24.1608ZM21.6516 46.6906L22.3897 45.9525L25.8037 49.3665L25.0656 50.1046C24.6097 50.5606 24.0036 50.8117 23.3587 50.8117C22.7138 50.8117 22.1076 50.5606 21.6517 50.1046C21.1956 49.6486 20.9446 49.0424 20.9446 48.3976C20.9446 47.7529 21.1955 47.1465 21.6516 46.6906Z" fill="black"/>
        <path d="M37.7984 37.3712C37.5805 37.5903 37.4551 37.8915 37.4551 38.1997C37.4551 38.5091 37.5804 38.8102 37.7984 39.0294C38.0164 39.2474 38.3176 39.3716 38.627 39.3716C38.9352 39.3716 39.2375 39.2474 39.4553 39.0294C39.6733 38.8102 39.7988 38.5079 39.7988 38.1997C39.7988 37.8915 39.6734 37.5903 39.4553 37.3712C39.2375 37.1532 38.9352 37.0278 38.627 37.0278C38.3187 37.0278 38.0164 37.1532 37.7984 37.3712Z" fill="black"/>
        <path d="M31.289 22.1484C31.289 19.693 29.2914 17.6953 26.8359 17.6953C24.3805 17.6953 22.3828 19.693 22.3828 22.1484C22.3828 24.6039 24.3805 26.6015 26.8359 26.6015C29.2914 26.6015 31.289 24.6039 31.289 22.1484ZM24.7266 22.1484C24.7266 20.9853 25.6728 20.0391 26.8359 20.0391C27.999 20.0391 28.9453 20.9853 28.9453 22.1484C28.9453 23.3115 27.999 24.2578 26.8359 24.2578C25.6728 24.2578 24.7266 23.3116 24.7266 22.1484Z" fill="black"/>
    </g>
    <defs>
        <clipPath id="clip0">
            <rect width="60" height="60" fill="white"/>
        </clipPath>
    </defs>
</svg>
