<svg width="60" height="60" viewBox="0 0 60 60" fill="none" xmlns="http://www.w3.org/2000/svg">
    <path d="M58.1651 9.56268V40.8998C58.1651 44.0474 55.6126 46.5985 52.4664 46.5985H7.53415C4.38794 46.5985 1.83545 44.0474 1.83545 40.8998V9.56268C1.83545 6.41464 4.38794 3.86353 7.53415 3.86353H52.4664C55.6126 3.86353 58.1651 6.41464 58.1651 9.56268Z" fill="#FFF5EA"/>
    <path d="M58.1648 9.56268V40.8998C58.1648 44.0474 55.6123 46.5985 52.4661 46.5985H30V3.86353H52.4661C55.6123 3.86353 58.1648 6.41464 58.1648 9.56268Z" fill="#F2E1DF"/>
    <path d="M52.4158 2.10938H7.58423C3.4021 2.10938 0 5.50781 0 9.68674V40.7753C0 44.9533 3.4021 48.3527 7.58423 48.3527H10.0218C11.2944 48.3527 12.3257 49.384 12.3257 50.6566C12.3257 52.0665 12.8975 53.3437 13.8213 54.2683C14.7455 55.193 16.0231 55.7648 17.4339 55.7648H42.5661C45.3877 55.7648 47.6743 53.4773 47.6743 50.6566C47.6743 50.0203 47.932 49.444 48.349 49.0279C48.7665 48.6104 49.3419 48.3527 49.9782 48.3527H52.4158C56.5979 48.3527 60 44.9533 60 40.7753V9.68674C60 5.50781 56.5979 2.10938 52.4158 2.10938V2.10938ZM56.4844 40.7753C56.4844 43.0147 54.6597 44.837 52.4158 44.837H7.58423C5.34027 44.837 3.51562 43.0147 3.51562 40.7753V9.68674C3.51562 7.44736 5.34027 5.625 7.58423 5.625H20.7903C20.7903 7.91245 22.6511 9.77325 24.9399 9.77325H35.0601C37.3489 9.77325 39.2097 7.91245 39.2097 5.625H52.4158C54.6597 5.625 56.4844 7.44736 56.4844 9.68674V40.7753Z" fill="#0085A9"/>
    <path d="M60 9.68674V40.7753C60 44.9533 56.5979 48.3527 52.4158 48.3527H49.9782C49.3419 48.3527 48.7665 48.6104 48.349 49.0279C47.932 49.444 47.6743 50.0203 47.6743 50.6566C47.6743 53.4773 45.3877 55.7648 42.5661 55.7648H30V44.837H52.4158C54.6597 44.837 56.4844 43.0147 56.4844 40.7753V9.68674C56.4844 7.44736 54.6597 5.625 52.4158 5.625H39.2097C39.2097 7.91245 37.3489 9.77325 35.0601 9.77325H30V2.10938H52.4158C56.5979 2.10938 60 5.50781 60 9.68674Z" fill="#00608D"/>
    <path d="M60 51.3867C60 54.9142 57.1371 57.7734 53.605 57.7734H6.39496C4.62891 57.7734 3.0304 57.0584 1.87271 55.903C0.715942 54.7476 0 53.1505 0 51.3867C0 49.7108 1.35956 48.354 3.03497 48.354H17.742C18.0537 48.354 18.3362 48.4803 18.5403 48.6831C18.744 48.8873 18.8708 49.1693 18.8708 49.4801C18.8708 50.9248 20.0427 52.0967 21.4897 52.0967H38.5103C39.9573 52.0967 41.1292 50.9248 41.1292 49.4801C41.1292 48.858 41.6345 48.354 42.258 48.354H56.965C57.8027 48.354 58.5608 48.6937 59.1106 49.2421C59.6603 49.7905 60 50.549 60 51.3867Z" fill="#2999FF"/>
    <path d="M60 51.3867C60 54.9142 57.1371 57.7734 53.605 57.7734H30V52.0967H38.5103C39.9573 52.0967 41.1292 50.9248 41.1292 49.4801C41.1292 48.858 41.6345 48.354 42.258 48.354H56.965C57.8027 48.354 58.5608 48.6937 59.1106 49.2421C59.6603 49.7905 60 50.549 60 51.3867Z" fill="#3E7EFF"/>
    <path d="M29.9999 13.27C22.2294 13.27 15.9067 19.5927 15.9067 27.3632C15.9067 35.1337 22.2294 41.4564 29.9999 41.4564C37.7704 41.4564 44.0931 35.1337 44.0931 27.3632C44.0931 19.5927 37.7704 13.27 29.9999 13.27Z" fill="#2999FF"/>
    <path d="M44.0932 27.3632C44.0932 35.1337 37.7705 41.4564 30 41.4564V13.27C37.7705 13.27 44.0932 19.5927 44.0932 27.3632Z" fill="#3E7EFF"/>
    <path d="M31.7578 27.5225V33.2015C31.7578 34.1729 30.9705 34.9593 30 34.9593C29.0295 34.9593 28.2422 34.1729 28.2422 33.2015V27.5225C28.2422 26.552 29.0295 25.7646 30 25.7646C30.9705 25.7646 31.7578 26.552 31.7578 27.5225Z" fill="white"/>
    <path d="M31.7578 21.5249V22.6968C31.7578 23.6672 30.9705 24.4546 30 24.4546C29.0295 24.4546 28.2422 23.6672 28.2422 22.6968V21.5249C28.2422 20.5535 29.0295 19.7671 30 19.7671C30.9705 19.7671 31.7578 20.5535 31.7578 21.5249Z" fill="white"/>
    <path d="M31.7578 21.5249V22.6968C31.7578 23.6672 30.9705 24.4546 30 24.4546V19.7671C30.9705 19.7671 31.7578 20.5535 31.7578 21.5249Z" fill="#FFF5EA"/>
    <path d="M31.7578 27.5225V33.2015C31.7578 34.1729 30.9705 34.9593 30 34.9593V25.7646C30.9705 25.7646 31.7578 26.552 31.7578 27.5225Z" fill="#FFF5EA"/>
</svg>
