<svg width="18" height="18" viewBox="0 0 18 18" fill="none" xmlns="http://www.w3.org/2000/svg">
    <path d="M16.7793 9.92655C16.62 5.66742 13.0804 2.4433 9.02636 2.46162C4.73001 2.43128 1.08327 6.02864 1.26027 10.5334C1.42697 14.7559 4.98378 18.1271 9.3145 17.9754C13.5793 17.8266 16.9397 14.2132 16.7793 9.92655ZM14.4879 14.3305C14.4277 13.2159 13.9884 12.3034 13.1302 11.605C12.5852 11.1616 11.9198 10.8912 11.2198 10.8288C11.1195 11.2238 10.844 11.4928 10.5788 11.7659C10.1062 12.2519 9.57916 12.6767 9.04297 13.0906C9.03263 13.0968 9.02192 13.1023 9.01089 13.1072C8.84649 12.9772 8.67807 12.8467 8.51309 12.7122C8.05825 12.3418 7.61315 11.9599 7.22476 11.5174C7.12591 11.4044 7.03554 11.2842 6.95437 11.1579C6.89841 11.057 6.84904 10.9526 6.80658 10.8454C5.45752 10.8803 3.63816 12.1363 3.55166 14.3116C3.23889 14.1027 2.53142 12.5942 2.33322 11.6983C2.12055 10.7443 2.11625 9.75574 2.32061 8.79994C2.519 7.84297 2.92429 6.9409 3.50813 6.15687C4.05582 5.4127 4.74876 4.78719 5.5451 4.3181C6.34144 3.84902 7.22467 3.5461 8.14142 3.42764C9.05818 3.30919 9.98946 3.37765 10.879 3.62889C11.7685 3.88014 12.5979 4.30895 13.317 4.88944C16.3743 7.3602 16.5845 11.605 14.493 14.3305H14.4879Z" fill="#666666"/>
    <path d="M9.01777 4.12793C8.88601 4.13823 8.75426 4.1451 8.6225 4.15942C8.53594 4.16933 8.45005 4.18443 8.36529 4.20464C7.60992 4.37482 6.94861 4.82798 6.51754 5.4708C6.08647 6.11362 5.91846 6.89715 6.04813 7.66004C6.1694 8.40631 6.43876 9.12082 6.84037 9.76155C7.14456 10.2481 7.51003 10.6775 8.00383 10.9872C8.68609 11.4114 9.37007 11.4057 10.0512 10.9798C10.3155 10.8115 10.5531 10.6044 10.7558 10.3655C11.2685 9.76413 11.6435 9.05802 11.8545 8.29662C12.0075 7.76594 12.0836 7.22725 11.9971 6.6754C11.885 5.966 11.5234 5.31981 10.9773 4.85289C10.4312 4.38598 9.73645 4.12893 9.01777 4.12793Z" fill="#666666"/>
</svg>
