<svg width="16" height="16" viewBox="0 0 16 16" fill="none" xmlns="http://www.w3.org/2000/svg">
    <g clip-path="url(#clip0)">
        <path d="M12.9032 12.1291V14.1936H9.54834V12.9885C9.64637 12.9033 9.7187 12.7871 9.75474 12.6556L10.031 11.6465C10.2555 11.675 10.4748 11.7265 10.6916 11.7988L11.1277 11.9432C11.4967 12.0671 11.8813 12.1291 12.2709 12.1291C12.4799 12.1291 12.689 12.1111 12.8928 12.0723L12.9032 12.1291Z" fill="#CCD1D9"/>
        <path d="M11.2749 9.4425C11.3678 9.53549 11.4246 9.66453 11.4246 9.80641C11.4246 10.0903 11.1949 10.3225 10.9085 10.3225H10.3872L10.6659 9.29028H10.9085C11.0504 9.29028 11.1794 9.34711 11.2749 9.4425Z" fill="#CCD1D9"/>
        <path d="M9.16121 9.30578L8.88765 10.3225H8.0696C7.78571 10.3225 7.52764 10.4387 7.33926 10.6245L7.29541 10.5806L8.28382 9.5922C8.47737 9.39865 8.7406 9.29028 9.01416 9.29028H9.10186L9.16121 9.30578Z" fill="#E6E9ED"/>
        <path d="M9.50474 8.03868L9.1615 9.30582L9.10215 9.29032H9.01444C8.74088 9.29032 8.47765 9.39869 8.2841 9.59224L7.29569 10.5806L6.94212 10.9367C6.83891 11.0399 6.69955 11.0968 6.55502 11.0968C6.4028 11.0968 6.26596 11.0348 6.1654 10.9367C6.06724 10.8387 6.00537 10.6993 6.00537 10.5496C6.00537 10.4051 6.06472 10.2658 6.16792 10.1626L8.02604 8.30192C8.21958 8.10837 8.48282 8 8.75638 8H9.36021L9.50474 8.03868Z" fill="#F0D0B4"/>
        <path d="M9.54828 7.74193V1.80644H3.61279V0.258057H12.9031V8.77419L12.8851 8.80002L11.9431 8.17287C11.7753 8.05934 11.5741 7.99999 11.3702 7.99999H11.0141L11.5121 6.16002L11.7883 5.13293L12.1754 3.7006C12.1909 3.64125 12.1986 3.5819 12.1986 3.52255C12.1986 3.14578 11.894 2.8387 11.5173 2.8387H11.4321C11.125 2.8387 10.8541 3.0451 10.7741 3.3445L10.4153 4.67615L10.1366 5.7006L9.5818 7.75226L9.54828 7.74193Z" fill="#CCD1D9"/>
        <path d="M9.54862 7.74188L9.58214 7.75221L9.50477 8.03863L9.36024 7.99994H8.75641C8.48285 7.99994 8.21962 8.10831 8.02607 8.30186L6.16795 10.1625C6.06475 10.2657 6.0054 10.4051 6.0054 10.5496C6.0054 10.6993 6.06727 10.8387 6.16543 10.9367C6.26599 11.0347 6.40283 11.0967 6.55505 11.0967C6.69958 11.0967 6.83895 11.0399 6.94215 10.9367L7.29573 10.5806L7.33958 10.6244C7.15384 10.8128 7.03766 11.0709 7.03766 11.3548C7.03766 11.4967 7.15384 11.6128 7.29573 11.6128H8.53955L8.35382 12.2993C8.33832 12.3587 8.32798 12.418 8.32798 12.4774C8.32798 12.8542 8.63507 13.1612 9.01183 13.1612H9.09701C9.26737 13.1612 9.42728 13.0967 9.54862 12.9884V15.7419H0.258301V1.8064H9.54862V7.74188Z" fill="#E6E9ED"/>
        <path d="M1.29053 2.83862H7.48408V4.90314H1.29053V2.83862Z" fill="#B4DD7F"/>
        <path d="M3.09698 11.3547H3.87117V13.9354H1.29053V11.3547H3.09698Z" fill="#FF826E"/>
        <path d="M3.09698 6.96777H3.87117V9.54842H1.29053V6.96777H3.09698Z" fill="#FF826E"/>
        <path d="M12.1988 3.52247C12.1988 3.58182 12.1911 3.64117 12.1756 3.70052L11.7885 5.13285L10.4155 4.67607L10.7743 3.34442C10.8543 3.04502 11.1252 2.83862 11.4323 2.83862H11.5175C11.8942 2.83862 12.1988 3.1457 12.1988 3.52247Z" fill="#FFEAA7"/>
        <path d="M11.7884 5.13305L11.5122 6.16014L10.1367 5.70072L10.4154 4.67627L11.7884 5.13305Z" fill="#E6E9ED"/>
        <path d="M9.54828 12.9883C9.42693 13.0967 9.26703 13.1612 9.09666 13.1612H9.01148C8.63472 13.1612 8.32764 12.8541 8.32764 12.4773C8.32764 12.418 8.33797 12.3586 8.35347 12.2993L8.5392 11.6128H9.54828C9.71083 11.6128 9.87086 11.6231 10.0309 11.6463L9.75468 12.6554C9.71864 12.7869 9.64631 12.9031 9.54828 12.9883Z" fill="#FCD770"/>
        <path d="M11.0142 8.00008L10.3871 10.3227H8.8877L9.16126 9.3059L9.5045 8.03876L9.58187 7.75235L10.1367 5.70068L11.5122 6.16011L11.0142 8.00008Z" fill="#FCD770"/>
        <path d="M10.0312 11.6464C9.87114 11.6232 9.71111 11.6129 9.54856 11.6129H7.29566C7.15378 11.6129 7.0376 11.4967 7.0376 11.3548C7.0376 11.0709 7.15378 10.8129 7.33951 10.6245C7.5279 10.4388 7.78596 10.3226 8.06986 10.3226H10.9086C11.195 10.3226 11.4247 10.0903 11.4247 9.80645C11.4247 9.66457 11.3679 9.53553 11.275 9.44254C11.1795 9.34715 11.0505 9.29032 10.9086 9.29032H10.666L11.0144 8H11.3705C11.5744 8 11.7756 8.05935 11.9433 8.17288L12.8854 8.80003L13.7473 9.3755C13.915 9.48904 14.1164 9.54839 14.3202 9.54839H16.0002V11.6129H15.226C14.9292 11.6129 14.635 11.6491 14.3486 11.7213L13.1486 12.0207C13.0634 12.0413 12.9782 12.0593 12.8931 12.0722C12.6892 12.111 12.4801 12.129 12.2711 12.129C11.8815 12.129 11.4969 12.067 11.1279 11.9432L10.6918 11.7988C10.475 11.7264 10.2557 11.6749 10.0312 11.6464Z" fill="#F0D0B4"/>
        <path d="M11.3711 8.25806C11.5244 8.25806 11.6728 8.30292 11.8005 8.3881L13.6028 9.58972C13.8158 9.73135 14.0633 9.80645 14.3187 9.80645H16V9.29032H14.3189C14.1657 9.29032 14.017 9.24546 13.8892 9.16028L13.1613 8.6749V0H3.35484V1.54839H0V16H9.80645V14.4516H13.1613V12.2805C13.1775 12.2766 13.1943 12.2753 13.2106 12.2712L14.4108 11.9711C14.6774 11.9047 14.9515 11.871 15.2258 11.871H16V11.3548H15.2258C14.9094 11.3548 14.593 11.3938 14.2859 11.4705L13.0854 11.7705C12.4681 11.9249 11.8119 11.8996 11.2085 11.6986L10.7737 11.5536C10.378 11.4216 9.96573 11.3548 9.54839 11.3548H7.2965C7.2965 10.928 7.6439 10.5806 8.07069 10.5806H10.9094C11.3363 10.5806 11.6836 10.2332 11.6836 9.80645C11.6836 9.41053 11.3837 9.08695 11 9.04133L11.2118 8.25806H11.3711ZM11.0451 12.1881C11.441 12.3203 11.8535 12.3871 12.2707 12.3871C12.3959 12.3871 12.5208 12.3763 12.6452 12.3642V13.9355H9.80645V13.0914C9.89705 12.9869 9.96724 12.8633 10.0049 12.7234L10.2162 11.9406C10.3492 11.9677 10.481 12 10.6104 12.0433L11.0451 12.1881ZM9.69909 11.8769L9.5068 12.5886C9.45678 12.7739 9.2878 12.9032 9.09602 12.9032H9.01235C8.77785 12.9032 8.58707 12.7126 8.58707 12.4779C8.58707 12.4403 8.59199 12.4031 8.60181 12.3669L8.73576 11.871H9.54839C9.59866 11.871 9.64882 11.8749 9.69909 11.8769ZM8.20098 11.871L8.10345 12.232C8.08178 12.312 8.07094 12.3945 8.07094 12.4779C8.07094 12.8269 8.26399 13.1285 8.54662 13.2911L8.4656 13.6147L8.96623 13.7399L9.0465 13.4194H9.09602C9.16255 13.4194 9.22707 13.41 9.29032 13.3967V15.4839H0.516129V2.06452H3.87097V0.516129H12.6452V8.3309L12.0869 7.95867C11.8741 7.81704 11.6266 7.74194 11.3711 7.74194H11.3512L12.4253 3.76802C12.4469 3.688 12.4578 3.60547 12.4578 3.52205C12.4578 3.0029 12.0354 2.58065 11.5164 2.58065H11.4327C11.0083 2.58065 10.6346 2.86681 10.5238 3.27659L9.80645 5.93107V1.54839H4.3871V2.06452H9.29032V7.74194H8.75668C8.47555 7.74194 8.21106 7.83506 7.98992 8H5.41935V8.51613H7.44771L6.93158 9.03226H5.41935V9.54839H6.4157L5.9845 9.97959C5.83228 10.1316 5.74836 10.3339 5.74836 10.5494C5.74836 10.9936 6.10963 11.3548 6.55406 11.3548C6.63357 11.3548 6.71018 11.3396 6.78453 11.3174C6.78427 11.33 6.78062 11.342 6.78062 11.3548C6.78062 11.6395 7.0121 11.871 7.29675 11.871H8.20098ZM10.1889 10.0645H9.22404L10.3138 6.03251L11.199 6.32749L10.1889 10.0645ZM8.20905 8.48463C8.35509 8.33858 8.54965 8.25806 8.75668 8.25806H9.17755L8.96699 9.03692C8.64025 9.04877 8.33442 9.1778 8.10219 9.41003L6.75844 10.7538C6.70451 10.8077 6.62991 10.8387 6.55381 10.8387C6.39403 10.8387 6.26424 10.7089 6.26424 10.5494C6.26424 10.472 6.29448 10.3994 6.34917 10.3448L8.20905 8.48463ZM8.46711 9.77495C8.56641 9.67566 8.68876 9.6095 8.82145 9.57548L8.68926 10.0645H8.1778L8.46711 9.77495ZM11.9269 3.63332L11.6109 4.80255L10.7257 4.50756L11.0219 3.41142C11.0722 3.22606 11.2411 3.09677 11.4327 3.09677H11.5164C11.751 3.09677 11.9417 3.28742 11.9417 3.52205C11.9417 3.55973 11.9367 3.5969 11.9269 3.63332ZM10.591 5.00668L11.4762 5.30166L11.3337 5.82838L10.4485 5.53339L10.591 5.00668ZM10.9094 9.54839C11.0517 9.54839 11.1675 9.66431 11.1675 9.80645C11.1675 9.94859 11.0517 10.0645 10.9094 10.0645H10.7234L10.863 9.54839H10.9094Z" fill="black"/>
        <path d="M7.7419 2.58057H1.03223V5.16121H7.7419V2.58057ZM7.22577 4.64508H1.54836V3.0967H7.22577V4.64508Z" fill="black"/>
        <path d="M2.06445 3.61279H2.58058V4.12892H2.06445V3.61279Z" fill="black"/>
        <path d="M3.09668 3.61279H3.61281V4.12892H3.09668V3.61279Z" fill="black"/>
        <path d="M4.12891 3.61279H4.64504V4.12892H4.12891V3.61279Z" fill="black"/>
        <path d="M5.16113 3.61279H5.67726V4.12892H5.16113V3.61279Z" fill="black"/>
        <path d="M6.19336 3.61279H6.70949V4.12892H6.19336V3.61279Z" fill="black"/>
        <path d="M4.129 8.2581H3.61287V9.29036H1.54836V7.22585H3.09674V6.70972H1.03223V9.80649H4.129V8.2581Z" fill="black"/>
        <path d="M4.97861 5.75293L2.58042 8.15112L2.24676 7.81745L1.88184 8.18237L2.58042 8.88095L5.34353 6.11785L4.97861 5.75293Z" fill="black"/>
        <path d="M3.61287 13.6773H1.54836V11.6128H3.09674V11.0967H1.03223V14.1935H4.129V12.6451H3.61287V13.6773Z" fill="black"/>
        <path d="M2.24676 12.2047L1.88184 12.5696L2.58042 13.2682L5.34353 10.5051L4.97861 10.1401L2.58042 12.5383L2.24676 12.2047Z" fill="black"/>
        <path d="M8.2583 14.1936H8.77443V14.7097H8.2583V14.1936Z" fill="black"/>
        <path d="M4.90332 14.1936H7.74203V14.7097H4.90332V14.1936Z" fill="black"/>
        <path d="M5.41943 6.96777H8.77427V7.4839H5.41943V6.96777Z" fill="black"/>
    </g>
    <defs>
        <clipPath id="clip0">
            <rect width="16" height="16" fill="white"/>
        </clipPath>
    </defs>
</svg>
