<svg width="16" height="16" viewBox="0 0 16 16" fill="none" xmlns="http://www.w3.org/2000/svg">
    <g clip-path="url(#clip0)">
        <path d="M8.13541 4.59375L6.73697 3.19531V1.5625C6.73697 0.872156 6.17731 0.3125 5.48697 0.3125H1.5625C0.872156 0.3125 0.3125 0.872156 0.3125 1.5625V4.3125C0.3125 5.00284 0.872156 5.5625 1.5625 5.5625H5.48697C6.08056 5.5625 6.57716 5.14859 6.70481 4.59375H8.13541Z" fill="#A5DDFF"/>
        <path d="M7.86475 11.4062L9.26318 12.8047V14.4375C9.26318 15.1278 9.82284 15.6875 10.5132 15.6875H14.4376C15.128 15.6875 15.6876 15.1278 15.6876 14.4375V11.6875C15.6876 10.9972 15.128 10.4375 14.4376 10.4375H10.5132C9.91959 10.4375 9.42299 10.8514 9.29534 11.4062H7.86475Z" fill="#BAEE83"/>
        <path d="M5.41488 11.7632H2.90156C1.47166 11.7632 0.3125 12.9223 0.3125 14.3522V15.6874H8.00397V14.3522C8.00397 12.9223 6.84481 11.7632 5.41488 11.7632Z" fill="#FFBC53"/>
        <path d="M5.59284 11.7632L4.15822 13.1978L2.72363 11.7632H5.59284Z" fill="white"/>
        <path d="M3.75453 7.25293H5.85056V8.29311C5.85056 8.83261 5.41318 9.26998 4.87368 9.26998H2.46631V8.54117C2.46631 7.82971 3.04306 7.25293 3.75453 7.25293Z" fill="#5CC1FF"/>
        <path d="M5.85008 9.27002V10.0711C5.85008 11.0057 5.09248 11.7633 4.15795 11.7633C3.22342 11.7633 2.46582 11.0057 2.46582 10.0711V9.27002H5.85008Z" fill="#FFCDAC"/>
        <path d="M13.0985 4.82275H10.5852C9.15525 4.82275 7.99609 5.98191 7.99609 7.41181V8.74693H15.6875V7.41184C15.6875 5.98194 14.5284 4.82275 13.0985 4.82275Z" fill="#5CC1FF"/>
        <path d="M13.2764 4.82275L11.8419 6.25738L10.4072 4.82275H13.2764Z" fill="white"/>
        <path d="M11.4376 0.3125H13.5337V1.35269C13.5337 1.89219 13.0963 2.32956 12.5568 2.32956H10.1494V1.60072C10.1494 0.88925 10.7262 0.3125 11.4376 0.3125Z" fill="#FFC870"/>
        <path d="M13.5337 2.32959V3.13072C13.5337 4.06525 12.7761 4.82285 11.8415 4.82285C10.907 4.82285 10.1494 4.06525 10.1494 3.13072V2.32959H13.5337Z" fill="#FFCDAC"/>
        <path d="M5.67875 11.4628C5.65616 11.4564 5.63303 11.4528 5.60975 11.4515C5.95206 11.0917 6.16288 10.6057 6.16288 10.0711V8.42699C6.16288 8.41196 6.16144 8.3973 6.15941 8.38287C6.16147 8.35318 6.16288 8.3233 6.16288 8.29312V7.25293C6.16288 7.08034 6.02297 6.94043 5.85038 6.94043H3.75434C2.87169 6.94043 2.15363 7.65852 2.15363 8.54115V10.0711C2.15363 10.6057 2.36441 11.0917 2.70675 11.4515C2.6835 11.4528 2.66038 11.4564 2.63781 11.4628C1.16103 11.5966 0 12.8413 0 14.3523V15.6874C0 15.86 0.139906 15.9999 0.3125 15.9999H8.00397C8.17656 15.9999 8.31647 15.86 8.31647 15.6874V14.3523C8.31647 12.8413 7.1555 11.5966 5.67875 11.4628ZM2.77863 9.58246H4.8735C5.11637 9.58246 5.34372 9.5149 5.53788 9.39765V10.0711C5.53788 10.8318 4.91897 11.4507 4.15825 11.4507C3.39753 11.4507 2.77863 10.8318 2.77863 10.0711V9.58246ZM4.83841 12.0757L4.15825 12.7559L3.47809 12.0757H4.83841ZM2.77863 8.54112C2.77863 8.00312 3.21634 7.5654 3.75434 7.5654H5.53788V8.29309C5.53788 8.65943 5.23984 8.95746 4.8735 8.95746H2.77863V8.93743V8.54112ZM7.69147 15.3749H0.625V14.7499H1.92188C2.09447 14.7499 2.23438 14.61 2.23438 14.4374C2.23438 14.2648 2.09447 14.1249 1.92188 14.1249H0.636406C0.741375 13.0713 1.56784 12.2275 2.61313 12.0946L3.93728 13.4188C3.99587 13.4774 4.07538 13.5103 4.15825 13.5103C4.24112 13.5103 4.32062 13.4774 4.37922 13.4188L5.70337 12.0946C6.82288 12.2369 7.6915 13.1947 7.6915 14.3523V15.3749H7.69147Z" fill="black"/>
        <path d="M13.3624 4.52244C13.3398 4.516 13.3167 4.51237 13.2934 4.51113C13.6357 4.15134 13.8465 3.66531 13.8465 3.13069V1.48656C13.8465 1.47153 13.845 1.45688 13.843 1.44244C13.8451 1.41275 13.8465 1.38287 13.8465 1.35269V0.3125C13.8465 0.139906 13.7066 0 13.534 0H11.4379C10.5553 0 9.83722 0.718094 9.83722 1.60072V3.13066C9.83722 3.66528 10.048 4.15131 10.3903 4.51109C10.367 4.51234 10.3438 4.51597 10.3213 4.52241C8.84453 4.65619 7.68359 5.90091 7.68359 7.41184V8.74694C7.68359 8.91953 7.8235 9.05944 7.99609 9.05944H10.5105C10.6831 9.05944 10.823 8.91953 10.823 8.74694C10.823 8.57434 10.6831 8.43444 10.5105 8.43444H8.30859V7.41187C8.30859 6.25434 9.17719 5.2965 10.2967 5.15422L11.6208 6.47837C11.6819 6.53941 11.7618 6.56991 11.8418 6.56991C11.9218 6.56991 12.0018 6.53941 12.0628 6.47837L13.3869 5.15422C14.5065 5.29653 15.3751 6.25434 15.3751 7.41187V8.43447H13.073C12.9004 8.43447 12.7605 8.57438 12.7605 8.74697C12.7605 8.91956 12.9004 9.05947 13.073 9.05947H15.6876C15.8602 9.05947 16.0001 8.91956 16.0001 8.74697V7.41187C16.0001 5.90094 14.8391 4.65622 13.3624 4.52244ZM10.4623 3.13069V2.64206H12.5571C12.8 2.64206 13.0273 2.57447 13.2215 2.45725V3.13066C13.2215 3.89138 12.6026 4.51028 11.8419 4.51028C11.0812 4.51028 10.4623 3.89141 10.4623 3.13069ZM10.4623 1.60072C10.4623 1.06272 10.9 0.625 11.438 0.625H13.2215V1.35269C13.2215 1.71903 12.9235 2.01706 12.5571 2.01706H10.4623V1.99703V1.60072ZM11.8419 5.81547L11.1617 5.13531H12.522L11.8419 5.81547Z" fill="black"/>
        <path d="M12.0627 8.96776C12.1209 8.90964 12.1543 8.82933 12.1543 8.74683C12.1543 8.66464 12.1209 8.58401 12.0627 8.52589C12.0046 8.46776 11.924 8.43433 11.8418 8.43433C11.7593 8.43433 11.679 8.46776 11.6209 8.52589C11.5624 8.58401 11.5293 8.66464 11.5293 8.74683C11.5293 8.82933 11.5624 8.90964 11.6209 8.96776C11.679 9.0262 11.7593 9.05933 11.8418 9.05933C11.924 9.05933 12.0046 9.0262 12.0627 8.96776Z" fill="black"/>
        <path d="M1.5625 5.875H5.48697C6.13303 5.875 6.69641 5.48728 6.93278 4.90625H8.13541C8.26178 4.90625 8.37575 4.83009 8.42412 4.71334C8.4725 4.59659 8.44575 4.46216 8.35641 4.37278L7.0495 3.06588V1.5625C7.0495 0.700938 6.34856 0 5.487 0H1.5625C0.700938 0 0 0.700938 0 1.5625V4.3125C0 5.17406 0.700938 5.875 1.5625 5.875ZM0.625 1.5625C0.625 1.04556 1.04556 0.625 1.5625 0.625H5.48697C6.00391 0.625 6.42447 1.04556 6.42447 1.5625V3.19531C6.42447 3.27819 6.45741 3.35769 6.516 3.41628L7.38097 4.28125H6.70481C6.55922 4.28125 6.43291 4.38178 6.40025 4.52369C6.30188 4.95131 5.92634 5.25 5.48697 5.25H1.5625C1.04556 5.25 0.625 4.82944 0.625 4.3125V1.5625Z" fill="black"/>
        <path d="M14.4377 10.125H10.5132C9.86714 10.125 9.30376 10.5127 9.06739 11.0938H7.86476C7.73839 11.0938 7.62442 11.1699 7.57604 11.2867C7.52767 11.4034 7.55442 11.5378 7.64376 11.6272L8.95067 12.9341V14.4375C8.95067 15.2991 9.65161 16 10.5132 16H14.4377C15.2992 16 16.0002 15.2991 16.0002 14.4375V11.6875C16.0002 10.8259 15.2992 10.125 14.4377 10.125ZM15.3752 14.4375C15.3752 14.9544 14.9546 15.375 14.4377 15.375H10.5132C9.99626 15.375 9.5757 14.9544 9.5757 14.4375V12.8047C9.5757 12.7218 9.54276 12.6423 9.48417 12.5837L8.6192 11.7188H9.29536C9.44095 11.7188 9.56726 11.6182 9.59992 11.4763C9.69829 11.0487 10.0738 10.75 10.5132 10.75H14.4377C14.9546 10.75 15.3752 11.1706 15.3752 11.6875V14.4375Z" fill="black"/>
        <path d="M13.438 12.2309L12.6073 13.0617L12.221 12.6754C12.099 12.5533 11.9011 12.5533 11.779 12.6754C11.657 12.7974 11.657 12.9953 11.779 13.1173L12.3863 13.7246C12.4473 13.7856 12.5273 13.8161 12.6072 13.8161C12.6872 13.8161 12.7672 13.7856 12.8282 13.7246L13.8799 12.6729C14.0019 12.5509 14.0019 12.353 13.8799 12.2309C13.7579 12.1089 13.56 12.1089 13.438 12.2309Z" fill="black"/>
        <path d="M3.09378 2.45955C3.26638 2.45955 3.40628 2.31964 3.40628 2.14705C3.40628 2.01858 3.45803 1.89952 3.55203 1.81177C3.64588 1.72414 3.76885 1.68064 3.89794 1.68971C4.12416 1.7053 4.3065 1.88764 4.3221 2.11386C4.33788 2.34258 4.18794 2.54471 3.9656 2.59446C3.72222 2.64889 3.55225 2.86049 3.55225 3.10899V3.27571C3.55225 3.4483 3.69216 3.58821 3.86475 3.58821C4.03735 3.58821 4.17725 3.4483 4.17725 3.27571V3.18477C4.66144 3.04033 4.98098 2.58386 4.9456 2.07086C4.90866 1.53502 4.47672 1.10308 3.94088 1.06614C3.63703 1.04524 3.34741 1.14774 3.12553 1.35486C2.90675 1.55908 2.78125 1.84783 2.78125 2.14702C2.78128 2.31964 2.92119 2.45955 3.09378 2.45955Z" fill="black"/>
        <path d="M3.86475 4.15918C3.78225 4.15918 3.70193 4.19262 3.64381 4.25074C3.58537 4.30887 3.55225 4.38949 3.55225 4.47168C3.55225 4.55387 3.58537 4.63449 3.64381 4.69262C3.70193 4.75074 3.78225 4.78418 3.86475 4.78418C3.94693 4.78418 4.02756 4.75074 4.08568 4.69262C4.14381 4.63449 4.17725 4.55387 4.17725 4.47168C4.17725 4.38949 4.14381 4.30887 4.08568 4.25074C4.02756 4.19262 3.94693 4.15918 3.86475 4.15918Z" fill="black"/>
        <path d="M3.17188 14.125C3.08969 14.125 3.00906 14.1584 2.95094 14.2166C2.89281 14.2747 2.85938 14.3553 2.85938 14.4375C2.85938 14.5197 2.89281 14.6003 2.95094 14.6584C3.00906 14.7166 3.08969 14.75 3.17188 14.75C3.25406 14.75 3.33469 14.7166 3.39281 14.6584C3.45094 14.6003 3.48438 14.5197 3.48438 14.4375C3.48438 14.3553 3.45094 14.2747 3.39281 14.2166C3.33469 14.1584 3.25406 14.125 3.17188 14.125Z" fill="black"/>
    </g>
    <defs>
        <clipPath id="clip0">
            <rect width="16" height="16" fill="white"/>
        </clipPath>
    </defs>
</svg>
