<svg width="53" height="52" viewBox="0 0 53 52" fill="none" xmlns="http://www.w3.org/2000/svg">
<path d="M50.7986 6.72482H23.8122C22.8807 6.72482 22.1255 7.47753 22.1255 8.40605V13.4496H15.9439C17.0257 12.0226 17.6277 10.2721 17.6277 8.40605C17.6278 3.77089 13.8446 0 9.19447 0C4.54436 0 0.76123 3.77089 0.76123 8.40595C0.76123 11.0908 2.00685 13.5364 4.13451 15.1218V49.8755C4.13451 50.804 4.88966 51.5568 5.8212 51.5568H12.5678C13.4993 51.5568 14.2545 50.8041 14.2545 49.8755V40.3487C14.286 40.3487 37.3057 40.3487 37.3057 40.3487C38.2334 40.3485 38.9921 39.5964 38.9921 38.6675V33.6239H50.7987C51.7301 33.6239 52.4854 32.8712 52.4854 31.9427V8.40595C52.4853 7.47753 51.7301 6.72482 50.7986 6.72482ZM10.8812 38.6675V48.1943H7.50788V16.6418C8.61692 16.8701 9.80273 16.8637 10.8812 16.6418V38.6675ZM9.19447 13.4495C6.50422 13.4495 4.13451 11.2771 4.13451 8.40595C4.13451 5.62491 6.4044 3.36236 9.19447 3.36236C11.9845 3.36236 14.2544 5.62491 14.2544 8.40595C14.2544 11.2734 11.8875 13.4495 9.19447 13.4495ZM14.2544 36.9863V16.812H22.1255V31.9428C22.1255 32.5714 22.4834 33.16 23.0578 33.4466L30.1606 36.9864H14.2544V36.9863ZM35.6187 35.9472L30.9569 33.6239H35.6187V35.9472ZM49.112 30.2615H37.3054H25.4989V15.1308V10.0872H49.112V30.2615Z" fill="#2BBCEE"/>
</svg>
