<svg width="30" height="30" viewBox="0 0 30 30" fill="none" xmlns="http://www.w3.org/2000/svg">
    <g clip-path="url(#clip0)">
        <path d="M15.2881 15.8276C15.2881 18.9881 13.2143 21.6646 10.353 22.5694C9.67979 22.7824 8.96277 22.8974 8.21831 22.8974C6.52525 22.8974 4.97099 22.3014 3.75371 21.3083L0.739441 21.8962L1.92483 19.0512C1.42901 18.0841 1.14918 16.9885 1.14918 15.8276C1.14918 12.6137 3.29423 9.90082 6.2306 9.04205C6.77687 8.88167 7.35065 8.7867 7.94299 8.7637C8.03429 8.76003 8.1263 8.75854 8.21838 8.75854C11.8316 8.75854 14.811 11.4677 15.2356 14.9652C15.2704 15.2479 15.2881 15.5359 15.2881 15.8276Z" fill="#29ABE2"/>
        <path d="M6.97758 17.4071C6.97758 16.9994 7.04411 16.6331 7.17733 16.3086C7.31033 15.984 7.58495 15.7011 8.00117 15.4597C8.12599 15.3848 8.27988 15.2996 8.46305 15.2038C8.64601 15.1082 8.82502 14.9937 8.99979 14.8605C9.17457 14.7275 9.32225 14.5714 9.44297 14.3924C9.56349 14.2135 9.62396 14.0076 9.62396 13.7745C9.62396 13.5997 9.59058 13.4458 9.52411 13.3126C9.45744 13.1796 9.37001 13.0672 9.26199 12.9756C9.15368 12.8841 9.02675 12.8154 8.88118 12.7696C8.73548 12.7239 8.5878 12.7009 8.43807 12.7009C8.2549 12.7009 8.08845 12.7321 7.93866 12.7945C7.78886 12.8569 7.65353 12.9361 7.53295 13.0317C7.41222 13.1274 7.30398 13.2357 7.20838 13.3563C7.11263 13.477 7.03148 13.5915 6.96495 13.6995L5.87891 12.9505C5.98693 12.6927 6.13059 12.4637 6.3096 12.264C6.48846 12.0643 6.69224 11.8958 6.9212 11.7585C7.15002 11.6212 7.39754 11.5172 7.66397 11.4465C7.93019 11.3758 8.20488 11.3403 8.48782 11.3403C8.80399 11.3403 9.11607 11.3862 9.42413 11.4776C9.73191 11.5693 10.0086 11.7149 10.2543 11.9145C10.4996 12.1143 10.6993 12.3702 10.8534 12.6822C11.0073 12.9943 11.0844 13.3668 11.0844 13.7994C11.0844 14.0659 11.0532 14.3009 10.9908 14.5047C10.9284 14.7087 10.8388 14.8938 10.7224 15.0602C10.6058 15.2268 10.4684 15.3766 10.3105 15.5096C10.1524 15.6428 9.97343 15.7717 9.77375 15.8965C9.60723 15.9964 9.44078 16.0922 9.27441 16.1836C9.10782 16.2753 8.95605 16.3771 8.81874 16.4895C8.68143 16.6018 8.5691 16.7309 8.48168 16.8764C8.39433 17.0221 8.35065 17.1991 8.35065 17.407L6.97758 17.4071ZM7.00263 20.3156V18.593H8.38819V20.3156H7.00263Z" fill="white"/>
        <path d="M10.0685 26.8807L10.8375 28.5044L17.1391 24.0403L15.6454 22.9275L10.0685 26.8807Z" fill="#D6B71D"/>
        <path d="M26.141 10.8081L22.1879 16.3845L23.3007 17.8787L27.7648 11.5771L26.141 10.8081Z" fill="#D6B71D"/>
        <path d="M10.8375 28.5044L14.4697 30.0001C17.971 28.8515 21.0942 26.9045 23.6293 24.3689C26.1649 21.8338 28.112 18.7101 29.2605 15.2094L27.7648 11.5771L23.3007 17.8787L24.7863 18.3411C23.9354 19.841 22.8888 21.2119 21.6803 22.42C20.4717 23.6285 19.1014 24.6746 17.6014 25.526L17.1391 24.0403L10.8375 28.5044Z" fill="#F9DE58"/>
        <path d="M8.21832 8.75854C8.12624 8.75854 8.03423 8.76003 7.94293 8.7637C8.05646 9.69535 8.35111 10.5709 8.79069 11.3545C9.00385 11.3745 9.21503 11.4156 9.42438 11.4777C9.73216 11.5694 10.0089 11.715 10.2545 11.9146C10.4998 12.1144 10.6996 12.3703 10.8537 12.6823C11.0076 12.9944 11.0846 13.3669 11.0846 13.7995C11.0846 13.8044 11.0846 13.8092 11.0846 13.814C11.619 14.165 12.2041 14.4455 12.8262 14.6422C13.4994 14.8552 14.2165 14.9703 14.9609 14.9703C15.053 14.9703 15.1443 14.9688 15.2356 14.9651C14.811 11.4677 11.8316 8.75854 8.21832 8.75854Z" fill="#3098C4"/>
        <path d="M8.79065 11.3545C9.34743 12.3469 10.1366 13.1915 11.0845 13.8141C11.0845 13.8093 11.0845 13.8044 11.0845 13.7996C11.0845 13.367 11.0075 12.9945 10.8536 12.6824C10.6995 12.3703 10.4998 12.1144 10.2544 11.9147C10.0088 11.715 9.73204 11.5695 9.42426 11.4778C9.21513 11.4155 9.00381 11.3745 8.79065 11.3545Z" fill="#DBDBDB"/>
        <path d="M8.99268 7.06913C8.99268 10.2296 11.0665 12.9062 13.9278 13.8109C14.601 14.024 15.318 14.139 16.0625 14.139C17.7556 14.139 19.3098 13.543 20.5271 12.5499L23.5414 13.1377L22.356 10.2927C22.8518 9.32553 23.1316 8.22997 23.1316 7.06913C23.1316 3.85519 20.9866 1.14227 18.0502 0.283505C17.4195 0.0987116 16.7529 0 16.0626 0C12.1577 0 8.99268 3.16491 8.99268 7.06913Z" fill="#FC7A51"/>
        <path d="M13.5307 6.48514C12.623 6.48514 11.8846 5.74667 11.8846 4.83901C11.8846 3.93127 12.623 3.19287 13.5307 3.19287C14.4384 3.19287 15.1769 3.93134 15.1769 4.83901C15.177 5.74667 14.4384 6.48514 13.5307 6.48514ZM13.5307 3.89345C13.0094 3.89345 12.5852 4.31765 12.5852 4.83901C12.5852 5.36036 13.0094 5.78456 13.5307 5.78456C14.0521 5.78456 14.4763 5.36043 14.4763 4.83901C14.4763 4.31758 14.0521 3.89345 13.5307 3.89345Z" fill="white"/>
        <path d="M18.5936 10.9453C17.6859 10.9453 16.9474 10.2069 16.9474 9.29921C16.9474 8.39147 17.6859 7.65308 18.5936 7.65308C19.5013 7.65308 20.2398 8.39154 20.2398 9.29921C20.2398 10.2069 19.5013 10.9453 18.5936 10.9453ZM18.5936 8.35365C18.0722 8.35365 17.648 8.77785 17.648 9.29921C17.648 9.82057 18.0722 10.2448 18.5936 10.2448C19.1149 10.2448 19.5391 9.82064 19.5391 9.29921C19.5392 8.77778 19.115 8.35365 18.5936 8.35365Z" fill="white"/>
        <path d="M14.9055 11.0992L15.5927 11.2356L17.2199 3.0379L16.5327 2.90149L14.9055 11.0992Z" fill="white"/>
    </g>
    <defs>
        <clipPath id="clip0">
            <rect width="30" height="30" fill="white"/>
        </clipPath>
    </defs>
</svg>
